M48
; DRILL file {KiCad (6.0.2)} date Tue Mar 15 14:17:57 2022
; FORMAT={-:-/ absolute / inch / decimal}
; #@! TF.CreationDate,2022-03-15T14:17:57+03:00
; #@! TF.GenerationSoftware,Kicad,Pcbnew,(6.0.2)
; #@! TF.FileFunction,Plated,1,2,PTH
FMAT,2
INCH
; #@! TA.AperFunction,Plated,PTH,ViaDrill
T1C0.0157
; #@! TA.AperFunction,Plated,PTH,ComponentDrill
T2C0.0197
; #@! TA.AperFunction,Plated,PTH,ComponentDrill
T3C0.0300
; #@! TA.AperFunction,Plated,PTH,ComponentDrill
T4C0.0315
; #@! TA.AperFunction,Plated,PTH,ComponentDrill
T5C0.0354
; #@! TA.AperFunction,Plated,PTH,ComponentDrill
T6C0.0394
; #@! TA.AperFunction,Plated,PTH,ComponentDrill
T7C0.1693
%
G90
G05
T1
X4.0472Y-3.4488
X4.0472Y-3.7244
X4.1263Y-4.4404
X4.151Y-4.3113
X4.1654Y-4.1732
X4.189Y-3.4488
X4.1969Y-3.7323
X4.2126Y-2.7717
X4.2205Y-2.9291
X4.3071Y-4.0945
X4.4126Y-4.9827
X4.4126Y-5.0827
X4.4798Y-4.2796
X4.4987Y-4.4144
X4.5126Y-4.9827
X4.5126Y-5.0827
X4.6Y-4.5106
X4.6126Y-4.9827
X4.6126Y-5.0827
X4.6378Y-4.189
X4.7126Y-4.9827
X4.7126Y-5.0827
X4.9126Y-3.4827
X4.9126Y-3.5827
X4.9126Y-3.6827
X4.937Y-4.2992
X5.0126Y-3.4827
X5.0126Y-3.5827
X5.0126Y-3.6827
X5.0866Y-4.3858
X5.1811Y-5.0315
X5.2126Y-4.3858
X5.3126Y-3.4827
X5.3126Y-3.5827
X5.3126Y-3.6827
X5.4126Y-3.4827
X5.4126Y-3.5827
X5.4126Y-3.6827
X5.5827Y-5.0315
X5.7131Y-4.5812
X5.9764Y-4.874
X5.9764Y-5.0394
X5.9921Y-4.3937
X6.0126Y-2.7827
X6.0126Y-2.8827
X6.0787Y-4.5748
X6.0945Y-4.2992
X6.1126Y-2.7827
X6.1126Y-2.8827
X6.2126Y-2.7827
X6.2126Y-2.8827
X6.2441Y-4.3228
X6.3126Y-2.7827
X6.3126Y-2.8827
X6.3622Y-4.8898
X6.4126Y-2.7827
X6.4126Y-2.8827
X6.4283Y-4.1179
X6.4646Y-5.0394
X6.499Y-4.0472
X6.499Y-4.1886
X6.5126Y-2.7827
X6.5126Y-2.8827
X6.5197Y-3.3386
X6.5197Y-3.4386
X6.5197Y-3.5386
X6.5197Y-3.6386
X6.5197Y-3.7386
X6.5697Y-4.1179
X6.5697Y-4.2593
X6.6126Y-2.7827
X6.6126Y-2.8827
X6.6197Y-3.3386
X6.6197Y-3.4386
X6.6197Y-3.5386
X6.6197Y-3.6386
X6.6197Y-3.7386
X6.6404Y-4.1886
X6.6404Y-4.33
X6.685Y-5.0787
X6.7111Y-4.2593
X6.7165Y-4.9055
X6.7197Y-3.3386
X6.7197Y-3.4386
X6.7197Y-3.5386
X6.7197Y-3.6386
X6.7197Y-3.7386
X6.7197Y-3.8386
X6.7197Y-3.9386
X6.8197Y-3.3386
X6.8197Y-3.4386
X6.8197Y-3.5386
X6.8197Y-3.6386
X6.8197Y-3.7386
X6.8197Y-3.8386
X6.8197Y-3.9386
X6.8197Y-4.0386
X6.9197Y-3.3386
X6.9197Y-3.4386
X6.9197Y-3.5386
X6.9197Y-3.6386
X6.9197Y-3.7386
X6.9197Y-3.8386
X6.9197Y-3.9386
X6.9197Y-4.0386
X6.9449Y-4.5276
X6.9449Y-4.8268
X7.0945Y-3.3307
X7.1339Y-3.5276
T2
X4.0157Y-2.874
X4.0157Y-2.9232
X4.0157Y-2.9724
X4.0157Y-3.0217
X4.0157Y-3.0709
X4.0157Y-3.1201
X4.0157Y-3.1693
X4.0157Y-4.252
X4.0157Y-4.3012
X4.0157Y-4.3504
X4.0157Y-4.3996
X4.0157Y-4.4488
X4.0157Y-4.498
X4.0157Y-4.5472
X4.0157Y-4.5965
X4.0157Y-4.6457
X4.0157Y-4.6949
X4.0157Y-4.7441
X4.4094Y-4.7244
X4.4587Y-4.7244
X4.5079Y-4.7244
X4.5571Y-4.7244
X4.6063Y-4.7244
X4.6555Y-4.7244
X4.7047Y-4.7244
X6.4567Y-4.7244
X6.5059Y-4.7244
X6.5551Y-4.7244
X6.6043Y-4.7244
X6.6535Y-4.7244
X6.7028Y-4.7244
X6.752Y-4.7244
X7.2047Y-2.874
X7.2047Y-2.9232
X7.2047Y-2.9724
X7.2047Y-3.0217
X7.2047Y-3.0709
X7.2047Y-3.1201
X7.2047Y-3.1693
X7.2047Y-4.252
X7.2047Y-4.3012
X7.2047Y-4.3504
X7.2047Y-4.3996
X7.2047Y-4.4488
X7.2047Y-4.498
X7.2047Y-4.5472
X7.2047Y-4.5965
X7.2047Y-4.6457
X7.2047Y-4.6949
X7.2047Y-4.7441
T3
X4.4953Y-3.4524
X4.4953Y-3.5524
X4.4953Y-3.6524
X4.4953Y-3.7524
T4
X4.3453Y-3.3024
X4.3453Y-3.9024
X4.4453Y-3.3024
X4.4453Y-3.9024
X4.5453Y-3.3024
X4.5453Y-3.9024
X4.6453Y-3.3024
X4.6453Y-3.9024
X4.7453Y-3.3024
X4.7453Y-3.9024
X4.8453Y-3.3024
X4.8453Y-3.9024
X4.9453Y-3.3024
X4.9453Y-3.9024
X4.9764Y-4.7953
X4.9764Y-5.0953
X5.0453Y-3.3024
X5.0453Y-3.9024
X5.1453Y-3.3024
X5.1453Y-3.9024
X5.2453Y-3.3024
X5.2453Y-3.9024
X5.3453Y-3.3024
X5.3453Y-3.9024
X5.378Y-4.7953
X5.378Y-5.0953
X5.4453Y-3.3024
X5.4453Y-3.9024
X5.5453Y-3.3024
X5.5453Y-3.9024
X5.6453Y-3.3024
X5.6453Y-3.9024
X5.7453Y-3.3024
X5.7453Y-3.9024
X5.7795Y-4.7953
X5.7795Y-5.0953
X5.8453Y-3.3024
X5.8453Y-3.9024
X5.9453Y-3.3024
X5.9453Y-3.9024
X6.0453Y-3.3024
X6.0453Y-3.9024
X6.1453Y-3.3024
X6.1453Y-3.9024
X6.1811Y-4.7953
X6.1811Y-5.0953
X6.2453Y-3.3024
X6.2453Y-3.9024
T5
X4.9508Y-5.2756
X5.0508Y-5.2756
X5.3445Y-5.2756
X5.4445Y-5.2756
X5.7382Y-5.2756
X5.8382Y-5.2756
X6.1319Y-5.2756
X6.2319Y-5.2756
T6
X3.9307Y-5.1587
X3.9307Y-5.2587
X4.0307Y-5.1587
X4.0307Y-5.2587
X4.1307Y-5.1587
X4.1307Y-5.2587
X4.2307Y-5.1587
X4.2307Y-5.2587
X6.9236Y-5.1587
X6.9236Y-5.2587
X7.0236Y-5.1587
X7.0236Y-5.2587
X7.1236Y-5.1587
X7.1236Y-5.2587
X7.2236Y-5.1587
X7.2236Y-5.2587
T7
X5.5906Y-4.1929
T0
M30
