%TF.GenerationSoftware,KiCad,Pcbnew,(6.0.2)*%
%TF.CreationDate,2022-03-15T14:17:50+03:00*%
%TF.ProjectId,kinesis-80,6b696e65-7369-4732-9d38-302e6b696361,rev?*%
%TF.SameCoordinates,Original*%
%TF.FileFunction,Legend,Top*%
%TF.FilePolarity,Positive*%
%FSLAX46Y46*%
G04 Gerber Fmt 4.6, Leading zero omitted, Abs format (unit mm)*
G04 Created by KiCad (PCBNEW (6.0.2)) date 2022-03-15 14:17:50*
%MOMM*%
%LPD*%
G01*
G04 APERTURE LIST*
%ADD10C,0.150000*%
%ADD11C,0.120000*%
G04 APERTURE END LIST*
D10*
X123357142Y-134158976D02*
X123404761Y-134206595D01*
X123452380Y-134349452D01*
X123452380Y-134444690D01*
X123404761Y-134587547D01*
X123309523Y-134682785D01*
X123214285Y-134730404D01*
X123023809Y-134778023D01*
X122880952Y-134778023D01*
X122690476Y-134730404D01*
X122595238Y-134682785D01*
X122500000Y-134587547D01*
X122452380Y-134444690D01*
X122452380Y-134349452D01*
X122500000Y-134206595D01*
X122547619Y-134158976D01*
X123166666Y-133778023D02*
X123166666Y-133301833D01*
X123452380Y-133873261D02*
X122452380Y-133539928D01*
X123452380Y-133206595D01*
X123452380Y-132873261D02*
X122452380Y-132873261D01*
X122452380Y-132492309D01*
X122500000Y-132397071D01*
X122547619Y-132349452D01*
X122642857Y-132301833D01*
X122785714Y-132301833D01*
X122880952Y-132349452D01*
X122928571Y-132397071D01*
X122976190Y-132492309D01*
X122976190Y-132873261D01*
X123404761Y-131920880D02*
X123452380Y-131778023D01*
X123452380Y-131539928D01*
X123404761Y-131444690D01*
X123357142Y-131397071D01*
X123261904Y-131349452D01*
X123166666Y-131349452D01*
X123071428Y-131397071D01*
X123023809Y-131444690D01*
X122976190Y-131539928D01*
X122928571Y-131730404D01*
X122880952Y-131825642D01*
X122833333Y-131873261D01*
X122738095Y-131920880D01*
X122642857Y-131920880D01*
X122547619Y-131873261D01*
X122500000Y-131825642D01*
X122452380Y-131730404D01*
X122452380Y-131492309D01*
X122500000Y-131349452D01*
X133584380Y-134530404D02*
X132584380Y-134530404D01*
X133584380Y-133958976D01*
X132584380Y-133958976D01*
X132584380Y-133482785D02*
X133393904Y-133482785D01*
X133489142Y-133435166D01*
X133536761Y-133387547D01*
X133584380Y-133292309D01*
X133584380Y-133101833D01*
X133536761Y-133006595D01*
X133489142Y-132958976D01*
X133393904Y-132911357D01*
X132584380Y-132911357D01*
X133584380Y-132435166D02*
X132584380Y-132435166D01*
X133298666Y-132101833D01*
X132584380Y-131768500D01*
X133584380Y-131768500D01*
X143336761Y-135378023D02*
X143384380Y-135235166D01*
X143384380Y-134997071D01*
X143336761Y-134901833D01*
X143289142Y-134854214D01*
X143193904Y-134806595D01*
X143098666Y-134806595D01*
X143003428Y-134854214D01*
X142955809Y-134901833D01*
X142908190Y-134997071D01*
X142860571Y-135187547D01*
X142812952Y-135282785D01*
X142765333Y-135330404D01*
X142670095Y-135378023D01*
X142574857Y-135378023D01*
X142479619Y-135330404D01*
X142432000Y-135282785D01*
X142384380Y-135187547D01*
X142384380Y-134949452D01*
X142432000Y-134806595D01*
X143289142Y-133806595D02*
X143336761Y-133854214D01*
X143384380Y-133997071D01*
X143384380Y-134092309D01*
X143336761Y-134235166D01*
X143241523Y-134330404D01*
X143146285Y-134378023D01*
X142955809Y-134425642D01*
X142812952Y-134425642D01*
X142622476Y-134378023D01*
X142527238Y-134330404D01*
X142432000Y-134235166D01*
X142384380Y-134092309D01*
X142384380Y-133997071D01*
X142432000Y-133854214D01*
X142479619Y-133806595D01*
X143384380Y-132806595D02*
X142908190Y-133139928D01*
X143384380Y-133378023D02*
X142384380Y-133378023D01*
X142384380Y-132997071D01*
X142432000Y-132901833D01*
X142479619Y-132854214D01*
X142574857Y-132806595D01*
X142717714Y-132806595D01*
X142812952Y-132854214D01*
X142860571Y-132901833D01*
X142908190Y-132997071D01*
X142908190Y-133378023D01*
X142384380Y-132187547D02*
X142384380Y-131997071D01*
X142432000Y-131901833D01*
X142527238Y-131806595D01*
X142717714Y-131758976D01*
X143051047Y-131758976D01*
X143241523Y-131806595D01*
X143336761Y-131901833D01*
X143384380Y-131997071D01*
X143384380Y-132187547D01*
X143336761Y-132282785D01*
X143241523Y-132378023D01*
X143051047Y-132425642D01*
X142717714Y-132425642D01*
X142527238Y-132378023D01*
X142432000Y-132282785D01*
X142384380Y-132187547D01*
X143384380Y-130854214D02*
X143384380Y-131330404D01*
X142384380Y-131330404D01*
X143384380Y-130044690D02*
X143384380Y-130520880D01*
X142384380Y-130520880D01*
X153784380Y-135330404D02*
X152784380Y-135330404D01*
X153784380Y-134758976D02*
X153212952Y-135187547D01*
X152784380Y-134758976D02*
X153355809Y-135330404D01*
X153260571Y-134330404D02*
X153260571Y-133997071D01*
X153784380Y-133854214D02*
X153784380Y-134330404D01*
X152784380Y-134330404D01*
X152784380Y-133854214D01*
X153308190Y-133235166D02*
X153784380Y-133235166D01*
X152784380Y-133568500D02*
X153308190Y-133235166D01*
X152784380Y-132901833D01*
X153784380Y-132568500D02*
X152784380Y-132568500D01*
X152784380Y-132187547D01*
X152832000Y-132092309D01*
X152879619Y-132044690D01*
X152974857Y-131997071D01*
X153117714Y-131997071D01*
X153212952Y-132044690D01*
X153260571Y-132092309D01*
X153308190Y-132187547D01*
X153308190Y-132568500D01*
X153498666Y-131616119D02*
X153498666Y-131139928D01*
X153784380Y-131711357D02*
X152784380Y-131378023D01*
X153784380Y-131044690D01*
X153784380Y-130711357D02*
X152784380Y-130711357D01*
X152784380Y-130473261D01*
X152832000Y-130330404D01*
X152927238Y-130235166D01*
X153022476Y-130187547D01*
X153212952Y-130139928D01*
X153355809Y-130139928D01*
X153546285Y-130187547D01*
X153641523Y-130235166D01*
X153736761Y-130330404D01*
X153784380Y-130473261D01*
X153784380Y-130711357D01*
D11*
%TO.C,LED2*%
X135460000Y-135080000D02*
X135460000Y-135236000D01*
X135460000Y-132764000D02*
X135460000Y-132920000D01*
X138061130Y-132920163D02*
G75*
G03*
X135979039Y-132920000I-1041130J-1079837D01*
G01*
X135979039Y-135080000D02*
G75*
G03*
X138061130Y-135079837I1040961J1080000D01*
G01*
X135460000Y-135235516D02*
G75*
G03*
X138692335Y-135078608I1560000J1235517D01*
G01*
X138692335Y-132921392D02*
G75*
G03*
X135460000Y-132764484I-1672335J-1078609D01*
G01*
%TO.C,LED3*%
X145460000Y-135080000D02*
X145460000Y-135236000D01*
X145460000Y-132764000D02*
X145460000Y-132920000D01*
X145460000Y-135235516D02*
G75*
G03*
X148692335Y-135078608I1560000J1235517D01*
G01*
X148692335Y-132921392D02*
G75*
G03*
X145460000Y-132764484I-1672335J-1078609D01*
G01*
X148061130Y-132920163D02*
G75*
G03*
X145979039Y-132920000I-1041130J-1079837D01*
G01*
X145979039Y-135080000D02*
G75*
G03*
X148061130Y-135079837I1040961J1080000D01*
G01*
%TO.C,LED4*%
X155460000Y-135080000D02*
X155460000Y-135236000D01*
X155460000Y-132764000D02*
X155460000Y-132920000D01*
X155460000Y-135235516D02*
G75*
G03*
X158692335Y-135078608I1560000J1235517D01*
G01*
X158061130Y-132920163D02*
G75*
G03*
X155979039Y-132920000I-1041130J-1079837D01*
G01*
X158692335Y-132921392D02*
G75*
G03*
X155460000Y-132764484I-1672335J-1078609D01*
G01*
X155979039Y-135080000D02*
G75*
G03*
X158061130Y-135079837I1040961J1080000D01*
G01*
%TO.C,LED1*%
X125460000Y-135080000D02*
X125460000Y-135236000D01*
X125460000Y-132764000D02*
X125460000Y-132920000D01*
X128692335Y-132921392D02*
G75*
G03*
X125460000Y-132764484I-1672335J-1078609D01*
G01*
X128061130Y-132920163D02*
G75*
G03*
X125979039Y-132920000I-1041130J-1079837D01*
G01*
X125460000Y-135235516D02*
G75*
G03*
X128692335Y-135078608I1560000J1235517D01*
G01*
X125979039Y-135080000D02*
G75*
G03*
X128061130Y-135079837I1040961J1080000D01*
G01*
%TD*%
M02*
