%TF.GenerationSoftware,KiCad,Pcbnew,(6.0.2)*%
%TF.CreationDate,2022-03-15T14:51:57+03:00*%
%TF.ProjectId,kinesis-top-pcb,6b696e65-7369-4732-9d74-6f702d706362,rev?*%
%TF.SameCoordinates,Original*%
%TF.FileFunction,Copper,L1,Top*%
%TF.FilePolarity,Positive*%
%FSLAX46Y46*%
G04 Gerber Fmt 4.6, Leading zero omitted, Abs format (unit mm)*
G04 Created by KiCad (PCBNEW (6.0.2)) date 2022-03-15 14:51:57*
%MOMM*%
%LPD*%
G01*
G04 APERTURE LIST*
G04 Aperture macros list*
%AMRoundRect*
0 Rectangle with rounded corners*
0 $1 Rounding radius*
0 $2 $3 $4 $5 $6 $7 $8 $9 X,Y pos of 4 corners*
0 Add a 4 corners polygon primitive as box body*
4,1,4,$2,$3,$4,$5,$6,$7,$8,$9,$2,$3,0*
0 Add four circle primitives for the rounded corners*
1,1,$1+$1,$2,$3*
1,1,$1+$1,$4,$5*
1,1,$1+$1,$6,$7*
1,1,$1+$1,$8,$9*
0 Add four rect primitives between the rounded corners*
20,1,$1+$1,$2,$3,$4,$5,0*
20,1,$1+$1,$4,$5,$6,$7,0*
20,1,$1+$1,$6,$7,$8,$9,0*
20,1,$1+$1,$8,$9,$2,$3,0*%
G04 Aperture macros list end*
%TA.AperFunction,SMDPad,CuDef*%
%ADD10R,0.900000X1.200000*%
%TD*%
%TA.AperFunction,ComponentPad*%
%ADD11RoundRect,0.200000X0.450000X-0.200000X0.450000X0.200000X-0.450000X0.200000X-0.450000X-0.200000X0*%
%TD*%
%TA.AperFunction,ComponentPad*%
%ADD12O,1.300000X0.800000*%
%TD*%
%TA.AperFunction,ComponentPad*%
%ADD13C,2.250000*%
%TD*%
%TA.AperFunction,ViaPad*%
%ADD14C,0.800000*%
%TD*%
%TA.AperFunction,Conductor*%
%ADD15C,0.250000*%
%TD*%
G04 APERTURE END LIST*
D10*
%TO.P,D7,1*%
%TO.N,ROW_0*%
X46893800Y-58340600D03*
%TO.P,D7,2*%
%TO.N,Net-(D1-Pad2)*%
X43593800Y-58340600D03*
%TD*%
%TO.P,D8,1*%
%TO.N,ROW_0*%
X65943800Y-58340600D03*
%TO.P,D8,2*%
%TO.N,Net-(D2-Pad2)*%
X62643800Y-58340600D03*
%TD*%
%TO.P,D9,1*%
%TO.N,ROW_0*%
X84993800Y-58340600D03*
%TO.P,D9,2*%
%TO.N,Net-(D3-Pad2)*%
X81693800Y-58340600D03*
%TD*%
%TO.P,D10,1*%
%TO.N,ROW_0*%
X104044000Y-58340600D03*
%TO.P,D10,2*%
%TO.N,Net-(D10-Pad2)*%
X100744000Y-58340600D03*
%TD*%
%TO.P,D12,1*%
%TO.N,ROW_0*%
X139762000Y-58340600D03*
%TO.P,D12,2*%
%TO.N,Net-(D12-Pad2)*%
X136462000Y-58340600D03*
%TD*%
%TO.P,D11,1*%
%TO.N,ROW_0*%
X123094000Y-58340600D03*
%TO.P,D11,2*%
%TO.N,Net-(D11-Pad2)*%
X119794000Y-58340600D03*
%TD*%
D11*
%TO.P,J1,1*%
%TO.N,COL_5*%
X146447000Y-54768800D03*
D12*
%TO.P,J1,2*%
%TO.N,COL_4*%
X146447000Y-53518800D03*
%TO.P,J1,3*%
%TO.N,COL_3*%
X146447000Y-52268800D03*
%TO.P,J1,4*%
%TO.N,ROW_0*%
X146447000Y-51018800D03*
%TO.P,J1,5*%
%TO.N,COL_2*%
X146447000Y-49768800D03*
%TO.P,J1,6*%
%TO.N,COL_1*%
X146447000Y-48518800D03*
%TO.P,J1,7*%
%TO.N,COL_0*%
X146447000Y-47268800D03*
%TD*%
D13*
%TO.P,K2,1*%
%TO.N,COL_1*%
X50958800Y-48656900D03*
%TO.P,K2,2*%
%TO.N,Net-(D2-Pad2)*%
X57308800Y-46116900D03*
%TD*%
%TO.P,K3,1*%
%TO.N,COL_2*%
X70008800Y-48656900D03*
%TO.P,K3,2*%
%TO.N,Net-(D3-Pad2)*%
X76358800Y-46116900D03*
%TD*%
%TO.P,K4,1*%
%TO.N,COL_3*%
X89058800Y-48656900D03*
%TO.P,K4,2*%
%TO.N,Net-(D4-Pad2)*%
X95408800Y-46116900D03*
%TD*%
%TO.P,K5,1*%
%TO.N,COL_4*%
X108109000Y-48656900D03*
%TO.P,K5,2*%
%TO.N,Net-(D5-Pad2)*%
X114459000Y-46116900D03*
%TD*%
%TO.P,K6,1*%
%TO.N,COL_5*%
X127159000Y-48656900D03*
%TO.P,K6,2*%
%TO.N,Net-(D6-Pad2)*%
X133509000Y-46116900D03*
%TD*%
%TO.P,K1,1*%
%TO.N,COL_0*%
X31908800Y-48656900D03*
%TO.P,K1,2*%
%TO.N,Net-(D1-Pad2)*%
X38258800Y-46116900D03*
%TD*%
%TO.P,K7,1*%
%TO.N,COL_5*%
X39528800Y-48656900D03*
%TO.P,K7,2*%
%TO.N,Net-(D7-Pad2)*%
X33178800Y-46116900D03*
%TD*%
%TO.P,K8,1*%
%TO.N,COL_4*%
X58578800Y-48656900D03*
%TO.P,K8,2*%
%TO.N,Net-(D8-Pad2)*%
X52228800Y-46116900D03*
%TD*%
%TO.P,K9,1*%
%TO.N,COL_3*%
X77628800Y-48656900D03*
%TO.P,K9,2*%
%TO.N,Net-(D9-Pad2)*%
X71278800Y-46116900D03*
%TD*%
%TO.P,K10,1*%
%TO.N,COL_2*%
X96678800Y-48656900D03*
%TO.P,K10,2*%
%TO.N,Net-(D10-Pad2)*%
X90328800Y-46116900D03*
%TD*%
%TO.P,K11,1*%
%TO.N,COL_1*%
X115729000Y-48656900D03*
%TO.P,K11,2*%
%TO.N,Net-(D11-Pad2)*%
X109379000Y-46116900D03*
%TD*%
%TO.P,K12,1*%
%TO.N,COL_0*%
X134779000Y-48656900D03*
%TO.P,K12,2*%
%TO.N,Net-(D12-Pad2)*%
X128429000Y-46116900D03*
%TD*%
D14*
%TO.N,ROW_0*%
X105189800Y-58319300D03*
%TO.N,Net-(D11-Pad2)*%
X118484300Y-58056400D03*
%TO.N,Net-(D12-Pad2)*%
X133213800Y-56293600D03*
%TD*%
D15*
%TO.N,ROW_0*%
X139762000Y-58340600D02*
X138986700Y-58340600D01*
X138061400Y-59265900D02*
X124794600Y-59265900D01*
X146447000Y-51018800D02*
X147422300Y-51018800D01*
X65556200Y-58340600D02*
X65943800Y-58340600D01*
X86694500Y-59266000D02*
X102343300Y-59266000D01*
X147424200Y-51020700D02*
X147424200Y-55185000D01*
X64238300Y-59270800D02*
X48599300Y-59270800D01*
X104044000Y-58340600D02*
X104819300Y-58340600D01*
X65168500Y-58340600D02*
X64238300Y-59270800D01*
X102343300Y-59266000D02*
X103268700Y-58340600D01*
X85769100Y-58340600D02*
X86694500Y-59266000D01*
X66719100Y-58340600D02*
X67644500Y-59266000D01*
X83293100Y-59266000D02*
X84218500Y-58340600D01*
X123094000Y-58340600D02*
X123869300Y-58340600D01*
X121375600Y-59283700D02*
X106132900Y-59283700D01*
X84606200Y-58340600D02*
X84993800Y-58340600D01*
X124794600Y-59265900D02*
X123869300Y-58340600D01*
X84606200Y-58340600D02*
X84218500Y-58340600D01*
X84993800Y-58340600D02*
X85769100Y-58340600D01*
X105189800Y-58340600D02*
X105189800Y-58319300D01*
X48599300Y-59270800D02*
X47669100Y-58340600D01*
X147422300Y-51018800D02*
X147424200Y-51020700D01*
X147424200Y-55185000D02*
X144268600Y-58340600D01*
X106132900Y-59283700D02*
X105189800Y-58340600D01*
X65943800Y-58340600D02*
X66719100Y-58340600D01*
X65556200Y-58340600D02*
X65168500Y-58340600D01*
X104044000Y-58340600D02*
X103268700Y-58340600D01*
X105189800Y-58340600D02*
X104819300Y-58340600D01*
X144268600Y-58340600D02*
X139762000Y-58340600D01*
X122318700Y-58340600D02*
X121375600Y-59283700D01*
X67644500Y-59266000D02*
X83293100Y-59266000D01*
X46893800Y-58340600D02*
X47669100Y-58340600D01*
X123094000Y-58340600D02*
X122318700Y-58340600D01*
X138986700Y-58340600D02*
X138061400Y-59265900D01*
%TO.N,Net-(D1-Pad2)*%
X43593800Y-58340600D02*
X42818500Y-58340600D01*
X38072800Y-53594900D02*
X42818500Y-58340600D01*
X38258800Y-46116900D02*
X38072800Y-46302900D01*
X38072800Y-46302900D02*
X38072800Y-53594900D01*
%TO.N,Net-(D2-Pad2)*%
X57308800Y-46116900D02*
X57120800Y-46304900D01*
X57120800Y-46304900D02*
X57120800Y-53592900D01*
X57120800Y-53592900D02*
X61868500Y-58340600D01*
X62643800Y-58340600D02*
X61868500Y-58340600D01*
%TO.N,Net-(D3-Pad2)*%
X81693800Y-50643800D02*
X81693800Y-58340600D01*
X77166900Y-46116900D02*
X81693800Y-50643800D01*
X76358800Y-46116900D02*
X77166900Y-46116900D01*
%TO.N,COL_0*%
X133361000Y-48656900D02*
X134779000Y-48656900D01*
X136167100Y-47268800D02*
X146447000Y-47268800D01*
X134779000Y-48656900D02*
X136167100Y-47268800D01*
X31908800Y-48656900D02*
X32703500Y-48656900D01*
X32703500Y-48656900D02*
X37664700Y-43695700D01*
X128399800Y-43695700D02*
X133361000Y-48656900D01*
X37664700Y-43695700D02*
X128399800Y-43695700D01*
%TO.N,COL_1*%
X107368000Y-49967000D02*
X97481100Y-49967000D01*
X110727100Y-48656900D02*
X109247200Y-50136800D01*
X92868900Y-46595600D02*
X90896100Y-44622800D01*
X109247200Y-50136800D02*
X107537800Y-50136800D01*
X92868900Y-46911300D02*
X92868900Y-46595600D01*
X97481100Y-49967000D02*
X97292600Y-50155500D01*
X90896100Y-44622800D02*
X56688500Y-44622800D01*
X97292600Y-50155500D02*
X96113100Y-50155500D01*
X96113100Y-50155500D02*
X92868900Y-46911300D01*
X115729000Y-48656900D02*
X110727100Y-48656900D01*
X107537800Y-50136800D02*
X107368000Y-49967000D01*
X52654400Y-48656900D02*
X50958800Y-48656900D01*
X56688500Y-44622800D02*
X52654400Y-48656900D01*
%TO.N,COL_2*%
X117393000Y-44623000D02*
X126290500Y-53520500D01*
X140779500Y-53520500D02*
X144531200Y-49768800D01*
X96678800Y-48656900D02*
X100712700Y-44623000D01*
X100712700Y-44623000D02*
X117393000Y-44623000D01*
X144531200Y-49768800D02*
X146447000Y-49768800D01*
X126290500Y-53520500D02*
X140779500Y-53520500D01*
%TO.N,COL_3*%
X93642100Y-48656900D02*
X98982800Y-53997600D01*
X144319300Y-52268800D02*
X146447000Y-52268800D01*
X89058800Y-48656900D02*
X93642100Y-48656900D01*
X142590500Y-53997600D02*
X144319300Y-52268800D01*
X98982800Y-53997600D02*
X142590500Y-53997600D01*
%TO.N,COL_5*%
X122674500Y-44172400D02*
X127159000Y-48656900D01*
X44013300Y-44172400D02*
X122674500Y-44172400D01*
X39528800Y-48656900D02*
X44013300Y-44172400D01*
%TO.N,Net-(D10-Pad2)*%
X90328800Y-46116900D02*
X89524900Y-46116900D01*
X87604900Y-49292300D02*
X96653200Y-58340600D01*
X87604900Y-48036900D02*
X87604900Y-49292300D01*
X89524900Y-46116900D02*
X87604900Y-48036900D01*
X96653200Y-58340600D02*
X100744000Y-58340600D01*
%TO.N,Net-(D11-Pad2)*%
X118734500Y-58056400D02*
X119018700Y-58340600D01*
X119794000Y-58340600D02*
X119018700Y-58340600D01*
X118484300Y-58056400D02*
X118734500Y-58056400D01*
%TO.N,Net-(D12-Pad2)*%
X133639700Y-56293600D02*
X135686700Y-58340600D01*
X136462000Y-58340600D02*
X135686700Y-58340600D01*
X133213800Y-56293600D02*
X133639700Y-56293600D01*
%TD*%
%TA.AperFunction,NonConductor*%
G36*
X55373427Y-44825902D02*
G01*
X55419920Y-44879558D01*
X55430024Y-44949832D01*
X55400530Y-45014412D01*
X55394401Y-45020995D01*
X54072024Y-46343371D01*
X54009712Y-46377397D01*
X53938896Y-46372332D01*
X53882061Y-46329785D01*
X53857250Y-46263265D01*
X53857317Y-46244390D01*
X53857483Y-46242292D01*
X53867351Y-46116900D01*
X53847178Y-45860574D01*
X53841395Y-45836483D01*
X53788310Y-45615372D01*
X53787155Y-45610560D01*
X53785261Y-45605987D01*
X53690655Y-45377587D01*
X53690653Y-45377583D01*
X53688760Y-45373013D01*
X53680742Y-45359928D01*
X53641959Y-45296641D01*
X53554416Y-45153784D01*
X53434799Y-45013730D01*
X53405768Y-44948941D01*
X53416373Y-44878741D01*
X53463248Y-44825418D01*
X53530610Y-44805900D01*
X55305306Y-44805900D01*
X55373427Y-44825902D01*
G37*
%TD.AperFunction*%
%TA.AperFunction,NonConductor*%
G36*
X94175111Y-44825902D02*
G01*
X94221604Y-44879558D01*
X94231708Y-44949832D01*
X94202801Y-45013730D01*
X94083184Y-45153784D01*
X93995641Y-45296641D01*
X93956859Y-45359928D01*
X93948840Y-45373013D01*
X93946947Y-45377583D01*
X93946945Y-45377587D01*
X93852339Y-45605987D01*
X93850445Y-45610560D01*
X93849290Y-45615372D01*
X93796206Y-45836483D01*
X93790422Y-45860574D01*
X93770249Y-46116900D01*
X93790422Y-46373226D01*
X93791576Y-46378033D01*
X93791577Y-46378039D01*
X93817999Y-46488093D01*
X93850445Y-46623240D01*
X93872283Y-46675962D01*
X93879872Y-46746550D01*
X93848093Y-46810037D01*
X93787035Y-46846265D01*
X93716084Y-46843731D01*
X93666779Y-46813274D01*
X93539729Y-46686224D01*
X93505703Y-46623912D01*
X93502886Y-46601089D01*
X93502462Y-46587604D01*
X93502400Y-46583644D01*
X93502400Y-46555744D01*
X93501896Y-46551753D01*
X93500963Y-46539911D01*
X93500541Y-46526459D01*
X93499574Y-46495711D01*
X93493921Y-46476252D01*
X93489912Y-46456893D01*
X93489746Y-46455583D01*
X93487374Y-46436803D01*
X93484458Y-46429437D01*
X93484456Y-46429431D01*
X93471100Y-46395698D01*
X93467255Y-46384468D01*
X93457130Y-46349617D01*
X93457130Y-46349616D01*
X93454919Y-46342007D01*
X93444605Y-46324566D01*
X93435908Y-46306813D01*
X93431372Y-46295358D01*
X93428452Y-46287983D01*
X93402463Y-46252212D01*
X93395947Y-46242292D01*
X93377478Y-46211063D01*
X93373442Y-46204238D01*
X93359121Y-46189917D01*
X93346280Y-46174883D01*
X93339031Y-46164906D01*
X93334372Y-46158493D01*
X93300295Y-46130302D01*
X93291516Y-46122312D01*
X92190200Y-45020995D01*
X92156174Y-44958683D01*
X92161239Y-44887867D01*
X92203786Y-44831032D01*
X92270306Y-44806221D01*
X92279295Y-44805900D01*
X94106990Y-44805900D01*
X94175111Y-44825902D01*
G37*
%TD.AperFunction*%
%TA.AperFunction,NonConductor*%
G36*
X99397827Y-44825902D02*
G01*
X99444320Y-44879558D01*
X99454424Y-44949832D01*
X99424930Y-45014412D01*
X99418801Y-45020995D01*
X97355059Y-47084737D01*
X97292747Y-47118763D01*
X97217747Y-47112051D01*
X97185140Y-47098545D01*
X97033877Y-47062230D01*
X96950330Y-47042172D01*
X96888761Y-47006820D01*
X96856078Y-46943793D01*
X96862659Y-46873102D01*
X96866733Y-46864095D01*
X96868760Y-46860787D01*
X96947602Y-46670446D01*
X96965261Y-46627813D01*
X96965263Y-46627808D01*
X96967155Y-46623240D01*
X96999601Y-46488093D01*
X97026023Y-46378039D01*
X97026024Y-46378033D01*
X97027178Y-46373226D01*
X97047351Y-46116900D01*
X97027178Y-45860574D01*
X97021395Y-45836483D01*
X96968310Y-45615372D01*
X96967155Y-45610560D01*
X96965261Y-45605987D01*
X96870655Y-45377587D01*
X96870653Y-45377583D01*
X96868760Y-45373013D01*
X96860742Y-45359928D01*
X96821959Y-45296641D01*
X96734416Y-45153784D01*
X96614799Y-45013730D01*
X96585768Y-44948941D01*
X96596373Y-44878741D01*
X96643248Y-44825418D01*
X96710610Y-44805900D01*
X99329706Y-44805900D01*
X99397827Y-44825902D01*
G37*
%TD.AperFunction*%
%TA.AperFunction,NonConductor*%
G36*
X42724527Y-44349202D02*
G01*
X42771020Y-44402858D01*
X42781124Y-44473132D01*
X42751630Y-44537712D01*
X42745501Y-44544295D01*
X40205059Y-47084737D01*
X40142747Y-47118763D01*
X40067747Y-47112051D01*
X40035140Y-47098545D01*
X39883877Y-47062230D01*
X39800330Y-47042172D01*
X39738761Y-47006820D01*
X39706078Y-46943793D01*
X39712659Y-46873102D01*
X39716733Y-46864095D01*
X39718760Y-46860787D01*
X39797602Y-46670446D01*
X39815261Y-46627813D01*
X39815263Y-46627808D01*
X39817155Y-46623240D01*
X39849601Y-46488093D01*
X39876023Y-46378039D01*
X39876024Y-46378033D01*
X39877178Y-46373226D01*
X39897351Y-46116900D01*
X39877178Y-45860574D01*
X39871395Y-45836483D01*
X39818310Y-45615372D01*
X39817155Y-45610560D01*
X39815261Y-45605987D01*
X39720655Y-45377587D01*
X39720653Y-45377583D01*
X39718760Y-45373013D01*
X39710742Y-45359928D01*
X39671959Y-45296641D01*
X39584416Y-45153784D01*
X39417431Y-44958269D01*
X39221916Y-44791284D01*
X39002687Y-44656940D01*
X38998117Y-44655047D01*
X38998113Y-44655045D01*
X38796679Y-44571609D01*
X38741398Y-44527061D01*
X38718977Y-44459697D01*
X38736535Y-44390906D01*
X38788497Y-44342528D01*
X38844897Y-44329200D01*
X42656406Y-44329200D01*
X42724527Y-44349202D01*
G37*
%TD.AperFunction*%
%TA.AperFunction,NonConductor*%
G36*
X127911024Y-44349202D02*
G01*
X127957517Y-44402858D01*
X127967621Y-44473132D01*
X127938127Y-44537712D01*
X127891121Y-44571609D01*
X127689687Y-44655045D01*
X127689683Y-44655047D01*
X127685113Y-44656940D01*
X127465884Y-44791284D01*
X127270369Y-44958269D01*
X127103384Y-45153784D01*
X127015841Y-45296641D01*
X126977059Y-45359928D01*
X126969040Y-45373013D01*
X126967147Y-45377583D01*
X126967145Y-45377587D01*
X126872539Y-45605987D01*
X126870645Y-45610560D01*
X126869490Y-45615372D01*
X126816406Y-45836483D01*
X126810622Y-45860574D01*
X126790449Y-46116900D01*
X126810622Y-46373226D01*
X126811776Y-46378033D01*
X126811777Y-46378039D01*
X126838199Y-46488093D01*
X126870645Y-46623240D01*
X126872537Y-46627808D01*
X126872539Y-46627813D01*
X126890198Y-46670446D01*
X126969040Y-46860787D01*
X126970441Y-46863074D01*
X126983427Y-46932231D01*
X126956724Y-46998015D01*
X126898696Y-47038919D01*
X126887470Y-47042172D01*
X126803923Y-47062230D01*
X126652660Y-47098545D01*
X126620053Y-47112051D01*
X126549465Y-47119640D01*
X126482741Y-47084737D01*
X123942300Y-44544295D01*
X123908274Y-44481983D01*
X123913339Y-44411167D01*
X123955886Y-44354332D01*
X124022406Y-44329521D01*
X124031395Y-44329200D01*
X127842903Y-44329200D01*
X127911024Y-44349202D01*
G37*
%TD.AperFunction*%
%TA.AperFunction,NonConductor*%
G36*
X92028933Y-46657071D02*
G01*
X92053734Y-46676338D01*
X92198071Y-46820675D01*
X92232097Y-46882987D01*
X92234914Y-46905807D01*
X92235338Y-46919282D01*
X92235400Y-46923245D01*
X92235400Y-46951156D01*
X92235897Y-46955090D01*
X92235897Y-46955091D01*
X92235905Y-46955156D01*
X92236838Y-46966993D01*
X92238227Y-47011189D01*
X92242345Y-47025362D01*
X92243878Y-47030639D01*
X92247887Y-47050000D01*
X92250426Y-47070097D01*
X92253345Y-47077468D01*
X92253345Y-47077470D01*
X92266704Y-47111212D01*
X92270549Y-47122442D01*
X92282882Y-47164893D01*
X92286915Y-47171712D01*
X92286917Y-47171717D01*
X92293193Y-47182328D01*
X92301888Y-47200076D01*
X92309348Y-47218917D01*
X92314010Y-47225333D01*
X92314010Y-47225334D01*
X92335336Y-47254687D01*
X92341852Y-47264607D01*
X92348313Y-47275531D01*
X92364358Y-47302662D01*
X92378679Y-47316983D01*
X92391519Y-47332016D01*
X92403428Y-47348407D01*
X92409534Y-47353458D01*
X92437505Y-47376598D01*
X92446284Y-47384588D01*
X92870001Y-47808305D01*
X92904027Y-47870617D01*
X92898962Y-47941432D01*
X92856415Y-47998268D01*
X92789895Y-48023079D01*
X92780906Y-48023400D01*
X90648674Y-48023400D01*
X90580553Y-48003398D01*
X90532265Y-47945617D01*
X90520656Y-47917590D01*
X90520655Y-47917589D01*
X90518760Y-47913013D01*
X90517359Y-47910726D01*
X90504373Y-47841569D01*
X90531076Y-47775785D01*
X90589104Y-47734881D01*
X90600330Y-47731628D01*
X90781982Y-47688017D01*
X90835140Y-47675255D01*
X90843677Y-47671719D01*
X91068113Y-47578755D01*
X91068117Y-47578753D01*
X91072687Y-47576860D01*
X91291916Y-47442516D01*
X91487431Y-47275531D01*
X91654416Y-47080016D01*
X91788760Y-46860787D01*
X91806451Y-46818078D01*
X91848230Y-46717215D01*
X91892779Y-46661934D01*
X91960142Y-46639513D01*
X92028933Y-46657071D01*
G37*
%TD.AperFunction*%
%TA.AperFunction,NonConductor*%
G36*
X94849737Y-47653417D02*
G01*
X94902460Y-47675255D01*
X94955618Y-47688017D01*
X95137270Y-47731628D01*
X95198839Y-47766980D01*
X95231522Y-47830007D01*
X95224941Y-47900698D01*
X95220867Y-47909705D01*
X95218840Y-47913013D01*
X95205335Y-47945617D01*
X95158521Y-48058635D01*
X95113972Y-48113916D01*
X95046609Y-48136337D01*
X94977818Y-48118779D01*
X94953017Y-48099512D01*
X94712426Y-47858921D01*
X94678400Y-47796609D01*
X94683465Y-47725794D01*
X94726012Y-47668958D01*
X94792532Y-47644147D01*
X94849737Y-47653417D01*
G37*
%TD.AperFunction*%
%TA.AperFunction,NonConductor*%
G36*
X112926850Y-45276502D02*
G01*
X112973343Y-45330158D01*
X112983447Y-45400432D01*
X112975138Y-45430718D01*
X112907579Y-45593821D01*
X112900645Y-45610560D01*
X112899490Y-45615372D01*
X112846406Y-45836483D01*
X112840622Y-45860574D01*
X112820449Y-46116900D01*
X112840622Y-46373226D01*
X112841776Y-46378033D01*
X112841777Y-46378039D01*
X112868199Y-46488093D01*
X112900645Y-46623240D01*
X112902537Y-46627808D01*
X112902539Y-46627813D01*
X112997037Y-46855951D01*
X112999040Y-46860787D01*
X113133384Y-47080016D01*
X113300369Y-47275531D01*
X113495884Y-47442516D01*
X113715113Y-47576860D01*
X113719683Y-47578753D01*
X113719687Y-47578755D01*
X113944123Y-47671719D01*
X113952660Y-47675255D01*
X114005818Y-47688017D01*
X114187470Y-47731628D01*
X114249039Y-47766980D01*
X114281722Y-47830007D01*
X114275141Y-47900698D01*
X114271067Y-47909705D01*
X114269040Y-47913013D01*
X114267145Y-47917589D01*
X114267144Y-47917590D01*
X114255535Y-47945617D01*
X114210988Y-48000898D01*
X114139126Y-48023400D01*
X110805868Y-48023400D01*
X110794685Y-48022873D01*
X110787192Y-48021198D01*
X110779266Y-48021447D01*
X110779265Y-48021447D01*
X110719102Y-48023338D01*
X110715144Y-48023400D01*
X110687244Y-48023400D01*
X110683254Y-48023904D01*
X110671420Y-48024836D01*
X110627211Y-48026226D01*
X110619595Y-48028439D01*
X110619593Y-48028439D01*
X110607752Y-48031879D01*
X110588393Y-48035888D01*
X110587083Y-48036054D01*
X110568303Y-48038426D01*
X110560937Y-48041342D01*
X110560931Y-48041344D01*
X110527198Y-48054700D01*
X110515968Y-48058545D01*
X110487640Y-48066775D01*
X110473507Y-48070881D01*
X110466684Y-48074916D01*
X110456066Y-48081195D01*
X110438313Y-48089892D01*
X110430668Y-48092919D01*
X110419483Y-48097348D01*
X110413068Y-48102009D01*
X110383712Y-48123337D01*
X110373795Y-48129851D01*
X110335738Y-48152358D01*
X110321417Y-48166679D01*
X110306384Y-48179519D01*
X110289993Y-48191428D01*
X110284942Y-48197534D01*
X110261802Y-48225505D01*
X110253812Y-48234284D01*
X109946917Y-48541179D01*
X109884605Y-48575205D01*
X109813790Y-48570140D01*
X109756954Y-48527593D01*
X109732210Y-48461970D01*
X109729687Y-48429916D01*
X109727378Y-48400574D01*
X109667355Y-48150560D01*
X109665461Y-48145986D01*
X109587126Y-47956870D01*
X109568960Y-47913013D01*
X109567559Y-47910726D01*
X109554573Y-47841569D01*
X109581276Y-47775785D01*
X109639304Y-47734881D01*
X109650530Y-47731628D01*
X109832182Y-47688017D01*
X109885340Y-47675255D01*
X109893877Y-47671719D01*
X110118313Y-47578755D01*
X110118317Y-47578753D01*
X110122887Y-47576860D01*
X110342116Y-47442516D01*
X110537631Y-47275531D01*
X110704616Y-47080016D01*
X110838960Y-46860787D01*
X110840964Y-46855951D01*
X110935461Y-46627813D01*
X110935463Y-46627808D01*
X110937355Y-46623240D01*
X110969801Y-46488093D01*
X110996223Y-46378039D01*
X110996224Y-46378033D01*
X110997378Y-46373226D01*
X111017551Y-46116900D01*
X110997378Y-45860574D01*
X110991595Y-45836483D01*
X110938510Y-45615372D01*
X110937355Y-45610560D01*
X110930422Y-45593821D01*
X110862862Y-45430718D01*
X110855273Y-45360128D01*
X110887052Y-45296641D01*
X110948110Y-45260414D01*
X110979271Y-45256500D01*
X112858729Y-45256500D01*
X112926850Y-45276502D01*
G37*
%TD.AperFunction*%
%TA.AperFunction,NonConductor*%
G36*
X55701470Y-46609900D02*
G01*
X55758306Y-46652447D01*
X55773847Y-46679738D01*
X55846837Y-46855951D01*
X55848840Y-46860787D01*
X55983184Y-47080016D01*
X56150169Y-47275531D01*
X56345684Y-47442516D01*
X56427136Y-47492430D01*
X56474767Y-47545078D01*
X56487300Y-47599862D01*
X56487300Y-49103098D01*
X56467298Y-49171219D01*
X56413642Y-49217712D01*
X56343368Y-49227816D01*
X56280984Y-49200182D01*
X56257279Y-49180571D01*
X56242582Y-49168413D01*
X55976724Y-48999694D01*
X55973145Y-48998010D01*
X55973138Y-48998006D01*
X55695406Y-48867316D01*
X55695402Y-48867314D01*
X55691816Y-48865627D01*
X55392352Y-48768325D01*
X55083054Y-48709323D01*
X54989500Y-48703437D01*
X54849442Y-48694625D01*
X54849426Y-48694624D01*
X54847447Y-48694500D01*
X54690153Y-48694500D01*
X54688174Y-48694624D01*
X54688158Y-48694625D01*
X54548100Y-48703437D01*
X54454546Y-48709323D01*
X54145248Y-48768325D01*
X53845784Y-48865627D01*
X53842198Y-48867314D01*
X53842194Y-48867316D01*
X53564462Y-48998006D01*
X53564455Y-48998010D01*
X53560876Y-48999694D01*
X53557530Y-49001818D01*
X53557529Y-49001818D01*
X53557381Y-49001912D01*
X53557333Y-49001926D01*
X53554064Y-49003723D01*
X53553657Y-49002982D01*
X53489147Y-49021525D01*
X53421142Y-49001134D01*
X53374956Y-48947214D01*
X53365254Y-48876883D01*
X53395115Y-48812472D01*
X53400772Y-48806432D01*
X55568343Y-46638861D01*
X55630655Y-46604835D01*
X55701470Y-46609900D01*
G37*
%TD.AperFunction*%
%TA.AperFunction,NonConductor*%
G36*
X107846850Y-45276502D02*
G01*
X107893343Y-45330158D01*
X107903447Y-45400432D01*
X107895138Y-45430718D01*
X107827579Y-45593821D01*
X107820645Y-45610560D01*
X107819490Y-45615372D01*
X107766406Y-45836483D01*
X107760622Y-45860574D01*
X107740449Y-46116900D01*
X107760622Y-46373226D01*
X107761776Y-46378033D01*
X107761777Y-46378039D01*
X107788199Y-46488093D01*
X107820645Y-46623240D01*
X107822537Y-46627808D01*
X107822539Y-46627813D01*
X107840198Y-46670446D01*
X107919040Y-46860787D01*
X107920441Y-46863074D01*
X107933427Y-46932231D01*
X107906724Y-46998015D01*
X107848696Y-47038919D01*
X107837470Y-47042172D01*
X107753923Y-47062230D01*
X107602660Y-47098545D01*
X107598089Y-47100438D01*
X107598087Y-47100439D01*
X107369687Y-47195045D01*
X107369683Y-47195047D01*
X107365113Y-47196940D01*
X107145884Y-47331284D01*
X106950369Y-47498269D01*
X106783384Y-47693784D01*
X106649040Y-47913013D01*
X106647147Y-47917583D01*
X106647145Y-47917587D01*
X106552539Y-48145987D01*
X106550645Y-48150560D01*
X106490622Y-48400574D01*
X106470449Y-48656900D01*
X106490622Y-48913226D01*
X106491776Y-48918033D01*
X106491777Y-48918039D01*
X106511917Y-49001926D01*
X106550645Y-49163240D01*
X106552541Y-49167818D01*
X106552783Y-49168562D01*
X106554811Y-49239530D01*
X106518149Y-49300328D01*
X106454438Y-49331654D01*
X106432950Y-49333500D01*
X98354850Y-49333500D01*
X98286729Y-49313498D01*
X98240236Y-49259842D01*
X98230132Y-49189568D01*
X98235017Y-49168562D01*
X98235259Y-49167818D01*
X98237155Y-49163240D01*
X98275883Y-49001926D01*
X98296023Y-48918039D01*
X98296024Y-48918033D01*
X98297178Y-48913226D01*
X98317351Y-48656900D01*
X98297178Y-48400574D01*
X98237155Y-48150560D01*
X98223649Y-48117953D01*
X98216060Y-48047365D01*
X98250963Y-47980641D01*
X99583817Y-46647788D01*
X100938200Y-45293405D01*
X101000512Y-45259379D01*
X101027295Y-45256500D01*
X107778729Y-45256500D01*
X107846850Y-45276502D01*
G37*
%TD.AperFunction*%
%TA.AperFunction,NonConductor*%
G36*
X122428027Y-44825902D02*
G01*
X122449001Y-44842805D01*
X125586837Y-47980641D01*
X125620863Y-48042953D01*
X125614151Y-48117953D01*
X125600645Y-48150560D01*
X125540622Y-48400574D01*
X125520449Y-48656900D01*
X125540622Y-48913226D01*
X125541776Y-48918033D01*
X125541777Y-48918039D01*
X125561917Y-49001926D01*
X125600645Y-49163240D01*
X125602538Y-49167811D01*
X125602539Y-49167813D01*
X125697144Y-49396209D01*
X125699040Y-49400787D01*
X125833384Y-49620016D01*
X125834919Y-49621814D01*
X125858541Y-49687998D01*
X125842467Y-49757151D01*
X125791558Y-49806636D01*
X125743401Y-49820752D01*
X125660363Y-49827798D01*
X125660359Y-49827799D01*
X125655052Y-49828249D01*
X125649897Y-49829587D01*
X125649891Y-49829588D01*
X125516202Y-49864287D01*
X125427794Y-49887233D01*
X125422928Y-49889425D01*
X125422925Y-49889426D01*
X125218583Y-49981476D01*
X125218580Y-49981477D01*
X125213722Y-49983666D01*
X125018959Y-50114788D01*
X125015102Y-50118467D01*
X125015100Y-50118469D01*
X125007351Y-50125861D01*
X124849073Y-50276851D01*
X124708922Y-50465221D01*
X124706506Y-50469972D01*
X124706504Y-50469976D01*
X124620506Y-50639122D01*
X124602513Y-50674512D01*
X124600931Y-50679607D01*
X124598923Y-50684552D01*
X124596693Y-50683647D01*
X124562989Y-50734351D01*
X124497960Y-50762843D01*
X124427851Y-50751654D01*
X124392863Y-50726958D01*
X118686900Y-45020995D01*
X118652874Y-44958683D01*
X118657939Y-44887868D01*
X118700486Y-44831032D01*
X118767006Y-44806221D01*
X118775995Y-44805900D01*
X122359906Y-44805900D01*
X122428027Y-44825902D01*
G37*
%TD.AperFunction*%
%TA.AperFunction,NonConductor*%
G36*
X91003279Y-49310402D02*
G01*
X91049772Y-49364058D01*
X91059876Y-49434332D01*
X91027008Y-49502653D01*
X90936855Y-49598656D01*
X90934528Y-49601858D01*
X90934527Y-49601860D01*
X90921664Y-49619564D01*
X90751776Y-49853396D01*
X90749869Y-49856865D01*
X90749867Y-49856868D01*
X90606051Y-50118469D01*
X90600084Y-50129323D01*
X90536269Y-50290501D01*
X90491182Y-50404378D01*
X90484170Y-50422087D01*
X90405864Y-50727070D01*
X90385491Y-50888346D01*
X90385352Y-50889443D01*
X90356971Y-50954519D01*
X90297911Y-50993921D01*
X90226925Y-50995138D01*
X90171251Y-50962746D01*
X89598510Y-50390005D01*
X89564484Y-50327693D01*
X89569549Y-50256878D01*
X89612096Y-50200042D01*
X89639387Y-50184501D01*
X89798113Y-50118755D01*
X89798117Y-50118753D01*
X89802687Y-50116860D01*
X90021916Y-49982516D01*
X90217431Y-49815531D01*
X90384416Y-49620016D01*
X90518760Y-49400787D01*
X90520655Y-49396213D01*
X90520657Y-49396209D01*
X90532265Y-49368183D01*
X90576812Y-49312902D01*
X90648674Y-49290400D01*
X90935158Y-49290400D01*
X91003279Y-49310402D01*
G37*
%TD.AperFunction*%
%TA.AperFunction,NonConductor*%
G36*
X130189876Y-46396233D02*
G01*
X130232420Y-46424224D01*
X132857343Y-49049147D01*
X132864887Y-49057437D01*
X132869000Y-49063918D01*
X132874777Y-49069343D01*
X132918667Y-49110558D01*
X132921509Y-49113313D01*
X132941230Y-49133034D01*
X132944425Y-49135512D01*
X132953447Y-49143218D01*
X132985679Y-49173486D01*
X132992628Y-49177306D01*
X133003432Y-49183246D01*
X133019956Y-49194099D01*
X133035959Y-49206513D01*
X133076543Y-49224076D01*
X133087173Y-49229283D01*
X133125940Y-49250595D01*
X133133617Y-49252566D01*
X133133622Y-49252568D01*
X133145558Y-49255632D01*
X133164266Y-49262037D01*
X133182855Y-49270081D01*
X133190683Y-49271321D01*
X133190690Y-49271323D01*
X133200968Y-49272951D01*
X133265121Y-49303364D01*
X133297664Y-49349181D01*
X133317144Y-49396209D01*
X133319040Y-49400787D01*
X133453384Y-49620016D01*
X133620369Y-49815531D01*
X133815884Y-49982516D01*
X134035113Y-50116860D01*
X134039683Y-50118753D01*
X134039687Y-50118755D01*
X134251989Y-50206693D01*
X134272660Y-50215255D01*
X134338655Y-50231099D01*
X134517861Y-50274123D01*
X134517867Y-50274124D01*
X134522674Y-50275278D01*
X134760644Y-50294006D01*
X134826984Y-50319291D01*
X134869124Y-50376429D01*
X134873683Y-50447279D01*
X134863074Y-50476723D01*
X134782178Y-50635833D01*
X134762513Y-50674512D01*
X134692889Y-50898740D01*
X134692188Y-50904029D01*
X134663464Y-51120744D01*
X134662039Y-51131493D01*
X134670848Y-51366116D01*
X134671943Y-51371334D01*
X134704903Y-51528418D01*
X134719062Y-51595901D01*
X134805302Y-51814277D01*
X134927104Y-52015000D01*
X135080985Y-52192332D01*
X135085117Y-52195720D01*
X135258416Y-52337817D01*
X135258422Y-52337821D01*
X135262544Y-52341201D01*
X135267180Y-52343840D01*
X135267183Y-52343842D01*
X135378408Y-52407155D01*
X135466590Y-52457351D01*
X135687289Y-52537461D01*
X135692538Y-52538410D01*
X135692541Y-52538411D01*
X135773615Y-52553071D01*
X135918330Y-52579240D01*
X135922469Y-52579435D01*
X135922476Y-52579436D01*
X135941440Y-52580330D01*
X135941449Y-52580330D01*
X135942929Y-52580400D01*
X136107950Y-52580400D01*
X136189299Y-52573497D01*
X136277637Y-52566002D01*
X136277641Y-52566001D01*
X136282948Y-52565551D01*
X136288103Y-52564213D01*
X136288109Y-52564212D01*
X136492475Y-52511169D01*
X136510206Y-52506567D01*
X136515072Y-52504375D01*
X136515075Y-52504374D01*
X136719417Y-52412324D01*
X136719420Y-52412323D01*
X136724278Y-52410134D01*
X136919041Y-52279012D01*
X137088927Y-52116949D01*
X137229078Y-51928579D01*
X137231501Y-51923815D01*
X137333069Y-51724044D01*
X137333069Y-51724043D01*
X137335487Y-51719288D01*
X137405111Y-51495060D01*
X137422202Y-51366116D01*
X137435261Y-51267590D01*
X137435261Y-51267587D01*
X137435961Y-51262307D01*
X137427152Y-51027684D01*
X137401241Y-50904194D01*
X137380035Y-50803126D01*
X137380034Y-50803123D01*
X137378938Y-50797899D01*
X137292698Y-50579523D01*
X137240114Y-50492868D01*
X137173664Y-50383361D01*
X137173662Y-50383358D01*
X137170896Y-50378800D01*
X137017015Y-50201468D01*
X136961114Y-50155632D01*
X136839584Y-50055983D01*
X136839578Y-50055979D01*
X136835456Y-50052599D01*
X136830820Y-50049960D01*
X136830817Y-50049958D01*
X136636053Y-49939092D01*
X136631410Y-49936449D01*
X136410711Y-49856339D01*
X136405462Y-49855390D01*
X136405459Y-49855389D01*
X136185440Y-49815603D01*
X136121966Y-49783799D01*
X136085763Y-49722726D01*
X136088325Y-49651776D01*
X136104650Y-49620037D01*
X136104616Y-49620016D01*
X136104893Y-49619564D01*
X136238960Y-49400787D01*
X136240857Y-49396209D01*
X136335461Y-49167813D01*
X136335462Y-49167811D01*
X136337355Y-49163240D01*
X136376083Y-49001926D01*
X136396223Y-48918039D01*
X136396224Y-48918033D01*
X136397378Y-48913226D01*
X136417551Y-48656900D01*
X136397378Y-48400574D01*
X136337355Y-48150560D01*
X136323850Y-48117955D01*
X136316260Y-48047367D01*
X136351164Y-47980640D01*
X136363944Y-47967861D01*
X136392601Y-47939203D01*
X136454914Y-47905179D01*
X136481696Y-47902300D01*
X145282983Y-47902300D01*
X145351104Y-47922302D01*
X145397597Y-47975958D01*
X145407701Y-48046232D01*
X145398090Y-48079549D01*
X145333107Y-48225505D01*
X145328206Y-48236512D01*
X145308353Y-48329913D01*
X145292285Y-48405508D01*
X145288500Y-48423313D01*
X145288500Y-48614287D01*
X145289872Y-48620739D01*
X145289872Y-48620744D01*
X145302580Y-48680530D01*
X145328206Y-48801088D01*
X145330891Y-48807118D01*
X145330891Y-48807119D01*
X145398090Y-48958051D01*
X145407524Y-49028418D01*
X145377417Y-49092715D01*
X145317329Y-49130529D01*
X145282983Y-49135300D01*
X144609967Y-49135300D01*
X144598784Y-49134773D01*
X144591291Y-49133098D01*
X144583365Y-49133347D01*
X144583364Y-49133347D01*
X144523214Y-49135238D01*
X144519255Y-49135300D01*
X144491344Y-49135300D01*
X144487410Y-49135797D01*
X144487409Y-49135797D01*
X144487344Y-49135805D01*
X144475507Y-49136738D01*
X144443249Y-49137752D01*
X144439230Y-49137878D01*
X144431311Y-49138127D01*
X144411857Y-49143779D01*
X144392500Y-49147787D01*
X144380270Y-49149332D01*
X144380269Y-49149332D01*
X144372403Y-49150326D01*
X144365032Y-49153245D01*
X144365030Y-49153245D01*
X144331288Y-49166604D01*
X144320058Y-49170449D01*
X144285217Y-49180571D01*
X144285216Y-49180571D01*
X144277607Y-49182782D01*
X144270788Y-49186815D01*
X144270783Y-49186817D01*
X144260172Y-49193093D01*
X144242424Y-49201788D01*
X144223583Y-49209248D01*
X144217167Y-49213910D01*
X144217166Y-49213910D01*
X144187813Y-49235236D01*
X144177893Y-49241752D01*
X144146665Y-49260220D01*
X144146662Y-49260222D01*
X144139838Y-49264258D01*
X144125517Y-49278579D01*
X144110484Y-49291419D01*
X144094093Y-49303328D01*
X144066989Y-49336091D01*
X144065902Y-49337405D01*
X144057912Y-49346184D01*
X140554000Y-52850095D01*
X140491688Y-52884121D01*
X140464905Y-52887000D01*
X133081496Y-52887000D01*
X133013375Y-52866998D01*
X132966882Y-52813342D01*
X132956778Y-52743068D01*
X132979560Y-52686939D01*
X133057095Y-52580222D01*
X133086024Y-52540404D01*
X133103889Y-52507909D01*
X133235813Y-52267939D01*
X133235814Y-52267936D01*
X133237716Y-52264477D01*
X133353630Y-51971713D01*
X133431936Y-51666730D01*
X133471400Y-51354338D01*
X133471400Y-51039462D01*
X133431936Y-50727070D01*
X133353630Y-50422087D01*
X133346619Y-50404378D01*
X133301531Y-50290501D01*
X133237716Y-50129323D01*
X133231749Y-50118469D01*
X133087933Y-49856868D01*
X133087931Y-49856865D01*
X133086024Y-49853396D01*
X132916136Y-49619564D01*
X132903273Y-49601860D01*
X132903272Y-49601858D01*
X132900945Y-49598656D01*
X132685398Y-49369122D01*
X132442782Y-49168413D01*
X132176924Y-48999694D01*
X132173345Y-48998010D01*
X132173338Y-48998006D01*
X131895606Y-48867316D01*
X131895602Y-48867314D01*
X131892016Y-48865627D01*
X131592552Y-48768325D01*
X131283254Y-48709323D01*
X131189700Y-48703437D01*
X131049642Y-48694625D01*
X131049626Y-48694624D01*
X131047647Y-48694500D01*
X130890353Y-48694500D01*
X130888374Y-48694624D01*
X130888358Y-48694625D01*
X130748300Y-48703437D01*
X130654746Y-48709323D01*
X130345448Y-48768325D01*
X130045984Y-48865627D01*
X130042398Y-48867314D01*
X130042394Y-48867316D01*
X129764662Y-48998006D01*
X129764655Y-48998010D01*
X129761076Y-48999694D01*
X129495218Y-49168413D01*
X129252602Y-49369122D01*
X129037055Y-49598656D01*
X129034728Y-49601858D01*
X129034727Y-49601860D01*
X129021864Y-49619564D01*
X128851976Y-49853396D01*
X128850069Y-49856865D01*
X128850067Y-49856868D01*
X128706251Y-50118469D01*
X128700284Y-50129323D01*
X128636469Y-50290501D01*
X128591382Y-50404378D01*
X128584370Y-50422087D01*
X128506064Y-50727070D01*
X128466600Y-51039462D01*
X128466600Y-51354338D01*
X128506064Y-51666730D01*
X128584370Y-51971713D01*
X128700284Y-52264477D01*
X128702186Y-52267936D01*
X128702187Y-52267939D01*
X128834112Y-52507909D01*
X128851976Y-52540404D01*
X128880906Y-52580222D01*
X128958440Y-52686939D01*
X128982299Y-52753807D01*
X128966218Y-52822958D01*
X128915304Y-52872439D01*
X128856504Y-52887000D01*
X126605095Y-52887000D01*
X126536974Y-52866998D01*
X126516000Y-52850095D01*
X126356701Y-52690796D01*
X126322675Y-52628484D01*
X126327740Y-52557669D01*
X126370287Y-52500833D01*
X126394045Y-52486819D01*
X126559417Y-52412324D01*
X126559420Y-52412323D01*
X126564278Y-52410134D01*
X126759041Y-52279012D01*
X126928927Y-52116949D01*
X127069078Y-51928579D01*
X127071501Y-51923815D01*
X127173069Y-51724044D01*
X127173069Y-51724043D01*
X127175487Y-51719288D01*
X127245111Y-51495060D01*
X127262202Y-51366116D01*
X127275261Y-51267590D01*
X127275261Y-51267587D01*
X127275961Y-51262307D01*
X127267152Y-51027684D01*
X127241241Y-50904194D01*
X127220035Y-50803126D01*
X127220034Y-50803123D01*
X127218938Y-50797899D01*
X127132698Y-50579523D01*
X127129928Y-50574959D01*
X127129926Y-50574954D01*
X127075522Y-50485298D01*
X127057283Y-50416684D01*
X127079035Y-50349102D01*
X127133871Y-50304008D01*
X127173353Y-50294321D01*
X127415326Y-50275278D01*
X127420133Y-50274124D01*
X127420139Y-50274123D01*
X127599345Y-50231099D01*
X127665340Y-50215255D01*
X127686011Y-50206693D01*
X127898313Y-50118755D01*
X127898317Y-50118753D01*
X127902887Y-50116860D01*
X128122116Y-49982516D01*
X128317631Y-49815531D01*
X128484616Y-49620016D01*
X128618960Y-49400787D01*
X128620857Y-49396209D01*
X128715461Y-49167813D01*
X128715462Y-49167811D01*
X128717355Y-49163240D01*
X128756083Y-49001926D01*
X128776223Y-48918039D01*
X128776224Y-48918033D01*
X128777378Y-48913226D01*
X128797551Y-48656900D01*
X128777378Y-48400574D01*
X128717355Y-48150560D01*
X128715461Y-48145986D01*
X128637126Y-47956870D01*
X128618960Y-47913013D01*
X128617559Y-47910726D01*
X128604573Y-47841569D01*
X128631276Y-47775785D01*
X128689304Y-47734881D01*
X128700530Y-47731628D01*
X128882182Y-47688017D01*
X128935340Y-47675255D01*
X128943877Y-47671719D01*
X129168313Y-47578755D01*
X129168317Y-47578753D01*
X129172887Y-47576860D01*
X129392116Y-47442516D01*
X129587631Y-47275531D01*
X129754616Y-47080016D01*
X129888960Y-46860787D01*
X129890964Y-46855951D01*
X129985461Y-46627813D01*
X129985463Y-46627808D01*
X129987355Y-46623240D01*
X130020807Y-46483904D01*
X130056158Y-46422336D01*
X130119185Y-46389653D01*
X130189876Y-46396233D01*
G37*
%TD.AperFunction*%
%TA.AperFunction,NonConductor*%
G36*
X145351104Y-50422302D02*
G01*
X145397597Y-50475958D01*
X145407701Y-50546232D01*
X145398090Y-50579549D01*
X145335355Y-50720456D01*
X145328206Y-50736512D01*
X145306451Y-50838861D01*
X145291211Y-50910560D01*
X145288500Y-50923313D01*
X145288500Y-51114287D01*
X145328206Y-51301088D01*
X145330891Y-51307118D01*
X145330891Y-51307119D01*
X145398090Y-51458051D01*
X145407524Y-51528418D01*
X145377417Y-51592715D01*
X145317329Y-51630529D01*
X145282983Y-51635300D01*
X144398063Y-51635300D01*
X144386879Y-51634773D01*
X144379391Y-51633099D01*
X144371468Y-51633348D01*
X144311333Y-51635238D01*
X144307375Y-51635300D01*
X144279444Y-51635300D01*
X144275529Y-51635795D01*
X144275525Y-51635795D01*
X144275467Y-51635803D01*
X144275438Y-51635806D01*
X144263596Y-51636739D01*
X144219410Y-51638127D01*
X144202044Y-51643172D01*
X144199958Y-51643778D01*
X144180606Y-51647786D01*
X144168368Y-51649332D01*
X144168366Y-51649333D01*
X144160503Y-51650326D01*
X144119386Y-51666606D01*
X144108185Y-51670441D01*
X144065706Y-51682782D01*
X144058887Y-51686815D01*
X144058882Y-51686817D01*
X144048271Y-51693093D01*
X144030521Y-51701790D01*
X144011683Y-51709248D01*
X144005267Y-51713909D01*
X144005266Y-51713910D01*
X143975925Y-51735228D01*
X143966001Y-51741747D01*
X143934760Y-51760222D01*
X143934755Y-51760226D01*
X143927937Y-51764258D01*
X143913613Y-51778582D01*
X143898581Y-51791421D01*
X143882193Y-51803328D01*
X143856999Y-51833782D01*
X143854012Y-51837393D01*
X143846022Y-51846173D01*
X142365000Y-53327195D01*
X142302688Y-53361221D01*
X142275905Y-53364100D01*
X142135994Y-53364100D01*
X142067873Y-53344098D01*
X142021380Y-53290442D01*
X142011276Y-53220168D01*
X142040770Y-53155588D01*
X142046899Y-53149005D01*
X143349732Y-51846173D01*
X144756700Y-50439205D01*
X144819012Y-50405179D01*
X144845795Y-50402300D01*
X145282983Y-50402300D01*
X145351104Y-50422302D01*
G37*
%TD.AperFunction*%
%TA.AperFunction,NonConductor*%
G36*
X117146527Y-45276502D02*
G01*
X117167501Y-45293405D01*
X125023101Y-53149005D01*
X125057127Y-53211317D01*
X125052062Y-53282132D01*
X125009515Y-53338968D01*
X124942995Y-53363779D01*
X124934006Y-53364100D01*
X113575085Y-53364100D01*
X113506964Y-53344098D01*
X113460471Y-53290442D01*
X113450367Y-53220168D01*
X113479861Y-53155588D01*
X113494770Y-53141015D01*
X113632347Y-53027202D01*
X113635398Y-53024678D01*
X113850945Y-52795144D01*
X114036024Y-52540404D01*
X114053889Y-52507909D01*
X114185813Y-52267939D01*
X114185814Y-52267936D01*
X114187716Y-52264477D01*
X114303630Y-51971713D01*
X114381936Y-51666730D01*
X114421400Y-51354338D01*
X114421400Y-51039462D01*
X114381936Y-50727070D01*
X114303630Y-50422087D01*
X114296619Y-50404378D01*
X114251531Y-50290501D01*
X114187716Y-50129323D01*
X114181749Y-50118469D01*
X114037933Y-49856868D01*
X114037931Y-49856865D01*
X114036024Y-49853396D01*
X113866136Y-49619564D01*
X113853273Y-49601860D01*
X113853272Y-49601858D01*
X113850945Y-49598656D01*
X113760792Y-49502653D01*
X113728741Y-49439303D01*
X113736028Y-49368681D01*
X113780339Y-49313210D01*
X113852642Y-49290400D01*
X114139126Y-49290400D01*
X114207247Y-49310402D01*
X114255535Y-49368183D01*
X114267143Y-49396209D01*
X114267145Y-49396213D01*
X114269040Y-49400787D01*
X114403384Y-49620016D01*
X114570369Y-49815531D01*
X114765884Y-49982516D01*
X114985113Y-50116860D01*
X114989683Y-50118753D01*
X114989687Y-50118755D01*
X115201989Y-50206693D01*
X115222660Y-50215255D01*
X115288655Y-50231099D01*
X115467861Y-50274123D01*
X115467867Y-50274124D01*
X115472674Y-50275278D01*
X115710644Y-50294006D01*
X115776984Y-50319291D01*
X115819124Y-50376429D01*
X115823683Y-50447279D01*
X115813074Y-50476723D01*
X115732178Y-50635833D01*
X115712513Y-50674512D01*
X115642889Y-50898740D01*
X115642188Y-50904029D01*
X115613464Y-51120744D01*
X115612039Y-51131493D01*
X115620848Y-51366116D01*
X115621943Y-51371334D01*
X115654903Y-51528418D01*
X115669062Y-51595901D01*
X115755302Y-51814277D01*
X115877104Y-52015000D01*
X116030985Y-52192332D01*
X116035117Y-52195720D01*
X116208416Y-52337817D01*
X116208422Y-52337821D01*
X116212544Y-52341201D01*
X116217180Y-52343840D01*
X116217183Y-52343842D01*
X116328408Y-52407155D01*
X116416590Y-52457351D01*
X116637289Y-52537461D01*
X116642538Y-52538410D01*
X116642541Y-52538411D01*
X116723615Y-52553071D01*
X116868330Y-52579240D01*
X116872469Y-52579435D01*
X116872476Y-52579436D01*
X116891440Y-52580330D01*
X116891449Y-52580330D01*
X116892929Y-52580400D01*
X117057950Y-52580400D01*
X117139299Y-52573497D01*
X117227637Y-52566002D01*
X117227641Y-52566001D01*
X117232948Y-52565551D01*
X117238103Y-52564213D01*
X117238109Y-52564212D01*
X117442475Y-52511169D01*
X117460206Y-52506567D01*
X117465072Y-52504375D01*
X117465075Y-52504374D01*
X117669417Y-52412324D01*
X117669420Y-52412323D01*
X117674278Y-52410134D01*
X117869041Y-52279012D01*
X118038927Y-52116949D01*
X118179078Y-51928579D01*
X118181501Y-51923815D01*
X118283069Y-51724044D01*
X118283069Y-51724043D01*
X118285487Y-51719288D01*
X118355111Y-51495060D01*
X118372202Y-51366116D01*
X118385261Y-51267590D01*
X118385261Y-51267587D01*
X118385961Y-51262307D01*
X118377152Y-51027684D01*
X118351241Y-50904194D01*
X118330035Y-50803126D01*
X118330034Y-50803123D01*
X118328938Y-50797899D01*
X118242698Y-50579523D01*
X118190114Y-50492868D01*
X118123664Y-50383361D01*
X118123662Y-50383358D01*
X118120896Y-50378800D01*
X117967015Y-50201468D01*
X117911114Y-50155632D01*
X117789584Y-50055983D01*
X117789578Y-50055979D01*
X117785456Y-50052599D01*
X117780820Y-50049960D01*
X117780817Y-50049958D01*
X117586053Y-49939092D01*
X117581410Y-49936449D01*
X117360711Y-49856339D01*
X117355462Y-49855390D01*
X117355459Y-49855389D01*
X117135440Y-49815603D01*
X117071966Y-49783799D01*
X117035763Y-49722726D01*
X117038325Y-49651776D01*
X117054650Y-49620037D01*
X117054616Y-49620016D01*
X117054893Y-49619564D01*
X117188960Y-49400787D01*
X117190857Y-49396209D01*
X117285461Y-49167813D01*
X117285462Y-49167811D01*
X117287355Y-49163240D01*
X117326083Y-49001926D01*
X117346223Y-48918039D01*
X117346224Y-48918033D01*
X117347378Y-48913226D01*
X117367551Y-48656900D01*
X117347378Y-48400574D01*
X117287355Y-48150560D01*
X117285461Y-48145987D01*
X117190855Y-47917587D01*
X117190853Y-47917583D01*
X117188960Y-47913013D01*
X117054616Y-47693784D01*
X116887631Y-47498269D01*
X116692116Y-47331284D01*
X116472887Y-47196940D01*
X116468317Y-47195047D01*
X116468313Y-47195045D01*
X116239913Y-47100439D01*
X116239911Y-47100438D01*
X116235340Y-47098545D01*
X116084077Y-47062230D01*
X116000530Y-47042172D01*
X115938961Y-47006820D01*
X115906278Y-46943793D01*
X115912859Y-46873102D01*
X115916933Y-46864095D01*
X115918960Y-46860787D01*
X115997802Y-46670446D01*
X116015461Y-46627813D01*
X116015463Y-46627808D01*
X116017355Y-46623240D01*
X116049801Y-46488093D01*
X116076223Y-46378039D01*
X116076224Y-46378033D01*
X116077378Y-46373226D01*
X116097551Y-46116900D01*
X116077378Y-45860574D01*
X116071595Y-45836483D01*
X116018510Y-45615372D01*
X116017355Y-45610560D01*
X116010422Y-45593821D01*
X115942862Y-45430718D01*
X115935273Y-45360128D01*
X115967052Y-45296641D01*
X116028110Y-45260414D01*
X116059271Y-45256500D01*
X117078406Y-45256500D01*
X117146527Y-45276502D01*
G37*
%TD.AperFunction*%
%TA.AperFunction,NonConductor*%
G36*
X105472557Y-50620502D02*
G01*
X105519050Y-50674158D01*
X105529154Y-50744432D01*
X105524770Y-50763861D01*
X105482889Y-50898740D01*
X105482188Y-50904029D01*
X105453464Y-51120744D01*
X105452039Y-51131493D01*
X105460848Y-51366116D01*
X105461943Y-51371334D01*
X105494903Y-51528418D01*
X105509062Y-51595901D01*
X105595302Y-51814277D01*
X105717104Y-52015000D01*
X105870985Y-52192332D01*
X105875117Y-52195720D01*
X106048416Y-52337817D01*
X106048422Y-52337821D01*
X106052544Y-52341201D01*
X106057180Y-52343840D01*
X106057183Y-52343842D01*
X106168408Y-52407155D01*
X106256590Y-52457351D01*
X106477289Y-52537461D01*
X106482538Y-52538410D01*
X106482541Y-52538411D01*
X106563615Y-52553071D01*
X106708330Y-52579240D01*
X106712469Y-52579435D01*
X106712476Y-52579436D01*
X106731440Y-52580330D01*
X106731449Y-52580330D01*
X106732929Y-52580400D01*
X106897950Y-52580400D01*
X106979299Y-52573497D01*
X107067637Y-52566002D01*
X107067641Y-52566001D01*
X107072948Y-52565551D01*
X107078103Y-52564213D01*
X107078109Y-52564212D01*
X107282475Y-52511169D01*
X107300206Y-52506567D01*
X107305072Y-52504375D01*
X107305075Y-52504374D01*
X107509417Y-52412324D01*
X107509420Y-52412323D01*
X107514278Y-52410134D01*
X107709041Y-52279012D01*
X107878927Y-52116949D01*
X108019078Y-51928579D01*
X108021501Y-51923815D01*
X108123069Y-51724044D01*
X108123069Y-51724043D01*
X108125487Y-51719288D01*
X108195111Y-51495060D01*
X108212202Y-51366116D01*
X108225261Y-51267590D01*
X108225261Y-51267587D01*
X108225961Y-51262307D01*
X108217152Y-51027684D01*
X108203527Y-50962746D01*
X108195014Y-50922174D01*
X108200602Y-50851397D01*
X108243567Y-50794877D01*
X108310268Y-50770558D01*
X108318329Y-50770300D01*
X109168433Y-50770300D01*
X109179616Y-50770827D01*
X109187109Y-50772502D01*
X109195035Y-50772253D01*
X109195036Y-50772253D01*
X109255186Y-50770362D01*
X109259145Y-50770300D01*
X109287056Y-50770300D01*
X109290991Y-50769803D01*
X109291056Y-50769795D01*
X109302910Y-50768862D01*
X109303931Y-50768830D01*
X109372645Y-50786688D01*
X109420796Y-50838861D01*
X109432884Y-50910559D01*
X109416600Y-51039462D01*
X109416600Y-51354338D01*
X109456064Y-51666730D01*
X109534370Y-51971713D01*
X109650284Y-52264477D01*
X109652186Y-52267936D01*
X109652187Y-52267939D01*
X109784112Y-52507909D01*
X109801976Y-52540404D01*
X109987055Y-52795144D01*
X110202602Y-53024678D01*
X110205653Y-53027202D01*
X110343230Y-53141015D01*
X110382968Y-53199849D01*
X110384591Y-53270827D01*
X110347582Y-53331414D01*
X110283692Y-53362375D01*
X110262915Y-53364100D01*
X99297395Y-53364100D01*
X99229274Y-53344098D01*
X99208300Y-53327195D01*
X98523639Y-52642534D01*
X98489613Y-52580222D01*
X98494678Y-52509407D01*
X98537225Y-52452571D01*
X98560982Y-52438558D01*
X98619211Y-52412327D01*
X98619216Y-52412324D01*
X98624078Y-52410134D01*
X98818841Y-52279012D01*
X98988727Y-52116949D01*
X99128878Y-51928579D01*
X99131301Y-51923815D01*
X99232869Y-51724044D01*
X99232869Y-51724043D01*
X99235287Y-51719288D01*
X99304911Y-51495060D01*
X99322002Y-51366116D01*
X99335061Y-51267590D01*
X99335061Y-51267587D01*
X99335761Y-51262307D01*
X99326952Y-51027684D01*
X99301041Y-50904194D01*
X99279835Y-50803126D01*
X99279834Y-50803123D01*
X99278738Y-50797899D01*
X99271221Y-50778866D01*
X99268818Y-50772779D01*
X99262401Y-50702073D01*
X99295230Y-50639122D01*
X99356881Y-50603913D01*
X99386011Y-50600500D01*
X105404436Y-50600500D01*
X105472557Y-50620502D01*
G37*
%TD.AperFunction*%
%TA.AperFunction,NonConductor*%
G36*
X88796733Y-45276302D02*
G01*
X88843226Y-45329958D01*
X88853330Y-45400232D01*
X88845021Y-45430518D01*
X88777379Y-45593821D01*
X88770445Y-45610560D01*
X88769290Y-45615372D01*
X88716206Y-45836483D01*
X88710422Y-45860574D01*
X88704528Y-45935464D01*
X88699128Y-46004075D01*
X88673842Y-46070416D01*
X88662611Y-46083284D01*
X87212647Y-47533248D01*
X87204361Y-47540788D01*
X87197882Y-47544900D01*
X87192457Y-47550677D01*
X87151257Y-47594551D01*
X87148502Y-47597393D01*
X87128765Y-47617130D01*
X87126285Y-47620327D01*
X87118582Y-47629347D01*
X87088314Y-47661579D01*
X87084495Y-47668525D01*
X87084493Y-47668528D01*
X87078552Y-47679334D01*
X87067701Y-47695853D01*
X87055286Y-47711859D01*
X87052141Y-47719128D01*
X87052138Y-47719132D01*
X87037726Y-47752437D01*
X87032509Y-47763087D01*
X87011205Y-47801840D01*
X87009234Y-47809515D01*
X87009234Y-47809516D01*
X87006167Y-47821462D01*
X86999763Y-47840166D01*
X86991719Y-47858755D01*
X86990480Y-47866578D01*
X86990477Y-47866588D01*
X86984801Y-47902424D01*
X86982395Y-47914044D01*
X86981485Y-47917590D01*
X86971400Y-47956870D01*
X86971400Y-47977124D01*
X86969849Y-47996834D01*
X86966680Y-48016843D01*
X86967426Y-48024735D01*
X86970841Y-48060861D01*
X86971400Y-48072719D01*
X86971400Y-49213533D01*
X86970873Y-49224716D01*
X86969198Y-49232209D01*
X86969447Y-49240135D01*
X86969447Y-49240136D01*
X86971338Y-49300286D01*
X86971400Y-49304245D01*
X86971400Y-49332156D01*
X86971897Y-49336090D01*
X86971897Y-49336091D01*
X86971905Y-49336156D01*
X86972838Y-49347993D01*
X86974227Y-49392189D01*
X86977951Y-49405007D01*
X86979878Y-49411639D01*
X86983887Y-49431000D01*
X86986426Y-49451097D01*
X86989345Y-49458468D01*
X86989345Y-49458470D01*
X87002704Y-49492212D01*
X87006549Y-49503442D01*
X87018882Y-49545893D01*
X87022915Y-49552712D01*
X87022917Y-49552717D01*
X87029193Y-49563328D01*
X87037888Y-49581076D01*
X87045348Y-49599917D01*
X87050010Y-49606333D01*
X87050010Y-49606334D01*
X87071336Y-49635687D01*
X87077852Y-49645607D01*
X87094238Y-49673313D01*
X87100358Y-49683662D01*
X87114679Y-49697983D01*
X87127519Y-49713016D01*
X87139428Y-49729407D01*
X87145532Y-49734457D01*
X87145537Y-49734462D01*
X87173463Y-49757564D01*
X87213202Y-49816398D01*
X87214824Y-49887376D01*
X87177814Y-49947963D01*
X87144901Y-49969530D01*
X87118385Y-49981475D01*
X87118381Y-49981477D01*
X87113522Y-49983666D01*
X86918759Y-50114788D01*
X86914902Y-50118467D01*
X86914900Y-50118469D01*
X86907151Y-50125861D01*
X86748873Y-50276851D01*
X86608722Y-50465221D01*
X86606306Y-50469972D01*
X86606304Y-50469976D01*
X86520306Y-50639122D01*
X86502313Y-50674512D01*
X86432689Y-50898740D01*
X86431988Y-50904029D01*
X86403264Y-51120744D01*
X86401839Y-51131493D01*
X86410648Y-51366116D01*
X86411743Y-51371334D01*
X86444703Y-51528418D01*
X86458862Y-51595901D01*
X86545102Y-51814277D01*
X86666904Y-52015000D01*
X86820785Y-52192332D01*
X86824917Y-52195720D01*
X86998216Y-52337817D01*
X86998222Y-52337821D01*
X87002344Y-52341201D01*
X87006980Y-52343840D01*
X87006983Y-52343842D01*
X87118208Y-52407155D01*
X87206390Y-52457351D01*
X87427089Y-52537461D01*
X87432338Y-52538410D01*
X87432341Y-52538411D01*
X87513415Y-52553071D01*
X87658130Y-52579240D01*
X87662269Y-52579435D01*
X87662276Y-52579436D01*
X87681240Y-52580330D01*
X87681249Y-52580330D01*
X87682729Y-52580400D01*
X87847750Y-52580400D01*
X87929099Y-52573497D01*
X88017437Y-52566002D01*
X88017441Y-52566001D01*
X88022748Y-52565551D01*
X88027903Y-52564213D01*
X88027909Y-52564212D01*
X88232275Y-52511169D01*
X88250006Y-52506567D01*
X88254872Y-52504375D01*
X88254875Y-52504374D01*
X88459217Y-52412324D01*
X88459220Y-52412323D01*
X88464078Y-52410134D01*
X88658841Y-52279012D01*
X88828727Y-52116949D01*
X88968878Y-51928579D01*
X88971296Y-51923823D01*
X88971301Y-51923815D01*
X89017077Y-51833782D01*
X89065780Y-51782124D01*
X89134680Y-51764998D01*
X89201901Y-51787841D01*
X89218488Y-51801792D01*
X95834101Y-58417405D01*
X95868127Y-58479717D01*
X95863062Y-58550532D01*
X95820515Y-58607368D01*
X95753995Y-58632179D01*
X95745006Y-58632500D01*
X87009095Y-58632500D01*
X86940974Y-58612498D01*
X86920000Y-58595595D01*
X86272752Y-57948347D01*
X86265212Y-57940061D01*
X86261100Y-57933582D01*
X86211448Y-57886956D01*
X86208607Y-57884202D01*
X86188870Y-57864465D01*
X86185673Y-57861985D01*
X86176651Y-57854280D01*
X86163216Y-57841664D01*
X86144421Y-57824014D01*
X86137475Y-57820195D01*
X86137472Y-57820193D01*
X86126666Y-57814252D01*
X86110147Y-57803401D01*
X86109683Y-57803041D01*
X86094141Y-57790986D01*
X86086872Y-57787841D01*
X86086868Y-57787838D01*
X86053563Y-57773426D01*
X86042913Y-57768209D01*
X86012773Y-57751640D01*
X85962715Y-57701295D01*
X85948212Y-57654834D01*
X85947181Y-57645345D01*
X85945545Y-57630284D01*
X85894415Y-57493895D01*
X85807061Y-57377339D01*
X85690505Y-57289985D01*
X85554116Y-57238855D01*
X85491934Y-57232100D01*
X84495666Y-57232100D01*
X84433484Y-57238855D01*
X84297095Y-57289985D01*
X84180539Y-57377339D01*
X84093185Y-57493895D01*
X84042055Y-57630284D01*
X84040419Y-57645345D01*
X84039488Y-57653913D01*
X84012246Y-57719475D01*
X83966763Y-57754043D01*
X83964907Y-57754582D01*
X83958089Y-57758614D01*
X83958080Y-57758618D01*
X83947468Y-57764894D01*
X83929718Y-57773590D01*
X83918256Y-57778128D01*
X83918251Y-57778131D01*
X83910883Y-57781048D01*
X83893470Y-57793699D01*
X83875125Y-57807027D01*
X83865207Y-57813543D01*
X83853963Y-57820193D01*
X83827137Y-57836058D01*
X83812813Y-57850382D01*
X83797783Y-57863220D01*
X83781393Y-57875128D01*
X83753212Y-57909193D01*
X83745222Y-57917973D01*
X83067600Y-58595595D01*
X83005288Y-58629621D01*
X82978505Y-58632500D01*
X82778300Y-58632500D01*
X82710179Y-58612498D01*
X82663686Y-58558842D01*
X82652300Y-58506500D01*
X82652300Y-57692466D01*
X82645545Y-57630284D01*
X82594415Y-57493895D01*
X82507061Y-57377339D01*
X82390505Y-57289985D01*
X82389849Y-57289739D01*
X82342643Y-57242425D01*
X82327300Y-57182167D01*
X82327300Y-50722563D01*
X82327827Y-50711379D01*
X82329501Y-50703891D01*
X82327362Y-50635832D01*
X82327300Y-50631875D01*
X82327300Y-50603944D01*
X82326794Y-50599938D01*
X82325861Y-50588092D01*
X82325449Y-50574960D01*
X82324473Y-50543910D01*
X82318822Y-50524458D01*
X82314814Y-50505106D01*
X82313268Y-50492868D01*
X82313267Y-50492866D01*
X82312274Y-50485003D01*
X82295994Y-50443886D01*
X82292159Y-50432685D01*
X82279818Y-50390206D01*
X82275785Y-50383387D01*
X82275783Y-50383382D01*
X82269507Y-50372771D01*
X82260810Y-50355021D01*
X82253352Y-50336183D01*
X82227371Y-50300423D01*
X82220853Y-50290501D01*
X82202378Y-50259260D01*
X82202374Y-50259255D01*
X82198342Y-50252437D01*
X82184018Y-50238113D01*
X82171176Y-50223078D01*
X82159272Y-50206693D01*
X82152957Y-50201468D01*
X82125207Y-50178512D01*
X82116427Y-50170522D01*
X78024630Y-46078725D01*
X77990604Y-46016413D01*
X77988113Y-45999516D01*
X77977566Y-45865508D01*
X77977178Y-45860574D01*
X77971395Y-45836483D01*
X77918310Y-45615372D01*
X77917155Y-45610560D01*
X77910222Y-45593821D01*
X77842579Y-45430518D01*
X77834990Y-45359928D01*
X77866769Y-45296441D01*
X77927827Y-45260214D01*
X77958988Y-45256300D01*
X88728612Y-45256300D01*
X88796733Y-45276302D01*
G37*
%TD.AperFunction*%
%TA.AperFunction,NonConductor*%
G36*
X69746733Y-45276302D02*
G01*
X69793226Y-45329958D01*
X69803330Y-45400232D01*
X69795021Y-45430518D01*
X69727379Y-45593821D01*
X69720445Y-45610560D01*
X69719290Y-45615372D01*
X69666206Y-45836483D01*
X69660422Y-45860574D01*
X69640249Y-46116900D01*
X69660422Y-46373226D01*
X69661576Y-46378033D01*
X69661577Y-46378039D01*
X69687999Y-46488093D01*
X69720445Y-46623240D01*
X69722337Y-46627808D01*
X69722339Y-46627813D01*
X69739998Y-46670446D01*
X69818840Y-46860787D01*
X69820241Y-46863074D01*
X69833227Y-46932231D01*
X69806524Y-46998015D01*
X69748496Y-47038919D01*
X69737270Y-47042172D01*
X69653723Y-47062230D01*
X69502460Y-47098545D01*
X69497889Y-47100438D01*
X69497887Y-47100439D01*
X69269487Y-47195045D01*
X69269483Y-47195047D01*
X69264913Y-47196940D01*
X69045684Y-47331284D01*
X68850169Y-47498269D01*
X68683184Y-47693784D01*
X68548840Y-47913013D01*
X68546947Y-47917583D01*
X68546945Y-47917587D01*
X68452339Y-48145987D01*
X68450445Y-48150560D01*
X68390422Y-48400574D01*
X68370249Y-48656900D01*
X68390422Y-48913226D01*
X68391576Y-48918033D01*
X68391577Y-48918039D01*
X68411717Y-49001926D01*
X68450445Y-49163240D01*
X68452338Y-49167811D01*
X68452339Y-49167813D01*
X68546944Y-49396209D01*
X68548840Y-49400787D01*
X68683184Y-49620016D01*
X68684719Y-49621814D01*
X68708341Y-49687998D01*
X68692267Y-49757151D01*
X68641358Y-49806636D01*
X68593201Y-49820752D01*
X68510163Y-49827798D01*
X68510159Y-49827799D01*
X68504852Y-49828249D01*
X68499697Y-49829587D01*
X68499691Y-49829588D01*
X68366002Y-49864287D01*
X68277594Y-49887233D01*
X68272728Y-49889425D01*
X68272725Y-49889426D01*
X68068383Y-49981476D01*
X68068380Y-49981477D01*
X68063522Y-49983666D01*
X67868759Y-50114788D01*
X67864902Y-50118467D01*
X67864900Y-50118469D01*
X67857151Y-50125861D01*
X67698873Y-50276851D01*
X67558722Y-50465221D01*
X67556306Y-50469972D01*
X67556304Y-50469976D01*
X67470306Y-50639122D01*
X67452313Y-50674512D01*
X67382689Y-50898740D01*
X67381988Y-50904029D01*
X67353264Y-51120744D01*
X67351839Y-51131493D01*
X67360648Y-51366116D01*
X67361743Y-51371334D01*
X67394703Y-51528418D01*
X67408862Y-51595901D01*
X67495102Y-51814277D01*
X67616904Y-52015000D01*
X67770785Y-52192332D01*
X67774917Y-52195720D01*
X67948216Y-52337817D01*
X67948222Y-52337821D01*
X67952344Y-52341201D01*
X67956980Y-52343840D01*
X67956983Y-52343842D01*
X68068208Y-52407155D01*
X68156390Y-52457351D01*
X68377089Y-52537461D01*
X68382338Y-52538410D01*
X68382341Y-52538411D01*
X68463415Y-52553071D01*
X68608130Y-52579240D01*
X68612269Y-52579435D01*
X68612276Y-52579436D01*
X68631240Y-52580330D01*
X68631249Y-52580330D01*
X68632729Y-52580400D01*
X68797750Y-52580400D01*
X68879099Y-52573497D01*
X68967437Y-52566002D01*
X68967441Y-52566001D01*
X68972748Y-52565551D01*
X68977903Y-52564213D01*
X68977909Y-52564212D01*
X69182275Y-52511169D01*
X69200006Y-52506567D01*
X69204872Y-52504375D01*
X69204875Y-52504374D01*
X69409217Y-52412324D01*
X69409220Y-52412323D01*
X69414078Y-52410134D01*
X69608841Y-52279012D01*
X69778727Y-52116949D01*
X69918878Y-51928579D01*
X69921301Y-51923815D01*
X70022869Y-51724044D01*
X70022869Y-51724043D01*
X70025287Y-51719288D01*
X70094911Y-51495060D01*
X70112002Y-51366116D01*
X70113563Y-51354338D01*
X71316400Y-51354338D01*
X71355864Y-51666730D01*
X71434170Y-51971713D01*
X71550084Y-52264477D01*
X71551986Y-52267936D01*
X71551987Y-52267939D01*
X71683912Y-52507909D01*
X71701776Y-52540404D01*
X71886855Y-52795144D01*
X72102402Y-53024678D01*
X72345018Y-53225387D01*
X72610876Y-53394106D01*
X72614455Y-53395790D01*
X72614462Y-53395794D01*
X72892194Y-53526484D01*
X72892198Y-53526486D01*
X72895784Y-53528173D01*
X73195248Y-53625475D01*
X73504546Y-53684477D01*
X73598100Y-53690363D01*
X73738158Y-53699175D01*
X73738174Y-53699176D01*
X73740153Y-53699300D01*
X73897447Y-53699300D01*
X73899426Y-53699176D01*
X73899442Y-53699175D01*
X74039500Y-53690363D01*
X74133054Y-53684477D01*
X74442352Y-53625475D01*
X74741816Y-53528173D01*
X74745402Y-53526486D01*
X74745406Y-53526484D01*
X75023138Y-53395794D01*
X75023145Y-53395790D01*
X75026724Y-53394106D01*
X75292582Y-53225387D01*
X75535198Y-53024678D01*
X75750745Y-52795144D01*
X75935824Y-52540404D01*
X75953689Y-52507909D01*
X76085613Y-52267939D01*
X76085614Y-52267936D01*
X76087516Y-52264477D01*
X76203430Y-51971713D01*
X76281736Y-51666730D01*
X76321200Y-51354338D01*
X76321200Y-51039462D01*
X76281736Y-50727070D01*
X76203430Y-50422087D01*
X76196419Y-50404378D01*
X76151331Y-50290501D01*
X76087516Y-50129323D01*
X76081549Y-50118469D01*
X75937733Y-49856868D01*
X75937731Y-49856865D01*
X75935824Y-49853396D01*
X75765936Y-49619564D01*
X75753073Y-49601860D01*
X75753072Y-49601858D01*
X75750745Y-49598656D01*
X75535198Y-49369122D01*
X75292582Y-49168413D01*
X75026724Y-48999694D01*
X75023145Y-48998010D01*
X75023138Y-48998006D01*
X74745406Y-48867316D01*
X74745402Y-48867314D01*
X74741816Y-48865627D01*
X74442352Y-48768325D01*
X74133054Y-48709323D01*
X74039500Y-48703437D01*
X73899442Y-48694625D01*
X73899426Y-48694624D01*
X73897447Y-48694500D01*
X73740153Y-48694500D01*
X73738174Y-48694624D01*
X73738158Y-48694625D01*
X73598100Y-48703437D01*
X73504546Y-48709323D01*
X73195248Y-48768325D01*
X72895784Y-48865627D01*
X72892198Y-48867314D01*
X72892194Y-48867316D01*
X72614462Y-48998006D01*
X72614455Y-48998010D01*
X72610876Y-48999694D01*
X72345018Y-49168413D01*
X72102402Y-49369122D01*
X71886855Y-49598656D01*
X71884528Y-49601858D01*
X71884527Y-49601860D01*
X71871664Y-49619564D01*
X71701776Y-49853396D01*
X71699869Y-49856865D01*
X71699867Y-49856868D01*
X71556051Y-50118469D01*
X71550084Y-50129323D01*
X71486269Y-50290501D01*
X71441182Y-50404378D01*
X71434170Y-50422087D01*
X71355864Y-50727070D01*
X71316400Y-51039462D01*
X71316400Y-51354338D01*
X70113563Y-51354338D01*
X70125061Y-51267590D01*
X70125061Y-51267587D01*
X70125761Y-51262307D01*
X70116952Y-51027684D01*
X70091041Y-50904194D01*
X70069835Y-50803126D01*
X70069834Y-50803123D01*
X70068738Y-50797899D01*
X69982498Y-50579523D01*
X69979728Y-50574959D01*
X69979726Y-50574954D01*
X69925322Y-50485298D01*
X69907083Y-50416684D01*
X69928835Y-50349102D01*
X69983671Y-50304008D01*
X70023153Y-50294321D01*
X70265126Y-50275278D01*
X70269933Y-50274124D01*
X70269939Y-50274123D01*
X70449145Y-50231099D01*
X70515140Y-50215255D01*
X70535811Y-50206693D01*
X70748113Y-50118755D01*
X70748117Y-50118753D01*
X70752687Y-50116860D01*
X70971916Y-49982516D01*
X71167431Y-49815531D01*
X71334416Y-49620016D01*
X71468760Y-49400787D01*
X71470657Y-49396209D01*
X71565261Y-49167813D01*
X71565262Y-49167811D01*
X71567155Y-49163240D01*
X71605883Y-49001926D01*
X71626023Y-48918039D01*
X71626024Y-48918033D01*
X71627178Y-48913226D01*
X71647351Y-48656900D01*
X71627178Y-48400574D01*
X71567155Y-48150560D01*
X71565261Y-48145986D01*
X71486926Y-47956870D01*
X71468760Y-47913013D01*
X71467359Y-47910726D01*
X71454373Y-47841569D01*
X71481076Y-47775785D01*
X71539104Y-47734881D01*
X71550330Y-47731628D01*
X71731982Y-47688017D01*
X71785140Y-47675255D01*
X71793677Y-47671719D01*
X72018113Y-47578755D01*
X72018117Y-47578753D01*
X72022687Y-47576860D01*
X72241916Y-47442516D01*
X72437431Y-47275531D01*
X72604416Y-47080016D01*
X72738760Y-46860787D01*
X72740764Y-46855951D01*
X72835261Y-46627813D01*
X72835263Y-46627808D01*
X72837155Y-46623240D01*
X72869601Y-46488093D01*
X72896023Y-46378039D01*
X72896024Y-46378033D01*
X72897178Y-46373226D01*
X72917351Y-46116900D01*
X72897178Y-45860574D01*
X72891395Y-45836483D01*
X72838310Y-45615372D01*
X72837155Y-45610560D01*
X72830222Y-45593821D01*
X72762579Y-45430518D01*
X72754990Y-45359928D01*
X72786769Y-45296441D01*
X72847827Y-45260214D01*
X72878988Y-45256300D01*
X74758612Y-45256300D01*
X74826733Y-45276302D01*
X74873226Y-45329958D01*
X74883330Y-45400232D01*
X74875021Y-45430518D01*
X74807379Y-45593821D01*
X74800445Y-45610560D01*
X74799290Y-45615372D01*
X74746206Y-45836483D01*
X74740422Y-45860574D01*
X74720249Y-46116900D01*
X74740422Y-46373226D01*
X74741576Y-46378033D01*
X74741577Y-46378039D01*
X74767999Y-46488093D01*
X74800445Y-46623240D01*
X74802337Y-46627808D01*
X74802339Y-46627813D01*
X74896837Y-46855951D01*
X74898840Y-46860787D01*
X75033184Y-47080016D01*
X75200169Y-47275531D01*
X75395684Y-47442516D01*
X75614913Y-47576860D01*
X75619483Y-47578753D01*
X75619487Y-47578755D01*
X75843923Y-47671719D01*
X75852460Y-47675255D01*
X75905618Y-47688017D01*
X76087270Y-47731628D01*
X76148839Y-47766980D01*
X76181522Y-47830007D01*
X76174941Y-47900698D01*
X76170867Y-47909705D01*
X76168840Y-47913013D01*
X76150674Y-47956870D01*
X76072340Y-48145986D01*
X76070445Y-48150560D01*
X76010422Y-48400574D01*
X75990249Y-48656900D01*
X76010422Y-48913226D01*
X76011576Y-48918033D01*
X76011577Y-48918039D01*
X76031717Y-49001926D01*
X76070445Y-49163240D01*
X76072338Y-49167811D01*
X76072339Y-49167813D01*
X76166944Y-49396209D01*
X76168840Y-49400787D01*
X76303184Y-49620016D01*
X76470169Y-49815531D01*
X76665684Y-49982516D01*
X76884913Y-50116860D01*
X76889483Y-50118753D01*
X76889487Y-50118755D01*
X77101789Y-50206693D01*
X77122460Y-50215255D01*
X77188455Y-50231099D01*
X77367661Y-50274123D01*
X77367667Y-50274124D01*
X77372474Y-50275278D01*
X77610444Y-50294006D01*
X77676784Y-50319291D01*
X77718924Y-50376429D01*
X77723483Y-50447279D01*
X77712874Y-50476723D01*
X77631978Y-50635833D01*
X77612313Y-50674512D01*
X77542689Y-50898740D01*
X77541988Y-50904029D01*
X77513264Y-51120744D01*
X77511839Y-51131493D01*
X77520648Y-51366116D01*
X77521743Y-51371334D01*
X77554703Y-51528418D01*
X77568862Y-51595901D01*
X77655102Y-51814277D01*
X77776904Y-52015000D01*
X77930785Y-52192332D01*
X77934917Y-52195720D01*
X78108216Y-52337817D01*
X78108222Y-52337821D01*
X78112344Y-52341201D01*
X78116980Y-52343840D01*
X78116983Y-52343842D01*
X78228208Y-52407155D01*
X78316390Y-52457351D01*
X78537089Y-52537461D01*
X78542338Y-52538410D01*
X78542341Y-52538411D01*
X78623415Y-52553071D01*
X78768130Y-52579240D01*
X78772269Y-52579435D01*
X78772276Y-52579436D01*
X78791240Y-52580330D01*
X78791249Y-52580330D01*
X78792729Y-52580400D01*
X78957750Y-52580400D01*
X79039099Y-52573497D01*
X79127437Y-52566002D01*
X79127441Y-52566001D01*
X79132748Y-52565551D01*
X79137903Y-52564213D01*
X79137909Y-52564212D01*
X79342275Y-52511169D01*
X79360006Y-52506567D01*
X79364872Y-52504375D01*
X79364875Y-52504374D01*
X79569217Y-52412324D01*
X79569220Y-52412323D01*
X79574078Y-52410134D01*
X79768841Y-52279012D01*
X79938727Y-52116949D01*
X80078878Y-51928579D01*
X80081301Y-51923815D01*
X80182869Y-51724044D01*
X80182869Y-51724043D01*
X80185287Y-51719288D01*
X80254911Y-51495060D01*
X80272002Y-51366116D01*
X80285061Y-51267590D01*
X80285061Y-51267587D01*
X80285761Y-51262307D01*
X80276952Y-51027684D01*
X80251041Y-50904194D01*
X80229835Y-50803126D01*
X80229834Y-50803123D01*
X80228738Y-50797899D01*
X80142498Y-50579523D01*
X80089914Y-50492868D01*
X80023464Y-50383361D01*
X80023462Y-50383358D01*
X80020696Y-50378800D01*
X79866815Y-50201468D01*
X79810914Y-50155632D01*
X79689384Y-50055983D01*
X79689378Y-50055979D01*
X79685256Y-50052599D01*
X79680620Y-50049960D01*
X79680617Y-50049958D01*
X79485853Y-49939092D01*
X79481210Y-49936449D01*
X79260511Y-49856339D01*
X79255262Y-49855390D01*
X79255259Y-49855389D01*
X79035240Y-49815603D01*
X78971766Y-49783799D01*
X78935563Y-49722726D01*
X78938125Y-49651776D01*
X78954450Y-49620037D01*
X78954416Y-49620016D01*
X78954693Y-49619564D01*
X79088760Y-49400787D01*
X79090657Y-49396209D01*
X79153121Y-49245406D01*
X79197669Y-49190125D01*
X79265033Y-49167704D01*
X79333824Y-49185262D01*
X79358625Y-49204529D01*
X81023395Y-50869299D01*
X81057421Y-50931611D01*
X81060300Y-50958394D01*
X81060300Y-57182167D01*
X81040298Y-57250288D01*
X80998122Y-57289600D01*
X80997095Y-57289985D01*
X80880539Y-57377339D01*
X80793185Y-57493895D01*
X80742055Y-57630284D01*
X80735300Y-57692466D01*
X80735300Y-58506500D01*
X80715298Y-58574621D01*
X80661642Y-58621114D01*
X80609300Y-58632500D01*
X67959095Y-58632500D01*
X67890974Y-58612498D01*
X67870000Y-58595595D01*
X67222752Y-57948347D01*
X67215212Y-57940061D01*
X67211100Y-57933582D01*
X67161448Y-57886956D01*
X67158607Y-57884202D01*
X67138870Y-57864465D01*
X67135673Y-57861985D01*
X67126651Y-57854280D01*
X67113216Y-57841664D01*
X67094421Y-57824014D01*
X67087475Y-57820195D01*
X67087472Y-57820193D01*
X67076666Y-57814252D01*
X67060147Y-57803401D01*
X67059683Y-57803041D01*
X67044141Y-57790986D01*
X67036872Y-57787841D01*
X67036868Y-57787838D01*
X67003563Y-57773426D01*
X66992913Y-57768209D01*
X66962773Y-57751640D01*
X66912715Y-57701295D01*
X66898212Y-57654834D01*
X66897181Y-57645345D01*
X66895545Y-57630284D01*
X66844415Y-57493895D01*
X66757061Y-57377339D01*
X66640505Y-57289985D01*
X66504116Y-57238855D01*
X66441934Y-57232100D01*
X65445666Y-57232100D01*
X65383484Y-57238855D01*
X65247095Y-57289985D01*
X65130539Y-57377339D01*
X65043185Y-57493895D01*
X64992055Y-57630284D01*
X64990419Y-57645345D01*
X64989488Y-57653913D01*
X64962246Y-57719475D01*
X64916765Y-57754042D01*
X64914906Y-57754582D01*
X64908079Y-57758620D01*
X64908078Y-57758620D01*
X64897471Y-57764893D01*
X64879721Y-57773590D01*
X64860883Y-57781048D01*
X64854467Y-57785709D01*
X64854466Y-57785710D01*
X64825125Y-57807028D01*
X64815201Y-57813547D01*
X64783960Y-57832022D01*
X64783956Y-57832025D01*
X64777137Y-57836058D01*
X64762813Y-57850382D01*
X64747783Y-57863220D01*
X64731393Y-57875128D01*
X64703212Y-57909193D01*
X64695222Y-57917973D01*
X64012800Y-58600395D01*
X63950488Y-58634421D01*
X63923705Y-58637300D01*
X63728300Y-58637300D01*
X63660179Y-58617298D01*
X63613686Y-58563642D01*
X63602300Y-58511300D01*
X63602300Y-57692466D01*
X63595545Y-57630284D01*
X63544415Y-57493895D01*
X63457061Y-57377339D01*
X63340505Y-57289985D01*
X63204116Y-57238855D01*
X63141934Y-57232100D01*
X62145666Y-57232100D01*
X62083484Y-57238855D01*
X61947095Y-57289985D01*
X61939910Y-57295370D01*
X61939908Y-57295371D01*
X61901151Y-57324418D01*
X61834644Y-57349266D01*
X61765262Y-57334213D01*
X61736491Y-57312687D01*
X59779115Y-55355310D01*
X57791205Y-53367400D01*
X57757179Y-53305088D01*
X57754300Y-53278305D01*
X57754300Y-50272041D01*
X57774302Y-50203920D01*
X57827958Y-50157427D01*
X57898232Y-50147323D01*
X57928515Y-50155631D01*
X57998213Y-50184501D01*
X58039586Y-50201638D01*
X58072460Y-50215255D01*
X58138455Y-50231099D01*
X58317661Y-50274123D01*
X58317667Y-50274124D01*
X58322474Y-50275278D01*
X58560444Y-50294006D01*
X58626784Y-50319291D01*
X58668924Y-50376429D01*
X58673483Y-50447279D01*
X58662874Y-50476723D01*
X58581978Y-50635833D01*
X58562313Y-50674512D01*
X58492689Y-50898740D01*
X58491988Y-50904029D01*
X58463264Y-51120744D01*
X58461839Y-51131493D01*
X58470648Y-51366116D01*
X58471743Y-51371334D01*
X58504703Y-51528418D01*
X58518862Y-51595901D01*
X58605102Y-51814277D01*
X58726904Y-52015000D01*
X58880785Y-52192332D01*
X58884917Y-52195720D01*
X59058216Y-52337817D01*
X59058222Y-52337821D01*
X59062344Y-52341201D01*
X59066980Y-52343840D01*
X59066983Y-52343842D01*
X59178208Y-52407155D01*
X59266390Y-52457351D01*
X59487089Y-52537461D01*
X59492338Y-52538410D01*
X59492341Y-52538411D01*
X59573415Y-52553071D01*
X59718130Y-52579240D01*
X59722269Y-52579435D01*
X59722276Y-52579436D01*
X59741240Y-52580330D01*
X59741249Y-52580330D01*
X59742729Y-52580400D01*
X59907750Y-52580400D01*
X59989099Y-52573497D01*
X60077437Y-52566002D01*
X60077441Y-52566001D01*
X60082748Y-52565551D01*
X60087903Y-52564213D01*
X60087909Y-52564212D01*
X60292275Y-52511169D01*
X60310006Y-52506567D01*
X60314872Y-52504375D01*
X60314875Y-52504374D01*
X60519217Y-52412324D01*
X60519220Y-52412323D01*
X60524078Y-52410134D01*
X60718841Y-52279012D01*
X60888727Y-52116949D01*
X61028878Y-51928579D01*
X61031301Y-51923815D01*
X61132869Y-51724044D01*
X61132869Y-51724043D01*
X61135287Y-51719288D01*
X61204911Y-51495060D01*
X61222002Y-51366116D01*
X61235061Y-51267590D01*
X61235061Y-51267587D01*
X61235761Y-51262307D01*
X61226952Y-51027684D01*
X61201041Y-50904194D01*
X61179835Y-50803126D01*
X61179834Y-50803123D01*
X61178738Y-50797899D01*
X61092498Y-50579523D01*
X61039914Y-50492868D01*
X60973464Y-50383361D01*
X60973462Y-50383358D01*
X60970696Y-50378800D01*
X60816815Y-50201468D01*
X60760914Y-50155632D01*
X60639384Y-50055983D01*
X60639378Y-50055979D01*
X60635256Y-50052599D01*
X60630620Y-50049960D01*
X60630617Y-50049958D01*
X60435853Y-49939092D01*
X60431210Y-49936449D01*
X60210511Y-49856339D01*
X60205262Y-49855390D01*
X60205259Y-49855389D01*
X59985240Y-49815603D01*
X59921766Y-49783799D01*
X59885563Y-49722726D01*
X59888125Y-49651776D01*
X59904450Y-49620037D01*
X59904416Y-49620016D01*
X59904693Y-49619564D01*
X60038760Y-49400787D01*
X60040657Y-49396209D01*
X60135261Y-49167813D01*
X60135262Y-49167811D01*
X60137155Y-49163240D01*
X60175883Y-49001926D01*
X60196023Y-48918039D01*
X60196024Y-48918033D01*
X60197178Y-48913226D01*
X60217351Y-48656900D01*
X60197178Y-48400574D01*
X60137155Y-48150560D01*
X60135261Y-48145987D01*
X60040655Y-47917587D01*
X60040653Y-47917583D01*
X60038760Y-47913013D01*
X59904416Y-47693784D01*
X59737431Y-47498269D01*
X59541916Y-47331284D01*
X59322687Y-47196940D01*
X59318117Y-47195047D01*
X59318113Y-47195045D01*
X59089713Y-47100439D01*
X59089711Y-47100438D01*
X59085140Y-47098545D01*
X58933877Y-47062230D01*
X58850330Y-47042172D01*
X58788761Y-47006820D01*
X58756078Y-46943793D01*
X58762659Y-46873102D01*
X58766733Y-46864095D01*
X58768760Y-46860787D01*
X58847602Y-46670446D01*
X58865261Y-46627813D01*
X58865263Y-46627808D01*
X58867155Y-46623240D01*
X58899601Y-46488093D01*
X58926023Y-46378039D01*
X58926024Y-46378033D01*
X58927178Y-46373226D01*
X58947351Y-46116900D01*
X58927178Y-45860574D01*
X58921395Y-45836483D01*
X58868310Y-45615372D01*
X58867155Y-45610560D01*
X58860222Y-45593821D01*
X58792579Y-45430518D01*
X58784990Y-45359928D01*
X58816769Y-45296441D01*
X58877827Y-45260214D01*
X58908988Y-45256300D01*
X69678612Y-45256300D01*
X69746733Y-45276302D01*
G37*
%TD.AperFunction*%
%TA.AperFunction,NonConductor*%
G36*
X95561190Y-51471894D02*
G01*
X98479143Y-54389847D01*
X98486687Y-54398137D01*
X98490800Y-54404618D01*
X98496577Y-54410043D01*
X98540467Y-54451258D01*
X98543309Y-54454013D01*
X98563030Y-54473734D01*
X98566225Y-54476212D01*
X98575247Y-54483918D01*
X98607479Y-54514186D01*
X98614428Y-54518006D01*
X98625232Y-54523946D01*
X98641756Y-54534799D01*
X98657759Y-54547213D01*
X98698343Y-54564776D01*
X98708973Y-54569983D01*
X98747740Y-54591295D01*
X98755417Y-54593266D01*
X98755422Y-54593268D01*
X98767358Y-54596332D01*
X98786066Y-54602737D01*
X98804655Y-54610781D01*
X98812480Y-54612020D01*
X98812482Y-54612021D01*
X98848319Y-54617697D01*
X98859940Y-54620104D01*
X98891759Y-54628273D01*
X98902770Y-54631100D01*
X98923031Y-54631100D01*
X98942740Y-54632651D01*
X98962743Y-54635819D01*
X98970635Y-54635073D01*
X98975862Y-54634579D01*
X99006754Y-54631659D01*
X99018611Y-54631100D01*
X142511733Y-54631100D01*
X142522916Y-54631627D01*
X142530409Y-54633302D01*
X142538335Y-54633053D01*
X142538336Y-54633053D01*
X142598486Y-54631162D01*
X142602445Y-54631100D01*
X142630356Y-54631100D01*
X142634291Y-54630603D01*
X142634356Y-54630595D01*
X142646193Y-54629662D01*
X142678451Y-54628648D01*
X142682470Y-54628522D01*
X142690389Y-54628273D01*
X142709843Y-54622621D01*
X142729200Y-54618613D01*
X142741430Y-54617068D01*
X142741431Y-54617068D01*
X142749297Y-54616074D01*
X142756668Y-54613155D01*
X142756670Y-54613155D01*
X142790412Y-54599796D01*
X142801642Y-54595951D01*
X142836483Y-54585829D01*
X142836484Y-54585829D01*
X142844093Y-54583618D01*
X142850912Y-54579585D01*
X142850917Y-54579583D01*
X142861528Y-54573307D01*
X142879276Y-54564612D01*
X142898117Y-54557152D01*
X142918487Y-54542353D01*
X142933887Y-54531164D01*
X142943807Y-54524648D01*
X142975035Y-54506180D01*
X142975038Y-54506178D01*
X142981862Y-54502142D01*
X142996183Y-54487821D01*
X143011217Y-54474980D01*
X143012932Y-54473734D01*
X143027607Y-54463072D01*
X143055798Y-54428995D01*
X143063788Y-54420216D01*
X144544799Y-52939205D01*
X144607111Y-52905179D01*
X144633894Y-52902300D01*
X145282983Y-52902300D01*
X145351104Y-52922302D01*
X145397597Y-52975958D01*
X145407701Y-53046232D01*
X145398090Y-53079549D01*
X145333323Y-53225020D01*
X145328206Y-53236512D01*
X145313630Y-53305088D01*
X145295160Y-53391982D01*
X145288500Y-53423313D01*
X145288500Y-53614287D01*
X145289872Y-53620739D01*
X145289872Y-53620744D01*
X145303472Y-53684726D01*
X145328206Y-53801088D01*
X145330891Y-53807118D01*
X145330891Y-53807119D01*
X145389291Y-53938287D01*
X145405882Y-53975552D01*
X145409762Y-53980892D01*
X145409763Y-53980894D01*
X145423245Y-53999450D01*
X145447103Y-54066318D01*
X145429085Y-54138782D01*
X145346528Y-54275101D01*
X145295247Y-54438738D01*
X145288500Y-54512165D01*
X145288501Y-55025434D01*
X145295247Y-55098862D01*
X145297246Y-55105240D01*
X145297246Y-55105241D01*
X145328527Y-55205057D01*
X145346528Y-55262499D01*
X145435361Y-55409181D01*
X145556619Y-55530439D01*
X145703301Y-55619272D01*
X145710548Y-55621543D01*
X145710550Y-55621544D01*
X145740281Y-55630861D01*
X145802267Y-55650286D01*
X145861287Y-55689742D01*
X145889607Y-55754846D01*
X145878234Y-55824925D01*
X145853681Y-55859614D01*
X144043100Y-57670195D01*
X143980788Y-57704221D01*
X143954005Y-57707100D01*
X140829870Y-57707100D01*
X140761749Y-57687098D01*
X140715256Y-57633442D01*
X140711888Y-57625330D01*
X140665767Y-57502303D01*
X140662615Y-57493895D01*
X140575261Y-57377339D01*
X140458705Y-57289985D01*
X140322316Y-57238855D01*
X140260134Y-57232100D01*
X139263866Y-57232100D01*
X139201684Y-57238855D01*
X139065295Y-57289985D01*
X138948739Y-57377339D01*
X138861385Y-57493895D01*
X138810255Y-57630284D01*
X138808619Y-57645345D01*
X138807688Y-57653913D01*
X138780446Y-57719475D01*
X138734966Y-57754042D01*
X138733107Y-57754582D01*
X138726289Y-57758614D01*
X138726285Y-57758616D01*
X138715672Y-57764893D01*
X138697924Y-57773588D01*
X138679083Y-57781048D01*
X138672668Y-57785709D01*
X138672666Y-57785710D01*
X138643313Y-57807036D01*
X138633393Y-57813552D01*
X138602165Y-57832020D01*
X138602162Y-57832022D01*
X138595338Y-57836058D01*
X138581017Y-57850379D01*
X138565984Y-57863219D01*
X138549593Y-57875128D01*
X138544542Y-57881233D01*
X138544537Y-57881238D01*
X138521401Y-57909204D01*
X138513413Y-57917982D01*
X137835900Y-58595495D01*
X137773588Y-58629521D01*
X137746805Y-58632400D01*
X137546500Y-58632400D01*
X137478379Y-58612398D01*
X137431886Y-58558742D01*
X137420500Y-58506400D01*
X137420500Y-57692466D01*
X137413745Y-57630284D01*
X137362615Y-57493895D01*
X137275261Y-57377339D01*
X137158705Y-57289985D01*
X137022316Y-57238855D01*
X136960134Y-57232100D01*
X135963866Y-57232100D01*
X135901684Y-57238855D01*
X135765295Y-57289985D01*
X135719349Y-57324419D01*
X135652847Y-57349266D01*
X135583464Y-57334214D01*
X135554692Y-57312687D01*
X134143352Y-55901347D01*
X134135812Y-55893061D01*
X134131700Y-55886582D01*
X134082048Y-55839956D01*
X134079207Y-55837202D01*
X134059470Y-55817465D01*
X134056273Y-55814985D01*
X134047251Y-55807280D01*
X134020800Y-55782441D01*
X134015021Y-55777014D01*
X134008075Y-55773195D01*
X134008072Y-55773193D01*
X133997266Y-55767252D01*
X133980747Y-55756401D01*
X133974748Y-55751748D01*
X133964741Y-55743986D01*
X133954987Y-55739765D01*
X133951762Y-55738369D01*
X133908169Y-55707044D01*
X133825053Y-55614734D01*
X133670552Y-55502482D01*
X133664524Y-55499798D01*
X133664522Y-55499797D01*
X133502119Y-55427491D01*
X133502118Y-55427491D01*
X133496088Y-55424806D01*
X133391994Y-55402680D01*
X133315744Y-55386472D01*
X133315739Y-55386472D01*
X133309287Y-55385100D01*
X133118313Y-55385100D01*
X133111861Y-55386472D01*
X133111856Y-55386472D01*
X133035606Y-55402680D01*
X132931512Y-55424806D01*
X132925482Y-55427491D01*
X132925481Y-55427491D01*
X132763078Y-55499797D01*
X132763076Y-55499798D01*
X132757048Y-55502482D01*
X132602547Y-55614734D01*
X132598129Y-55619641D01*
X132598125Y-55619645D01*
X132491226Y-55738369D01*
X132474760Y-55756656D01*
X132379273Y-55922044D01*
X132320258Y-56103672D01*
X132300296Y-56293600D01*
X132320258Y-56483528D01*
X132379273Y-56665156D01*
X132474760Y-56830544D01*
X132602547Y-56972466D01*
X132757048Y-57084718D01*
X132763076Y-57087402D01*
X132763078Y-57087403D01*
X132902039Y-57149272D01*
X132931512Y-57162394D01*
X133024536Y-57182167D01*
X133111856Y-57200728D01*
X133111861Y-57200728D01*
X133118313Y-57202100D01*
X133309287Y-57202100D01*
X133315739Y-57200728D01*
X133315744Y-57200728D01*
X133454460Y-57171242D01*
X133496088Y-57162394D01*
X133502124Y-57159707D01*
X133508398Y-57157668D01*
X133509211Y-57160171D01*
X133567938Y-57152288D01*
X133632239Y-57182385D01*
X133637933Y-57187737D01*
X134867501Y-58417305D01*
X134901527Y-58479617D01*
X134896462Y-58550432D01*
X134853915Y-58607268D01*
X134787395Y-58632079D01*
X134778406Y-58632400D01*
X125109195Y-58632400D01*
X125041074Y-58612398D01*
X125020099Y-58595495D01*
X124372947Y-57948342D01*
X124365413Y-57940063D01*
X124361300Y-57933582D01*
X124311648Y-57886956D01*
X124308807Y-57884202D01*
X124289070Y-57864465D01*
X124285873Y-57861985D01*
X124276851Y-57854280D01*
X124263416Y-57841664D01*
X124244621Y-57824014D01*
X124237675Y-57820195D01*
X124237672Y-57820193D01*
X124226866Y-57814252D01*
X124210347Y-57803401D01*
X124209883Y-57803041D01*
X124194341Y-57790986D01*
X124187072Y-57787841D01*
X124187068Y-57787838D01*
X124153763Y-57773426D01*
X124143113Y-57768209D01*
X124112973Y-57751640D01*
X124062915Y-57701295D01*
X124048412Y-57654834D01*
X124047381Y-57645345D01*
X124045745Y-57630284D01*
X123994615Y-57493895D01*
X123907261Y-57377339D01*
X123790705Y-57289985D01*
X123654316Y-57238855D01*
X123592134Y-57232100D01*
X122595866Y-57232100D01*
X122533684Y-57238855D01*
X122397295Y-57289985D01*
X122280739Y-57377339D01*
X122193385Y-57493895D01*
X122142255Y-57630284D01*
X122140619Y-57645345D01*
X122139688Y-57653913D01*
X122112446Y-57719475D01*
X122066966Y-57754042D01*
X122065107Y-57754582D01*
X122058289Y-57758614D01*
X122058285Y-57758616D01*
X122047672Y-57764893D01*
X122029924Y-57773588D01*
X122011083Y-57781048D01*
X122004668Y-57785709D01*
X122004666Y-57785710D01*
X121975313Y-57807036D01*
X121965393Y-57813552D01*
X121934165Y-57832020D01*
X121934162Y-57832022D01*
X121927338Y-57836058D01*
X121913017Y-57850379D01*
X121897984Y-57863219D01*
X121881593Y-57875128D01*
X121876542Y-57881233D01*
X121876537Y-57881238D01*
X121853401Y-57909204D01*
X121845413Y-57917982D01*
X121150100Y-58613295D01*
X121087788Y-58647321D01*
X121061005Y-58650200D01*
X120878500Y-58650200D01*
X120810379Y-58630198D01*
X120763886Y-58576542D01*
X120752500Y-58524200D01*
X120752500Y-57692466D01*
X120745745Y-57630284D01*
X120694615Y-57493895D01*
X120607261Y-57377339D01*
X120490705Y-57289985D01*
X120354316Y-57238855D01*
X120292134Y-57232100D01*
X119295866Y-57232100D01*
X119233684Y-57238855D01*
X119097295Y-57289985D01*
X119095447Y-57291370D01*
X119029368Y-57305821D01*
X118964156Y-57282068D01*
X118946394Y-57269163D01*
X118946393Y-57269162D01*
X118941052Y-57265282D01*
X118935024Y-57262598D01*
X118935022Y-57262597D01*
X118772619Y-57190291D01*
X118772618Y-57190291D01*
X118766588Y-57187606D01*
X118654435Y-57163767D01*
X118586244Y-57149272D01*
X118586239Y-57149272D01*
X118579787Y-57147900D01*
X118388813Y-57147900D01*
X118382361Y-57149272D01*
X118382356Y-57149272D01*
X118314165Y-57163767D01*
X118202012Y-57187606D01*
X118195982Y-57190291D01*
X118195981Y-57190291D01*
X118033578Y-57262597D01*
X118033576Y-57262598D01*
X118027548Y-57265282D01*
X117873047Y-57377534D01*
X117868626Y-57382444D01*
X117868625Y-57382445D01*
X117760705Y-57502303D01*
X117745260Y-57519456D01*
X117686986Y-57620390D01*
X117658231Y-57670195D01*
X117649773Y-57684844D01*
X117590758Y-57866472D01*
X117590068Y-57873033D01*
X117590068Y-57873035D01*
X117582809Y-57942102D01*
X117570796Y-58056400D01*
X117571486Y-58062965D01*
X117578466Y-58129372D01*
X117590758Y-58246328D01*
X117649773Y-58427956D01*
X117667676Y-58458964D01*
X117668967Y-58461201D01*
X117685704Y-58530197D01*
X117662483Y-58597288D01*
X117606675Y-58641175D01*
X117559847Y-58650200D01*
X106447494Y-58650200D01*
X106379373Y-58630198D01*
X106358399Y-58613295D01*
X106139424Y-58394320D01*
X106105398Y-58332008D01*
X106103209Y-58318396D01*
X106084032Y-58135934D01*
X106084031Y-58135931D01*
X106083342Y-58129372D01*
X106024327Y-57947744D01*
X106013019Y-57928157D01*
X105963084Y-57841669D01*
X105928840Y-57782356D01*
X105920800Y-57773426D01*
X105805475Y-57645345D01*
X105805474Y-57645344D01*
X105801053Y-57640434D01*
X105646552Y-57528182D01*
X105640524Y-57525498D01*
X105640522Y-57525497D01*
X105478119Y-57453191D01*
X105478118Y-57453191D01*
X105472088Y-57450506D01*
X105378688Y-57430653D01*
X105291744Y-57412172D01*
X105291739Y-57412172D01*
X105285287Y-57410800D01*
X105094313Y-57410800D01*
X105087860Y-57412172D01*
X105087856Y-57412172D01*
X105027367Y-57425030D01*
X104990209Y-57432928D01*
X104919419Y-57427526D01*
X104869713Y-57390150D01*
X104868993Y-57390870D01*
X104863911Y-57385788D01*
X104863183Y-57385241D01*
X104857261Y-57377339D01*
X104850081Y-57371958D01*
X104850078Y-57371955D01*
X104761835Y-57305821D01*
X104740705Y-57289985D01*
X104604316Y-57238855D01*
X104542134Y-57232100D01*
X103545866Y-57232100D01*
X103483684Y-57238855D01*
X103347295Y-57289985D01*
X103230739Y-57377339D01*
X103143385Y-57493895D01*
X103092255Y-57630284D01*
X103090619Y-57645345D01*
X103089688Y-57653913D01*
X103062446Y-57719475D01*
X103016963Y-57754043D01*
X103015107Y-57754582D01*
X103008289Y-57758614D01*
X103008280Y-57758618D01*
X102997668Y-57764894D01*
X102979918Y-57773590D01*
X102968456Y-57778128D01*
X102968451Y-57778131D01*
X102961083Y-57781048D01*
X102943670Y-57793699D01*
X102925325Y-57807027D01*
X102915407Y-57813543D01*
X102904163Y-57820193D01*
X102877337Y-57836058D01*
X102863013Y-57850382D01*
X102847983Y-57863220D01*
X102831593Y-57875128D01*
X102803412Y-57909193D01*
X102795422Y-57917973D01*
X102117800Y-58595595D01*
X102055488Y-58629621D01*
X102028705Y-58632500D01*
X101828500Y-58632500D01*
X101760379Y-58612498D01*
X101713886Y-58558842D01*
X101702500Y-58506500D01*
X101702500Y-57692466D01*
X101695745Y-57630284D01*
X101644615Y-57493895D01*
X101557261Y-57377339D01*
X101440705Y-57289985D01*
X101304316Y-57238855D01*
X101242134Y-57232100D01*
X100245866Y-57232100D01*
X100183684Y-57238855D01*
X100047295Y-57289985D01*
X99930739Y-57377339D01*
X99843385Y-57493895D01*
X99840233Y-57502303D01*
X99794112Y-57625330D01*
X99751470Y-57682094D01*
X99684909Y-57706794D01*
X99676130Y-57707100D01*
X96967794Y-57707100D01*
X96899673Y-57687098D01*
X96878699Y-57670195D01*
X93107159Y-53898655D01*
X93073133Y-53836343D01*
X93078198Y-53765528D01*
X93120745Y-53708692D01*
X93180208Y-53684656D01*
X93183054Y-53684477D01*
X93492352Y-53625475D01*
X93791816Y-53528173D01*
X93795402Y-53526486D01*
X93795406Y-53526484D01*
X94073138Y-53395794D01*
X94073145Y-53395790D01*
X94076724Y-53394106D01*
X94342582Y-53225387D01*
X94585198Y-53024678D01*
X94800745Y-52795144D01*
X94985824Y-52540404D01*
X95003689Y-52507909D01*
X95135613Y-52267939D01*
X95135614Y-52267936D01*
X95137516Y-52264477D01*
X95253430Y-51971713D01*
X95331736Y-51666730D01*
X95347089Y-51545197D01*
X95375471Y-51480120D01*
X95434530Y-51440719D01*
X95505516Y-51439502D01*
X95561190Y-51471894D01*
G37*
%TD.AperFunction*%
%TA.AperFunction,NonConductor*%
G36*
X147607557Y-42181375D02*
G01*
X147622358Y-42183680D01*
X147622361Y-42183680D01*
X147631230Y-42185061D01*
X147640132Y-42183897D01*
X147640136Y-42183897D01*
X147640232Y-42183884D01*
X147670670Y-42183613D01*
X147775293Y-42195401D01*
X147802794Y-42201677D01*
X147920289Y-42242790D01*
X147945701Y-42255029D01*
X148051091Y-42321250D01*
X148073150Y-42338842D01*
X148161158Y-42426850D01*
X148178750Y-42448909D01*
X148244971Y-42554299D01*
X148257210Y-42579711D01*
X148298323Y-42697206D01*
X148304599Y-42724706D01*
X148315647Y-42822754D01*
X148316430Y-42838400D01*
X148316321Y-42847356D01*
X148314939Y-42856230D01*
X148316763Y-42870178D01*
X148319061Y-42887751D01*
X148320125Y-42904089D01*
X148320125Y-59481922D01*
X148318625Y-59501306D01*
X148314939Y-59524980D01*
X148316103Y-59533882D01*
X148316103Y-59533886D01*
X148316116Y-59533982D01*
X148316387Y-59564420D01*
X148304599Y-59669043D01*
X148298323Y-59696544D01*
X148257210Y-59814039D01*
X148244972Y-59839449D01*
X148206000Y-59901473D01*
X148178750Y-59944841D01*
X148161158Y-59966900D01*
X148073150Y-60054908D01*
X148051091Y-60072500D01*
X147945701Y-60138721D01*
X147920289Y-60150960D01*
X147802794Y-60192073D01*
X147775294Y-60198349D01*
X147735777Y-60202802D01*
X147677242Y-60209397D01*
X147661600Y-60210180D01*
X147652644Y-60210071D01*
X147643770Y-60208689D01*
X147612249Y-60212811D01*
X147595911Y-60213875D01*
X25052453Y-60213875D01*
X25033068Y-60212375D01*
X25018267Y-60210070D01*
X25018264Y-60210070D01*
X25009395Y-60208689D01*
X25000493Y-60209853D01*
X25000489Y-60209853D01*
X25000393Y-60209866D01*
X24969955Y-60210137D01*
X24865332Y-60198349D01*
X24837831Y-60192073D01*
X24720336Y-60150960D01*
X24694924Y-60138721D01*
X24589534Y-60072500D01*
X24567475Y-60054908D01*
X24479467Y-59966900D01*
X24461875Y-59944841D01*
X24434625Y-59901473D01*
X24395653Y-59839449D01*
X24383415Y-59814039D01*
X24342302Y-59696544D01*
X24336026Y-59669044D01*
X24325167Y-59572670D01*
X24324885Y-59547864D01*
X24325571Y-59543789D01*
X24325724Y-59531250D01*
X24321773Y-59503662D01*
X24320500Y-59485799D01*
X24320500Y-51131493D01*
X29251839Y-51131493D01*
X29260648Y-51366116D01*
X29261743Y-51371334D01*
X29294703Y-51528418D01*
X29308862Y-51595901D01*
X29395102Y-51814277D01*
X29516904Y-52015000D01*
X29670785Y-52192332D01*
X29674917Y-52195720D01*
X29848216Y-52337817D01*
X29848222Y-52337821D01*
X29852344Y-52341201D01*
X29856980Y-52343840D01*
X29856983Y-52343842D01*
X29968208Y-52407155D01*
X30056390Y-52457351D01*
X30277089Y-52537461D01*
X30282338Y-52538410D01*
X30282341Y-52538411D01*
X30363415Y-52553071D01*
X30508130Y-52579240D01*
X30512269Y-52579435D01*
X30512276Y-52579436D01*
X30531240Y-52580330D01*
X30531249Y-52580330D01*
X30532729Y-52580400D01*
X30697750Y-52580400D01*
X30779099Y-52573497D01*
X30867437Y-52566002D01*
X30867441Y-52566001D01*
X30872748Y-52565551D01*
X30877903Y-52564213D01*
X30877909Y-52564212D01*
X31082275Y-52511169D01*
X31100006Y-52506567D01*
X31104872Y-52504375D01*
X31104875Y-52504374D01*
X31309217Y-52412324D01*
X31309220Y-52412323D01*
X31314078Y-52410134D01*
X31508841Y-52279012D01*
X31678727Y-52116949D01*
X31818878Y-51928579D01*
X31821301Y-51923815D01*
X31922869Y-51724044D01*
X31922869Y-51724043D01*
X31925287Y-51719288D01*
X31994911Y-51495060D01*
X32012002Y-51366116D01*
X32025061Y-51267590D01*
X32025061Y-51267587D01*
X32025761Y-51262307D01*
X32016952Y-51027684D01*
X31991041Y-50904194D01*
X31969835Y-50803126D01*
X31969834Y-50803123D01*
X31968738Y-50797899D01*
X31882498Y-50579523D01*
X31879728Y-50574959D01*
X31879726Y-50574954D01*
X31825322Y-50485298D01*
X31807083Y-50416684D01*
X31828835Y-50349102D01*
X31883671Y-50304008D01*
X31923153Y-50294321D01*
X32165126Y-50275278D01*
X32169933Y-50274124D01*
X32169939Y-50274123D01*
X32349145Y-50231099D01*
X32415140Y-50215255D01*
X32435811Y-50206693D01*
X32648113Y-50118755D01*
X32648117Y-50118753D01*
X32652687Y-50116860D01*
X32871916Y-49982516D01*
X33067431Y-49815531D01*
X33234416Y-49620016D01*
X33368760Y-49400787D01*
X33370657Y-49396209D01*
X33465261Y-49167813D01*
X33465262Y-49167811D01*
X33467155Y-49163240D01*
X33527178Y-48913226D01*
X33539257Y-48759740D01*
X33564542Y-48693398D01*
X33575774Y-48680530D01*
X36419821Y-45836483D01*
X36482133Y-45802457D01*
X36552948Y-45807522D01*
X36609784Y-45850069D01*
X36634595Y-45916589D01*
X36634528Y-45935464D01*
X36620249Y-46116900D01*
X36640422Y-46373226D01*
X36641576Y-46378033D01*
X36641577Y-46378039D01*
X36667999Y-46488093D01*
X36700445Y-46623240D01*
X36702337Y-46627808D01*
X36702339Y-46627813D01*
X36796837Y-46855951D01*
X36798840Y-46860787D01*
X36933184Y-47080016D01*
X37100169Y-47275531D01*
X37295684Y-47442516D01*
X37341924Y-47470852D01*
X37379135Y-47493655D01*
X37426766Y-47546303D01*
X37439300Y-47601088D01*
X37439300Y-49104752D01*
X37419298Y-49172873D01*
X37365642Y-49219366D01*
X37295368Y-49229470D01*
X37232985Y-49201837D01*
X37215017Y-49186973D01*
X37192582Y-49168413D01*
X36926724Y-48999694D01*
X36923145Y-48998010D01*
X36923138Y-48998006D01*
X36645406Y-48867316D01*
X36645402Y-48867314D01*
X36641816Y-48865627D01*
X36342352Y-48768325D01*
X36033054Y-48709323D01*
X35939500Y-48703437D01*
X35799442Y-48694625D01*
X35799426Y-48694624D01*
X35797447Y-48694500D01*
X35640153Y-48694500D01*
X35638174Y-48694624D01*
X35638158Y-48694625D01*
X35498100Y-48703437D01*
X35404546Y-48709323D01*
X35095248Y-48768325D01*
X34795784Y-48865627D01*
X34792198Y-48867314D01*
X34792194Y-48867316D01*
X34514462Y-48998006D01*
X34514455Y-48998010D01*
X34510876Y-48999694D01*
X34245018Y-49168413D01*
X34002402Y-49369122D01*
X33786855Y-49598656D01*
X33784528Y-49601858D01*
X33784527Y-49601860D01*
X33771664Y-49619564D01*
X33601776Y-49853396D01*
X33599869Y-49856865D01*
X33599867Y-49856868D01*
X33456051Y-50118469D01*
X33450084Y-50129323D01*
X33386269Y-50290501D01*
X33341182Y-50404378D01*
X33334170Y-50422087D01*
X33255864Y-50727070D01*
X33216400Y-51039462D01*
X33216400Y-51354338D01*
X33255864Y-51666730D01*
X33334170Y-51971713D01*
X33450084Y-52264477D01*
X33451986Y-52267936D01*
X33451987Y-52267939D01*
X33583912Y-52507909D01*
X33601776Y-52540404D01*
X33786855Y-52795144D01*
X34002402Y-53024678D01*
X34245018Y-53225387D01*
X34510876Y-53394106D01*
X34514455Y-53395790D01*
X34514462Y-53395794D01*
X34792194Y-53526484D01*
X34792198Y-53526486D01*
X34795784Y-53528173D01*
X35095248Y-53625475D01*
X35404546Y-53684477D01*
X35498100Y-53690363D01*
X35638158Y-53699175D01*
X35638174Y-53699176D01*
X35640153Y-53699300D01*
X35797447Y-53699300D01*
X35799426Y-53699176D01*
X35799442Y-53699175D01*
X35939500Y-53690363D01*
X36033054Y-53684477D01*
X36342352Y-53625475D01*
X36641816Y-53528173D01*
X36645402Y-53526486D01*
X36645406Y-53526484D01*
X36923138Y-53395794D01*
X36923145Y-53395790D01*
X36926724Y-53394106D01*
X37192582Y-53225387D01*
X37232984Y-53191963D01*
X37298223Y-53163953D01*
X37368248Y-53175660D01*
X37420827Y-53223367D01*
X37439300Y-53289048D01*
X37439300Y-53516133D01*
X37438773Y-53527316D01*
X37437098Y-53534809D01*
X37437347Y-53542735D01*
X37437347Y-53542736D01*
X37439238Y-53602886D01*
X37439300Y-53606845D01*
X37439300Y-53634756D01*
X37439797Y-53638690D01*
X37439797Y-53638691D01*
X37439805Y-53638756D01*
X37440738Y-53650593D01*
X37442127Y-53694789D01*
X37447197Y-53712239D01*
X37447778Y-53714239D01*
X37451787Y-53733600D01*
X37454326Y-53753697D01*
X37457245Y-53761068D01*
X37457245Y-53761070D01*
X37470604Y-53794812D01*
X37474449Y-53806042D01*
X37486782Y-53848493D01*
X37490815Y-53855312D01*
X37490817Y-53855317D01*
X37497093Y-53865928D01*
X37505788Y-53883676D01*
X37513248Y-53902517D01*
X37517910Y-53908933D01*
X37517910Y-53908934D01*
X37539236Y-53938287D01*
X37545752Y-53948207D01*
X37563038Y-53977435D01*
X37568258Y-53986262D01*
X37582579Y-54000583D01*
X37595419Y-54015616D01*
X37607328Y-54032007D01*
X37613434Y-54037058D01*
X37641405Y-54060198D01*
X37650184Y-54068188D01*
X42314843Y-58732847D01*
X42322387Y-58741137D01*
X42326500Y-58747618D01*
X42332277Y-58753043D01*
X42376167Y-58794258D01*
X42379009Y-58797013D01*
X42398730Y-58816734D01*
X42401925Y-58819212D01*
X42410947Y-58826918D01*
X42443179Y-58857186D01*
X42450128Y-58861006D01*
X42460932Y-58866946D01*
X42477456Y-58877799D01*
X42493459Y-58890213D01*
X42534043Y-58907776D01*
X42544673Y-58912983D01*
X42574827Y-58929560D01*
X42624884Y-58979905D01*
X42639388Y-59026366D01*
X42642055Y-59050916D01*
X42693185Y-59187305D01*
X42780539Y-59303861D01*
X42897095Y-59391215D01*
X43033484Y-59442345D01*
X43095666Y-59449100D01*
X44091934Y-59449100D01*
X44154116Y-59442345D01*
X44290505Y-59391215D01*
X44407061Y-59303861D01*
X44494415Y-59187305D01*
X44545545Y-59050916D01*
X44552300Y-58988734D01*
X44552300Y-57692466D01*
X44545545Y-57630284D01*
X44494415Y-57493895D01*
X44407061Y-57377339D01*
X44290505Y-57289985D01*
X44154116Y-57238855D01*
X44091934Y-57232100D01*
X43095666Y-57232100D01*
X43033484Y-57238855D01*
X42897095Y-57289985D01*
X42851149Y-57324419D01*
X42784647Y-57349266D01*
X42715264Y-57334214D01*
X42686492Y-57312687D01*
X38743205Y-53369400D01*
X38709179Y-53307088D01*
X38706300Y-53280305D01*
X38706300Y-50272870D01*
X38726302Y-50204749D01*
X38779958Y-50158256D01*
X38850232Y-50148152D01*
X38880518Y-50156461D01*
X38998924Y-50205506D01*
X39022460Y-50215255D01*
X39088455Y-50231099D01*
X39267661Y-50274123D01*
X39267667Y-50274124D01*
X39272474Y-50275278D01*
X39510444Y-50294006D01*
X39576784Y-50319291D01*
X39618924Y-50376429D01*
X39623483Y-50447279D01*
X39612874Y-50476723D01*
X39531978Y-50635833D01*
X39512313Y-50674512D01*
X39442689Y-50898740D01*
X39441988Y-50904029D01*
X39413264Y-51120744D01*
X39411839Y-51131493D01*
X39420648Y-51366116D01*
X39421743Y-51371334D01*
X39454703Y-51528418D01*
X39468862Y-51595901D01*
X39555102Y-51814277D01*
X39676904Y-52015000D01*
X39830785Y-52192332D01*
X39834917Y-52195720D01*
X40008216Y-52337817D01*
X40008222Y-52337821D01*
X40012344Y-52341201D01*
X40016980Y-52343840D01*
X40016983Y-52343842D01*
X40128208Y-52407155D01*
X40216390Y-52457351D01*
X40437089Y-52537461D01*
X40442338Y-52538410D01*
X40442341Y-52538411D01*
X40523415Y-52553071D01*
X40668130Y-52579240D01*
X40672269Y-52579435D01*
X40672276Y-52579436D01*
X40691240Y-52580330D01*
X40691249Y-52580330D01*
X40692729Y-52580400D01*
X40857750Y-52580400D01*
X40939099Y-52573497D01*
X41027437Y-52566002D01*
X41027441Y-52566001D01*
X41032748Y-52565551D01*
X41037903Y-52564213D01*
X41037909Y-52564212D01*
X41242275Y-52511169D01*
X41260006Y-52506567D01*
X41264872Y-52504375D01*
X41264875Y-52504374D01*
X41469217Y-52412324D01*
X41469220Y-52412323D01*
X41474078Y-52410134D01*
X41668841Y-52279012D01*
X41838727Y-52116949D01*
X41978878Y-51928579D01*
X41981301Y-51923815D01*
X42082869Y-51724044D01*
X42082869Y-51724043D01*
X42085287Y-51719288D01*
X42154911Y-51495060D01*
X42172002Y-51366116D01*
X42185061Y-51267590D01*
X42185061Y-51267587D01*
X42185761Y-51262307D01*
X42176952Y-51027684D01*
X42151041Y-50904194D01*
X42129835Y-50803126D01*
X42129834Y-50803123D01*
X42128738Y-50797899D01*
X42042498Y-50579523D01*
X41989914Y-50492868D01*
X41923464Y-50383361D01*
X41923462Y-50383358D01*
X41920696Y-50378800D01*
X41766815Y-50201468D01*
X41710914Y-50155632D01*
X41589384Y-50055983D01*
X41589378Y-50055979D01*
X41585256Y-50052599D01*
X41580620Y-50049960D01*
X41580617Y-50049958D01*
X41385853Y-49939092D01*
X41381210Y-49936449D01*
X41160511Y-49856339D01*
X41155262Y-49855390D01*
X41155259Y-49855389D01*
X40935240Y-49815603D01*
X40871766Y-49783799D01*
X40835563Y-49722726D01*
X40838125Y-49651776D01*
X40854450Y-49620037D01*
X40854416Y-49620016D01*
X40854693Y-49619564D01*
X40988760Y-49400787D01*
X40990657Y-49396209D01*
X41085261Y-49167813D01*
X41085262Y-49167811D01*
X41087155Y-49163240D01*
X41125883Y-49001926D01*
X41146023Y-48918039D01*
X41146024Y-48918033D01*
X41147178Y-48913226D01*
X41167351Y-48656900D01*
X41147178Y-48400574D01*
X41087155Y-48150560D01*
X41073649Y-48117953D01*
X41066060Y-48047365D01*
X41100963Y-47980641D01*
X42659269Y-46422336D01*
X44238800Y-44842805D01*
X44301112Y-44808779D01*
X44327895Y-44805900D01*
X50926990Y-44805900D01*
X50995111Y-44825902D01*
X51041604Y-44879558D01*
X51051708Y-44949832D01*
X51022801Y-45013730D01*
X50903184Y-45153784D01*
X50815641Y-45296641D01*
X50776859Y-45359928D01*
X50768840Y-45373013D01*
X50766947Y-45377583D01*
X50766945Y-45377587D01*
X50672339Y-45605987D01*
X50670445Y-45610560D01*
X50669290Y-45615372D01*
X50616206Y-45836483D01*
X50610422Y-45860574D01*
X50590249Y-46116900D01*
X50610422Y-46373226D01*
X50611576Y-46378033D01*
X50611577Y-46378039D01*
X50637999Y-46488093D01*
X50670445Y-46623240D01*
X50672337Y-46627808D01*
X50672339Y-46627813D01*
X50689998Y-46670446D01*
X50768840Y-46860787D01*
X50770241Y-46863074D01*
X50783227Y-46932231D01*
X50756524Y-46998015D01*
X50698496Y-47038919D01*
X50687270Y-47042172D01*
X50603723Y-47062230D01*
X50452460Y-47098545D01*
X50447889Y-47100438D01*
X50447887Y-47100439D01*
X50219487Y-47195045D01*
X50219483Y-47195047D01*
X50214913Y-47196940D01*
X49995684Y-47331284D01*
X49800169Y-47498269D01*
X49633184Y-47693784D01*
X49498840Y-47913013D01*
X49496947Y-47917583D01*
X49496945Y-47917587D01*
X49402339Y-48145987D01*
X49400445Y-48150560D01*
X49340422Y-48400574D01*
X49320249Y-48656900D01*
X49340422Y-48913226D01*
X49341576Y-48918033D01*
X49341577Y-48918039D01*
X49361717Y-49001926D01*
X49400445Y-49163240D01*
X49402338Y-49167811D01*
X49402339Y-49167813D01*
X49496944Y-49396209D01*
X49498840Y-49400787D01*
X49633184Y-49620016D01*
X49634719Y-49621814D01*
X49658341Y-49687998D01*
X49642267Y-49757151D01*
X49591358Y-49806636D01*
X49543201Y-49820752D01*
X49460163Y-49827798D01*
X49460159Y-49827799D01*
X49454852Y-49828249D01*
X49449697Y-49829587D01*
X49449691Y-49829588D01*
X49316002Y-49864287D01*
X49227594Y-49887233D01*
X49222728Y-49889425D01*
X49222725Y-49889426D01*
X49018383Y-49981476D01*
X49018380Y-49981477D01*
X49013522Y-49983666D01*
X48818759Y-50114788D01*
X48814902Y-50118467D01*
X48814900Y-50118469D01*
X48807151Y-50125861D01*
X48648873Y-50276851D01*
X48508722Y-50465221D01*
X48506306Y-50469972D01*
X48506304Y-50469976D01*
X48420306Y-50639122D01*
X48402313Y-50674512D01*
X48332689Y-50898740D01*
X48331988Y-50904029D01*
X48303264Y-51120744D01*
X48301839Y-51131493D01*
X48310648Y-51366116D01*
X48311743Y-51371334D01*
X48344703Y-51528418D01*
X48358862Y-51595901D01*
X48445102Y-51814277D01*
X48566904Y-52015000D01*
X48720785Y-52192332D01*
X48724917Y-52195720D01*
X48898216Y-52337817D01*
X48898222Y-52337821D01*
X48902344Y-52341201D01*
X48906980Y-52343840D01*
X48906983Y-52343842D01*
X49018208Y-52407155D01*
X49106390Y-52457351D01*
X49327089Y-52537461D01*
X49332338Y-52538410D01*
X49332341Y-52538411D01*
X49413415Y-52553071D01*
X49558130Y-52579240D01*
X49562269Y-52579435D01*
X49562276Y-52579436D01*
X49581240Y-52580330D01*
X49581249Y-52580330D01*
X49582729Y-52580400D01*
X49747750Y-52580400D01*
X49829099Y-52573497D01*
X49917437Y-52566002D01*
X49917441Y-52566001D01*
X49922748Y-52565551D01*
X49927903Y-52564213D01*
X49927909Y-52564212D01*
X50132275Y-52511169D01*
X50150006Y-52506567D01*
X50154872Y-52504375D01*
X50154875Y-52504374D01*
X50359217Y-52412324D01*
X50359220Y-52412323D01*
X50364078Y-52410134D01*
X50558841Y-52279012D01*
X50728727Y-52116949D01*
X50868878Y-51928579D01*
X50871301Y-51923815D01*
X50972869Y-51724044D01*
X50972869Y-51724043D01*
X50975287Y-51719288D01*
X51044911Y-51495060D01*
X51062002Y-51366116D01*
X51075061Y-51267590D01*
X51075061Y-51267587D01*
X51075761Y-51262307D01*
X51066952Y-51027684D01*
X51041041Y-50904194D01*
X51019835Y-50803126D01*
X51019834Y-50803123D01*
X51018738Y-50797899D01*
X50932498Y-50579523D01*
X50929728Y-50574959D01*
X50929726Y-50574954D01*
X50875322Y-50485298D01*
X50857083Y-50416684D01*
X50878835Y-50349102D01*
X50933671Y-50304008D01*
X50973153Y-50294321D01*
X51215126Y-50275278D01*
X51219933Y-50274124D01*
X51219939Y-50274123D01*
X51399145Y-50231099D01*
X51465140Y-50215255D01*
X51485811Y-50206693D01*
X51698113Y-50118755D01*
X51698117Y-50118753D01*
X51702687Y-50116860D01*
X51921916Y-49982516D01*
X52117431Y-49815531D01*
X52284416Y-49620016D01*
X52418760Y-49400787D01*
X52420655Y-49396213D01*
X52420657Y-49396209D01*
X52432265Y-49368183D01*
X52476812Y-49312902D01*
X52548674Y-49290400D01*
X52575633Y-49290400D01*
X52586816Y-49290927D01*
X52594309Y-49292602D01*
X52602235Y-49292353D01*
X52602236Y-49292353D01*
X52662386Y-49290462D01*
X52666345Y-49290400D01*
X52694256Y-49290400D01*
X52698191Y-49289903D01*
X52698256Y-49289895D01*
X52710093Y-49288962D01*
X52742351Y-49287948D01*
X52746370Y-49287822D01*
X52754289Y-49287573D01*
X52773743Y-49281921D01*
X52793100Y-49277913D01*
X52794748Y-49277705D01*
X52813197Y-49275374D01*
X52820569Y-49272455D01*
X52825606Y-49271162D01*
X52896561Y-49273596D01*
X52954937Y-49314004D01*
X52982199Y-49379558D01*
X52969692Y-49449444D01*
X52948790Y-49479457D01*
X52870030Y-49563328D01*
X52836855Y-49598656D01*
X52834528Y-49601858D01*
X52834527Y-49601860D01*
X52821664Y-49619564D01*
X52651776Y-49853396D01*
X52649869Y-49856865D01*
X52649867Y-49856868D01*
X52506051Y-50118469D01*
X52500084Y-50129323D01*
X52436269Y-50290501D01*
X52391182Y-50404378D01*
X52384170Y-50422087D01*
X52305864Y-50727070D01*
X52266400Y-51039462D01*
X52266400Y-51354338D01*
X52305864Y-51666730D01*
X52384170Y-51971713D01*
X52500084Y-52264477D01*
X52501986Y-52267936D01*
X52501987Y-52267939D01*
X52633912Y-52507909D01*
X52651776Y-52540404D01*
X52836855Y-52795144D01*
X53052402Y-53024678D01*
X53295018Y-53225387D01*
X53560876Y-53394106D01*
X53564455Y-53395790D01*
X53564462Y-53395794D01*
X53842194Y-53526484D01*
X53842198Y-53526486D01*
X53845784Y-53528173D01*
X54145248Y-53625475D01*
X54454546Y-53684477D01*
X54548100Y-53690363D01*
X54688158Y-53699175D01*
X54688174Y-53699176D01*
X54690153Y-53699300D01*
X54847447Y-53699300D01*
X54849426Y-53699176D01*
X54849442Y-53699175D01*
X54989500Y-53690363D01*
X55083054Y-53684477D01*
X55392352Y-53625475D01*
X55691816Y-53528173D01*
X55695402Y-53526486D01*
X55695406Y-53526484D01*
X55973138Y-53395794D01*
X55973145Y-53395790D01*
X55976724Y-53394106D01*
X56242582Y-53225387D01*
X56280984Y-53193618D01*
X56346222Y-53165607D01*
X56416247Y-53177314D01*
X56468826Y-53225020D01*
X56487300Y-53290702D01*
X56487300Y-53514133D01*
X56486773Y-53525316D01*
X56485098Y-53532809D01*
X56485347Y-53540735D01*
X56485347Y-53540736D01*
X56487238Y-53600886D01*
X56487300Y-53604845D01*
X56487300Y-53632756D01*
X56487797Y-53636690D01*
X56487797Y-53636691D01*
X56487805Y-53636756D01*
X56488738Y-53648599D01*
X56489874Y-53684726D01*
X56490127Y-53692789D01*
X56495778Y-53712239D01*
X56499787Y-53731600D01*
X56502326Y-53751697D01*
X56505245Y-53759068D01*
X56505245Y-53759070D01*
X56518604Y-53792812D01*
X56522449Y-53804042D01*
X56534782Y-53846493D01*
X56538815Y-53853312D01*
X56538817Y-53853317D01*
X56545093Y-53863928D01*
X56553788Y-53881676D01*
X56561248Y-53900517D01*
X56565910Y-53906933D01*
X56565910Y-53906934D01*
X56587236Y-53936287D01*
X56593752Y-53946207D01*
X56611107Y-53975552D01*
X56616258Y-53984262D01*
X56630579Y-53998583D01*
X56643419Y-54013616D01*
X56655328Y-54030007D01*
X56689405Y-54058198D01*
X56698184Y-54066188D01*
X61054200Y-58422205D01*
X61088226Y-58484517D01*
X61083161Y-58555333D01*
X61040614Y-58612168D01*
X60974094Y-58636979D01*
X60965105Y-58637300D01*
X48913895Y-58637300D01*
X48845774Y-58617298D01*
X48824800Y-58600395D01*
X48172752Y-57948347D01*
X48165212Y-57940061D01*
X48161100Y-57933582D01*
X48111448Y-57886956D01*
X48108607Y-57884202D01*
X48088870Y-57864465D01*
X48085673Y-57861985D01*
X48076651Y-57854280D01*
X48063216Y-57841664D01*
X48044421Y-57824014D01*
X48037475Y-57820195D01*
X48037472Y-57820193D01*
X48026666Y-57814252D01*
X48010147Y-57803401D01*
X48009683Y-57803041D01*
X47994141Y-57790986D01*
X47986872Y-57787841D01*
X47986868Y-57787838D01*
X47953563Y-57773426D01*
X47942913Y-57768209D01*
X47912773Y-57751640D01*
X47862715Y-57701295D01*
X47848212Y-57654834D01*
X47847181Y-57645345D01*
X47845545Y-57630284D01*
X47794415Y-57493895D01*
X47707061Y-57377339D01*
X47590505Y-57289985D01*
X47454116Y-57238855D01*
X47391934Y-57232100D01*
X46395666Y-57232100D01*
X46333484Y-57238855D01*
X46197095Y-57289985D01*
X46080539Y-57377339D01*
X45993185Y-57493895D01*
X45942055Y-57630284D01*
X45935300Y-57692466D01*
X45935300Y-58988734D01*
X45942055Y-59050916D01*
X45993185Y-59187305D01*
X46080539Y-59303861D01*
X46197095Y-59391215D01*
X46333484Y-59442345D01*
X46395666Y-59449100D01*
X47391934Y-59449100D01*
X47454116Y-59442345D01*
X47590505Y-59391215D01*
X47636449Y-59356782D01*
X47702956Y-59331934D01*
X47772338Y-59346987D01*
X47801109Y-59368513D01*
X48095643Y-59663047D01*
X48103187Y-59671337D01*
X48107300Y-59677818D01*
X48113077Y-59683243D01*
X48156967Y-59724458D01*
X48159809Y-59727213D01*
X48179530Y-59746934D01*
X48182725Y-59749412D01*
X48191747Y-59757118D01*
X48223979Y-59787386D01*
X48230928Y-59791206D01*
X48241732Y-59797146D01*
X48258256Y-59807999D01*
X48274259Y-59820413D01*
X48314843Y-59837976D01*
X48325473Y-59843183D01*
X48364240Y-59864495D01*
X48371917Y-59866466D01*
X48371922Y-59866468D01*
X48383858Y-59869532D01*
X48402566Y-59875937D01*
X48421155Y-59883981D01*
X48428980Y-59885220D01*
X48428982Y-59885221D01*
X48464819Y-59890897D01*
X48476440Y-59893304D01*
X48511589Y-59902328D01*
X48519270Y-59904300D01*
X48539531Y-59904300D01*
X48559240Y-59905851D01*
X48579243Y-59909019D01*
X48587135Y-59908273D01*
X48592362Y-59907779D01*
X48623254Y-59904859D01*
X48635111Y-59904300D01*
X64159533Y-59904300D01*
X64170716Y-59904827D01*
X64178209Y-59906502D01*
X64186135Y-59906253D01*
X64186136Y-59906253D01*
X64246286Y-59904362D01*
X64250245Y-59904300D01*
X64278156Y-59904300D01*
X64282091Y-59903803D01*
X64282156Y-59903795D01*
X64293993Y-59902862D01*
X64326251Y-59901848D01*
X64330270Y-59901722D01*
X64338189Y-59901473D01*
X64357643Y-59895821D01*
X64377000Y-59891813D01*
X64389230Y-59890268D01*
X64389231Y-59890268D01*
X64397097Y-59889274D01*
X64404468Y-59886355D01*
X64404470Y-59886355D01*
X64438212Y-59872996D01*
X64449442Y-59869151D01*
X64484283Y-59859029D01*
X64484284Y-59859029D01*
X64491893Y-59856818D01*
X64498712Y-59852785D01*
X64498717Y-59852783D01*
X64509328Y-59846507D01*
X64527076Y-59837812D01*
X64545917Y-59830352D01*
X64552662Y-59825452D01*
X64581687Y-59804364D01*
X64591607Y-59797848D01*
X64622835Y-59779380D01*
X64622838Y-59779378D01*
X64629662Y-59775342D01*
X64643983Y-59761021D01*
X64659017Y-59748180D01*
X64675407Y-59736272D01*
X64703598Y-59702195D01*
X64711588Y-59693416D01*
X65036491Y-59368513D01*
X65098803Y-59334487D01*
X65169618Y-59339552D01*
X65201152Y-59356782D01*
X65247095Y-59391215D01*
X65383484Y-59442345D01*
X65445666Y-59449100D01*
X66441934Y-59449100D01*
X66504116Y-59442345D01*
X66640505Y-59391215D01*
X66686449Y-59356782D01*
X66752956Y-59331934D01*
X66822338Y-59346987D01*
X66851109Y-59368513D01*
X67140843Y-59658247D01*
X67148387Y-59666537D01*
X67152500Y-59673018D01*
X67158277Y-59678443D01*
X67202167Y-59719658D01*
X67205009Y-59722413D01*
X67224730Y-59742134D01*
X67227925Y-59744612D01*
X67236947Y-59752318D01*
X67269179Y-59782586D01*
X67276128Y-59786406D01*
X67286932Y-59792346D01*
X67303456Y-59803199D01*
X67319459Y-59815613D01*
X67360043Y-59833176D01*
X67370673Y-59838383D01*
X67409440Y-59859695D01*
X67417117Y-59861666D01*
X67417122Y-59861668D01*
X67429058Y-59864732D01*
X67447766Y-59871137D01*
X67466355Y-59879181D01*
X67474183Y-59880421D01*
X67474190Y-59880423D01*
X67510024Y-59886099D01*
X67521644Y-59888505D01*
X67556789Y-59897528D01*
X67564470Y-59899500D01*
X67584724Y-59899500D01*
X67604434Y-59901051D01*
X67624443Y-59904220D01*
X67632335Y-59903474D01*
X67653503Y-59901473D01*
X67668462Y-59900059D01*
X67680319Y-59899500D01*
X83214333Y-59899500D01*
X83225516Y-59900027D01*
X83233009Y-59901702D01*
X83240935Y-59901453D01*
X83240936Y-59901453D01*
X83301086Y-59899562D01*
X83305045Y-59899500D01*
X83332956Y-59899500D01*
X83336891Y-59899003D01*
X83336956Y-59898995D01*
X83348793Y-59898062D01*
X83381051Y-59897048D01*
X83385070Y-59896922D01*
X83392989Y-59896673D01*
X83412443Y-59891021D01*
X83431800Y-59887013D01*
X83444030Y-59885468D01*
X83444031Y-59885468D01*
X83451897Y-59884474D01*
X83459268Y-59881555D01*
X83459270Y-59881555D01*
X83493012Y-59868196D01*
X83504242Y-59864351D01*
X83539083Y-59854229D01*
X83539084Y-59854229D01*
X83546693Y-59852018D01*
X83553512Y-59847985D01*
X83553517Y-59847983D01*
X83564128Y-59841707D01*
X83581876Y-59833012D01*
X83600717Y-59825552D01*
X83607272Y-59820790D01*
X83636487Y-59799564D01*
X83646407Y-59793048D01*
X83677635Y-59774580D01*
X83677638Y-59774578D01*
X83684462Y-59770542D01*
X83698783Y-59756221D01*
X83713817Y-59743380D01*
X83718334Y-59740098D01*
X83730207Y-59731472D01*
X83758398Y-59697395D01*
X83766388Y-59688616D01*
X84086491Y-59368513D01*
X84148803Y-59334487D01*
X84219618Y-59339552D01*
X84251152Y-59356782D01*
X84297095Y-59391215D01*
X84433484Y-59442345D01*
X84495666Y-59449100D01*
X85491934Y-59449100D01*
X85554116Y-59442345D01*
X85690505Y-59391215D01*
X85736449Y-59356782D01*
X85802956Y-59331934D01*
X85872338Y-59346987D01*
X85901109Y-59368513D01*
X86190843Y-59658247D01*
X86198387Y-59666537D01*
X86202500Y-59673018D01*
X86208277Y-59678443D01*
X86252167Y-59719658D01*
X86255009Y-59722413D01*
X86274730Y-59742134D01*
X86277925Y-59744612D01*
X86286947Y-59752318D01*
X86319179Y-59782586D01*
X86326128Y-59786406D01*
X86336932Y-59792346D01*
X86353456Y-59803199D01*
X86369459Y-59815613D01*
X86410043Y-59833176D01*
X86420673Y-59838383D01*
X86459440Y-59859695D01*
X86467117Y-59861666D01*
X86467122Y-59861668D01*
X86479058Y-59864732D01*
X86497766Y-59871137D01*
X86516355Y-59879181D01*
X86524183Y-59880421D01*
X86524190Y-59880423D01*
X86560024Y-59886099D01*
X86571644Y-59888505D01*
X86606789Y-59897528D01*
X86614470Y-59899500D01*
X86634724Y-59899500D01*
X86654434Y-59901051D01*
X86674443Y-59904220D01*
X86682335Y-59903474D01*
X86703503Y-59901473D01*
X86718462Y-59900059D01*
X86730319Y-59899500D01*
X102264533Y-59899500D01*
X102275716Y-59900027D01*
X102283209Y-59901702D01*
X102291135Y-59901453D01*
X102291136Y-59901453D01*
X102351286Y-59899562D01*
X102355245Y-59899500D01*
X102383156Y-59899500D01*
X102387091Y-59899003D01*
X102387156Y-59898995D01*
X102398993Y-59898062D01*
X102431251Y-59897048D01*
X102435270Y-59896922D01*
X102443189Y-59896673D01*
X102462643Y-59891021D01*
X102482000Y-59887013D01*
X102494230Y-59885468D01*
X102494231Y-59885468D01*
X102502097Y-59884474D01*
X102509468Y-59881555D01*
X102509470Y-59881555D01*
X102543212Y-59868196D01*
X102554442Y-59864351D01*
X102589283Y-59854229D01*
X102589284Y-59854229D01*
X102596893Y-59852018D01*
X102603712Y-59847985D01*
X102603717Y-59847983D01*
X102614328Y-59841707D01*
X102632076Y-59833012D01*
X102650917Y-59825552D01*
X102657472Y-59820790D01*
X102686687Y-59799564D01*
X102696607Y-59793048D01*
X102727835Y-59774580D01*
X102727838Y-59774578D01*
X102734662Y-59770542D01*
X102748983Y-59756221D01*
X102764017Y-59743380D01*
X102768534Y-59740098D01*
X102780407Y-59731472D01*
X102808598Y-59697395D01*
X102816588Y-59688616D01*
X103136691Y-59368513D01*
X103199003Y-59334487D01*
X103269818Y-59339552D01*
X103301352Y-59356782D01*
X103347295Y-59391215D01*
X103483684Y-59442345D01*
X103545866Y-59449100D01*
X104542134Y-59449100D01*
X104604316Y-59442345D01*
X104740705Y-59391215D01*
X104816397Y-59334487D01*
X104850078Y-59309245D01*
X104850081Y-59309242D01*
X104857261Y-59303861D01*
X104862642Y-59296681D01*
X104862646Y-59296677D01*
X104890726Y-59259209D01*
X104947585Y-59216693D01*
X105017750Y-59211526D01*
X105087856Y-59226428D01*
X105087861Y-59226428D01*
X105094313Y-59227800D01*
X105128905Y-59227800D01*
X105197026Y-59247802D01*
X105218001Y-59264705D01*
X105629253Y-59675958D01*
X105636787Y-59684237D01*
X105640900Y-59690718D01*
X105690551Y-59737343D01*
X105693393Y-59740098D01*
X105713130Y-59759835D01*
X105716327Y-59762315D01*
X105725347Y-59770018D01*
X105757579Y-59800286D01*
X105764525Y-59804105D01*
X105764528Y-59804107D01*
X105775334Y-59810048D01*
X105791853Y-59820899D01*
X105807859Y-59833314D01*
X105815128Y-59836459D01*
X105815132Y-59836462D01*
X105848437Y-59850874D01*
X105859087Y-59856091D01*
X105897840Y-59877395D01*
X105905515Y-59879366D01*
X105905516Y-59879366D01*
X105917462Y-59882433D01*
X105936166Y-59888837D01*
X105941216Y-59891022D01*
X105954755Y-59896881D01*
X105962578Y-59898120D01*
X105962588Y-59898123D01*
X105998424Y-59903799D01*
X106010044Y-59906205D01*
X106041859Y-59914373D01*
X106052870Y-59917200D01*
X106073124Y-59917200D01*
X106092834Y-59918751D01*
X106112843Y-59921920D01*
X106120735Y-59921174D01*
X106139480Y-59919402D01*
X106156862Y-59917759D01*
X106168719Y-59917200D01*
X121296833Y-59917200D01*
X121308016Y-59917727D01*
X121315509Y-59919402D01*
X121323435Y-59919153D01*
X121323436Y-59919153D01*
X121383586Y-59917262D01*
X121387545Y-59917200D01*
X121415456Y-59917200D01*
X121419391Y-59916703D01*
X121419456Y-59916695D01*
X121431293Y-59915762D01*
X121463551Y-59914748D01*
X121467570Y-59914622D01*
X121475489Y-59914373D01*
X121494943Y-59908721D01*
X121514300Y-59904713D01*
X121526530Y-59903168D01*
X121526531Y-59903168D01*
X121534397Y-59902174D01*
X121541768Y-59899255D01*
X121541770Y-59899255D01*
X121575512Y-59885896D01*
X121586742Y-59882051D01*
X121621583Y-59871929D01*
X121621584Y-59871929D01*
X121629193Y-59869718D01*
X121636012Y-59865685D01*
X121636017Y-59865683D01*
X121646628Y-59859407D01*
X121664376Y-59850712D01*
X121683217Y-59843252D01*
X121690039Y-59838296D01*
X121718987Y-59817264D01*
X121728907Y-59810748D01*
X121760135Y-59792280D01*
X121760138Y-59792278D01*
X121766962Y-59788242D01*
X121781283Y-59773921D01*
X121796317Y-59761080D01*
X121803005Y-59756221D01*
X121812707Y-59749172D01*
X121817758Y-59743067D01*
X121817763Y-59743062D01*
X121840894Y-59715102D01*
X121848881Y-59706324D01*
X122016274Y-59538931D01*
X122186691Y-59368513D01*
X122249004Y-59334488D01*
X122319819Y-59339552D01*
X122351346Y-59356778D01*
X122397295Y-59391215D01*
X122533684Y-59442345D01*
X122595866Y-59449100D01*
X123592134Y-59449100D01*
X123654316Y-59442345D01*
X123790705Y-59391215D01*
X123836651Y-59356781D01*
X123903153Y-59331934D01*
X123972536Y-59346986D01*
X124001308Y-59368512D01*
X124148903Y-59516108D01*
X124290953Y-59658158D01*
X124298487Y-59666437D01*
X124302600Y-59672918D01*
X124327336Y-59696146D01*
X124352251Y-59719543D01*
X124355093Y-59722298D01*
X124374830Y-59742035D01*
X124378027Y-59744515D01*
X124387047Y-59752218D01*
X124419279Y-59782486D01*
X124426225Y-59786305D01*
X124426228Y-59786307D01*
X124437034Y-59792248D01*
X124453553Y-59803099D01*
X124469559Y-59815514D01*
X124476828Y-59818659D01*
X124476832Y-59818662D01*
X124510137Y-59833074D01*
X124520787Y-59838291D01*
X124559540Y-59859595D01*
X124567215Y-59861566D01*
X124567216Y-59861566D01*
X124573946Y-59863294D01*
X124578064Y-59864351D01*
X124579162Y-59864633D01*
X124597866Y-59871037D01*
X124603741Y-59873579D01*
X124616455Y-59879081D01*
X124624278Y-59880320D01*
X124624288Y-59880323D01*
X124660124Y-59885999D01*
X124671744Y-59888405D01*
X124704918Y-59896922D01*
X124714570Y-59899400D01*
X124734824Y-59899400D01*
X124754534Y-59900951D01*
X124774543Y-59904120D01*
X124782435Y-59903374D01*
X124799911Y-59901722D01*
X124818562Y-59899959D01*
X124830419Y-59899400D01*
X137982633Y-59899400D01*
X137993816Y-59899927D01*
X138001309Y-59901602D01*
X138009235Y-59901353D01*
X138009236Y-59901353D01*
X138069386Y-59899462D01*
X138073345Y-59899400D01*
X138101256Y-59899400D01*
X138105191Y-59898903D01*
X138105256Y-59898895D01*
X138117093Y-59897962D01*
X138150188Y-59896922D01*
X138153370Y-59896822D01*
X138161289Y-59896573D01*
X138180743Y-59890921D01*
X138200100Y-59886913D01*
X138212330Y-59885368D01*
X138212331Y-59885368D01*
X138220197Y-59884374D01*
X138227568Y-59881455D01*
X138227570Y-59881455D01*
X138261312Y-59868096D01*
X138272542Y-59864251D01*
X138307383Y-59854129D01*
X138307384Y-59854129D01*
X138314993Y-59851918D01*
X138321812Y-59847885D01*
X138321817Y-59847883D01*
X138332428Y-59841607D01*
X138350176Y-59832912D01*
X138369017Y-59825452D01*
X138382560Y-59815613D01*
X138404787Y-59799464D01*
X138414707Y-59792948D01*
X138445935Y-59774480D01*
X138445938Y-59774478D01*
X138452762Y-59770442D01*
X138467083Y-59756121D01*
X138482117Y-59743280D01*
X138485350Y-59740931D01*
X138498507Y-59731372D01*
X138503558Y-59725267D01*
X138503563Y-59725262D01*
X138526694Y-59697302D01*
X138534681Y-59688524D01*
X138691955Y-59531250D01*
X138854691Y-59368513D01*
X138917004Y-59334488D01*
X138987819Y-59339552D01*
X139019346Y-59356778D01*
X139065295Y-59391215D01*
X139201684Y-59442345D01*
X139263866Y-59449100D01*
X140260134Y-59449100D01*
X140322316Y-59442345D01*
X140458705Y-59391215D01*
X140575261Y-59303861D01*
X140662615Y-59187305D01*
X140711888Y-59055870D01*
X140754530Y-58999106D01*
X140821091Y-58974406D01*
X140829870Y-58974100D01*
X144189833Y-58974100D01*
X144201016Y-58974627D01*
X144208509Y-58976302D01*
X144216435Y-58976053D01*
X144216436Y-58976053D01*
X144276586Y-58974162D01*
X144280545Y-58974100D01*
X144308456Y-58974100D01*
X144312391Y-58973603D01*
X144312456Y-58973595D01*
X144324293Y-58972662D01*
X144356551Y-58971648D01*
X144360570Y-58971522D01*
X144368489Y-58971273D01*
X144387943Y-58965621D01*
X144407300Y-58961613D01*
X144419530Y-58960068D01*
X144419531Y-58960068D01*
X144427397Y-58959074D01*
X144434768Y-58956155D01*
X144434770Y-58956155D01*
X144468512Y-58942796D01*
X144479742Y-58938951D01*
X144514583Y-58928829D01*
X144514584Y-58928829D01*
X144522193Y-58926618D01*
X144529012Y-58922585D01*
X144529017Y-58922583D01*
X144539628Y-58916307D01*
X144557376Y-58907612D01*
X144576217Y-58900152D01*
X144596587Y-58885353D01*
X144611987Y-58874164D01*
X144621907Y-58867648D01*
X144653135Y-58849180D01*
X144653138Y-58849178D01*
X144659962Y-58845142D01*
X144674283Y-58830821D01*
X144689317Y-58817980D01*
X144691032Y-58816734D01*
X144705707Y-58806072D01*
X144733898Y-58771995D01*
X144741888Y-58763216D01*
X147816447Y-55688657D01*
X147824737Y-55681113D01*
X147831218Y-55677000D01*
X147877859Y-55627332D01*
X147880613Y-55624491D01*
X147900334Y-55604770D01*
X147902812Y-55601575D01*
X147910518Y-55592553D01*
X147935358Y-55566101D01*
X147940786Y-55560321D01*
X147950546Y-55542568D01*
X147961399Y-55526045D01*
X147968953Y-55516306D01*
X147973813Y-55510041D01*
X147991376Y-55469457D01*
X147996583Y-55458827D01*
X148017895Y-55420060D01*
X148019866Y-55412383D01*
X148019868Y-55412378D01*
X148022932Y-55400442D01*
X148029338Y-55381730D01*
X148034233Y-55370419D01*
X148037381Y-55363145D01*
X148038621Y-55355317D01*
X148038623Y-55355310D01*
X148044299Y-55319476D01*
X148046705Y-55307856D01*
X148055728Y-55272711D01*
X148055728Y-55272710D01*
X148057700Y-55265030D01*
X148057700Y-55244776D01*
X148059251Y-55225065D01*
X148061180Y-55212886D01*
X148062420Y-55205057D01*
X148058259Y-55161038D01*
X148057700Y-55149181D01*
X148057700Y-51099468D01*
X148058227Y-51088284D01*
X148059902Y-51080791D01*
X148059265Y-51060520D01*
X148061590Y-51060447D01*
X148061256Y-51058783D01*
X148059575Y-51058889D01*
X148058977Y-51049375D01*
X148058791Y-51045432D01*
X148057762Y-51012716D01*
X148057700Y-51008755D01*
X148057700Y-50980844D01*
X148057195Y-50976844D01*
X148056262Y-50965001D01*
X148056055Y-50958394D01*
X148054873Y-50920811D01*
X148052661Y-50913197D01*
X148052660Y-50913192D01*
X148050046Y-50904194D01*
X148049770Y-50903043D01*
X148049525Y-50899150D01*
X148047077Y-50891616D01*
X148045896Y-50885423D01*
X148044658Y-50877606D01*
X148043668Y-50869771D01*
X148042674Y-50861903D01*
X148039756Y-50854533D01*
X148039755Y-50854529D01*
X148026396Y-50820788D01*
X148022551Y-50809558D01*
X148012429Y-50774718D01*
X148010218Y-50767107D01*
X148004646Y-50757686D01*
X148001835Y-50752375D01*
X148000064Y-50746925D01*
X147995815Y-50740229D01*
X147992437Y-50733050D01*
X147992670Y-50732941D01*
X147987935Y-50723648D01*
X147986671Y-50720456D01*
X147983752Y-50713083D01*
X147957764Y-50677313D01*
X147951248Y-50667393D01*
X147932780Y-50636165D01*
X147932778Y-50636162D01*
X147928742Y-50629338D01*
X147923131Y-50623727D01*
X147921661Y-50621832D01*
X147918411Y-50618260D01*
X147914300Y-50611782D01*
X147908526Y-50606360D01*
X147904846Y-50601911D01*
X147894622Y-50590315D01*
X147894330Y-50590005D01*
X147889672Y-50583593D01*
X147855606Y-50555411D01*
X147846827Y-50547422D01*
X147842070Y-50542665D01*
X147838873Y-50540185D01*
X147829851Y-50532480D01*
X147821309Y-50524458D01*
X147797621Y-50502214D01*
X147790677Y-50498396D01*
X147790675Y-50498395D01*
X147789221Y-50497596D01*
X147779202Y-50490787D01*
X147779150Y-50490870D01*
X147772452Y-50486620D01*
X147766344Y-50481567D01*
X147760290Y-50478718D01*
X147753819Y-50474171D01*
X147753602Y-50474043D01*
X147747341Y-50469186D01*
X147740071Y-50466040D01*
X147740066Y-50466037D01*
X147706763Y-50451626D01*
X147696113Y-50446409D01*
X147657360Y-50425105D01*
X147649680Y-50423133D01*
X147649677Y-50423132D01*
X147644677Y-50421848D01*
X147636362Y-50418855D01*
X147636235Y-50419244D01*
X147628696Y-50416795D01*
X147621518Y-50413417D01*
X147616807Y-50412519D01*
X147613506Y-50411271D01*
X147600445Y-50405619D01*
X147592614Y-50404379D01*
X147592612Y-50404378D01*
X147582623Y-50402796D01*
X147518469Y-50372384D01*
X147480942Y-50312116D01*
X147481956Y-50241126D01*
X147488651Y-50225789D01*
X147488118Y-50225552D01*
X147563109Y-50057119D01*
X147563109Y-50057118D01*
X147565794Y-50051088D01*
X147589600Y-49939092D01*
X147604128Y-49870744D01*
X147604128Y-49870739D01*
X147605500Y-49864287D01*
X147605500Y-49673313D01*
X147600923Y-49651776D01*
X147576798Y-49538283D01*
X147565794Y-49486512D01*
X147550026Y-49451097D01*
X147490803Y-49318078D01*
X147490802Y-49318076D01*
X147488118Y-49312048D01*
X147479573Y-49300286D01*
X147419687Y-49217861D01*
X147395828Y-49150993D01*
X147411909Y-49081842D01*
X147419687Y-49069739D01*
X147484237Y-48980894D01*
X147484238Y-48980893D01*
X147488118Y-48975552D01*
X147513725Y-48918039D01*
X147563109Y-48807119D01*
X147563109Y-48807118D01*
X147565794Y-48801088D01*
X147591420Y-48680530D01*
X147604128Y-48620744D01*
X147604128Y-48620739D01*
X147605500Y-48614287D01*
X147605500Y-48423313D01*
X147601716Y-48405508D01*
X147585647Y-48329913D01*
X147565794Y-48236512D01*
X147562927Y-48230073D01*
X147490803Y-48068078D01*
X147490802Y-48068076D01*
X147488118Y-48062048D01*
X147482780Y-48054700D01*
X147419687Y-47967861D01*
X147395828Y-47900993D01*
X147411909Y-47831842D01*
X147419687Y-47819739D01*
X147484237Y-47730894D01*
X147484238Y-47730893D01*
X147488118Y-47725552D01*
X147490977Y-47719132D01*
X147563109Y-47557119D01*
X147563109Y-47557118D01*
X147565794Y-47551088D01*
X147588872Y-47442516D01*
X147604128Y-47370744D01*
X147604128Y-47370739D01*
X147605500Y-47364287D01*
X147605500Y-47173313D01*
X147603711Y-47164893D01*
X147577625Y-47042172D01*
X147565794Y-46986512D01*
X147554462Y-46961060D01*
X147490803Y-46818078D01*
X147490802Y-46818076D01*
X147488118Y-46812048D01*
X147375866Y-46657547D01*
X147367846Y-46650326D01*
X147238852Y-46534179D01*
X147238851Y-46534178D01*
X147233944Y-46529760D01*
X147068556Y-46434273D01*
X146886928Y-46375258D01*
X146880367Y-46374568D01*
X146880365Y-46374568D01*
X146820650Y-46368292D01*
X146744610Y-46360300D01*
X146149390Y-46360300D01*
X146073350Y-46368292D01*
X146013635Y-46374568D01*
X146013633Y-46374568D01*
X146007072Y-46375258D01*
X145825444Y-46434273D01*
X145660056Y-46529760D01*
X145578785Y-46602937D01*
X145514779Y-46633653D01*
X145494476Y-46635300D01*
X136245867Y-46635300D01*
X136234684Y-46634773D01*
X136227191Y-46633098D01*
X136219265Y-46633347D01*
X136219264Y-46633347D01*
X136159101Y-46635238D01*
X136155143Y-46635300D01*
X136127244Y-46635300D01*
X136123254Y-46635804D01*
X136111420Y-46636736D01*
X136067211Y-46638126D01*
X136059597Y-46640338D01*
X136059592Y-46640339D01*
X136047759Y-46643777D01*
X136028396Y-46647788D01*
X136008303Y-46650326D01*
X136000936Y-46653243D01*
X136000931Y-46653244D01*
X135967192Y-46666602D01*
X135955965Y-46670446D01*
X135913507Y-46682782D01*
X135906681Y-46686819D01*
X135896072Y-46693093D01*
X135878324Y-46701788D01*
X135859483Y-46709248D01*
X135853067Y-46713910D01*
X135853066Y-46713910D01*
X135823713Y-46735236D01*
X135813793Y-46741752D01*
X135782565Y-46760220D01*
X135782562Y-46760222D01*
X135775738Y-46764258D01*
X135761417Y-46778579D01*
X135746384Y-46791419D01*
X135729993Y-46803328D01*
X135724942Y-46809434D01*
X135701802Y-46837405D01*
X135693812Y-46846184D01*
X135455259Y-47084737D01*
X135392947Y-47118763D01*
X135317947Y-47112051D01*
X135285340Y-47098545D01*
X135134077Y-47062230D01*
X135050530Y-47042172D01*
X134988961Y-47006820D01*
X134956278Y-46943793D01*
X134962859Y-46873102D01*
X134966933Y-46864095D01*
X134968960Y-46860787D01*
X135047802Y-46670446D01*
X135065461Y-46627813D01*
X135065463Y-46627808D01*
X135067355Y-46623240D01*
X135099801Y-46488093D01*
X135126223Y-46378039D01*
X135126224Y-46378033D01*
X135127378Y-46373226D01*
X135147551Y-46116900D01*
X135127378Y-45860574D01*
X135121595Y-45836483D01*
X135068510Y-45615372D01*
X135067355Y-45610560D01*
X135065461Y-45605987D01*
X134970855Y-45377587D01*
X134970853Y-45377583D01*
X134968960Y-45373013D01*
X134960942Y-45359928D01*
X134922159Y-45296641D01*
X134834616Y-45153784D01*
X134667631Y-44958269D01*
X134472116Y-44791284D01*
X134252887Y-44656940D01*
X134248317Y-44655047D01*
X134248313Y-44655045D01*
X134019913Y-44560439D01*
X134019911Y-44560438D01*
X134015340Y-44558545D01*
X133884200Y-44527061D01*
X133770139Y-44499677D01*
X133770133Y-44499676D01*
X133765326Y-44498522D01*
X133509000Y-44478349D01*
X133252674Y-44498522D01*
X133247867Y-44499676D01*
X133247861Y-44499677D01*
X133133800Y-44527061D01*
X133002660Y-44558545D01*
X132998089Y-44560438D01*
X132998087Y-44560439D01*
X132769687Y-44655045D01*
X132769683Y-44655047D01*
X132765113Y-44656940D01*
X132545884Y-44791284D01*
X132350369Y-44958269D01*
X132183384Y-45153784D01*
X132095841Y-45296641D01*
X132057059Y-45359928D01*
X132049040Y-45373013D01*
X132047147Y-45377583D01*
X132047145Y-45377587D01*
X131952539Y-45605987D01*
X131950645Y-45610560D01*
X131949490Y-45615372D01*
X131896406Y-45836483D01*
X131890622Y-45860574D01*
X131890234Y-45865508D01*
X131880690Y-45986769D01*
X131855404Y-46053110D01*
X131798266Y-46095250D01*
X131727416Y-46099809D01*
X131665983Y-46065978D01*
X128903452Y-43303447D01*
X128895912Y-43295161D01*
X128891800Y-43288682D01*
X128842148Y-43242056D01*
X128839307Y-43239302D01*
X128819570Y-43219565D01*
X128816373Y-43217085D01*
X128807351Y-43209380D01*
X128793916Y-43196764D01*
X128775121Y-43179114D01*
X128768175Y-43175295D01*
X128768172Y-43175293D01*
X128757366Y-43169352D01*
X128740847Y-43158501D01*
X128740383Y-43158141D01*
X128724841Y-43146086D01*
X128717572Y-43142941D01*
X128717568Y-43142938D01*
X128684263Y-43128526D01*
X128673613Y-43123309D01*
X128634860Y-43102005D01*
X128615237Y-43096967D01*
X128596534Y-43090563D01*
X128585220Y-43085667D01*
X128585219Y-43085667D01*
X128577945Y-43082519D01*
X128570122Y-43081280D01*
X128570112Y-43081277D01*
X128534276Y-43075601D01*
X128522656Y-43073195D01*
X128487511Y-43064172D01*
X128487510Y-43064172D01*
X128479830Y-43062200D01*
X128459576Y-43062200D01*
X128439865Y-43060649D01*
X128437334Y-43060248D01*
X128419857Y-43057480D01*
X128411965Y-43058226D01*
X128375839Y-43061641D01*
X128363981Y-43062200D01*
X37743463Y-43062200D01*
X37732279Y-43061673D01*
X37724791Y-43059999D01*
X37716868Y-43060248D01*
X37656733Y-43062138D01*
X37652775Y-43062200D01*
X37624844Y-43062200D01*
X37620929Y-43062695D01*
X37620925Y-43062695D01*
X37620867Y-43062703D01*
X37620838Y-43062706D01*
X37608996Y-43063639D01*
X37564810Y-43065027D01*
X37547444Y-43070072D01*
X37545358Y-43070678D01*
X37526006Y-43074686D01*
X37518935Y-43075580D01*
X37505903Y-43077226D01*
X37498534Y-43080143D01*
X37498532Y-43080144D01*
X37464797Y-43093500D01*
X37453569Y-43097345D01*
X37411107Y-43109682D01*
X37404285Y-43113716D01*
X37404279Y-43113719D01*
X37393668Y-43119994D01*
X37375918Y-43128690D01*
X37364456Y-43133228D01*
X37364451Y-43133231D01*
X37357083Y-43136148D01*
X37339670Y-43148799D01*
X37321325Y-43162127D01*
X37311407Y-43168643D01*
X37300163Y-43175293D01*
X37273337Y-43191158D01*
X37259013Y-43205482D01*
X37243981Y-43218321D01*
X37227593Y-43230228D01*
X37199412Y-43264293D01*
X37191422Y-43273073D01*
X34904700Y-45559795D01*
X34842388Y-45593821D01*
X34771573Y-45588756D01*
X34714737Y-45546209D01*
X34699196Y-45518918D01*
X34640655Y-45377587D01*
X34640653Y-45377583D01*
X34638760Y-45373013D01*
X34630742Y-45359928D01*
X34591959Y-45296641D01*
X34504416Y-45153784D01*
X34337431Y-44958269D01*
X34141916Y-44791284D01*
X33922687Y-44656940D01*
X33918117Y-44655047D01*
X33918113Y-44655045D01*
X33689713Y-44560439D01*
X33689711Y-44560438D01*
X33685140Y-44558545D01*
X33554000Y-44527061D01*
X33439939Y-44499677D01*
X33439933Y-44499676D01*
X33435126Y-44498522D01*
X33178800Y-44478349D01*
X32922474Y-44498522D01*
X32917667Y-44499676D01*
X32917661Y-44499677D01*
X32803600Y-44527061D01*
X32672460Y-44558545D01*
X32667889Y-44560438D01*
X32667887Y-44560439D01*
X32439487Y-44655045D01*
X32439483Y-44655047D01*
X32434913Y-44656940D01*
X32215684Y-44791284D01*
X32020169Y-44958269D01*
X31853184Y-45153784D01*
X31765641Y-45296641D01*
X31726859Y-45359928D01*
X31718840Y-45373013D01*
X31716947Y-45377583D01*
X31716945Y-45377587D01*
X31622339Y-45605987D01*
X31620445Y-45610560D01*
X31619290Y-45615372D01*
X31566206Y-45836483D01*
X31560422Y-45860574D01*
X31540249Y-46116900D01*
X31560422Y-46373226D01*
X31561576Y-46378033D01*
X31561577Y-46378039D01*
X31587999Y-46488093D01*
X31620445Y-46623240D01*
X31622337Y-46627808D01*
X31622339Y-46627813D01*
X31639998Y-46670446D01*
X31718840Y-46860787D01*
X31720241Y-46863074D01*
X31733227Y-46932231D01*
X31706524Y-46998015D01*
X31648496Y-47038919D01*
X31637270Y-47042172D01*
X31553723Y-47062230D01*
X31402460Y-47098545D01*
X31397889Y-47100438D01*
X31397887Y-47100439D01*
X31169487Y-47195045D01*
X31169483Y-47195047D01*
X31164913Y-47196940D01*
X30945684Y-47331284D01*
X30750169Y-47498269D01*
X30583184Y-47693784D01*
X30448840Y-47913013D01*
X30446947Y-47917583D01*
X30446945Y-47917587D01*
X30352339Y-48145987D01*
X30350445Y-48150560D01*
X30290422Y-48400574D01*
X30270249Y-48656900D01*
X30290422Y-48913226D01*
X30291576Y-48918033D01*
X30291577Y-48918039D01*
X30311717Y-49001926D01*
X30350445Y-49163240D01*
X30352338Y-49167811D01*
X30352339Y-49167813D01*
X30446944Y-49396209D01*
X30448840Y-49400787D01*
X30583184Y-49620016D01*
X30584719Y-49621814D01*
X30608341Y-49687998D01*
X30592267Y-49757151D01*
X30541358Y-49806636D01*
X30493201Y-49820752D01*
X30410163Y-49827798D01*
X30410159Y-49827799D01*
X30404852Y-49828249D01*
X30399697Y-49829587D01*
X30399691Y-49829588D01*
X30266002Y-49864287D01*
X30177594Y-49887233D01*
X30172728Y-49889425D01*
X30172725Y-49889426D01*
X29968383Y-49981476D01*
X29968380Y-49981477D01*
X29963522Y-49983666D01*
X29768759Y-50114788D01*
X29764902Y-50118467D01*
X29764900Y-50118469D01*
X29757151Y-50125861D01*
X29598873Y-50276851D01*
X29458722Y-50465221D01*
X29456306Y-50469972D01*
X29456304Y-50469976D01*
X29370306Y-50639122D01*
X29352313Y-50674512D01*
X29282689Y-50898740D01*
X29281988Y-50904029D01*
X29253264Y-51120744D01*
X29251839Y-51131493D01*
X24320500Y-51131493D01*
X24320500Y-42915707D01*
X24322246Y-42894803D01*
X24324764Y-42879835D01*
X24325571Y-42875039D01*
X24325724Y-42862500D01*
X24325035Y-42857687D01*
X24324718Y-42852828D01*
X24325006Y-42852809D01*
X24324605Y-42826070D01*
X24336026Y-42724706D01*
X24342302Y-42697206D01*
X24383415Y-42579711D01*
X24395654Y-42554299D01*
X24461875Y-42448909D01*
X24479467Y-42426850D01*
X24567475Y-42338842D01*
X24589534Y-42321250D01*
X24694924Y-42255029D01*
X24720336Y-42242790D01*
X24837831Y-42201677D01*
X24865331Y-42195401D01*
X24904848Y-42190948D01*
X24963383Y-42184353D01*
X24979025Y-42183570D01*
X24987981Y-42183679D01*
X24996855Y-42185061D01*
X25028377Y-42180939D01*
X25044714Y-42179875D01*
X147588172Y-42179875D01*
X147607557Y-42181375D01*
G37*
%TD.AperFunction*%
M02*
