%TF.GenerationSoftware,KiCad,Pcbnew,(6.0.2)*%
%TF.CreationDate,2022-03-15T14:51:57+03:00*%
%TF.ProjectId,kinesis-top-pcb,6b696e65-7369-4732-9d74-6f702d706362,rev?*%
%TF.SameCoordinates,Original*%
%TF.FileFunction,Copper,L2,Bot*%
%TF.FilePolarity,Positive*%
%FSLAX46Y46*%
G04 Gerber Fmt 4.6, Leading zero omitted, Abs format (unit mm)*
G04 Created by KiCad (PCBNEW (6.0.2)) date 2022-03-15 14:51:57*
%MOMM*%
%LPD*%
G01*
G04 APERTURE LIST*
G04 Aperture macros list*
%AMRoundRect*
0 Rectangle with rounded corners*
0 $1 Rounding radius*
0 $2 $3 $4 $5 $6 $7 $8 $9 X,Y pos of 4 corners*
0 Add a 4 corners polygon primitive as box body*
4,1,4,$2,$3,$4,$5,$6,$7,$8,$9,$2,$3,0*
0 Add four circle primitives for the rounded corners*
1,1,$1+$1,$2,$3*
1,1,$1+$1,$4,$5*
1,1,$1+$1,$6,$7*
1,1,$1+$1,$8,$9*
0 Add four rect primitives between the rounded corners*
20,1,$1+$1,$2,$3,$4,$5,0*
20,1,$1+$1,$4,$5,$6,$7,0*
20,1,$1+$1,$6,$7,$8,$9,0*
20,1,$1+$1,$8,$9,$2,$3,0*%
G04 Aperture macros list end*
%TA.AperFunction,ComponentPad*%
%ADD10RoundRect,0.200000X0.450000X-0.200000X0.450000X0.200000X-0.450000X0.200000X-0.450000X-0.200000X0*%
%TD*%
%TA.AperFunction,ComponentPad*%
%ADD11O,1.300000X0.800000*%
%TD*%
%TA.AperFunction,ComponentPad*%
%ADD12C,2.250000*%
%TD*%
%TA.AperFunction,SMDPad,CuDef*%
%ADD13R,0.900000X1.200000*%
%TD*%
%TA.AperFunction,ViaPad*%
%ADD14C,0.800000*%
%TD*%
%TA.AperFunction,Conductor*%
%ADD15C,0.250000*%
%TD*%
G04 APERTURE END LIST*
D10*
%TO.P,J1,1*%
%TO.N,COL_5*%
X146447000Y-54768800D03*
D11*
%TO.P,J1,2*%
%TO.N,COL_4*%
X146447000Y-53518800D03*
%TO.P,J1,3*%
%TO.N,COL_3*%
X146447000Y-52268800D03*
%TO.P,J1,4*%
%TO.N,ROW_0*%
X146447000Y-51018800D03*
%TO.P,J1,5*%
%TO.N,COL_2*%
X146447000Y-49768800D03*
%TO.P,J1,6*%
%TO.N,COL_1*%
X146447000Y-48518800D03*
%TO.P,J1,7*%
%TO.N,COL_0*%
X146447000Y-47268800D03*
%TD*%
D12*
%TO.P,K2,1*%
%TO.N,COL_1*%
X50958800Y-48656900D03*
%TO.P,K2,2*%
%TO.N,Net-(D2-Pad2)*%
X57308800Y-46116900D03*
%TD*%
%TO.P,K3,1*%
%TO.N,COL_2*%
X70008800Y-48656900D03*
%TO.P,K3,2*%
%TO.N,Net-(D3-Pad2)*%
X76358800Y-46116900D03*
%TD*%
%TO.P,K4,1*%
%TO.N,COL_3*%
X89058800Y-48656900D03*
%TO.P,K4,2*%
%TO.N,Net-(D4-Pad2)*%
X95408800Y-46116900D03*
%TD*%
%TO.P,K5,1*%
%TO.N,COL_4*%
X108109000Y-48656900D03*
%TO.P,K5,2*%
%TO.N,Net-(D5-Pad2)*%
X114459000Y-46116900D03*
%TD*%
%TO.P,K6,1*%
%TO.N,COL_5*%
X127159000Y-48656900D03*
%TO.P,K6,2*%
%TO.N,Net-(D6-Pad2)*%
X133509000Y-46116900D03*
%TD*%
%TO.P,K1,1*%
%TO.N,COL_0*%
X31908800Y-48656900D03*
%TO.P,K1,2*%
%TO.N,Net-(D1-Pad2)*%
X38258800Y-46116900D03*
%TD*%
D13*
%TO.P,D1,1*%
%TO.N,ROW_0*%
X46893800Y-58340600D03*
%TO.P,D1,2*%
%TO.N,Net-(D1-Pad2)*%
X43593800Y-58340600D03*
%TD*%
%TO.P,D2,1*%
%TO.N,ROW_0*%
X65943800Y-58340600D03*
%TO.P,D2,2*%
%TO.N,Net-(D2-Pad2)*%
X62643800Y-58340600D03*
%TD*%
%TO.P,D4,1*%
%TO.N,ROW_0*%
X104044000Y-58340600D03*
%TO.P,D4,2*%
%TO.N,Net-(D4-Pad2)*%
X100744000Y-58340600D03*
%TD*%
%TO.P,D6,1*%
%TO.N,ROW_0*%
X139762000Y-58340600D03*
%TO.P,D6,2*%
%TO.N,Net-(D6-Pad2)*%
X136462000Y-58340600D03*
%TD*%
%TO.P,D5,1*%
%TO.N,ROW_0*%
X123094000Y-58340600D03*
%TO.P,D5,2*%
%TO.N,Net-(D5-Pad2)*%
X119794000Y-58340600D03*
%TD*%
%TO.P,D3,1*%
%TO.N,ROW_0*%
X84993800Y-58340600D03*
%TO.P,D3,2*%
%TO.N,Net-(D3-Pad2)*%
X81693800Y-58340600D03*
%TD*%
D12*
%TO.P,K7,1*%
%TO.N,COL_5*%
X39528800Y-48656900D03*
%TO.P,K7,2*%
%TO.N,Net-(D7-Pad2)*%
X33178800Y-46116900D03*
%TD*%
%TO.P,K8,1*%
%TO.N,COL_4*%
X58578800Y-48656900D03*
%TO.P,K8,2*%
%TO.N,Net-(D8-Pad2)*%
X52228800Y-46116900D03*
%TD*%
%TO.P,K9,1*%
%TO.N,COL_3*%
X77628800Y-48656900D03*
%TO.P,K9,2*%
%TO.N,Net-(D9-Pad2)*%
X71278800Y-46116900D03*
%TD*%
%TO.P,K10,1*%
%TO.N,COL_2*%
X96678800Y-48656900D03*
%TO.P,K10,2*%
%TO.N,Net-(D10-Pad2)*%
X90328800Y-46116900D03*
%TD*%
%TO.P,K11,1*%
%TO.N,COL_1*%
X115729000Y-48656900D03*
%TO.P,K11,2*%
%TO.N,Net-(D11-Pad2)*%
X109379000Y-46116900D03*
%TD*%
%TO.P,K12,1*%
%TO.N,COL_0*%
X134779000Y-48656900D03*
%TO.P,K12,2*%
%TO.N,Net-(D12-Pad2)*%
X128429000Y-46116900D03*
%TD*%
D14*
%TO.N,ROW_0*%
X105189800Y-58319300D03*
%TO.N,Net-(D11-Pad2)*%
X118484300Y-58056400D03*
%TO.N,Net-(D12-Pad2)*%
X133213800Y-56293600D03*
%TD*%
D15*
%TO.N,ROW_0*%
X67644500Y-59266000D02*
X83293100Y-59266000D01*
X65168500Y-58340600D02*
X64238300Y-59270800D01*
X145471700Y-53406200D02*
X140537300Y-58340600D01*
X86694500Y-59266000D02*
X85769100Y-58340600D01*
X106136500Y-59266000D02*
X121393300Y-59266000D01*
X66719100Y-58340600D02*
X67644500Y-59266000D01*
X105189800Y-58319300D02*
X106136500Y-59266000D01*
X84993800Y-58340600D02*
X85769100Y-58340600D01*
X104044000Y-58340600D02*
X104819300Y-58340600D01*
X66331500Y-58340600D02*
X66719100Y-58340600D01*
X103268700Y-58340600D02*
X102343300Y-59266000D01*
X146447000Y-51018800D02*
X145471700Y-51018800D01*
X103656400Y-58340600D02*
X104044000Y-58340600D01*
X65943800Y-58340600D02*
X65168500Y-58340600D01*
X64238300Y-59270800D02*
X48599300Y-59270800D01*
X103656400Y-58340600D02*
X103268700Y-58340600D01*
X83293100Y-59266000D02*
X84218500Y-58340600D01*
X84993800Y-58340600D02*
X84218500Y-58340600D01*
X104819300Y-58340600D02*
X104840600Y-58319300D01*
X46893800Y-58340600D02*
X47669100Y-58340600D01*
X104840600Y-58319300D02*
X105189800Y-58319300D01*
X145471700Y-51018800D02*
X145471700Y-53406200D01*
X48599300Y-59270800D02*
X47669100Y-58340600D01*
X123094000Y-58340600D02*
X122318700Y-58340600D01*
X102343300Y-59266000D02*
X86694500Y-59266000D01*
X66331500Y-58340600D02*
X65943800Y-58340600D01*
X121393300Y-59266000D02*
X122318700Y-58340600D01*
X139762000Y-58340600D02*
X140537300Y-58340600D01*
%TO.N,Net-(D1-Pad2)*%
X43593800Y-50658200D02*
X43593800Y-58340600D01*
X38258800Y-46116900D02*
X39052500Y-46116900D01*
X39052500Y-46116900D02*
X43593800Y-50658200D01*
%TO.N,Net-(D2-Pad2)*%
X62643800Y-50663300D02*
X62643800Y-58340600D01*
X58097400Y-46116900D02*
X62643800Y-50663300D01*
X57308800Y-46116900D02*
X58097400Y-46116900D01*
%TO.N,Net-(D3-Pad2)*%
X76358800Y-46116900D02*
X76172400Y-46303300D01*
X76172400Y-46303300D02*
X76172400Y-53594500D01*
X76172400Y-53594500D02*
X80918500Y-58340600D01*
X81693800Y-58340600D02*
X80918500Y-58340600D01*
%TO.N,COL_1*%
X141473900Y-48518800D02*
X146447000Y-48518800D01*
X137613200Y-44658100D02*
X141473900Y-48518800D01*
X114849600Y-48656900D02*
X113002700Y-46810000D01*
X113002700Y-46810000D02*
X113002700Y-45460300D01*
X115729000Y-48656900D02*
X114849600Y-48656900D01*
X113002700Y-45460300D02*
X113804900Y-44658100D01*
X113804900Y-44658100D02*
X137613200Y-44658100D01*
%TO.N,COL_2*%
X95884200Y-48656900D02*
X91890500Y-44663200D01*
X91890500Y-44663200D02*
X75742700Y-44663200D01*
X71749000Y-48656900D02*
X70008800Y-48656900D01*
X75742700Y-44663200D02*
X71749000Y-48656900D01*
X96678800Y-48656900D02*
X95884200Y-48656900D01*
%TO.N,COL_3*%
X77628800Y-48656900D02*
X89058800Y-48656900D01*
%TO.N,COL_4*%
X107420400Y-44203900D02*
X107025100Y-44599200D01*
X106627200Y-44201300D02*
X107025100Y-44599200D01*
X55850600Y-46723300D02*
X55850600Y-45495000D01*
X146447000Y-53518800D02*
X147422300Y-53518800D01*
X144698000Y-44203900D02*
X107420400Y-44203900D01*
X58578800Y-48656900D02*
X57784200Y-48656900D01*
X57784200Y-48656900D02*
X55850600Y-46723300D01*
X55850600Y-45495000D02*
X57144300Y-44201300D01*
X57144300Y-44201300D02*
X106627200Y-44201300D01*
X147422300Y-53518800D02*
X147422300Y-46928200D01*
X147422300Y-46928200D02*
X144698000Y-44203900D01*
X107025100Y-47573000D02*
X108109000Y-48656900D01*
X107025100Y-44599200D02*
X107025100Y-47573000D01*
%TO.N,COL_5*%
X135070000Y-59266000D02*
X141949800Y-59266000D01*
X127159000Y-51355000D02*
X135070000Y-59266000D01*
X127159000Y-48656900D02*
X127159000Y-51355000D01*
X141949800Y-59266000D02*
X146447000Y-54768800D01*
%TO.N,Net-(D11-Pad2)*%
X118484300Y-54379800D02*
X118484300Y-58056400D01*
X110221400Y-46116900D02*
X118484300Y-54379800D01*
X109379000Y-46116900D02*
X110221400Y-46116900D01*
%TO.N,Net-(D12-Pad2)*%
X128429000Y-46116900D02*
X128615100Y-46303000D01*
X128615100Y-52146300D02*
X132762400Y-56293600D01*
X128615100Y-46303000D02*
X128615100Y-52146300D01*
X132762400Y-56293600D02*
X133213800Y-56293600D01*
%TO.N,Net-(D4-Pad2)*%
X96194700Y-46116900D02*
X100744000Y-50666200D01*
X100744000Y-50666200D02*
X100744000Y-58340600D01*
X95408800Y-46116900D02*
X96194700Y-46116900D01*
%TO.N,Net-(D5-Pad2)*%
X119794000Y-50619900D02*
X119794000Y-58340600D01*
X114459000Y-46116900D02*
X115291000Y-46116900D01*
X115291000Y-46116900D02*
X119794000Y-50619900D01*
%TO.N,Net-(D6-Pad2)*%
X133301200Y-55355200D02*
X133301200Y-46324700D01*
X135686700Y-57740700D02*
X133301200Y-55355200D01*
X136462000Y-58340600D02*
X135686700Y-58340600D01*
X135686700Y-58340600D02*
X135686700Y-57740700D01*
X133301200Y-46324700D02*
X133509000Y-46116900D01*
%TD*%
%TA.AperFunction,NonConductor*%
G36*
X108118408Y-44857402D02*
G01*
X108164901Y-44911058D01*
X108175005Y-44981332D01*
X108146099Y-45045228D01*
X108053384Y-45153784D01*
X107919040Y-45373013D01*
X107917147Y-45377583D01*
X107917145Y-45377587D01*
X107901009Y-45416544D01*
X107856461Y-45471825D01*
X107789098Y-45494246D01*
X107720306Y-45476688D01*
X107671928Y-45424726D01*
X107658600Y-45368326D01*
X107658600Y-44963400D01*
X107678602Y-44895279D01*
X107732258Y-44848786D01*
X107784600Y-44837400D01*
X108050287Y-44837400D01*
X108118408Y-44857402D01*
G37*
%TD.AperFunction*%
%TA.AperFunction,NonConductor*%
G36*
X94150428Y-44854802D02*
G01*
X94196921Y-44908458D01*
X94207025Y-44978732D01*
X94178118Y-45042630D01*
X94083184Y-45153784D01*
X93948840Y-45373013D01*
X93946947Y-45377583D01*
X93888433Y-45518848D01*
X93843884Y-45574128D01*
X93776521Y-45596549D01*
X93707730Y-45578991D01*
X93682929Y-45559724D01*
X93173100Y-45049895D01*
X93139074Y-44987583D01*
X93144139Y-44916768D01*
X93186686Y-44859932D01*
X93253206Y-44835121D01*
X93262195Y-44834800D01*
X94082307Y-44834800D01*
X94150428Y-44854802D01*
G37*
%TD.AperFunction*%
%TA.AperFunction,NonConductor*%
G36*
X74439127Y-44854802D02*
G01*
X74485620Y-44908458D01*
X74495724Y-44978732D01*
X74466230Y-45043312D01*
X74460103Y-45049893D01*
X73118213Y-46391782D01*
X73055903Y-46425807D01*
X72985088Y-46420742D01*
X72928252Y-46378195D01*
X72903441Y-46311675D01*
X72903508Y-46292801D01*
X72916963Y-46121831D01*
X72916963Y-46121830D01*
X72917351Y-46116900D01*
X72897178Y-45860574D01*
X72891369Y-45836374D01*
X72838310Y-45615372D01*
X72837155Y-45610560D01*
X72835261Y-45605987D01*
X72740655Y-45377587D01*
X72740653Y-45377583D01*
X72738760Y-45373013D01*
X72604416Y-45153784D01*
X72509482Y-45042630D01*
X72480451Y-44977840D01*
X72491056Y-44907640D01*
X72537931Y-44854318D01*
X72605293Y-44834800D01*
X74371006Y-44834800D01*
X74439127Y-44854802D01*
G37*
%TD.AperFunction*%
%TA.AperFunction,NonConductor*%
G36*
X107867112Y-46770250D02*
G01*
X107901009Y-46817256D01*
X107919040Y-46860787D01*
X107920441Y-46863074D01*
X107933427Y-46932231D01*
X107906724Y-46998015D01*
X107848696Y-47038919D01*
X107837469Y-47042172D01*
X107814013Y-47047803D01*
X107743105Y-47044255D01*
X107685371Y-47002935D01*
X107659142Y-46936961D01*
X107658600Y-46925284D01*
X107658600Y-46865474D01*
X107678602Y-46797353D01*
X107732258Y-46750860D01*
X107802532Y-46740756D01*
X107867112Y-46770250D01*
G37*
%TD.AperFunction*%
%TA.AperFunction,NonConductor*%
G36*
X112495052Y-44857402D02*
G01*
X112541545Y-44911058D01*
X112551649Y-44981332D01*
X112526498Y-45040616D01*
X112524097Y-45043712D01*
X112516382Y-45052747D01*
X112486114Y-45084979D01*
X112482295Y-45091925D01*
X112482293Y-45091928D01*
X112476352Y-45102734D01*
X112465501Y-45119253D01*
X112453086Y-45135259D01*
X112449941Y-45142528D01*
X112449938Y-45142532D01*
X112435526Y-45175837D01*
X112430309Y-45186487D01*
X112409005Y-45225240D01*
X112407034Y-45232915D01*
X112407034Y-45232916D01*
X112403967Y-45244862D01*
X112397563Y-45263566D01*
X112395811Y-45267616D01*
X112389519Y-45282155D01*
X112388280Y-45289978D01*
X112388277Y-45289988D01*
X112382601Y-45325824D01*
X112380195Y-45337444D01*
X112372147Y-45368793D01*
X112369200Y-45380270D01*
X112369200Y-45400524D01*
X112367649Y-45420234D01*
X112364480Y-45440243D01*
X112365226Y-45448135D01*
X112368641Y-45484261D01*
X112369200Y-45496119D01*
X112369200Y-46731233D01*
X112368673Y-46742416D01*
X112366998Y-46749909D01*
X112367247Y-46757835D01*
X112367247Y-46757836D01*
X112369138Y-46817986D01*
X112369200Y-46821945D01*
X112369200Y-46849856D01*
X112369697Y-46853790D01*
X112369697Y-46853791D01*
X112369705Y-46853856D01*
X112370638Y-46865693D01*
X112372027Y-46909889D01*
X112374454Y-46918242D01*
X112377678Y-46929339D01*
X112381687Y-46948700D01*
X112384226Y-46968797D01*
X112387145Y-46976168D01*
X112387145Y-46976170D01*
X112400504Y-47009912D01*
X112404349Y-47021142D01*
X112405575Y-47025362D01*
X112416682Y-47063593D01*
X112420716Y-47070414D01*
X112423866Y-47077693D01*
X112422031Y-47078487D01*
X112436894Y-47137059D01*
X112414380Y-47204391D01*
X112359037Y-47248862D01*
X112288437Y-47256353D01*
X112221886Y-47221481D01*
X111041900Y-46041495D01*
X111007874Y-45979183D01*
X111005383Y-45962286D01*
X110997766Y-45865508D01*
X110997766Y-45865507D01*
X110997378Y-45860574D01*
X110991569Y-45836374D01*
X110938510Y-45615372D01*
X110937355Y-45610560D01*
X110935461Y-45605987D01*
X110840855Y-45377587D01*
X110840853Y-45377583D01*
X110838960Y-45373013D01*
X110704616Y-45153784D01*
X110611901Y-45045228D01*
X110582871Y-44980441D01*
X110593476Y-44910241D01*
X110640351Y-44856918D01*
X110707713Y-44837400D01*
X112426931Y-44837400D01*
X112495052Y-44857402D01*
G37*
%TD.AperFunction*%
%TA.AperFunction,NonConductor*%
G36*
X144451527Y-44857402D02*
G01*
X144472501Y-44874305D01*
X145840581Y-46242386D01*
X145874607Y-46304698D01*
X145869542Y-46375514D01*
X145826995Y-46432349D01*
X145814491Y-46440597D01*
X145660056Y-46529760D01*
X145655149Y-46534178D01*
X145655148Y-46534179D01*
X145523045Y-46653125D01*
X145518134Y-46657547D01*
X145464598Y-46731233D01*
X145415116Y-46799339D01*
X145405882Y-46812048D01*
X145403198Y-46818076D01*
X145403197Y-46818078D01*
X145330943Y-46980364D01*
X145328206Y-46986512D01*
X145311822Y-47063593D01*
X145290170Y-47165458D01*
X145288500Y-47173313D01*
X145288500Y-47364287D01*
X145289872Y-47370739D01*
X145289872Y-47370744D01*
X145304446Y-47439305D01*
X145328206Y-47551088D01*
X145330891Y-47557118D01*
X145330891Y-47557119D01*
X145398090Y-47708051D01*
X145407524Y-47778418D01*
X145377417Y-47842715D01*
X145317329Y-47880529D01*
X145282983Y-47885300D01*
X141788495Y-47885300D01*
X141720374Y-47865298D01*
X141699400Y-47848395D01*
X138903500Y-45052495D01*
X138869474Y-44990183D01*
X138874539Y-44919368D01*
X138917086Y-44862532D01*
X138983606Y-44837721D01*
X138992595Y-44837400D01*
X144383406Y-44837400D01*
X144451527Y-44857402D01*
G37*
%TD.AperFunction*%
%TA.AperFunction,NonConductor*%
G36*
X88779998Y-45316702D02*
G01*
X88826491Y-45370358D01*
X88836595Y-45440632D01*
X88828286Y-45470918D01*
X88772339Y-45605986D01*
X88772339Y-45605987D01*
X88770445Y-45610560D01*
X88769290Y-45615372D01*
X88716232Y-45836374D01*
X88710422Y-45860574D01*
X88690249Y-46116900D01*
X88710422Y-46373226D01*
X88711576Y-46378033D01*
X88711577Y-46378039D01*
X88724616Y-46432349D01*
X88770445Y-46623240D01*
X88772338Y-46627811D01*
X88772339Y-46627813D01*
X88775884Y-46636372D01*
X88868840Y-46860787D01*
X88870241Y-46863074D01*
X88883227Y-46932231D01*
X88856524Y-46998015D01*
X88798496Y-47038919D01*
X88787270Y-47042172D01*
X88701176Y-47062841D01*
X88552460Y-47098545D01*
X88547889Y-47100438D01*
X88547887Y-47100439D01*
X88319487Y-47195045D01*
X88319483Y-47195047D01*
X88314913Y-47196940D01*
X88095684Y-47331284D01*
X87900169Y-47498269D01*
X87733184Y-47693784D01*
X87598840Y-47913013D01*
X87596947Y-47917583D01*
X87596943Y-47917591D01*
X87585335Y-47945617D01*
X87540788Y-48000898D01*
X87468926Y-48023400D01*
X79218674Y-48023400D01*
X79150553Y-48003398D01*
X79102265Y-47945617D01*
X79090657Y-47917591D01*
X79090653Y-47917583D01*
X79088760Y-47913013D01*
X78954416Y-47693784D01*
X78787431Y-47498269D01*
X78591916Y-47331284D01*
X78372687Y-47196940D01*
X78368117Y-47195047D01*
X78368113Y-47195045D01*
X78139713Y-47100439D01*
X78139711Y-47100438D01*
X78135140Y-47098545D01*
X77986424Y-47062841D01*
X77900330Y-47042172D01*
X77838761Y-47006820D01*
X77806078Y-46943793D01*
X77812659Y-46873102D01*
X77816733Y-46864095D01*
X77818760Y-46860787D01*
X77911716Y-46636372D01*
X77915261Y-46627813D01*
X77915262Y-46627811D01*
X77917155Y-46623240D01*
X77962984Y-46432349D01*
X77976023Y-46378039D01*
X77976024Y-46378033D01*
X77977178Y-46373226D01*
X77997351Y-46116900D01*
X77977178Y-45860574D01*
X77971369Y-45836374D01*
X77918310Y-45615372D01*
X77917155Y-45610560D01*
X77915261Y-45605987D01*
X77915261Y-45605986D01*
X77859314Y-45470918D01*
X77851725Y-45400328D01*
X77883505Y-45336841D01*
X77944563Y-45300614D01*
X77975723Y-45296700D01*
X88711877Y-45296700D01*
X88779998Y-45316702D01*
G37*
%TD.AperFunction*%
%TA.AperFunction,NonConductor*%
G36*
X74764533Y-46641437D02*
G01*
X74821369Y-46683984D01*
X74836910Y-46711275D01*
X74891323Y-46842639D01*
X74898840Y-46860787D01*
X75033184Y-47080016D01*
X75200169Y-47275531D01*
X75395684Y-47442516D01*
X75399899Y-47445099D01*
X75399910Y-47445107D01*
X75478735Y-47493411D01*
X75526366Y-47546058D01*
X75538900Y-47600843D01*
X75538900Y-49104421D01*
X75518898Y-49172542D01*
X75465242Y-49219035D01*
X75394968Y-49229139D01*
X75332585Y-49201506D01*
X75311184Y-49183802D01*
X75292582Y-49168413D01*
X75088643Y-49038989D01*
X75030071Y-49001818D01*
X75030070Y-49001818D01*
X75026724Y-48999694D01*
X75023145Y-48998010D01*
X75023138Y-48998006D01*
X74745406Y-48867316D01*
X74745402Y-48867314D01*
X74741816Y-48865627D01*
X74442352Y-48768325D01*
X74133054Y-48709323D01*
X74039500Y-48703437D01*
X73899442Y-48694625D01*
X73899426Y-48694624D01*
X73897447Y-48694500D01*
X73740153Y-48694500D01*
X73738174Y-48694624D01*
X73738158Y-48694625D01*
X73598100Y-48703437D01*
X73504546Y-48709323D01*
X73195248Y-48768325D01*
X72895784Y-48865627D01*
X72892198Y-48867314D01*
X72892194Y-48867316D01*
X72680913Y-48966737D01*
X72610759Y-48977643D01*
X72545846Y-48948890D01*
X72506782Y-48889606D01*
X72505971Y-48818614D01*
X72538170Y-48763634D01*
X74631406Y-46670398D01*
X74693718Y-46636372D01*
X74764533Y-46641437D01*
G37*
%TD.AperFunction*%
%TA.AperFunction,NonConductor*%
G36*
X131962311Y-45311602D02*
G01*
X132008804Y-45365258D01*
X132018908Y-45435532D01*
X132010599Y-45465818D01*
X132008111Y-45471825D01*
X131952540Y-45605986D01*
X131950645Y-45610560D01*
X131949490Y-45615372D01*
X131896432Y-45836374D01*
X131890622Y-45860574D01*
X131870449Y-46116900D01*
X131890622Y-46373226D01*
X131891776Y-46378033D01*
X131891777Y-46378039D01*
X131904816Y-46432349D01*
X131950645Y-46623240D01*
X131952538Y-46627811D01*
X131952539Y-46627813D01*
X132041523Y-46842639D01*
X132049040Y-46860787D01*
X132183384Y-47080016D01*
X132350369Y-47275531D01*
X132545884Y-47442516D01*
X132550099Y-47445099D01*
X132550110Y-47445107D01*
X132607535Y-47480297D01*
X132655166Y-47532944D01*
X132667700Y-47587729D01*
X132667700Y-49086718D01*
X132647698Y-49154839D01*
X132594042Y-49201332D01*
X132523768Y-49211436D01*
X132461384Y-49183802D01*
X132460901Y-49183402D01*
X132442782Y-49168413D01*
X132238843Y-49038989D01*
X132180271Y-49001818D01*
X132180270Y-49001818D01*
X132176924Y-48999694D01*
X132173345Y-48998010D01*
X132173338Y-48998006D01*
X131895606Y-48867316D01*
X131895602Y-48867314D01*
X131892016Y-48865627D01*
X131592552Y-48768325D01*
X131283254Y-48709323D01*
X131189700Y-48703437D01*
X131049642Y-48694625D01*
X131049626Y-48694624D01*
X131047647Y-48694500D01*
X130890353Y-48694500D01*
X130888374Y-48694624D01*
X130888358Y-48694625D01*
X130748300Y-48703437D01*
X130654746Y-48709323D01*
X130345448Y-48768325D01*
X130045984Y-48865627D01*
X130042398Y-48867314D01*
X130042394Y-48867316D01*
X129764662Y-48998006D01*
X129764655Y-48998010D01*
X129761076Y-48999694D01*
X129757730Y-49001818D01*
X129757729Y-49001818D01*
X129699157Y-49038989D01*
X129495218Y-49168413D01*
X129492170Y-49170935D01*
X129492168Y-49170936D01*
X129454915Y-49201754D01*
X129389677Y-49229764D01*
X129319652Y-49218056D01*
X129267073Y-49170349D01*
X129248600Y-49104669D01*
X129248600Y-47601027D01*
X129268602Y-47532906D01*
X129308765Y-47493595D01*
X129387890Y-47445107D01*
X129387901Y-47445099D01*
X129392116Y-47442516D01*
X129587631Y-47275531D01*
X129754616Y-47080016D01*
X129888960Y-46860787D01*
X129896478Y-46842639D01*
X129985461Y-46627813D01*
X129985462Y-46627811D01*
X129987355Y-46623240D01*
X130033184Y-46432349D01*
X130046223Y-46378039D01*
X130046224Y-46378033D01*
X130047378Y-46373226D01*
X130067551Y-46116900D01*
X130047378Y-45860574D01*
X130041569Y-45836374D01*
X129988510Y-45615372D01*
X129987355Y-45610560D01*
X129985461Y-45605986D01*
X129929889Y-45471825D01*
X129927401Y-45465818D01*
X129919812Y-45395228D01*
X129951591Y-45331741D01*
X130012649Y-45295514D01*
X130043810Y-45291600D01*
X131894190Y-45291600D01*
X131962311Y-45311602D01*
G37*
%TD.AperFunction*%
%TA.AperFunction,NonConductor*%
G36*
X115599339Y-50285247D02*
G01*
X115671300Y-50290910D01*
X115710643Y-50294006D01*
X115776984Y-50319291D01*
X115819124Y-50376429D01*
X115823683Y-50447279D01*
X115813074Y-50476722D01*
X115778511Y-50544703D01*
X115729808Y-50596361D01*
X115660908Y-50613488D01*
X115593687Y-50590646D01*
X115577099Y-50576694D01*
X115500359Y-50499954D01*
X115466333Y-50437642D01*
X115471398Y-50366827D01*
X115513945Y-50309991D01*
X115580465Y-50285180D01*
X115599339Y-50285247D01*
G37*
%TD.AperFunction*%
%TA.AperFunction,NonConductor*%
G36*
X117441024Y-49168362D02*
G01*
X117465825Y-49187629D01*
X119123595Y-50845399D01*
X119157621Y-50907711D01*
X119160500Y-50934494D01*
X119160500Y-53850307D01*
X119140498Y-53918428D01*
X119086842Y-53964921D01*
X119016568Y-53975025D01*
X118951988Y-53945531D01*
X118951478Y-53945041D01*
X118949772Y-53942693D01*
X118915706Y-53914511D01*
X118906927Y-53906522D01*
X117621478Y-52621073D01*
X117587452Y-52558761D01*
X117592517Y-52487946D01*
X117635064Y-52431110D01*
X117658825Y-52417095D01*
X117669415Y-52412325D01*
X117669418Y-52412323D01*
X117674278Y-52410134D01*
X117869041Y-52279012D01*
X118038927Y-52116949D01*
X118179078Y-51928579D01*
X118239719Y-51809308D01*
X118283069Y-51724044D01*
X118283069Y-51724043D01*
X118285487Y-51719288D01*
X118355111Y-51495060D01*
X118370445Y-51379369D01*
X118385261Y-51267590D01*
X118385261Y-51267587D01*
X118385961Y-51262307D01*
X118377152Y-51027684D01*
X118351979Y-50907711D01*
X118330035Y-50803126D01*
X118330034Y-50803123D01*
X118328938Y-50797899D01*
X118242698Y-50579523D01*
X118176223Y-50469976D01*
X118123664Y-50383361D01*
X118123662Y-50383358D01*
X118120896Y-50378800D01*
X117967015Y-50201468D01*
X117951959Y-50189123D01*
X117789584Y-50055983D01*
X117789578Y-50055979D01*
X117785456Y-50052599D01*
X117780820Y-50049960D01*
X117780817Y-50049958D01*
X117586053Y-49939092D01*
X117581410Y-49936449D01*
X117360711Y-49856339D01*
X117355462Y-49855390D01*
X117355459Y-49855389D01*
X117135440Y-49815603D01*
X117071966Y-49783799D01*
X117035763Y-49722726D01*
X117038325Y-49651776D01*
X117054650Y-49620037D01*
X117054616Y-49620016D01*
X117054893Y-49619564D01*
X117188960Y-49400787D01*
X117190857Y-49396209D01*
X117260321Y-49228506D01*
X117304869Y-49173225D01*
X117372233Y-49150804D01*
X117441024Y-49168362D01*
G37*
%TD.AperFunction*%
%TA.AperFunction,NonConductor*%
G36*
X132596646Y-53193694D02*
G01*
X132649226Y-53241400D01*
X132667700Y-53307082D01*
X132667700Y-54998805D01*
X132647698Y-55066926D01*
X132594042Y-55113419D01*
X132523768Y-55123523D01*
X132459188Y-55094029D01*
X132452605Y-55087900D01*
X131254951Y-53890247D01*
X131220926Y-53827935D01*
X131225990Y-53757120D01*
X131268537Y-53700284D01*
X131320436Y-53677384D01*
X131592552Y-53625475D01*
X131892016Y-53528173D01*
X131895602Y-53526486D01*
X131895606Y-53526484D01*
X132173338Y-53395794D01*
X132173345Y-53395790D01*
X132176924Y-53394106D01*
X132442782Y-53225387D01*
X132461384Y-53209998D01*
X132526621Y-53181988D01*
X132596646Y-53193694D01*
G37*
%TD.AperFunction*%
%TA.AperFunction,NonConductor*%
G36*
X92153462Y-45824064D02*
G01*
X92167770Y-45836374D01*
X95011817Y-48680421D01*
X95045843Y-48742733D01*
X95048334Y-48759629D01*
X95060422Y-48913226D01*
X95061576Y-48918033D01*
X95061577Y-48918039D01*
X95080038Y-48994934D01*
X95120445Y-49163240D01*
X95122338Y-49167811D01*
X95122339Y-49167813D01*
X95216944Y-49396209D01*
X95218840Y-49400787D01*
X95353184Y-49620016D01*
X95520169Y-49815531D01*
X95715684Y-49982516D01*
X95934913Y-50116860D01*
X95939483Y-50118753D01*
X95939487Y-50118755D01*
X96167887Y-50213361D01*
X96172460Y-50215255D01*
X96244732Y-50232606D01*
X96417661Y-50274123D01*
X96417667Y-50274124D01*
X96422474Y-50275278D01*
X96660444Y-50294006D01*
X96726784Y-50319291D01*
X96768924Y-50376429D01*
X96773483Y-50447279D01*
X96762874Y-50476723D01*
X96670605Y-50658202D01*
X96662313Y-50674512D01*
X96592689Y-50898740D01*
X96591988Y-50904029D01*
X96574662Y-51034751D01*
X96561839Y-51131493D01*
X96570648Y-51366116D01*
X96573429Y-51379369D01*
X96596594Y-51489771D01*
X96618862Y-51595901D01*
X96705102Y-51814277D01*
X96826904Y-52015000D01*
X96980785Y-52192332D01*
X96984917Y-52195720D01*
X97158216Y-52337817D01*
X97158222Y-52337821D01*
X97162344Y-52341201D01*
X97166980Y-52343840D01*
X97166983Y-52343842D01*
X97278208Y-52407155D01*
X97366390Y-52457351D01*
X97587089Y-52537461D01*
X97592338Y-52538410D01*
X97592341Y-52538411D01*
X97673415Y-52553071D01*
X97818130Y-52579240D01*
X97822269Y-52579435D01*
X97822276Y-52579436D01*
X97841240Y-52580330D01*
X97841249Y-52580330D01*
X97842729Y-52580400D01*
X98007750Y-52580400D01*
X98089099Y-52573497D01*
X98177437Y-52566002D01*
X98177441Y-52566001D01*
X98182748Y-52565551D01*
X98187903Y-52564213D01*
X98187909Y-52564212D01*
X98404835Y-52507909D01*
X98404834Y-52507909D01*
X98410006Y-52506567D01*
X98414872Y-52504375D01*
X98414875Y-52504374D01*
X98619217Y-52412324D01*
X98619220Y-52412323D01*
X98624078Y-52410134D01*
X98818841Y-52279012D01*
X98988727Y-52116949D01*
X99128878Y-51928579D01*
X99189519Y-51809308D01*
X99232869Y-51724044D01*
X99232869Y-51724043D01*
X99235287Y-51719288D01*
X99304911Y-51495060D01*
X99320245Y-51379369D01*
X99335061Y-51267590D01*
X99335061Y-51267587D01*
X99335761Y-51262307D01*
X99326952Y-51027684D01*
X99301779Y-50907711D01*
X99279835Y-50803126D01*
X99279834Y-50803123D01*
X99278738Y-50797899D01*
X99192498Y-50579523D01*
X99126023Y-50469976D01*
X99073464Y-50383361D01*
X99073462Y-50383358D01*
X99070696Y-50378800D01*
X98916815Y-50201468D01*
X98901759Y-50189123D01*
X98739384Y-50055983D01*
X98739378Y-50055979D01*
X98735256Y-50052599D01*
X98730620Y-50049960D01*
X98730617Y-50049958D01*
X98535853Y-49939092D01*
X98531210Y-49936449D01*
X98310511Y-49856339D01*
X98305262Y-49855390D01*
X98305259Y-49855389D01*
X98085240Y-49815603D01*
X98021766Y-49783799D01*
X97985563Y-49722726D01*
X97988125Y-49651776D01*
X98004450Y-49620037D01*
X98004416Y-49620016D01*
X98004693Y-49619564D01*
X98138760Y-49400787D01*
X98140657Y-49396209D01*
X98168268Y-49329549D01*
X98196619Y-49261103D01*
X98241166Y-49205823D01*
X98308529Y-49183402D01*
X98377321Y-49200960D01*
X98402122Y-49220227D01*
X100073595Y-50891700D01*
X100107621Y-50954012D01*
X100110500Y-50980795D01*
X100110500Y-57182167D01*
X100090498Y-57250288D01*
X100048322Y-57289600D01*
X100047295Y-57289985D01*
X99930739Y-57377339D01*
X99843385Y-57493895D01*
X99792255Y-57630284D01*
X99785500Y-57692466D01*
X99785500Y-58506500D01*
X99765498Y-58574621D01*
X99711842Y-58621114D01*
X99659500Y-58632500D01*
X87009095Y-58632500D01*
X86940974Y-58612498D01*
X86920000Y-58595595D01*
X86272752Y-57948347D01*
X86265212Y-57940061D01*
X86261100Y-57933582D01*
X86211448Y-57886956D01*
X86208607Y-57884202D01*
X86188870Y-57864465D01*
X86185673Y-57861985D01*
X86176651Y-57854280D01*
X86163216Y-57841664D01*
X86144421Y-57824014D01*
X86137475Y-57820195D01*
X86137472Y-57820193D01*
X86126666Y-57814252D01*
X86110147Y-57803401D01*
X86109683Y-57803041D01*
X86094141Y-57790986D01*
X86086872Y-57787841D01*
X86086868Y-57787838D01*
X86053563Y-57773426D01*
X86042913Y-57768209D01*
X86012773Y-57751640D01*
X85962715Y-57701295D01*
X85948212Y-57654834D01*
X85947181Y-57645345D01*
X85945545Y-57630284D01*
X85894415Y-57493895D01*
X85807061Y-57377339D01*
X85690505Y-57289985D01*
X85554116Y-57238855D01*
X85491934Y-57232100D01*
X84495666Y-57232100D01*
X84433484Y-57238855D01*
X84297095Y-57289985D01*
X84180539Y-57377339D01*
X84093185Y-57493895D01*
X84042055Y-57630284D01*
X84040419Y-57645345D01*
X84039488Y-57653913D01*
X84012246Y-57719475D01*
X83966763Y-57754043D01*
X83964907Y-57754582D01*
X83958089Y-57758614D01*
X83958080Y-57758618D01*
X83947468Y-57764894D01*
X83929718Y-57773590D01*
X83918256Y-57778128D01*
X83918251Y-57778131D01*
X83910883Y-57781048D01*
X83893470Y-57793699D01*
X83875125Y-57807027D01*
X83865207Y-57813543D01*
X83853963Y-57820193D01*
X83827137Y-57836058D01*
X83812813Y-57850382D01*
X83797781Y-57863221D01*
X83781393Y-57875128D01*
X83753212Y-57909193D01*
X83745222Y-57917973D01*
X83067600Y-58595595D01*
X83005288Y-58629621D01*
X82978505Y-58632500D01*
X82778300Y-58632500D01*
X82710179Y-58612498D01*
X82663686Y-58558842D01*
X82652300Y-58506500D01*
X82652300Y-57692466D01*
X82645545Y-57630284D01*
X82594415Y-57493895D01*
X82507061Y-57377339D01*
X82390505Y-57289985D01*
X82254116Y-57238855D01*
X82191934Y-57232100D01*
X81195666Y-57232100D01*
X81133484Y-57238855D01*
X80997095Y-57289985D01*
X80989910Y-57295370D01*
X80989908Y-57295371D01*
X80951151Y-57324418D01*
X80884644Y-57349266D01*
X80815262Y-57334213D01*
X80786491Y-57312687D01*
X76842805Y-53369000D01*
X76808779Y-53306688D01*
X76805900Y-53279905D01*
X76805900Y-50272704D01*
X76825902Y-50204583D01*
X76879558Y-50158090D01*
X76949832Y-50147986D01*
X76980118Y-50156295D01*
X77110510Y-50210305D01*
X77122460Y-50215255D01*
X77194732Y-50232606D01*
X77367661Y-50274123D01*
X77367667Y-50274124D01*
X77372474Y-50275278D01*
X77610444Y-50294006D01*
X77676784Y-50319291D01*
X77718924Y-50376429D01*
X77723483Y-50447279D01*
X77712874Y-50476723D01*
X77620605Y-50658202D01*
X77612313Y-50674512D01*
X77542689Y-50898740D01*
X77541988Y-50904029D01*
X77524662Y-51034751D01*
X77511839Y-51131493D01*
X77520648Y-51366116D01*
X77523429Y-51379369D01*
X77546594Y-51489771D01*
X77568862Y-51595901D01*
X77655102Y-51814277D01*
X77776904Y-52015000D01*
X77930785Y-52192332D01*
X77934917Y-52195720D01*
X78108216Y-52337817D01*
X78108222Y-52337821D01*
X78112344Y-52341201D01*
X78116980Y-52343840D01*
X78116983Y-52343842D01*
X78228208Y-52407155D01*
X78316390Y-52457351D01*
X78537089Y-52537461D01*
X78542338Y-52538410D01*
X78542341Y-52538411D01*
X78623415Y-52553071D01*
X78768130Y-52579240D01*
X78772269Y-52579435D01*
X78772276Y-52579436D01*
X78791240Y-52580330D01*
X78791249Y-52580330D01*
X78792729Y-52580400D01*
X78957750Y-52580400D01*
X79039099Y-52573497D01*
X79127437Y-52566002D01*
X79127441Y-52566001D01*
X79132748Y-52565551D01*
X79137903Y-52564213D01*
X79137909Y-52564212D01*
X79354835Y-52507909D01*
X79354834Y-52507909D01*
X79360006Y-52506567D01*
X79364872Y-52504375D01*
X79364875Y-52504374D01*
X79569217Y-52412324D01*
X79569220Y-52412323D01*
X79574078Y-52410134D01*
X79768841Y-52279012D01*
X79938727Y-52116949D01*
X80078878Y-51928579D01*
X80139519Y-51809308D01*
X80182869Y-51724044D01*
X80182869Y-51724043D01*
X80185287Y-51719288D01*
X80254911Y-51495060D01*
X80270245Y-51379369D01*
X80285061Y-51267590D01*
X80285061Y-51267587D01*
X80285761Y-51262307D01*
X80276952Y-51027684D01*
X80251779Y-50907711D01*
X80229835Y-50803126D01*
X80229834Y-50803123D01*
X80228738Y-50797899D01*
X80142498Y-50579523D01*
X80076023Y-50469976D01*
X80023464Y-50383361D01*
X80023462Y-50383358D01*
X80020696Y-50378800D01*
X79866815Y-50201468D01*
X79851759Y-50189123D01*
X79689384Y-50055983D01*
X79689378Y-50055979D01*
X79685256Y-50052599D01*
X79680620Y-50049960D01*
X79680617Y-50049958D01*
X79485853Y-49939092D01*
X79481210Y-49936449D01*
X79260511Y-49856339D01*
X79255262Y-49855390D01*
X79255259Y-49855389D01*
X79035240Y-49815603D01*
X78971766Y-49783799D01*
X78935563Y-49722726D01*
X78938125Y-49651776D01*
X78954450Y-49620037D01*
X78954416Y-49620016D01*
X78954693Y-49619564D01*
X79088760Y-49400787D01*
X79090655Y-49396213D01*
X79090657Y-49396209D01*
X79102265Y-49368183D01*
X79146812Y-49312902D01*
X79218674Y-49290400D01*
X87468926Y-49290400D01*
X87537047Y-49310402D01*
X87585335Y-49368183D01*
X87596943Y-49396209D01*
X87596945Y-49396213D01*
X87598840Y-49400787D01*
X87733184Y-49620016D01*
X87734719Y-49621814D01*
X87758341Y-49687998D01*
X87742267Y-49757151D01*
X87691358Y-49806636D01*
X87643201Y-49820752D01*
X87560163Y-49827798D01*
X87560159Y-49827799D01*
X87554852Y-49828249D01*
X87549697Y-49829587D01*
X87549691Y-49829588D01*
X87416002Y-49864287D01*
X87327594Y-49887233D01*
X87322728Y-49889425D01*
X87322725Y-49889426D01*
X87118383Y-49981476D01*
X87118380Y-49981477D01*
X87113522Y-49983666D01*
X86918759Y-50114788D01*
X86914902Y-50118467D01*
X86914900Y-50118469D01*
X86877023Y-50154602D01*
X86748873Y-50276851D01*
X86745691Y-50281128D01*
X86745690Y-50281129D01*
X86720408Y-50315110D01*
X86608722Y-50465221D01*
X86606306Y-50469972D01*
X86606304Y-50469976D01*
X86510605Y-50658202D01*
X86502313Y-50674512D01*
X86432689Y-50898740D01*
X86431988Y-50904029D01*
X86414662Y-51034751D01*
X86401839Y-51131493D01*
X86410648Y-51366116D01*
X86413429Y-51379369D01*
X86436594Y-51489771D01*
X86458862Y-51595901D01*
X86545102Y-51814277D01*
X86666904Y-52015000D01*
X86820785Y-52192332D01*
X86824917Y-52195720D01*
X86998216Y-52337817D01*
X86998222Y-52337821D01*
X87002344Y-52341201D01*
X87006980Y-52343840D01*
X87006983Y-52343842D01*
X87118208Y-52407155D01*
X87206390Y-52457351D01*
X87427089Y-52537461D01*
X87432338Y-52538410D01*
X87432341Y-52538411D01*
X87513415Y-52553071D01*
X87658130Y-52579240D01*
X87662269Y-52579435D01*
X87662276Y-52579436D01*
X87681240Y-52580330D01*
X87681249Y-52580330D01*
X87682729Y-52580400D01*
X87847750Y-52580400D01*
X87929099Y-52573497D01*
X88017437Y-52566002D01*
X88017441Y-52566001D01*
X88022748Y-52565551D01*
X88027903Y-52564213D01*
X88027909Y-52564212D01*
X88244835Y-52507909D01*
X88244834Y-52507909D01*
X88250006Y-52506567D01*
X88254872Y-52504375D01*
X88254875Y-52504374D01*
X88459217Y-52412324D01*
X88459220Y-52412323D01*
X88464078Y-52410134D01*
X88658841Y-52279012D01*
X88828727Y-52116949D01*
X88968878Y-51928579D01*
X89029519Y-51809308D01*
X89072869Y-51724044D01*
X89072869Y-51724043D01*
X89075287Y-51719288D01*
X89144911Y-51495060D01*
X89160245Y-51379369D01*
X89163563Y-51354338D01*
X90366400Y-51354338D01*
X90405864Y-51666730D01*
X90484170Y-51971713D01*
X90600084Y-52264477D01*
X90601986Y-52267936D01*
X90601987Y-52267939D01*
X90733912Y-52507909D01*
X90751776Y-52540404D01*
X90936855Y-52795144D01*
X91152402Y-53024678D01*
X91395018Y-53225387D01*
X91660876Y-53394106D01*
X91664455Y-53395790D01*
X91664462Y-53395794D01*
X91942194Y-53526484D01*
X91942198Y-53526486D01*
X91945784Y-53528173D01*
X92245248Y-53625475D01*
X92554546Y-53684477D01*
X92648100Y-53690363D01*
X92788158Y-53699175D01*
X92788174Y-53699176D01*
X92790153Y-53699300D01*
X92947447Y-53699300D01*
X92949426Y-53699176D01*
X92949442Y-53699175D01*
X93089500Y-53690363D01*
X93183054Y-53684477D01*
X93492352Y-53625475D01*
X93791816Y-53528173D01*
X93795402Y-53526486D01*
X93795406Y-53526484D01*
X94073138Y-53395794D01*
X94073145Y-53395790D01*
X94076724Y-53394106D01*
X94342582Y-53225387D01*
X94585198Y-53024678D01*
X94800745Y-52795144D01*
X94985824Y-52540404D01*
X95003689Y-52507909D01*
X95135613Y-52267939D01*
X95135614Y-52267936D01*
X95137516Y-52264477D01*
X95253430Y-51971713D01*
X95331736Y-51666730D01*
X95371200Y-51354338D01*
X95371200Y-51039462D01*
X95331736Y-50727070D01*
X95253430Y-50422087D01*
X95245970Y-50403244D01*
X95197833Y-50281665D01*
X95137516Y-50129323D01*
X95131549Y-50118469D01*
X94987733Y-49856868D01*
X94987731Y-49856865D01*
X94985824Y-49853396D01*
X94815936Y-49619564D01*
X94803073Y-49601860D01*
X94803072Y-49601858D01*
X94800745Y-49598656D01*
X94585198Y-49369122D01*
X94342582Y-49168413D01*
X94138643Y-49038989D01*
X94080071Y-49001818D01*
X94080070Y-49001818D01*
X94076724Y-48999694D01*
X94073145Y-48998010D01*
X94073138Y-48998006D01*
X93795406Y-48867316D01*
X93795402Y-48867314D01*
X93791816Y-48865627D01*
X93492352Y-48768325D01*
X93183054Y-48709323D01*
X93089500Y-48703437D01*
X92949442Y-48694625D01*
X92949426Y-48694624D01*
X92947447Y-48694500D01*
X92790153Y-48694500D01*
X92788174Y-48694624D01*
X92788158Y-48694625D01*
X92648100Y-48703437D01*
X92554546Y-48709323D01*
X92245248Y-48768325D01*
X91945784Y-48865627D01*
X91942198Y-48867314D01*
X91942194Y-48867316D01*
X91664462Y-48998006D01*
X91664455Y-48998010D01*
X91660876Y-48999694D01*
X91657530Y-49001818D01*
X91657529Y-49001818D01*
X91598957Y-49038989D01*
X91395018Y-49168413D01*
X91152402Y-49369122D01*
X90936855Y-49598656D01*
X90934528Y-49601858D01*
X90934527Y-49601860D01*
X90921664Y-49619564D01*
X90751776Y-49853396D01*
X90749869Y-49856865D01*
X90749867Y-49856868D01*
X90606051Y-50118469D01*
X90600084Y-50129323D01*
X90539767Y-50281665D01*
X90491631Y-50403244D01*
X90484170Y-50422087D01*
X90405864Y-50727070D01*
X90366400Y-51039462D01*
X90366400Y-51354338D01*
X89163563Y-51354338D01*
X89175061Y-51267590D01*
X89175061Y-51267587D01*
X89175761Y-51262307D01*
X89166952Y-51027684D01*
X89141779Y-50907711D01*
X89119835Y-50803126D01*
X89119834Y-50803123D01*
X89118738Y-50797899D01*
X89032498Y-50579523D01*
X89029728Y-50574959D01*
X89029726Y-50574954D01*
X88975322Y-50485298D01*
X88957083Y-50416684D01*
X88978835Y-50349102D01*
X89033671Y-50304008D01*
X89073153Y-50294321D01*
X89315126Y-50275278D01*
X89319933Y-50274124D01*
X89319939Y-50274123D01*
X89492868Y-50232606D01*
X89565140Y-50215255D01*
X89569713Y-50213361D01*
X89798113Y-50118755D01*
X89798117Y-50118753D01*
X89802687Y-50116860D01*
X90021916Y-49982516D01*
X90217431Y-49815531D01*
X90384416Y-49620016D01*
X90518760Y-49400787D01*
X90520657Y-49396209D01*
X90615261Y-49167813D01*
X90615262Y-49167811D01*
X90617155Y-49163240D01*
X90657562Y-48994934D01*
X90676023Y-48918039D01*
X90676024Y-48918033D01*
X90677178Y-48913226D01*
X90697351Y-48656900D01*
X90677178Y-48400574D01*
X90617155Y-48150560D01*
X90518760Y-47913013D01*
X90517359Y-47910726D01*
X90504373Y-47841569D01*
X90531076Y-47775785D01*
X90589104Y-47734881D01*
X90600330Y-47731628D01*
X90757961Y-47693784D01*
X90835140Y-47675255D01*
X90839713Y-47673361D01*
X91068113Y-47578755D01*
X91068117Y-47578753D01*
X91072687Y-47576860D01*
X91291916Y-47442516D01*
X91487431Y-47275531D01*
X91654416Y-47080016D01*
X91788760Y-46860787D01*
X91796278Y-46842639D01*
X91885261Y-46627813D01*
X91885262Y-46627811D01*
X91887155Y-46623240D01*
X91932984Y-46432349D01*
X91946023Y-46378039D01*
X91946024Y-46378033D01*
X91947178Y-46373226D01*
X91967351Y-46116900D01*
X91953063Y-45935354D01*
X91967659Y-45865875D01*
X92017502Y-45815315D01*
X92086766Y-45799729D01*
X92153462Y-45824064D01*
G37*
%TD.AperFunction*%
%TA.AperFunction,NonConductor*%
G36*
X106333721Y-44854802D02*
G01*
X106380214Y-44908458D01*
X106391600Y-44960800D01*
X106391600Y-47494233D01*
X106391073Y-47505416D01*
X106389398Y-47512909D01*
X106389647Y-47520835D01*
X106389647Y-47520836D01*
X106391538Y-47580986D01*
X106391600Y-47584945D01*
X106391600Y-47612856D01*
X106392097Y-47616790D01*
X106392097Y-47616791D01*
X106392105Y-47616856D01*
X106393038Y-47628693D01*
X106394427Y-47672889D01*
X106399404Y-47690019D01*
X106400078Y-47692339D01*
X106404087Y-47711700D01*
X106406626Y-47731797D01*
X106409545Y-47739168D01*
X106409545Y-47739170D01*
X106422904Y-47772912D01*
X106426749Y-47784142D01*
X106439082Y-47826593D01*
X106443115Y-47833412D01*
X106443117Y-47833417D01*
X106449393Y-47844028D01*
X106458088Y-47861776D01*
X106465548Y-47880617D01*
X106470210Y-47887033D01*
X106470210Y-47887034D01*
X106491536Y-47916387D01*
X106498052Y-47926307D01*
X106520558Y-47964362D01*
X106534879Y-47978683D01*
X106547723Y-47993722D01*
X106549490Y-47996153D01*
X106573342Y-48063023D01*
X106563957Y-48118421D01*
X106550645Y-48150560D01*
X106490622Y-48400574D01*
X106470449Y-48656900D01*
X106490622Y-48913226D01*
X106491776Y-48918033D01*
X106491777Y-48918039D01*
X106510238Y-48994934D01*
X106550645Y-49163240D01*
X106552538Y-49167811D01*
X106552539Y-49167813D01*
X106647144Y-49396209D01*
X106649040Y-49400787D01*
X106783384Y-49620016D01*
X106784919Y-49621814D01*
X106808541Y-49687998D01*
X106792467Y-49757151D01*
X106741558Y-49806636D01*
X106693401Y-49820752D01*
X106610363Y-49827798D01*
X106610359Y-49827799D01*
X106605052Y-49828249D01*
X106599897Y-49829587D01*
X106599891Y-49829588D01*
X106466202Y-49864287D01*
X106377794Y-49887233D01*
X106372928Y-49889425D01*
X106372925Y-49889426D01*
X106168583Y-49981476D01*
X106168580Y-49981477D01*
X106163722Y-49983666D01*
X105968959Y-50114788D01*
X105965102Y-50118467D01*
X105965100Y-50118469D01*
X105927223Y-50154602D01*
X105799073Y-50276851D01*
X105795891Y-50281128D01*
X105795890Y-50281129D01*
X105770608Y-50315110D01*
X105658922Y-50465221D01*
X105656506Y-50469972D01*
X105656504Y-50469976D01*
X105560805Y-50658202D01*
X105552513Y-50674512D01*
X105482889Y-50898740D01*
X105482188Y-50904029D01*
X105464862Y-51034751D01*
X105452039Y-51131493D01*
X105460848Y-51366116D01*
X105463629Y-51379369D01*
X105486794Y-51489771D01*
X105509062Y-51595901D01*
X105595302Y-51814277D01*
X105717104Y-52015000D01*
X105870985Y-52192332D01*
X105875117Y-52195720D01*
X106048416Y-52337817D01*
X106048422Y-52337821D01*
X106052544Y-52341201D01*
X106057180Y-52343840D01*
X106057183Y-52343842D01*
X106168408Y-52407155D01*
X106256590Y-52457351D01*
X106477289Y-52537461D01*
X106482538Y-52538410D01*
X106482541Y-52538411D01*
X106563615Y-52553071D01*
X106708330Y-52579240D01*
X106712469Y-52579435D01*
X106712476Y-52579436D01*
X106731440Y-52580330D01*
X106731449Y-52580330D01*
X106732929Y-52580400D01*
X106897950Y-52580400D01*
X106979299Y-52573497D01*
X107067637Y-52566002D01*
X107067641Y-52566001D01*
X107072948Y-52565551D01*
X107078103Y-52564213D01*
X107078109Y-52564212D01*
X107295035Y-52507909D01*
X107295034Y-52507909D01*
X107300206Y-52506567D01*
X107305072Y-52504375D01*
X107305075Y-52504374D01*
X107509417Y-52412324D01*
X107509420Y-52412323D01*
X107514278Y-52410134D01*
X107709041Y-52279012D01*
X107878927Y-52116949D01*
X108019078Y-51928579D01*
X108079719Y-51809308D01*
X108123069Y-51724044D01*
X108123069Y-51724043D01*
X108125487Y-51719288D01*
X108195111Y-51495060D01*
X108210445Y-51379369D01*
X108225261Y-51267590D01*
X108225261Y-51267587D01*
X108225961Y-51262307D01*
X108217152Y-51027684D01*
X108191979Y-50907711D01*
X108170035Y-50803126D01*
X108170034Y-50803123D01*
X108168938Y-50797899D01*
X108082698Y-50579523D01*
X108079928Y-50574959D01*
X108079926Y-50574954D01*
X108025522Y-50485298D01*
X108007283Y-50416684D01*
X108029035Y-50349102D01*
X108083871Y-50304008D01*
X108123353Y-50294321D01*
X108365326Y-50275278D01*
X108370133Y-50274124D01*
X108370139Y-50274123D01*
X108543068Y-50232606D01*
X108615340Y-50215255D01*
X108619913Y-50213361D01*
X108848313Y-50118755D01*
X108848317Y-50118753D01*
X108852887Y-50116860D01*
X109072116Y-49982516D01*
X109267631Y-49815531D01*
X109434616Y-49620016D01*
X109568960Y-49400787D01*
X109570857Y-49396209D01*
X109665461Y-49167813D01*
X109665462Y-49167811D01*
X109667355Y-49163240D01*
X109707762Y-48994934D01*
X109726223Y-48918039D01*
X109726224Y-48918033D01*
X109727378Y-48913226D01*
X109747551Y-48656900D01*
X109727378Y-48400574D01*
X109667355Y-48150560D01*
X109568960Y-47913013D01*
X109567559Y-47910726D01*
X109554573Y-47841569D01*
X109581276Y-47775785D01*
X109639304Y-47734881D01*
X109650530Y-47731628D01*
X109808161Y-47693784D01*
X109885340Y-47675255D01*
X109889913Y-47673361D01*
X110118313Y-47578755D01*
X110118317Y-47578753D01*
X110122887Y-47576860D01*
X110194551Y-47532944D01*
X110337900Y-47445100D01*
X110337904Y-47445097D01*
X110342116Y-47442516D01*
X110345882Y-47439300D01*
X110420208Y-47375820D01*
X110484998Y-47346790D01*
X110555198Y-47357395D01*
X110591133Y-47382537D01*
X111702058Y-48493462D01*
X111736084Y-48555774D01*
X111731019Y-48626589D01*
X111688472Y-48683425D01*
X111620877Y-48708308D01*
X111616821Y-48708563D01*
X111604746Y-48709323D01*
X111295448Y-48768325D01*
X110995984Y-48865627D01*
X110992398Y-48867314D01*
X110992394Y-48867316D01*
X110714662Y-48998006D01*
X110714655Y-48998010D01*
X110711076Y-48999694D01*
X110707730Y-49001818D01*
X110707729Y-49001818D01*
X110649157Y-49038989D01*
X110445218Y-49168413D01*
X110202602Y-49369122D01*
X109987055Y-49598656D01*
X109984728Y-49601858D01*
X109984727Y-49601860D01*
X109971864Y-49619564D01*
X109801976Y-49853396D01*
X109800069Y-49856865D01*
X109800067Y-49856868D01*
X109656251Y-50118469D01*
X109650284Y-50129323D01*
X109589967Y-50281665D01*
X109541831Y-50403244D01*
X109534370Y-50422087D01*
X109456064Y-50727070D01*
X109416600Y-51039462D01*
X109416600Y-51354338D01*
X109456064Y-51666730D01*
X109534370Y-51971713D01*
X109650284Y-52264477D01*
X109652186Y-52267936D01*
X109652187Y-52267939D01*
X109784112Y-52507909D01*
X109801976Y-52540404D01*
X109987055Y-52795144D01*
X110202602Y-53024678D01*
X110445218Y-53225387D01*
X110711076Y-53394106D01*
X110714655Y-53395790D01*
X110714662Y-53395794D01*
X110992394Y-53526484D01*
X110992398Y-53526486D01*
X110995984Y-53528173D01*
X111295448Y-53625475D01*
X111604746Y-53684477D01*
X111698300Y-53690363D01*
X111838358Y-53699175D01*
X111838374Y-53699176D01*
X111840353Y-53699300D01*
X111997647Y-53699300D01*
X111999626Y-53699176D01*
X111999642Y-53699175D01*
X112139700Y-53690363D01*
X112233254Y-53684477D01*
X112542552Y-53625475D01*
X112842016Y-53528173D01*
X112845602Y-53526486D01*
X112845606Y-53526484D01*
X113123338Y-53395794D01*
X113123345Y-53395790D01*
X113126924Y-53394106D01*
X113392782Y-53225387D01*
X113635398Y-53024678D01*
X113850945Y-52795144D01*
X114036024Y-52540404D01*
X114053889Y-52507909D01*
X114185813Y-52267939D01*
X114185814Y-52267936D01*
X114187716Y-52264477D01*
X114303630Y-51971713D01*
X114381936Y-51666730D01*
X114405039Y-51483846D01*
X114433420Y-51418771D01*
X114492480Y-51379369D01*
X114563466Y-51378152D01*
X114619140Y-51410544D01*
X117813895Y-54605299D01*
X117847921Y-54667611D01*
X117850800Y-54694394D01*
X117850800Y-57353876D01*
X117830798Y-57421997D01*
X117818442Y-57438179D01*
X117745260Y-57519456D01*
X117649773Y-57684844D01*
X117590758Y-57866472D01*
X117590068Y-57873033D01*
X117590068Y-57873035D01*
X117582809Y-57942102D01*
X117570796Y-58056400D01*
X117571486Y-58062965D01*
X117578466Y-58129372D01*
X117590758Y-58246328D01*
X117649773Y-58427956D01*
X117653077Y-58433678D01*
X117653078Y-58433681D01*
X117658748Y-58443502D01*
X117675485Y-58512497D01*
X117652263Y-58579589D01*
X117596456Y-58623475D01*
X117549628Y-58632500D01*
X106451094Y-58632500D01*
X106382973Y-58612498D01*
X106361999Y-58595595D01*
X106136922Y-58370518D01*
X106102896Y-58308206D01*
X106100707Y-58294593D01*
X106084032Y-58135935D01*
X106084032Y-58135933D01*
X106083342Y-58129372D01*
X106024327Y-57947744D01*
X106013019Y-57928157D01*
X105968115Y-57850382D01*
X105928840Y-57782356D01*
X105920800Y-57773426D01*
X105805475Y-57645345D01*
X105805474Y-57645344D01*
X105801053Y-57640434D01*
X105646552Y-57528182D01*
X105640524Y-57525498D01*
X105640522Y-57525497D01*
X105478119Y-57453191D01*
X105478118Y-57453191D01*
X105472088Y-57450506D01*
X105378688Y-57430653D01*
X105291744Y-57412172D01*
X105291739Y-57412172D01*
X105285287Y-57410800D01*
X105094313Y-57410800D01*
X105087860Y-57412172D01*
X105087856Y-57412172D01*
X105041635Y-57421997D01*
X104990209Y-57432928D01*
X104919419Y-57427526D01*
X104869713Y-57390150D01*
X104868993Y-57390870D01*
X104863911Y-57385788D01*
X104863183Y-57385241D01*
X104857261Y-57377339D01*
X104850081Y-57371958D01*
X104850078Y-57371955D01*
X104770996Y-57312687D01*
X104740705Y-57289985D01*
X104604316Y-57238855D01*
X104542134Y-57232100D01*
X103545866Y-57232100D01*
X103483684Y-57238855D01*
X103347295Y-57289985D01*
X103230739Y-57377339D01*
X103143385Y-57493895D01*
X103092255Y-57630284D01*
X103090619Y-57645345D01*
X103089688Y-57653913D01*
X103062446Y-57719475D01*
X103016963Y-57754043D01*
X103015107Y-57754582D01*
X103008289Y-57758614D01*
X103008280Y-57758618D01*
X102997668Y-57764894D01*
X102979918Y-57773590D01*
X102968456Y-57778128D01*
X102968451Y-57778131D01*
X102961083Y-57781048D01*
X102943670Y-57793699D01*
X102925325Y-57807027D01*
X102915407Y-57813543D01*
X102904163Y-57820193D01*
X102877337Y-57836058D01*
X102863013Y-57850382D01*
X102847981Y-57863221D01*
X102831593Y-57875128D01*
X102803412Y-57909193D01*
X102795422Y-57917973D01*
X102117800Y-58595595D01*
X102055488Y-58629621D01*
X102028705Y-58632500D01*
X101828500Y-58632500D01*
X101760379Y-58612498D01*
X101713886Y-58558842D01*
X101702500Y-58506500D01*
X101702500Y-57692466D01*
X101695745Y-57630284D01*
X101644615Y-57493895D01*
X101557261Y-57377339D01*
X101440705Y-57289985D01*
X101440049Y-57289739D01*
X101392843Y-57242425D01*
X101377500Y-57182167D01*
X101377500Y-50744968D01*
X101378027Y-50733785D01*
X101379702Y-50726292D01*
X101379202Y-50710364D01*
X101377562Y-50658202D01*
X101377500Y-50654244D01*
X101377500Y-50626344D01*
X101376996Y-50622353D01*
X101376063Y-50610511D01*
X101375983Y-50607944D01*
X101374674Y-50566311D01*
X101372462Y-50558697D01*
X101372461Y-50558692D01*
X101369023Y-50546859D01*
X101365012Y-50527495D01*
X101364646Y-50524593D01*
X101362474Y-50507403D01*
X101359557Y-50500036D01*
X101359556Y-50500031D01*
X101346198Y-50466292D01*
X101342354Y-50455065D01*
X101338278Y-50441036D01*
X101330018Y-50412607D01*
X101319707Y-50395172D01*
X101311012Y-50377424D01*
X101303552Y-50358583D01*
X101277564Y-50322813D01*
X101271048Y-50312893D01*
X101252580Y-50281665D01*
X101252578Y-50281662D01*
X101248542Y-50274838D01*
X101234221Y-50260517D01*
X101221380Y-50245483D01*
X101219273Y-50242583D01*
X101209472Y-50229093D01*
X101175395Y-50200902D01*
X101166616Y-50192912D01*
X97076526Y-46102821D01*
X97042500Y-46040509D01*
X97040009Y-46023612D01*
X97037401Y-45990471D01*
X97027178Y-45860574D01*
X97021369Y-45836374D01*
X96968310Y-45615372D01*
X96967155Y-45610560D01*
X96965261Y-45605987D01*
X96870655Y-45377587D01*
X96870653Y-45377583D01*
X96868760Y-45373013D01*
X96734416Y-45153784D01*
X96639482Y-45042630D01*
X96610451Y-44977840D01*
X96621056Y-44907640D01*
X96667931Y-44854318D01*
X96735293Y-44834800D01*
X106265600Y-44834800D01*
X106333721Y-44854802D01*
G37*
%TD.AperFunction*%
%TA.AperFunction,NonConductor*%
G36*
X145206533Y-54671437D02*
G01*
X145263369Y-54713984D01*
X145288180Y-54780504D01*
X145288501Y-54789493D01*
X145288501Y-54979204D01*
X145268499Y-55047325D01*
X145251596Y-55068299D01*
X141724300Y-58595595D01*
X141661988Y-58629621D01*
X141635205Y-58632500D01*
X141445494Y-58632500D01*
X141377373Y-58612498D01*
X141330880Y-58558842D01*
X141320776Y-58488568D01*
X141350270Y-58423988D01*
X141356399Y-58417405D01*
X145073406Y-54700398D01*
X145135718Y-54666372D01*
X145206533Y-54671437D01*
G37*
%TD.AperFunction*%
%TA.AperFunction,NonConductor*%
G36*
X137366727Y-45311602D02*
G01*
X137387701Y-45328505D01*
X140970243Y-48911047D01*
X140977787Y-48919337D01*
X140981900Y-48925818D01*
X140987677Y-48931243D01*
X141031567Y-48972458D01*
X141034409Y-48975213D01*
X141054130Y-48994934D01*
X141057325Y-48997412D01*
X141066347Y-49005118D01*
X141098579Y-49035386D01*
X141105528Y-49039206D01*
X141116332Y-49045146D01*
X141132856Y-49055999D01*
X141148859Y-49068413D01*
X141189443Y-49085976D01*
X141200073Y-49091183D01*
X141238840Y-49112495D01*
X141246517Y-49114466D01*
X141246522Y-49114468D01*
X141258458Y-49117532D01*
X141277166Y-49123937D01*
X141295755Y-49131981D01*
X141303583Y-49133221D01*
X141303590Y-49133223D01*
X141339424Y-49138899D01*
X141351044Y-49141305D01*
X141386189Y-49150328D01*
X141393870Y-49152300D01*
X141414124Y-49152300D01*
X141433834Y-49153851D01*
X141453843Y-49157020D01*
X141461735Y-49156274D01*
X141497861Y-49152859D01*
X141509719Y-49152300D01*
X145282983Y-49152300D01*
X145351104Y-49172302D01*
X145397597Y-49225958D01*
X145407701Y-49296232D01*
X145398090Y-49329549D01*
X145368410Y-49396213D01*
X145328206Y-49486512D01*
X145326834Y-49492969D01*
X145293078Y-49651776D01*
X145288500Y-49673313D01*
X145288500Y-49864287D01*
X145289872Y-49870739D01*
X145289872Y-49870744D01*
X145304400Y-49939092D01*
X145328206Y-50051088D01*
X145330891Y-50057118D01*
X145330891Y-50057119D01*
X145405882Y-50225552D01*
X145403058Y-50226809D01*
X145416714Y-50282732D01*
X145393595Y-50349859D01*
X145337854Y-50393831D01*
X145322185Y-50398968D01*
X145320765Y-50399333D01*
X145312903Y-50400326D01*
X145305537Y-50403243D01*
X145305531Y-50403244D01*
X145260689Y-50420999D01*
X145253270Y-50423671D01*
X145199825Y-50441036D01*
X145193129Y-50445286D01*
X145193128Y-50445286D01*
X145192869Y-50445450D01*
X145171742Y-50456215D01*
X145171454Y-50456329D01*
X145171449Y-50456332D01*
X145164083Y-50459248D01*
X145157675Y-50463904D01*
X145157669Y-50463907D01*
X145118648Y-50492258D01*
X145112111Y-50496701D01*
X145064682Y-50526800D01*
X145059256Y-50532578D01*
X145059255Y-50532579D01*
X145059041Y-50532807D01*
X145041254Y-50548488D01*
X145041009Y-50548666D01*
X145041007Y-50548668D01*
X145034593Y-50553328D01*
X145029539Y-50559437D01*
X145029538Y-50559438D01*
X144998797Y-50596596D01*
X144993566Y-50602530D01*
X144960542Y-50637698D01*
X144960540Y-50637701D01*
X144955114Y-50643479D01*
X144951145Y-50650699D01*
X144937819Y-50670306D01*
X144937620Y-50670546D01*
X144937616Y-50670553D01*
X144932567Y-50676656D01*
X144916705Y-50710364D01*
X144908653Y-50727476D01*
X144905071Y-50734508D01*
X144878005Y-50783740D01*
X144876035Y-50791415D01*
X144876032Y-50791421D01*
X144875956Y-50791719D01*
X144867924Y-50814028D01*
X144867794Y-50814303D01*
X144867791Y-50814311D01*
X144864417Y-50821482D01*
X144862931Y-50829274D01*
X144853895Y-50876643D01*
X144852171Y-50884358D01*
X144838200Y-50938770D01*
X144838200Y-50947007D01*
X144835968Y-50970616D01*
X144834425Y-50978706D01*
X144834923Y-50986617D01*
X144837951Y-51034751D01*
X144838200Y-51042662D01*
X144838200Y-53091605D01*
X144818198Y-53159726D01*
X144801295Y-53180700D01*
X140669308Y-57312687D01*
X140606996Y-57346713D01*
X140536181Y-57341648D01*
X140504654Y-57324422D01*
X140458705Y-57289985D01*
X140322316Y-57238855D01*
X140260134Y-57232100D01*
X139263866Y-57232100D01*
X139201684Y-57238855D01*
X139065295Y-57289985D01*
X138948739Y-57377339D01*
X138861385Y-57493895D01*
X138810255Y-57630284D01*
X138803500Y-57692466D01*
X138803500Y-58506500D01*
X138783498Y-58574621D01*
X138729842Y-58621114D01*
X138677500Y-58632500D01*
X137546500Y-58632500D01*
X137478379Y-58612498D01*
X137431886Y-58558842D01*
X137420500Y-58506500D01*
X137420500Y-57692466D01*
X137413745Y-57630284D01*
X137362615Y-57493895D01*
X137275261Y-57377339D01*
X137158705Y-57289985D01*
X137022316Y-57238855D01*
X136960134Y-57232100D01*
X136126195Y-57232100D01*
X136058074Y-57212098D01*
X136037100Y-57195195D01*
X133971605Y-55129700D01*
X133937579Y-55067388D01*
X133934700Y-55040605D01*
X133934700Y-50263840D01*
X133954702Y-50195719D01*
X134008358Y-50149226D01*
X134078632Y-50139122D01*
X134108918Y-50147431D01*
X134260710Y-50210305D01*
X134272660Y-50215255D01*
X134344932Y-50232606D01*
X134517861Y-50274123D01*
X134517867Y-50274124D01*
X134522674Y-50275278D01*
X134760644Y-50294006D01*
X134826984Y-50319291D01*
X134869124Y-50376429D01*
X134873683Y-50447279D01*
X134863074Y-50476723D01*
X134770805Y-50658202D01*
X134762513Y-50674512D01*
X134692889Y-50898740D01*
X134692188Y-50904029D01*
X134674862Y-51034751D01*
X134662039Y-51131493D01*
X134670848Y-51366116D01*
X134673629Y-51379369D01*
X134696794Y-51489771D01*
X134719062Y-51595901D01*
X134805302Y-51814277D01*
X134927104Y-52015000D01*
X135080985Y-52192332D01*
X135085117Y-52195720D01*
X135258416Y-52337817D01*
X135258422Y-52337821D01*
X135262544Y-52341201D01*
X135267180Y-52343840D01*
X135267183Y-52343842D01*
X135378408Y-52407155D01*
X135466590Y-52457351D01*
X135687289Y-52537461D01*
X135692538Y-52538410D01*
X135692541Y-52538411D01*
X135773615Y-52553071D01*
X135918330Y-52579240D01*
X135922469Y-52579435D01*
X135922476Y-52579436D01*
X135941440Y-52580330D01*
X135941449Y-52580330D01*
X135942929Y-52580400D01*
X136107950Y-52580400D01*
X136189299Y-52573497D01*
X136277637Y-52566002D01*
X136277641Y-52566001D01*
X136282948Y-52565551D01*
X136288103Y-52564213D01*
X136288109Y-52564212D01*
X136505035Y-52507909D01*
X136505034Y-52507909D01*
X136510206Y-52506567D01*
X136515072Y-52504375D01*
X136515075Y-52504374D01*
X136719417Y-52412324D01*
X136719420Y-52412323D01*
X136724278Y-52410134D01*
X136919041Y-52279012D01*
X137088927Y-52116949D01*
X137229078Y-51928579D01*
X137289719Y-51809308D01*
X137333069Y-51724044D01*
X137333069Y-51724043D01*
X137335487Y-51719288D01*
X137405111Y-51495060D01*
X137420445Y-51379369D01*
X137435261Y-51267590D01*
X137435261Y-51267587D01*
X137435961Y-51262307D01*
X137427152Y-51027684D01*
X137401979Y-50907711D01*
X137380035Y-50803126D01*
X137380034Y-50803123D01*
X137378938Y-50797899D01*
X137292698Y-50579523D01*
X137226223Y-50469976D01*
X137173664Y-50383361D01*
X137173662Y-50383358D01*
X137170896Y-50378800D01*
X137017015Y-50201468D01*
X137001959Y-50189123D01*
X136839584Y-50055983D01*
X136839578Y-50055979D01*
X136835456Y-50052599D01*
X136830820Y-50049960D01*
X136830817Y-50049958D01*
X136636053Y-49939092D01*
X136631410Y-49936449D01*
X136410711Y-49856339D01*
X136405462Y-49855390D01*
X136405459Y-49855389D01*
X136185440Y-49815603D01*
X136121966Y-49783799D01*
X136085763Y-49722726D01*
X136088325Y-49651776D01*
X136104650Y-49620037D01*
X136104616Y-49620016D01*
X136104893Y-49619564D01*
X136238960Y-49400787D01*
X136240857Y-49396209D01*
X136335461Y-49167813D01*
X136335462Y-49167811D01*
X136337355Y-49163240D01*
X136377762Y-48994934D01*
X136396223Y-48918039D01*
X136396224Y-48918033D01*
X136397378Y-48913226D01*
X136417551Y-48656900D01*
X136397378Y-48400574D01*
X136337355Y-48150560D01*
X136279178Y-48010107D01*
X136240855Y-47917587D01*
X136240853Y-47917583D01*
X136238960Y-47913013D01*
X136104616Y-47693784D01*
X135937631Y-47498269D01*
X135742116Y-47331284D01*
X135522887Y-47196940D01*
X135518317Y-47195047D01*
X135518313Y-47195045D01*
X135289913Y-47100439D01*
X135289911Y-47100438D01*
X135285340Y-47098545D01*
X135136624Y-47062841D01*
X135050530Y-47042172D01*
X134988961Y-47006820D01*
X134956278Y-46943793D01*
X134962859Y-46873102D01*
X134966933Y-46864095D01*
X134968960Y-46860787D01*
X135061916Y-46636372D01*
X135065461Y-46627813D01*
X135065462Y-46627811D01*
X135067355Y-46623240D01*
X135113184Y-46432349D01*
X135126223Y-46378039D01*
X135126224Y-46378033D01*
X135127378Y-46373226D01*
X135147551Y-46116900D01*
X135127378Y-45860574D01*
X135121569Y-45836374D01*
X135068510Y-45615372D01*
X135067355Y-45610560D01*
X135065461Y-45605986D01*
X135009889Y-45471825D01*
X135007401Y-45465818D01*
X134999812Y-45395228D01*
X135031591Y-45331741D01*
X135092649Y-45295514D01*
X135123810Y-45291600D01*
X137298606Y-45291600D01*
X137366727Y-45311602D01*
G37*
%TD.AperFunction*%
%TA.AperFunction,NonConductor*%
G36*
X70020428Y-44854802D02*
G01*
X70066921Y-44908458D01*
X70077025Y-44978732D01*
X70048118Y-45042630D01*
X69953184Y-45153784D01*
X69818840Y-45373013D01*
X69816947Y-45377583D01*
X69816945Y-45377587D01*
X69722339Y-45605987D01*
X69720445Y-45610560D01*
X69719290Y-45615372D01*
X69666232Y-45836374D01*
X69660422Y-45860574D01*
X69640249Y-46116900D01*
X69660422Y-46373226D01*
X69661576Y-46378033D01*
X69661577Y-46378039D01*
X69674616Y-46432349D01*
X69720445Y-46623240D01*
X69722338Y-46627811D01*
X69722339Y-46627813D01*
X69725884Y-46636372D01*
X69818840Y-46860787D01*
X69820241Y-46863074D01*
X69833227Y-46932231D01*
X69806524Y-46998015D01*
X69748496Y-47038919D01*
X69737270Y-47042172D01*
X69651176Y-47062841D01*
X69502460Y-47098545D01*
X69497889Y-47100438D01*
X69497887Y-47100439D01*
X69269487Y-47195045D01*
X69269483Y-47195047D01*
X69264913Y-47196940D01*
X69045684Y-47331284D01*
X68850169Y-47498269D01*
X68683184Y-47693784D01*
X68548840Y-47913013D01*
X68546947Y-47917583D01*
X68546945Y-47917587D01*
X68508622Y-48010107D01*
X68450445Y-48150560D01*
X68390422Y-48400574D01*
X68370249Y-48656900D01*
X68390422Y-48913226D01*
X68391576Y-48918033D01*
X68391577Y-48918039D01*
X68410038Y-48994934D01*
X68450445Y-49163240D01*
X68452338Y-49167811D01*
X68452339Y-49167813D01*
X68546944Y-49396209D01*
X68548840Y-49400787D01*
X68683184Y-49620016D01*
X68684719Y-49621814D01*
X68708341Y-49687998D01*
X68692267Y-49757151D01*
X68641358Y-49806636D01*
X68593201Y-49820752D01*
X68510163Y-49827798D01*
X68510159Y-49827799D01*
X68504852Y-49828249D01*
X68499697Y-49829587D01*
X68499691Y-49829588D01*
X68366002Y-49864287D01*
X68277594Y-49887233D01*
X68272728Y-49889425D01*
X68272725Y-49889426D01*
X68068383Y-49981476D01*
X68068380Y-49981477D01*
X68063522Y-49983666D01*
X67868759Y-50114788D01*
X67864902Y-50118467D01*
X67864900Y-50118469D01*
X67827023Y-50154602D01*
X67698873Y-50276851D01*
X67695691Y-50281128D01*
X67695690Y-50281129D01*
X67670408Y-50315110D01*
X67558722Y-50465221D01*
X67556306Y-50469972D01*
X67556304Y-50469976D01*
X67460605Y-50658202D01*
X67452313Y-50674512D01*
X67382689Y-50898740D01*
X67381988Y-50904029D01*
X67364662Y-51034751D01*
X67351839Y-51131493D01*
X67360648Y-51366116D01*
X67363429Y-51379369D01*
X67386594Y-51489771D01*
X67408862Y-51595901D01*
X67495102Y-51814277D01*
X67616904Y-52015000D01*
X67770785Y-52192332D01*
X67774917Y-52195720D01*
X67948216Y-52337817D01*
X67948222Y-52337821D01*
X67952344Y-52341201D01*
X67956980Y-52343840D01*
X67956983Y-52343842D01*
X68068208Y-52407155D01*
X68156390Y-52457351D01*
X68377089Y-52537461D01*
X68382338Y-52538410D01*
X68382341Y-52538411D01*
X68463415Y-52553071D01*
X68608130Y-52579240D01*
X68612269Y-52579435D01*
X68612276Y-52579436D01*
X68631240Y-52580330D01*
X68631249Y-52580330D01*
X68632729Y-52580400D01*
X68797750Y-52580400D01*
X68879099Y-52573497D01*
X68967437Y-52566002D01*
X68967441Y-52566001D01*
X68972748Y-52565551D01*
X68977903Y-52564213D01*
X68977909Y-52564212D01*
X69194835Y-52507909D01*
X69194834Y-52507909D01*
X69200006Y-52506567D01*
X69204872Y-52504375D01*
X69204875Y-52504374D01*
X69409217Y-52412324D01*
X69409220Y-52412323D01*
X69414078Y-52410134D01*
X69608841Y-52279012D01*
X69778727Y-52116949D01*
X69918878Y-51928579D01*
X69979519Y-51809308D01*
X70022869Y-51724044D01*
X70022869Y-51724043D01*
X70025287Y-51719288D01*
X70094911Y-51495060D01*
X70110245Y-51379369D01*
X70125061Y-51267590D01*
X70125061Y-51267587D01*
X70125761Y-51262307D01*
X70116952Y-51027684D01*
X70091779Y-50907711D01*
X70069835Y-50803126D01*
X70069834Y-50803123D01*
X70068738Y-50797899D01*
X69982498Y-50579523D01*
X69979728Y-50574959D01*
X69979726Y-50574954D01*
X69925322Y-50485298D01*
X69907083Y-50416684D01*
X69928835Y-50349102D01*
X69983671Y-50304008D01*
X70023153Y-50294321D01*
X70265126Y-50275278D01*
X70269933Y-50274124D01*
X70269939Y-50274123D01*
X70442868Y-50232606D01*
X70515140Y-50215255D01*
X70519713Y-50213361D01*
X70748113Y-50118755D01*
X70748117Y-50118753D01*
X70752687Y-50116860D01*
X70971916Y-49982516D01*
X71167431Y-49815531D01*
X71334416Y-49620016D01*
X71468760Y-49400787D01*
X71470655Y-49396213D01*
X71470657Y-49396209D01*
X71482265Y-49368183D01*
X71526812Y-49312902D01*
X71598674Y-49290400D01*
X71670233Y-49290400D01*
X71681416Y-49290927D01*
X71688909Y-49292602D01*
X71696835Y-49292353D01*
X71696836Y-49292353D01*
X71756986Y-49290462D01*
X71760945Y-49290400D01*
X71788856Y-49290400D01*
X71792791Y-49289903D01*
X71792856Y-49289895D01*
X71804693Y-49288962D01*
X71836951Y-49287948D01*
X71840970Y-49287822D01*
X71848889Y-49287573D01*
X71860534Y-49284190D01*
X71863840Y-49284199D01*
X71864328Y-49284122D01*
X71864340Y-49284201D01*
X71931529Y-49284391D01*
X71991146Y-49322944D01*
X72020456Y-49387608D01*
X72010153Y-49457853D01*
X71987538Y-49491439D01*
X71889566Y-49595769D01*
X71886855Y-49598656D01*
X71884528Y-49601858D01*
X71884527Y-49601860D01*
X71871664Y-49619564D01*
X71701776Y-49853396D01*
X71699869Y-49856865D01*
X71699867Y-49856868D01*
X71556051Y-50118469D01*
X71550084Y-50129323D01*
X71489767Y-50281665D01*
X71441631Y-50403244D01*
X71434170Y-50422087D01*
X71355864Y-50727070D01*
X71316400Y-51039462D01*
X71316400Y-51354338D01*
X71355864Y-51666730D01*
X71434170Y-51971713D01*
X71550084Y-52264477D01*
X71551986Y-52267936D01*
X71551987Y-52267939D01*
X71683912Y-52507909D01*
X71701776Y-52540404D01*
X71886855Y-52795144D01*
X72102402Y-53024678D01*
X72345018Y-53225387D01*
X72610876Y-53394106D01*
X72614455Y-53395790D01*
X72614462Y-53395794D01*
X72892194Y-53526484D01*
X72892198Y-53526486D01*
X72895784Y-53528173D01*
X73195248Y-53625475D01*
X73504546Y-53684477D01*
X73598100Y-53690363D01*
X73738158Y-53699175D01*
X73738174Y-53699176D01*
X73740153Y-53699300D01*
X73897447Y-53699300D01*
X73899426Y-53699176D01*
X73899442Y-53699175D01*
X74039500Y-53690363D01*
X74133054Y-53684477D01*
X74442352Y-53625475D01*
X74741816Y-53528173D01*
X74745402Y-53526486D01*
X74745406Y-53526484D01*
X75023138Y-53395794D01*
X75023145Y-53395790D01*
X75026724Y-53394106D01*
X75292582Y-53225387D01*
X75321167Y-53201740D01*
X75332585Y-53192294D01*
X75397823Y-53164284D01*
X75467848Y-53175991D01*
X75520427Y-53223698D01*
X75538900Y-53289379D01*
X75538900Y-53515733D01*
X75538373Y-53526916D01*
X75536698Y-53534409D01*
X75536947Y-53542335D01*
X75536947Y-53542336D01*
X75538838Y-53602486D01*
X75538900Y-53606445D01*
X75538900Y-53634356D01*
X75539397Y-53638290D01*
X75539397Y-53638291D01*
X75539405Y-53638356D01*
X75540338Y-53650193D01*
X75541727Y-53694389D01*
X75547378Y-53713839D01*
X75551387Y-53733200D01*
X75553926Y-53753297D01*
X75556845Y-53760668D01*
X75556845Y-53760670D01*
X75570204Y-53794412D01*
X75574049Y-53805642D01*
X75586382Y-53848093D01*
X75590415Y-53854912D01*
X75590417Y-53854917D01*
X75596693Y-53865528D01*
X75605388Y-53883276D01*
X75612848Y-53902117D01*
X75617510Y-53908533D01*
X75617510Y-53908534D01*
X75638836Y-53937887D01*
X75645352Y-53947807D01*
X75667858Y-53985862D01*
X75682179Y-54000183D01*
X75695019Y-54015216D01*
X75706928Y-54031607D01*
X75713034Y-54036658D01*
X75741005Y-54059798D01*
X75749784Y-54067788D01*
X80099400Y-58417405D01*
X80133426Y-58479717D01*
X80128361Y-58550533D01*
X80085814Y-58607368D01*
X80019294Y-58632179D01*
X80010305Y-58632500D01*
X67959095Y-58632500D01*
X67890974Y-58612498D01*
X67870000Y-58595595D01*
X67222752Y-57948347D01*
X67215212Y-57940061D01*
X67211100Y-57933582D01*
X67161448Y-57886956D01*
X67158607Y-57884202D01*
X67138870Y-57864465D01*
X67135673Y-57861985D01*
X67126651Y-57854280D01*
X67113216Y-57841664D01*
X67094421Y-57824014D01*
X67087475Y-57820195D01*
X67087472Y-57820193D01*
X67076666Y-57814252D01*
X67060147Y-57803401D01*
X67059683Y-57803041D01*
X67044141Y-57790986D01*
X67036872Y-57787841D01*
X67036868Y-57787838D01*
X67003563Y-57773426D01*
X66992913Y-57768209D01*
X66962773Y-57751640D01*
X66912715Y-57701295D01*
X66898212Y-57654834D01*
X66897181Y-57645345D01*
X66895545Y-57630284D01*
X66844415Y-57493895D01*
X66757061Y-57377339D01*
X66640505Y-57289985D01*
X66504116Y-57238855D01*
X66441934Y-57232100D01*
X65445666Y-57232100D01*
X65383484Y-57238855D01*
X65247095Y-57289985D01*
X65130539Y-57377339D01*
X65043185Y-57493895D01*
X64992055Y-57630284D01*
X64990419Y-57645345D01*
X64989488Y-57653913D01*
X64962246Y-57719475D01*
X64916765Y-57754042D01*
X64914906Y-57754582D01*
X64908079Y-57758620D01*
X64908078Y-57758620D01*
X64897471Y-57764893D01*
X64879721Y-57773590D01*
X64860883Y-57781048D01*
X64854467Y-57785709D01*
X64854466Y-57785710D01*
X64825125Y-57807028D01*
X64815201Y-57813547D01*
X64783960Y-57832022D01*
X64783956Y-57832025D01*
X64777137Y-57836058D01*
X64762813Y-57850382D01*
X64747781Y-57863221D01*
X64731393Y-57875128D01*
X64703212Y-57909193D01*
X64695222Y-57917973D01*
X64012800Y-58600395D01*
X63950488Y-58634421D01*
X63923705Y-58637300D01*
X63728300Y-58637300D01*
X63660179Y-58617298D01*
X63613686Y-58563642D01*
X63602300Y-58511300D01*
X63602300Y-57692466D01*
X63595545Y-57630284D01*
X63544415Y-57493895D01*
X63457061Y-57377339D01*
X63340505Y-57289985D01*
X63339849Y-57289739D01*
X63292643Y-57242425D01*
X63277300Y-57182167D01*
X63277300Y-50742068D01*
X63277827Y-50730885D01*
X63279502Y-50723392D01*
X63277362Y-50655301D01*
X63277300Y-50651344D01*
X63277300Y-50623444D01*
X63276796Y-50619453D01*
X63275863Y-50607611D01*
X63275704Y-50602530D01*
X63274474Y-50563411D01*
X63270190Y-50548666D01*
X63268821Y-50543952D01*
X63264812Y-50524593D01*
X63264233Y-50520011D01*
X63262274Y-50504503D01*
X63259358Y-50497137D01*
X63259356Y-50497131D01*
X63246000Y-50463398D01*
X63242155Y-50452168D01*
X63232030Y-50417317D01*
X63232030Y-50417316D01*
X63229819Y-50409707D01*
X63222778Y-50397801D01*
X63219505Y-50392266D01*
X63210808Y-50374513D01*
X63206272Y-50363058D01*
X63203352Y-50355683D01*
X63177363Y-50319912D01*
X63170847Y-50309992D01*
X63148342Y-50271938D01*
X63134021Y-50257617D01*
X63121180Y-50242583D01*
X63109272Y-50226193D01*
X63075195Y-50198002D01*
X63066416Y-50190012D01*
X58976295Y-46099891D01*
X58942269Y-46037579D01*
X58939778Y-46020681D01*
X58939718Y-46019913D01*
X58927178Y-45860574D01*
X58867155Y-45610560D01*
X58865261Y-45605987D01*
X58770655Y-45377587D01*
X58770653Y-45377583D01*
X58768760Y-45373013D01*
X58634416Y-45153784D01*
X58539482Y-45042630D01*
X58510451Y-44977840D01*
X58521056Y-44907640D01*
X58567931Y-44854318D01*
X58635293Y-44834800D01*
X69952307Y-44834800D01*
X70020428Y-44854802D01*
G37*
%TD.AperFunction*%
%TA.AperFunction,NonConductor*%
G36*
X147607557Y-42181375D02*
G01*
X147622358Y-42183680D01*
X147622361Y-42183680D01*
X147631230Y-42185061D01*
X147640132Y-42183897D01*
X147640136Y-42183897D01*
X147640232Y-42183884D01*
X147670670Y-42183613D01*
X147775293Y-42195401D01*
X147802794Y-42201677D01*
X147920289Y-42242790D01*
X147945701Y-42255029D01*
X148051091Y-42321250D01*
X148073150Y-42338842D01*
X148161158Y-42426850D01*
X148178750Y-42448909D01*
X148244971Y-42554299D01*
X148257210Y-42579711D01*
X148298323Y-42697206D01*
X148304599Y-42724706D01*
X148315647Y-42822754D01*
X148316430Y-42838400D01*
X148316321Y-42847356D01*
X148314939Y-42856230D01*
X148316763Y-42870178D01*
X148319061Y-42887751D01*
X148320125Y-42904089D01*
X148320125Y-59481922D01*
X148318625Y-59501306D01*
X148314939Y-59524980D01*
X148316103Y-59533882D01*
X148316103Y-59533886D01*
X148316116Y-59533982D01*
X148316387Y-59564420D01*
X148304599Y-59669043D01*
X148298323Y-59696544D01*
X148257210Y-59814039D01*
X148244972Y-59839449D01*
X148204274Y-59904220D01*
X148178750Y-59944841D01*
X148161158Y-59966900D01*
X148073150Y-60054908D01*
X148051091Y-60072500D01*
X147945701Y-60138721D01*
X147920289Y-60150960D01*
X147802794Y-60192073D01*
X147775294Y-60198349D01*
X147735777Y-60202802D01*
X147677242Y-60209397D01*
X147661600Y-60210180D01*
X147652644Y-60210071D01*
X147643770Y-60208689D01*
X147612249Y-60212811D01*
X147595911Y-60213875D01*
X25052453Y-60213875D01*
X25033068Y-60212375D01*
X25018267Y-60210070D01*
X25018264Y-60210070D01*
X25009395Y-60208689D01*
X25000493Y-60209853D01*
X25000489Y-60209853D01*
X25000393Y-60209866D01*
X24969955Y-60210137D01*
X24865332Y-60198349D01*
X24837831Y-60192073D01*
X24720336Y-60150960D01*
X24694924Y-60138721D01*
X24589534Y-60072500D01*
X24567475Y-60054908D01*
X24479467Y-59966900D01*
X24461875Y-59944841D01*
X24436351Y-59904220D01*
X24395653Y-59839449D01*
X24383415Y-59814039D01*
X24342302Y-59696544D01*
X24336026Y-59669044D01*
X24325167Y-59572670D01*
X24324885Y-59547864D01*
X24325571Y-59543789D01*
X24325724Y-59531250D01*
X24321773Y-59503662D01*
X24320500Y-59485799D01*
X24320500Y-51131493D01*
X29251839Y-51131493D01*
X29260648Y-51366116D01*
X29263429Y-51379369D01*
X29286594Y-51489771D01*
X29308862Y-51595901D01*
X29395102Y-51814277D01*
X29516904Y-52015000D01*
X29670785Y-52192332D01*
X29674917Y-52195720D01*
X29848216Y-52337817D01*
X29848222Y-52337821D01*
X29852344Y-52341201D01*
X29856980Y-52343840D01*
X29856983Y-52343842D01*
X29968208Y-52407155D01*
X30056390Y-52457351D01*
X30277089Y-52537461D01*
X30282338Y-52538410D01*
X30282341Y-52538411D01*
X30363415Y-52553071D01*
X30508130Y-52579240D01*
X30512269Y-52579435D01*
X30512276Y-52579436D01*
X30531240Y-52580330D01*
X30531249Y-52580330D01*
X30532729Y-52580400D01*
X30697750Y-52580400D01*
X30779099Y-52573497D01*
X30867437Y-52566002D01*
X30867441Y-52566001D01*
X30872748Y-52565551D01*
X30877903Y-52564213D01*
X30877909Y-52564212D01*
X31094835Y-52507909D01*
X31094834Y-52507909D01*
X31100006Y-52506567D01*
X31104872Y-52504375D01*
X31104875Y-52504374D01*
X31309217Y-52412324D01*
X31309220Y-52412323D01*
X31314078Y-52410134D01*
X31508841Y-52279012D01*
X31678727Y-52116949D01*
X31818878Y-51928579D01*
X31879519Y-51809308D01*
X31922869Y-51724044D01*
X31922869Y-51724043D01*
X31925287Y-51719288D01*
X31994911Y-51495060D01*
X32010245Y-51379369D01*
X32013563Y-51354338D01*
X33216400Y-51354338D01*
X33255864Y-51666730D01*
X33334170Y-51971713D01*
X33450084Y-52264477D01*
X33451986Y-52267936D01*
X33451987Y-52267939D01*
X33583912Y-52507909D01*
X33601776Y-52540404D01*
X33786855Y-52795144D01*
X34002402Y-53024678D01*
X34245018Y-53225387D01*
X34510876Y-53394106D01*
X34514455Y-53395790D01*
X34514462Y-53395794D01*
X34792194Y-53526484D01*
X34792198Y-53526486D01*
X34795784Y-53528173D01*
X35095248Y-53625475D01*
X35404546Y-53684477D01*
X35498100Y-53690363D01*
X35638158Y-53699175D01*
X35638174Y-53699176D01*
X35640153Y-53699300D01*
X35797447Y-53699300D01*
X35799426Y-53699176D01*
X35799442Y-53699175D01*
X35939500Y-53690363D01*
X36033054Y-53684477D01*
X36342352Y-53625475D01*
X36641816Y-53528173D01*
X36645402Y-53526486D01*
X36645406Y-53526484D01*
X36923138Y-53395794D01*
X36923145Y-53395790D01*
X36926724Y-53394106D01*
X37192582Y-53225387D01*
X37435198Y-53024678D01*
X37650745Y-52795144D01*
X37835824Y-52540404D01*
X37853689Y-52507909D01*
X37985613Y-52267939D01*
X37985614Y-52267936D01*
X37987516Y-52264477D01*
X38103430Y-51971713D01*
X38181736Y-51666730D01*
X38221200Y-51354338D01*
X38221200Y-51039462D01*
X38181736Y-50727070D01*
X38103430Y-50422087D01*
X38095970Y-50403244D01*
X38047833Y-50281665D01*
X37987516Y-50129323D01*
X37981549Y-50118469D01*
X37837733Y-49856868D01*
X37837731Y-49856865D01*
X37835824Y-49853396D01*
X37665936Y-49619564D01*
X37653073Y-49601860D01*
X37653072Y-49601858D01*
X37650745Y-49598656D01*
X37435198Y-49369122D01*
X37192582Y-49168413D01*
X36988643Y-49038989D01*
X36930071Y-49001818D01*
X36930070Y-49001818D01*
X36926724Y-48999694D01*
X36923145Y-48998010D01*
X36923138Y-48998006D01*
X36645406Y-48867316D01*
X36645402Y-48867314D01*
X36641816Y-48865627D01*
X36342352Y-48768325D01*
X36033054Y-48709323D01*
X35939500Y-48703437D01*
X35799442Y-48694625D01*
X35799426Y-48694624D01*
X35797447Y-48694500D01*
X35640153Y-48694500D01*
X35638174Y-48694624D01*
X35638158Y-48694625D01*
X35498100Y-48703437D01*
X35404546Y-48709323D01*
X35095248Y-48768325D01*
X34795784Y-48865627D01*
X34792198Y-48867314D01*
X34792194Y-48867316D01*
X34514462Y-48998006D01*
X34514455Y-48998010D01*
X34510876Y-48999694D01*
X34507530Y-49001818D01*
X34507529Y-49001818D01*
X34448957Y-49038989D01*
X34245018Y-49168413D01*
X34002402Y-49369122D01*
X33786855Y-49598656D01*
X33784528Y-49601858D01*
X33784527Y-49601860D01*
X33771664Y-49619564D01*
X33601776Y-49853396D01*
X33599869Y-49856865D01*
X33599867Y-49856868D01*
X33456051Y-50118469D01*
X33450084Y-50129323D01*
X33389767Y-50281665D01*
X33341631Y-50403244D01*
X33334170Y-50422087D01*
X33255864Y-50727070D01*
X33216400Y-51039462D01*
X33216400Y-51354338D01*
X32013563Y-51354338D01*
X32025061Y-51267590D01*
X32025061Y-51267587D01*
X32025761Y-51262307D01*
X32016952Y-51027684D01*
X31991779Y-50907711D01*
X31969835Y-50803126D01*
X31969834Y-50803123D01*
X31968738Y-50797899D01*
X31882498Y-50579523D01*
X31879728Y-50574959D01*
X31879726Y-50574954D01*
X31825322Y-50485298D01*
X31807083Y-50416684D01*
X31828835Y-50349102D01*
X31883671Y-50304008D01*
X31923153Y-50294321D01*
X32165126Y-50275278D01*
X32169933Y-50274124D01*
X32169939Y-50274123D01*
X32342868Y-50232606D01*
X32415140Y-50215255D01*
X32419713Y-50213361D01*
X32648113Y-50118755D01*
X32648117Y-50118753D01*
X32652687Y-50116860D01*
X32871916Y-49982516D01*
X33067431Y-49815531D01*
X33234416Y-49620016D01*
X33368760Y-49400787D01*
X33370657Y-49396209D01*
X33465261Y-49167813D01*
X33465262Y-49167811D01*
X33467155Y-49163240D01*
X33507562Y-48994934D01*
X33526023Y-48918039D01*
X33526024Y-48918033D01*
X33527178Y-48913226D01*
X33547351Y-48656900D01*
X33527178Y-48400574D01*
X33467155Y-48150560D01*
X33368760Y-47913013D01*
X33367359Y-47910726D01*
X33354373Y-47841569D01*
X33381076Y-47775785D01*
X33439104Y-47734881D01*
X33450330Y-47731628D01*
X33607961Y-47693784D01*
X33685140Y-47675255D01*
X33689713Y-47673361D01*
X33918113Y-47578755D01*
X33918117Y-47578753D01*
X33922687Y-47576860D01*
X34141916Y-47442516D01*
X34337431Y-47275531D01*
X34504416Y-47080016D01*
X34638760Y-46860787D01*
X34646278Y-46842639D01*
X34735261Y-46627813D01*
X34735262Y-46627811D01*
X34737155Y-46623240D01*
X34782984Y-46432349D01*
X34796023Y-46378039D01*
X34796024Y-46378033D01*
X34797178Y-46373226D01*
X34817351Y-46116900D01*
X36620249Y-46116900D01*
X36640422Y-46373226D01*
X36641576Y-46378033D01*
X36641577Y-46378039D01*
X36654616Y-46432349D01*
X36700445Y-46623240D01*
X36702338Y-46627811D01*
X36702339Y-46627813D01*
X36791323Y-46842639D01*
X36798840Y-46860787D01*
X36933184Y-47080016D01*
X37100169Y-47275531D01*
X37295684Y-47442516D01*
X37514913Y-47576860D01*
X37519483Y-47578753D01*
X37519487Y-47578755D01*
X37747887Y-47673361D01*
X37752460Y-47675255D01*
X37829639Y-47693784D01*
X37987270Y-47731628D01*
X38048839Y-47766980D01*
X38081522Y-47830007D01*
X38074941Y-47900698D01*
X38070867Y-47909705D01*
X38068840Y-47913013D01*
X37970445Y-48150560D01*
X37910422Y-48400574D01*
X37890249Y-48656900D01*
X37910422Y-48913226D01*
X37911576Y-48918033D01*
X37911577Y-48918039D01*
X37930038Y-48994934D01*
X37970445Y-49163240D01*
X37972338Y-49167811D01*
X37972339Y-49167813D01*
X38066944Y-49396209D01*
X38068840Y-49400787D01*
X38203184Y-49620016D01*
X38370169Y-49815531D01*
X38565684Y-49982516D01*
X38784913Y-50116860D01*
X38789483Y-50118753D01*
X38789487Y-50118755D01*
X39017887Y-50213361D01*
X39022460Y-50215255D01*
X39094732Y-50232606D01*
X39267661Y-50274123D01*
X39267667Y-50274124D01*
X39272474Y-50275278D01*
X39510444Y-50294006D01*
X39576784Y-50319291D01*
X39618924Y-50376429D01*
X39623483Y-50447279D01*
X39612874Y-50476723D01*
X39520605Y-50658202D01*
X39512313Y-50674512D01*
X39442689Y-50898740D01*
X39441988Y-50904029D01*
X39424662Y-51034751D01*
X39411839Y-51131493D01*
X39420648Y-51366116D01*
X39423429Y-51379369D01*
X39446594Y-51489771D01*
X39468862Y-51595901D01*
X39555102Y-51814277D01*
X39676904Y-52015000D01*
X39830785Y-52192332D01*
X39834917Y-52195720D01*
X40008216Y-52337817D01*
X40008222Y-52337821D01*
X40012344Y-52341201D01*
X40016980Y-52343840D01*
X40016983Y-52343842D01*
X40128208Y-52407155D01*
X40216390Y-52457351D01*
X40437089Y-52537461D01*
X40442338Y-52538410D01*
X40442341Y-52538411D01*
X40523415Y-52553071D01*
X40668130Y-52579240D01*
X40672269Y-52579435D01*
X40672276Y-52579436D01*
X40691240Y-52580330D01*
X40691249Y-52580330D01*
X40692729Y-52580400D01*
X40857750Y-52580400D01*
X40939099Y-52573497D01*
X41027437Y-52566002D01*
X41027441Y-52566001D01*
X41032748Y-52565551D01*
X41037903Y-52564213D01*
X41037909Y-52564212D01*
X41254835Y-52507909D01*
X41254834Y-52507909D01*
X41260006Y-52506567D01*
X41264872Y-52504375D01*
X41264875Y-52504374D01*
X41469217Y-52412324D01*
X41469220Y-52412323D01*
X41474078Y-52410134D01*
X41668841Y-52279012D01*
X41838727Y-52116949D01*
X41978878Y-51928579D01*
X42039519Y-51809308D01*
X42082869Y-51724044D01*
X42082869Y-51724043D01*
X42085287Y-51719288D01*
X42154911Y-51495060D01*
X42170245Y-51379369D01*
X42185061Y-51267590D01*
X42185061Y-51267587D01*
X42185761Y-51262307D01*
X42176952Y-51027684D01*
X42151779Y-50907711D01*
X42129835Y-50803126D01*
X42129834Y-50803123D01*
X42128738Y-50797899D01*
X42042498Y-50579523D01*
X41976023Y-50469976D01*
X41923464Y-50383361D01*
X41923462Y-50383358D01*
X41920696Y-50378800D01*
X41766815Y-50201468D01*
X41751759Y-50189123D01*
X41589384Y-50055983D01*
X41589378Y-50055979D01*
X41585256Y-50052599D01*
X41580620Y-50049960D01*
X41580617Y-50049958D01*
X41385853Y-49939092D01*
X41381210Y-49936449D01*
X41160511Y-49856339D01*
X41155262Y-49855390D01*
X41155259Y-49855389D01*
X40935240Y-49815603D01*
X40871766Y-49783799D01*
X40835563Y-49722726D01*
X40838125Y-49651776D01*
X40854450Y-49620037D01*
X40854416Y-49620016D01*
X40854693Y-49619564D01*
X40988760Y-49400787D01*
X40990657Y-49396209D01*
X41048903Y-49255589D01*
X41093451Y-49200308D01*
X41160815Y-49177887D01*
X41229606Y-49195445D01*
X41254407Y-49214712D01*
X42923395Y-50883700D01*
X42957421Y-50946012D01*
X42960300Y-50972795D01*
X42960300Y-57182167D01*
X42940298Y-57250288D01*
X42898122Y-57289600D01*
X42897095Y-57289985D01*
X42780539Y-57377339D01*
X42693185Y-57493895D01*
X42642055Y-57630284D01*
X42635300Y-57692466D01*
X42635300Y-58988734D01*
X42642055Y-59050916D01*
X42693185Y-59187305D01*
X42780539Y-59303861D01*
X42897095Y-59391215D01*
X43033484Y-59442345D01*
X43095666Y-59449100D01*
X44091934Y-59449100D01*
X44154116Y-59442345D01*
X44290505Y-59391215D01*
X44407061Y-59303861D01*
X44494415Y-59187305D01*
X44545545Y-59050916D01*
X44552300Y-58988734D01*
X45935300Y-58988734D01*
X45942055Y-59050916D01*
X45993185Y-59187305D01*
X46080539Y-59303861D01*
X46197095Y-59391215D01*
X46333484Y-59442345D01*
X46395666Y-59449100D01*
X47391934Y-59449100D01*
X47454116Y-59442345D01*
X47590505Y-59391215D01*
X47636449Y-59356782D01*
X47702956Y-59331934D01*
X47772338Y-59346987D01*
X47801109Y-59368513D01*
X48095643Y-59663047D01*
X48103187Y-59671337D01*
X48107300Y-59677818D01*
X48113077Y-59683243D01*
X48156967Y-59724458D01*
X48159809Y-59727213D01*
X48179530Y-59746934D01*
X48182725Y-59749412D01*
X48191747Y-59757118D01*
X48223979Y-59787386D01*
X48230928Y-59791206D01*
X48241732Y-59797146D01*
X48258256Y-59807999D01*
X48274259Y-59820413D01*
X48314843Y-59837976D01*
X48325473Y-59843183D01*
X48364240Y-59864495D01*
X48371917Y-59866466D01*
X48371922Y-59866468D01*
X48383858Y-59869532D01*
X48402566Y-59875937D01*
X48421155Y-59883981D01*
X48428980Y-59885220D01*
X48428982Y-59885221D01*
X48464819Y-59890897D01*
X48476440Y-59893304D01*
X48508181Y-59901453D01*
X48519270Y-59904300D01*
X48539531Y-59904300D01*
X48559240Y-59905851D01*
X48579243Y-59909019D01*
X48587135Y-59908273D01*
X48592362Y-59907779D01*
X48623254Y-59904859D01*
X48635111Y-59904300D01*
X64159533Y-59904300D01*
X64170716Y-59904827D01*
X64178209Y-59906502D01*
X64186135Y-59906253D01*
X64186136Y-59906253D01*
X64246286Y-59904362D01*
X64250245Y-59904300D01*
X64278156Y-59904300D01*
X64282091Y-59903803D01*
X64282156Y-59903795D01*
X64293993Y-59902862D01*
X64326251Y-59901848D01*
X64330270Y-59901722D01*
X64338189Y-59901473D01*
X64357643Y-59895821D01*
X64377000Y-59891813D01*
X64389230Y-59890268D01*
X64389231Y-59890268D01*
X64397097Y-59889274D01*
X64404468Y-59886355D01*
X64404470Y-59886355D01*
X64438212Y-59872996D01*
X64449442Y-59869151D01*
X64484283Y-59859029D01*
X64484284Y-59859029D01*
X64491893Y-59856818D01*
X64498712Y-59852785D01*
X64498717Y-59852783D01*
X64509328Y-59846507D01*
X64527076Y-59837812D01*
X64545917Y-59830352D01*
X64566203Y-59815614D01*
X64581687Y-59804364D01*
X64591607Y-59797848D01*
X64622835Y-59779380D01*
X64622838Y-59779378D01*
X64629662Y-59775342D01*
X64643983Y-59761021D01*
X64659017Y-59748180D01*
X64660732Y-59746934D01*
X64675407Y-59736272D01*
X64703598Y-59702195D01*
X64711588Y-59693416D01*
X65036491Y-59368513D01*
X65098803Y-59334487D01*
X65169618Y-59339552D01*
X65201152Y-59356782D01*
X65247095Y-59391215D01*
X65383484Y-59442345D01*
X65445666Y-59449100D01*
X66441934Y-59449100D01*
X66504116Y-59442345D01*
X66640505Y-59391215D01*
X66686449Y-59356782D01*
X66752956Y-59331934D01*
X66822338Y-59346987D01*
X66851109Y-59368513D01*
X67140843Y-59658247D01*
X67148387Y-59666537D01*
X67152500Y-59673018D01*
X67158277Y-59678443D01*
X67202167Y-59719658D01*
X67204994Y-59722398D01*
X67224730Y-59742134D01*
X67227920Y-59744608D01*
X67236947Y-59752318D01*
X67269179Y-59782586D01*
X67277910Y-59787386D01*
X67286932Y-59792346D01*
X67303456Y-59803199D01*
X67319459Y-59815613D01*
X67360039Y-59833174D01*
X67370673Y-59838383D01*
X67409440Y-59859695D01*
X67417117Y-59861666D01*
X67417122Y-59861668D01*
X67429058Y-59864732D01*
X67447766Y-59871137D01*
X67466355Y-59879181D01*
X67474183Y-59880421D01*
X67474190Y-59880423D01*
X67510024Y-59886099D01*
X67521644Y-59888505D01*
X67553459Y-59896673D01*
X67564470Y-59899500D01*
X67584724Y-59899500D01*
X67604434Y-59901051D01*
X67624443Y-59904220D01*
X67632335Y-59903474D01*
X67653503Y-59901473D01*
X67668462Y-59900059D01*
X67680319Y-59899500D01*
X83214333Y-59899500D01*
X83225516Y-59900027D01*
X83233009Y-59901702D01*
X83240935Y-59901453D01*
X83240936Y-59901453D01*
X83301086Y-59899562D01*
X83305045Y-59899500D01*
X83332956Y-59899500D01*
X83336891Y-59899003D01*
X83336956Y-59898995D01*
X83348793Y-59898062D01*
X83381051Y-59897048D01*
X83385070Y-59896922D01*
X83392989Y-59896673D01*
X83412443Y-59891021D01*
X83431800Y-59887013D01*
X83444030Y-59885468D01*
X83444031Y-59885468D01*
X83451897Y-59884474D01*
X83459268Y-59881555D01*
X83459270Y-59881555D01*
X83493012Y-59868196D01*
X83504242Y-59864351D01*
X83539083Y-59854229D01*
X83539084Y-59854229D01*
X83546693Y-59852018D01*
X83553512Y-59847985D01*
X83553517Y-59847983D01*
X83564128Y-59841707D01*
X83581876Y-59833012D01*
X83600717Y-59825552D01*
X83607791Y-59820413D01*
X83636487Y-59799564D01*
X83646407Y-59793048D01*
X83677635Y-59774580D01*
X83677638Y-59774578D01*
X83684462Y-59770542D01*
X83698783Y-59756221D01*
X83713817Y-59743380D01*
X83717188Y-59740931D01*
X83730207Y-59731472D01*
X83758398Y-59697395D01*
X83766388Y-59688616D01*
X84086491Y-59368513D01*
X84148803Y-59334487D01*
X84219618Y-59339552D01*
X84251152Y-59356782D01*
X84297095Y-59391215D01*
X84433484Y-59442345D01*
X84495666Y-59449100D01*
X85491934Y-59449100D01*
X85554116Y-59442345D01*
X85690505Y-59391215D01*
X85736449Y-59356782D01*
X85802956Y-59331934D01*
X85872338Y-59346987D01*
X85901109Y-59368513D01*
X86190843Y-59658247D01*
X86198387Y-59666537D01*
X86202500Y-59673018D01*
X86208277Y-59678443D01*
X86252167Y-59719658D01*
X86254994Y-59722398D01*
X86274730Y-59742134D01*
X86277920Y-59744608D01*
X86286947Y-59752318D01*
X86319179Y-59782586D01*
X86327910Y-59787386D01*
X86336932Y-59792346D01*
X86353456Y-59803199D01*
X86369459Y-59815613D01*
X86410039Y-59833174D01*
X86420673Y-59838383D01*
X86459440Y-59859695D01*
X86467117Y-59861666D01*
X86467122Y-59861668D01*
X86479058Y-59864732D01*
X86497766Y-59871137D01*
X86516355Y-59879181D01*
X86524183Y-59880421D01*
X86524190Y-59880423D01*
X86560024Y-59886099D01*
X86571644Y-59888505D01*
X86603459Y-59896673D01*
X86614470Y-59899500D01*
X86634724Y-59899500D01*
X86654434Y-59901051D01*
X86674443Y-59904220D01*
X86682335Y-59903474D01*
X86703503Y-59901473D01*
X86718462Y-59900059D01*
X86730319Y-59899500D01*
X102264533Y-59899500D01*
X102275716Y-59900027D01*
X102283209Y-59901702D01*
X102291135Y-59901453D01*
X102291136Y-59901453D01*
X102351286Y-59899562D01*
X102355245Y-59899500D01*
X102383156Y-59899500D01*
X102387091Y-59899003D01*
X102387156Y-59898995D01*
X102398993Y-59898062D01*
X102431251Y-59897048D01*
X102435270Y-59896922D01*
X102443189Y-59896673D01*
X102462643Y-59891021D01*
X102482000Y-59887013D01*
X102494230Y-59885468D01*
X102494231Y-59885468D01*
X102502097Y-59884474D01*
X102509468Y-59881555D01*
X102509470Y-59881555D01*
X102543212Y-59868196D01*
X102554442Y-59864351D01*
X102589283Y-59854229D01*
X102589284Y-59854229D01*
X102596893Y-59852018D01*
X102603712Y-59847985D01*
X102603717Y-59847983D01*
X102614328Y-59841707D01*
X102632076Y-59833012D01*
X102650917Y-59825552D01*
X102657991Y-59820413D01*
X102686687Y-59799564D01*
X102696607Y-59793048D01*
X102727835Y-59774580D01*
X102727838Y-59774578D01*
X102734662Y-59770542D01*
X102748983Y-59756221D01*
X102764017Y-59743380D01*
X102767388Y-59740931D01*
X102780407Y-59731472D01*
X102808598Y-59697395D01*
X102816588Y-59688616D01*
X103136691Y-59368513D01*
X103199003Y-59334487D01*
X103269818Y-59339552D01*
X103301352Y-59356782D01*
X103347295Y-59391215D01*
X103483684Y-59442345D01*
X103545866Y-59449100D01*
X104542134Y-59449100D01*
X104604316Y-59442345D01*
X104740705Y-59391215D01*
X104816397Y-59334487D01*
X104850078Y-59309245D01*
X104850081Y-59309242D01*
X104857261Y-59303861D01*
X104862642Y-59296681D01*
X104862646Y-59296677D01*
X104890726Y-59259209D01*
X104947585Y-59216693D01*
X105017750Y-59211526D01*
X105087856Y-59226428D01*
X105087861Y-59226428D01*
X105094313Y-59227800D01*
X105150205Y-59227800D01*
X105218326Y-59247802D01*
X105239300Y-59264705D01*
X105632848Y-59658253D01*
X105640388Y-59666539D01*
X105644500Y-59673018D01*
X105650277Y-59678443D01*
X105694151Y-59719643D01*
X105696993Y-59722398D01*
X105716730Y-59742135D01*
X105719927Y-59744615D01*
X105728947Y-59752318D01*
X105761179Y-59782586D01*
X105768125Y-59786405D01*
X105768128Y-59786407D01*
X105778934Y-59792348D01*
X105795453Y-59803199D01*
X105811459Y-59815614D01*
X105818728Y-59818759D01*
X105818732Y-59818762D01*
X105852037Y-59833174D01*
X105862686Y-59838390D01*
X105901440Y-59859695D01*
X105909115Y-59861666D01*
X105909116Y-59861666D01*
X105921062Y-59864733D01*
X105939766Y-59871137D01*
X105950861Y-59875938D01*
X105958355Y-59879181D01*
X105966178Y-59880420D01*
X105966188Y-59880423D01*
X106002024Y-59886099D01*
X106013644Y-59888505D01*
X106045459Y-59896673D01*
X106056470Y-59899500D01*
X106076724Y-59899500D01*
X106096434Y-59901051D01*
X106116443Y-59904220D01*
X106124335Y-59903474D01*
X106145503Y-59901473D01*
X106160462Y-59900059D01*
X106172319Y-59899500D01*
X121314533Y-59899500D01*
X121325716Y-59900027D01*
X121333209Y-59901702D01*
X121341135Y-59901453D01*
X121341136Y-59901453D01*
X121401286Y-59899562D01*
X121405245Y-59899500D01*
X121433156Y-59899500D01*
X121437091Y-59899003D01*
X121437156Y-59898995D01*
X121448993Y-59898062D01*
X121481251Y-59897048D01*
X121485270Y-59896922D01*
X121493189Y-59896673D01*
X121512643Y-59891021D01*
X121532000Y-59887013D01*
X121544230Y-59885468D01*
X121544231Y-59885468D01*
X121552097Y-59884474D01*
X121559468Y-59881555D01*
X121559470Y-59881555D01*
X121593212Y-59868196D01*
X121604442Y-59864351D01*
X121639283Y-59854229D01*
X121639284Y-59854229D01*
X121646893Y-59852018D01*
X121653712Y-59847985D01*
X121653717Y-59847983D01*
X121664328Y-59841707D01*
X121682076Y-59833012D01*
X121700917Y-59825552D01*
X121707991Y-59820413D01*
X121736687Y-59799564D01*
X121746607Y-59793048D01*
X121777835Y-59774580D01*
X121777838Y-59774578D01*
X121784662Y-59770542D01*
X121798983Y-59756221D01*
X121814017Y-59743380D01*
X121817388Y-59740931D01*
X121830407Y-59731472D01*
X121858598Y-59697395D01*
X121866588Y-59688616D01*
X122186691Y-59368513D01*
X122249003Y-59334487D01*
X122319818Y-59339552D01*
X122351352Y-59356782D01*
X122397295Y-59391215D01*
X122533684Y-59442345D01*
X122595866Y-59449100D01*
X123592134Y-59449100D01*
X123654316Y-59442345D01*
X123790705Y-59391215D01*
X123907261Y-59303861D01*
X123994615Y-59187305D01*
X124045745Y-59050916D01*
X124052500Y-58988734D01*
X124052500Y-57692466D01*
X124045745Y-57630284D01*
X123994615Y-57493895D01*
X123907261Y-57377339D01*
X123790705Y-57289985D01*
X123654316Y-57238855D01*
X123592134Y-57232100D01*
X122595866Y-57232100D01*
X122533684Y-57238855D01*
X122397295Y-57289985D01*
X122280739Y-57377339D01*
X122193385Y-57493895D01*
X122142255Y-57630284D01*
X122140619Y-57645345D01*
X122139688Y-57653913D01*
X122112446Y-57719475D01*
X122066963Y-57754043D01*
X122065107Y-57754582D01*
X122058289Y-57758614D01*
X122058280Y-57758618D01*
X122047668Y-57764894D01*
X122029918Y-57773590D01*
X122018456Y-57778128D01*
X122018451Y-57778131D01*
X122011083Y-57781048D01*
X121993670Y-57793699D01*
X121975325Y-57807027D01*
X121965407Y-57813543D01*
X121954163Y-57820193D01*
X121927337Y-57836058D01*
X121913013Y-57850382D01*
X121897981Y-57863221D01*
X121881593Y-57875128D01*
X121853412Y-57909193D01*
X121845422Y-57917973D01*
X121167800Y-58595595D01*
X121105488Y-58629621D01*
X121078705Y-58632500D01*
X120878500Y-58632500D01*
X120810379Y-58612498D01*
X120763886Y-58558842D01*
X120752500Y-58506500D01*
X120752500Y-57692466D01*
X120745745Y-57630284D01*
X120694615Y-57493895D01*
X120607261Y-57377339D01*
X120490705Y-57289985D01*
X120490049Y-57289739D01*
X120442843Y-57242425D01*
X120427500Y-57182167D01*
X120427500Y-50698668D01*
X120428027Y-50687485D01*
X120429702Y-50679992D01*
X120428555Y-50643479D01*
X120427562Y-50611902D01*
X120427500Y-50607944D01*
X120427500Y-50580044D01*
X120426996Y-50576053D01*
X120426063Y-50564211D01*
X120425799Y-50555793D01*
X120424674Y-50520011D01*
X120422461Y-50512393D01*
X120419021Y-50500552D01*
X120415012Y-50481193D01*
X120414447Y-50476722D01*
X120412474Y-50461103D01*
X120409558Y-50453737D01*
X120409556Y-50453731D01*
X120396200Y-50419998D01*
X120392355Y-50408768D01*
X120382230Y-50373917D01*
X120382230Y-50373916D01*
X120380019Y-50366307D01*
X120369943Y-50349268D01*
X120369705Y-50348866D01*
X120361008Y-50331113D01*
X120356472Y-50319658D01*
X120353552Y-50312283D01*
X120327563Y-50276512D01*
X120321047Y-50266592D01*
X120298542Y-50228538D01*
X120284221Y-50214217D01*
X120271380Y-50199183D01*
X120266824Y-50192912D01*
X120259472Y-50182793D01*
X120225395Y-50154602D01*
X120216616Y-50146612D01*
X116122788Y-46052783D01*
X116088762Y-45990471D01*
X116086271Y-45973574D01*
X116077766Y-45865508D01*
X116077766Y-45865507D01*
X116077378Y-45860574D01*
X116071569Y-45836374D01*
X116018510Y-45615372D01*
X116017355Y-45610560D01*
X116015461Y-45605986D01*
X115959889Y-45471825D01*
X115957401Y-45465818D01*
X115949812Y-45395228D01*
X115981591Y-45331741D01*
X116042649Y-45295514D01*
X116073810Y-45291600D01*
X126814190Y-45291600D01*
X126882311Y-45311602D01*
X126928804Y-45365258D01*
X126938908Y-45435532D01*
X126930599Y-45465818D01*
X126928111Y-45471825D01*
X126872540Y-45605986D01*
X126870645Y-45610560D01*
X126869490Y-45615372D01*
X126816432Y-45836374D01*
X126810622Y-45860574D01*
X126790449Y-46116900D01*
X126810622Y-46373226D01*
X126811776Y-46378033D01*
X126811777Y-46378039D01*
X126824816Y-46432349D01*
X126870645Y-46623240D01*
X126872538Y-46627811D01*
X126872539Y-46627813D01*
X126876084Y-46636372D01*
X126969040Y-46860787D01*
X126970441Y-46863074D01*
X126983427Y-46932231D01*
X126956724Y-46998015D01*
X126898696Y-47038919D01*
X126887470Y-47042172D01*
X126801376Y-47062841D01*
X126652660Y-47098545D01*
X126648089Y-47100438D01*
X126648087Y-47100439D01*
X126419687Y-47195045D01*
X126419683Y-47195047D01*
X126415113Y-47196940D01*
X126195884Y-47331284D01*
X126000369Y-47498269D01*
X125833384Y-47693784D01*
X125699040Y-47913013D01*
X125697147Y-47917583D01*
X125697145Y-47917587D01*
X125658822Y-48010107D01*
X125600645Y-48150560D01*
X125540622Y-48400574D01*
X125520449Y-48656900D01*
X125540622Y-48913226D01*
X125541776Y-48918033D01*
X125541777Y-48918039D01*
X125560238Y-48994934D01*
X125600645Y-49163240D01*
X125602538Y-49167811D01*
X125602539Y-49167813D01*
X125697144Y-49396209D01*
X125699040Y-49400787D01*
X125833384Y-49620016D01*
X125834919Y-49621814D01*
X125858541Y-49687998D01*
X125842467Y-49757151D01*
X125791558Y-49806636D01*
X125743401Y-49820752D01*
X125660363Y-49827798D01*
X125660359Y-49827799D01*
X125655052Y-49828249D01*
X125649897Y-49829587D01*
X125649891Y-49829588D01*
X125516202Y-49864287D01*
X125427794Y-49887233D01*
X125422928Y-49889425D01*
X125422925Y-49889426D01*
X125218583Y-49981476D01*
X125218580Y-49981477D01*
X125213722Y-49983666D01*
X125018959Y-50114788D01*
X125015102Y-50118467D01*
X125015100Y-50118469D01*
X124977223Y-50154602D01*
X124849073Y-50276851D01*
X124845891Y-50281128D01*
X124845890Y-50281129D01*
X124820608Y-50315110D01*
X124708922Y-50465221D01*
X124706506Y-50469972D01*
X124706504Y-50469976D01*
X124610805Y-50658202D01*
X124602513Y-50674512D01*
X124532889Y-50898740D01*
X124532188Y-50904029D01*
X124514862Y-51034751D01*
X124502039Y-51131493D01*
X124510848Y-51366116D01*
X124513629Y-51379369D01*
X124536794Y-51489771D01*
X124559062Y-51595901D01*
X124645302Y-51814277D01*
X124767104Y-52015000D01*
X124920985Y-52192332D01*
X124925117Y-52195720D01*
X125098416Y-52337817D01*
X125098422Y-52337821D01*
X125102544Y-52341201D01*
X125107180Y-52343840D01*
X125107183Y-52343842D01*
X125218408Y-52407155D01*
X125306590Y-52457351D01*
X125527289Y-52537461D01*
X125532538Y-52538410D01*
X125532541Y-52538411D01*
X125613615Y-52553071D01*
X125758330Y-52579240D01*
X125762469Y-52579435D01*
X125762476Y-52579436D01*
X125781440Y-52580330D01*
X125781449Y-52580330D01*
X125782929Y-52580400D01*
X125947950Y-52580400D01*
X126029299Y-52573497D01*
X126117637Y-52566002D01*
X126117641Y-52566001D01*
X126122948Y-52565551D01*
X126128103Y-52564213D01*
X126128109Y-52564212D01*
X126345035Y-52507909D01*
X126345034Y-52507909D01*
X126350206Y-52506567D01*
X126355072Y-52504375D01*
X126355075Y-52504374D01*
X126559417Y-52412324D01*
X126559420Y-52412323D01*
X126564278Y-52410134D01*
X126759041Y-52279012D01*
X126889074Y-52154967D01*
X126952169Y-52122421D01*
X127022845Y-52129152D01*
X127065139Y-52157043D01*
X134566343Y-59658247D01*
X134573887Y-59666537D01*
X134578000Y-59673018D01*
X134583777Y-59678443D01*
X134627667Y-59719658D01*
X134630494Y-59722398D01*
X134650230Y-59742134D01*
X134653420Y-59744608D01*
X134662447Y-59752318D01*
X134694679Y-59782586D01*
X134703410Y-59787386D01*
X134712432Y-59792346D01*
X134728956Y-59803199D01*
X134744959Y-59815613D01*
X134785539Y-59833174D01*
X134796173Y-59838383D01*
X134834940Y-59859695D01*
X134842617Y-59861666D01*
X134842622Y-59861668D01*
X134854558Y-59864732D01*
X134873266Y-59871137D01*
X134891855Y-59879181D01*
X134899680Y-59880420D01*
X134899682Y-59880421D01*
X134935519Y-59886097D01*
X134947140Y-59888504D01*
X134978959Y-59896673D01*
X134989970Y-59899500D01*
X135010231Y-59899500D01*
X135029940Y-59901051D01*
X135049943Y-59904219D01*
X135057835Y-59903473D01*
X135063062Y-59902979D01*
X135093954Y-59900059D01*
X135105811Y-59899500D01*
X141871033Y-59899500D01*
X141882216Y-59900027D01*
X141889709Y-59901702D01*
X141897635Y-59901453D01*
X141897636Y-59901453D01*
X141957786Y-59899562D01*
X141961745Y-59899500D01*
X141989656Y-59899500D01*
X141993591Y-59899003D01*
X141993656Y-59898995D01*
X142005493Y-59898062D01*
X142037751Y-59897048D01*
X142041770Y-59896922D01*
X142049689Y-59896673D01*
X142069143Y-59891021D01*
X142088500Y-59887013D01*
X142100730Y-59885468D01*
X142100731Y-59885468D01*
X142108597Y-59884474D01*
X142115968Y-59881555D01*
X142115970Y-59881555D01*
X142149712Y-59868196D01*
X142160942Y-59864351D01*
X142195783Y-59854229D01*
X142195784Y-59854229D01*
X142203393Y-59852018D01*
X142210212Y-59847985D01*
X142210217Y-59847983D01*
X142220828Y-59841707D01*
X142238576Y-59833012D01*
X142257417Y-59825552D01*
X142264491Y-59820413D01*
X142293187Y-59799564D01*
X142303107Y-59793048D01*
X142334335Y-59774580D01*
X142334338Y-59774578D01*
X142341162Y-59770542D01*
X142355483Y-59756221D01*
X142370517Y-59743380D01*
X142373888Y-59740931D01*
X142386907Y-59731472D01*
X142415098Y-59697395D01*
X142423088Y-59688616D01*
X146397499Y-55714205D01*
X146459811Y-55680179D01*
X146486594Y-55677300D01*
X146926453Y-55677299D01*
X146953634Y-55677299D01*
X146956492Y-55677036D01*
X146956501Y-55677036D01*
X146992004Y-55673774D01*
X147027062Y-55670553D01*
X147033441Y-55668554D01*
X147183450Y-55621544D01*
X147183452Y-55621543D01*
X147190699Y-55619272D01*
X147337381Y-55530439D01*
X147458639Y-55409181D01*
X147547472Y-55262499D01*
X147598753Y-55098862D01*
X147605500Y-55025435D01*
X147605499Y-54512166D01*
X147602782Y-54482586D01*
X147599364Y-54445392D01*
X147598753Y-54438738D01*
X147547772Y-54276058D01*
X147546487Y-54205076D01*
X147583784Y-54144665D01*
X147621617Y-54121231D01*
X147624506Y-54120087D01*
X147633319Y-54116598D01*
X147640730Y-54113929D01*
X147694175Y-54096564D01*
X147700872Y-54092314D01*
X147701131Y-54092150D01*
X147722258Y-54081385D01*
X147722546Y-54081271D01*
X147722551Y-54081268D01*
X147729917Y-54078352D01*
X147736325Y-54073696D01*
X147736331Y-54073693D01*
X147775352Y-54045342D01*
X147781889Y-54040899D01*
X147829318Y-54010800D01*
X147834959Y-54004793D01*
X147852746Y-53989112D01*
X147852991Y-53988934D01*
X147852993Y-53988932D01*
X147859407Y-53984272D01*
X147875416Y-53964921D01*
X147895203Y-53941004D01*
X147900434Y-53935070D01*
X147933458Y-53899902D01*
X147933460Y-53899899D01*
X147938886Y-53894121D01*
X147942858Y-53886897D01*
X147956181Y-53867294D01*
X147956380Y-53867054D01*
X147956384Y-53867047D01*
X147961433Y-53860944D01*
X147985347Y-53810124D01*
X147988929Y-53803092D01*
X148015995Y-53753860D01*
X148017965Y-53746185D01*
X148017968Y-53746179D01*
X148018044Y-53745881D01*
X148026076Y-53723572D01*
X148026206Y-53723297D01*
X148026209Y-53723289D01*
X148029583Y-53716118D01*
X148040106Y-53660951D01*
X148041832Y-53653229D01*
X148048768Y-53626219D01*
X148055800Y-53598830D01*
X148055800Y-53590593D01*
X148058032Y-53566984D01*
X148058090Y-53566681D01*
X148058090Y-53566677D01*
X148059575Y-53558894D01*
X148056049Y-53502849D01*
X148055800Y-53494938D01*
X148055800Y-47006967D01*
X148056327Y-46995784D01*
X148058002Y-46988291D01*
X148057405Y-46969283D01*
X148055862Y-46920214D01*
X148055800Y-46916255D01*
X148055800Y-46888344D01*
X148055295Y-46884344D01*
X148054362Y-46872501D01*
X148054127Y-46865007D01*
X148052973Y-46828311D01*
X148047321Y-46808857D01*
X148043313Y-46789500D01*
X148041768Y-46777270D01*
X148041768Y-46777269D01*
X148040774Y-46769403D01*
X148036731Y-46759192D01*
X148024496Y-46728288D01*
X148020651Y-46717058D01*
X148010529Y-46682217D01*
X148010529Y-46682216D01*
X148008318Y-46674607D01*
X148004285Y-46667788D01*
X148004283Y-46667783D01*
X147998007Y-46657172D01*
X147989312Y-46639424D01*
X147981852Y-46620583D01*
X147955864Y-46584813D01*
X147949348Y-46574893D01*
X147930880Y-46543665D01*
X147930878Y-46543662D01*
X147926842Y-46536838D01*
X147912521Y-46522517D01*
X147899680Y-46507483D01*
X147892431Y-46497506D01*
X147887772Y-46491093D01*
X147853695Y-46462902D01*
X147844916Y-46454912D01*
X145201652Y-43811647D01*
X145194112Y-43803361D01*
X145190000Y-43796882D01*
X145140348Y-43750256D01*
X145137507Y-43747502D01*
X145117770Y-43727765D01*
X145114573Y-43725285D01*
X145105551Y-43717580D01*
X145089353Y-43702369D01*
X145073321Y-43687314D01*
X145066375Y-43683495D01*
X145066372Y-43683493D01*
X145055566Y-43677552D01*
X145039047Y-43666701D01*
X145029425Y-43659238D01*
X145023041Y-43654286D01*
X145015772Y-43651141D01*
X145015768Y-43651138D01*
X144982463Y-43636726D01*
X144971813Y-43631509D01*
X144933060Y-43610205D01*
X144913437Y-43605167D01*
X144894734Y-43598763D01*
X144883420Y-43593867D01*
X144883419Y-43593867D01*
X144876145Y-43590719D01*
X144868322Y-43589480D01*
X144868312Y-43589477D01*
X144832476Y-43583801D01*
X144820856Y-43581395D01*
X144785711Y-43572372D01*
X144785710Y-43572372D01*
X144778030Y-43570400D01*
X144757776Y-43570400D01*
X144738065Y-43568849D01*
X144734631Y-43568305D01*
X144718057Y-43565680D01*
X144674769Y-43569772D01*
X144674039Y-43569841D01*
X144662181Y-43570400D01*
X107499168Y-43570400D01*
X107487985Y-43569873D01*
X107480492Y-43568198D01*
X107472566Y-43568447D01*
X107472565Y-43568447D01*
X107412402Y-43570338D01*
X107408444Y-43570400D01*
X107380544Y-43570400D01*
X107376554Y-43570904D01*
X107364720Y-43571836D01*
X107320511Y-43573226D01*
X107312895Y-43575439D01*
X107312893Y-43575439D01*
X107301052Y-43578879D01*
X107281693Y-43582888D01*
X107280383Y-43583054D01*
X107261603Y-43585426D01*
X107254237Y-43588342D01*
X107254231Y-43588344D01*
X107220498Y-43601700D01*
X107209268Y-43605545D01*
X107183360Y-43613072D01*
X107166807Y-43617881D01*
X107159984Y-43621916D01*
X107149366Y-43628195D01*
X107131613Y-43636892D01*
X107123968Y-43639919D01*
X107112783Y-43644348D01*
X107106367Y-43649009D01*
X107106366Y-43649010D01*
X107101255Y-43652723D01*
X107034386Y-43676579D01*
X106963060Y-43659238D01*
X106958502Y-43656542D01*
X106952241Y-43651686D01*
X106944971Y-43648540D01*
X106944966Y-43648537D01*
X106911663Y-43634126D01*
X106901013Y-43628909D01*
X106862260Y-43607605D01*
X106842637Y-43602567D01*
X106823934Y-43596163D01*
X106812620Y-43591267D01*
X106812619Y-43591267D01*
X106805345Y-43588119D01*
X106797522Y-43586880D01*
X106797512Y-43586877D01*
X106761676Y-43581201D01*
X106750056Y-43578795D01*
X106714911Y-43569772D01*
X106714910Y-43569772D01*
X106707230Y-43567800D01*
X106686976Y-43567800D01*
X106667265Y-43566249D01*
X106655086Y-43564320D01*
X106647257Y-43563080D01*
X106606635Y-43566920D01*
X106603239Y-43567241D01*
X106591381Y-43567800D01*
X57223067Y-43567800D01*
X57211884Y-43567273D01*
X57204391Y-43565598D01*
X57196465Y-43565847D01*
X57196464Y-43565847D01*
X57136314Y-43567738D01*
X57132355Y-43567800D01*
X57104444Y-43567800D01*
X57100510Y-43568297D01*
X57100509Y-43568297D01*
X57100444Y-43568305D01*
X57088607Y-43569238D01*
X57056790Y-43570238D01*
X57052329Y-43570378D01*
X57044410Y-43570627D01*
X57035464Y-43573226D01*
X57024958Y-43576278D01*
X57005606Y-43580286D01*
X56998535Y-43581180D01*
X56985503Y-43582826D01*
X56978134Y-43585743D01*
X56978132Y-43585744D01*
X56944397Y-43599100D01*
X56933169Y-43602945D01*
X56890707Y-43615282D01*
X56883884Y-43619317D01*
X56883882Y-43619318D01*
X56873272Y-43625593D01*
X56855524Y-43634288D01*
X56836683Y-43641748D01*
X56830267Y-43646410D01*
X56830266Y-43646410D01*
X56800913Y-43667736D01*
X56790993Y-43674252D01*
X56759765Y-43692720D01*
X56759762Y-43692722D01*
X56752938Y-43696758D01*
X56738617Y-43711079D01*
X56723584Y-43723919D01*
X56707193Y-43735828D01*
X56679002Y-43769905D01*
X56671012Y-43778684D01*
X55458347Y-44991348D01*
X55450061Y-44998888D01*
X55443582Y-45003000D01*
X55438157Y-45008777D01*
X55396957Y-45052651D01*
X55394202Y-45055493D01*
X55374465Y-45075230D01*
X55371985Y-45078427D01*
X55364282Y-45087447D01*
X55334014Y-45119679D01*
X55330195Y-45126625D01*
X55330193Y-45126628D01*
X55324252Y-45137434D01*
X55313401Y-45153953D01*
X55300986Y-45169959D01*
X55297841Y-45177228D01*
X55297838Y-45177232D01*
X55283426Y-45210537D01*
X55278209Y-45221187D01*
X55256905Y-45259940D01*
X55254934Y-45267615D01*
X55254934Y-45267616D01*
X55251867Y-45279562D01*
X55245463Y-45298266D01*
X55237419Y-45316855D01*
X55236180Y-45324678D01*
X55236177Y-45324688D01*
X55230501Y-45360524D01*
X55228095Y-45372144D01*
X55220859Y-45400328D01*
X55217100Y-45414970D01*
X55217100Y-45435224D01*
X55215549Y-45454934D01*
X55212380Y-45474943D01*
X55213126Y-45482835D01*
X55216541Y-45518961D01*
X55217100Y-45530819D01*
X55217100Y-46644533D01*
X55216573Y-46655716D01*
X55214898Y-46663209D01*
X55215147Y-46671135D01*
X55215147Y-46671136D01*
X55217038Y-46731286D01*
X55217100Y-46735245D01*
X55217100Y-46763156D01*
X55217597Y-46767090D01*
X55217597Y-46767091D01*
X55217605Y-46767156D01*
X55218538Y-46778993D01*
X55219927Y-46823189D01*
X55223716Y-46836230D01*
X55225578Y-46842639D01*
X55229587Y-46862000D01*
X55232126Y-46882097D01*
X55235045Y-46889468D01*
X55235045Y-46889470D01*
X55248404Y-46923212D01*
X55252249Y-46934442D01*
X55264582Y-46976893D01*
X55268615Y-46983712D01*
X55268617Y-46983717D01*
X55274893Y-46994328D01*
X55283588Y-47012076D01*
X55291048Y-47030917D01*
X55295710Y-47037333D01*
X55295710Y-47037334D01*
X55317036Y-47066687D01*
X55323552Y-47076607D01*
X55346058Y-47114662D01*
X55360379Y-47128983D01*
X55373219Y-47144016D01*
X55385128Y-47160407D01*
X55400729Y-47173313D01*
X55419205Y-47188598D01*
X55427984Y-47196588D01*
X56911817Y-48680421D01*
X56945843Y-48742733D01*
X56948334Y-48759629D01*
X56960422Y-48913226D01*
X56961576Y-48918033D01*
X56961577Y-48918039D01*
X56980038Y-48994934D01*
X57020445Y-49163240D01*
X57022338Y-49167811D01*
X57022339Y-49167813D01*
X57116944Y-49396209D01*
X57118840Y-49400787D01*
X57253184Y-49620016D01*
X57420169Y-49815531D01*
X57615684Y-49982516D01*
X57834913Y-50116860D01*
X57839483Y-50118753D01*
X57839487Y-50118755D01*
X58067887Y-50213361D01*
X58072460Y-50215255D01*
X58144732Y-50232606D01*
X58317661Y-50274123D01*
X58317667Y-50274124D01*
X58322474Y-50275278D01*
X58560444Y-50294006D01*
X58626784Y-50319291D01*
X58668924Y-50376429D01*
X58673483Y-50447279D01*
X58662874Y-50476723D01*
X58570605Y-50658202D01*
X58562313Y-50674512D01*
X58492689Y-50898740D01*
X58491988Y-50904029D01*
X58474662Y-51034751D01*
X58461839Y-51131493D01*
X58470648Y-51366116D01*
X58473429Y-51379369D01*
X58496594Y-51489771D01*
X58518862Y-51595901D01*
X58605102Y-51814277D01*
X58726904Y-52015000D01*
X58880785Y-52192332D01*
X58884917Y-52195720D01*
X59058216Y-52337817D01*
X59058222Y-52337821D01*
X59062344Y-52341201D01*
X59066980Y-52343840D01*
X59066983Y-52343842D01*
X59178208Y-52407155D01*
X59266390Y-52457351D01*
X59487089Y-52537461D01*
X59492338Y-52538410D01*
X59492341Y-52538411D01*
X59573415Y-52553071D01*
X59718130Y-52579240D01*
X59722269Y-52579435D01*
X59722276Y-52579436D01*
X59741240Y-52580330D01*
X59741249Y-52580330D01*
X59742729Y-52580400D01*
X59907750Y-52580400D01*
X59989099Y-52573497D01*
X60077437Y-52566002D01*
X60077441Y-52566001D01*
X60082748Y-52565551D01*
X60087903Y-52564213D01*
X60087909Y-52564212D01*
X60304835Y-52507909D01*
X60304834Y-52507909D01*
X60310006Y-52506567D01*
X60314872Y-52504375D01*
X60314875Y-52504374D01*
X60519217Y-52412324D01*
X60519220Y-52412323D01*
X60524078Y-52410134D01*
X60718841Y-52279012D01*
X60888727Y-52116949D01*
X61028878Y-51928579D01*
X61089519Y-51809308D01*
X61132869Y-51724044D01*
X61132869Y-51724043D01*
X61135287Y-51719288D01*
X61204911Y-51495060D01*
X61220245Y-51379369D01*
X61235061Y-51267590D01*
X61235061Y-51267587D01*
X61235761Y-51262307D01*
X61226952Y-51027684D01*
X61201779Y-50907711D01*
X61179835Y-50803126D01*
X61179834Y-50803123D01*
X61178738Y-50797899D01*
X61092498Y-50579523D01*
X61026023Y-50469976D01*
X60973464Y-50383361D01*
X60973462Y-50383358D01*
X60970696Y-50378800D01*
X60816815Y-50201468D01*
X60801759Y-50189123D01*
X60639384Y-50055983D01*
X60639378Y-50055979D01*
X60635256Y-50052599D01*
X60630620Y-50049960D01*
X60630617Y-50049958D01*
X60435853Y-49939092D01*
X60431210Y-49936449D01*
X60210511Y-49856339D01*
X60205262Y-49855390D01*
X60205259Y-49855389D01*
X59985240Y-49815603D01*
X59921766Y-49783799D01*
X59885563Y-49722726D01*
X59888125Y-49651776D01*
X59904450Y-49620037D01*
X59904416Y-49620016D01*
X59904693Y-49619564D01*
X60038760Y-49400787D01*
X60040657Y-49396209D01*
X60068268Y-49329549D01*
X60097410Y-49259192D01*
X60141957Y-49203913D01*
X60209320Y-49181492D01*
X60278112Y-49199050D01*
X60302913Y-49218317D01*
X61973395Y-50888799D01*
X62007421Y-50951111D01*
X62010300Y-50977894D01*
X62010300Y-57182167D01*
X61990298Y-57250288D01*
X61948122Y-57289600D01*
X61947095Y-57289985D01*
X61830539Y-57377339D01*
X61743185Y-57493895D01*
X61692055Y-57630284D01*
X61685300Y-57692466D01*
X61685300Y-58511300D01*
X61665298Y-58579421D01*
X61611642Y-58625914D01*
X61559300Y-58637300D01*
X48913895Y-58637300D01*
X48845774Y-58617298D01*
X48824800Y-58600395D01*
X48172752Y-57948347D01*
X48165212Y-57940061D01*
X48161100Y-57933582D01*
X48111448Y-57886956D01*
X48108607Y-57884202D01*
X48088870Y-57864465D01*
X48085673Y-57861985D01*
X48076651Y-57854280D01*
X48063216Y-57841664D01*
X48044421Y-57824014D01*
X48037475Y-57820195D01*
X48037472Y-57820193D01*
X48026666Y-57814252D01*
X48010147Y-57803401D01*
X48009683Y-57803041D01*
X47994141Y-57790986D01*
X47986872Y-57787841D01*
X47986868Y-57787838D01*
X47953563Y-57773426D01*
X47942913Y-57768209D01*
X47912773Y-57751640D01*
X47862715Y-57701295D01*
X47848212Y-57654834D01*
X47847181Y-57645345D01*
X47845545Y-57630284D01*
X47794415Y-57493895D01*
X47707061Y-57377339D01*
X47590505Y-57289985D01*
X47454116Y-57238855D01*
X47391934Y-57232100D01*
X46395666Y-57232100D01*
X46333484Y-57238855D01*
X46197095Y-57289985D01*
X46080539Y-57377339D01*
X45993185Y-57493895D01*
X45942055Y-57630284D01*
X45935300Y-57692466D01*
X45935300Y-58988734D01*
X44552300Y-58988734D01*
X44552300Y-57692466D01*
X44545545Y-57630284D01*
X44494415Y-57493895D01*
X44407061Y-57377339D01*
X44290505Y-57289985D01*
X44289849Y-57289739D01*
X44242643Y-57242425D01*
X44227300Y-57182167D01*
X44227300Y-51131493D01*
X48301839Y-51131493D01*
X48310648Y-51366116D01*
X48313429Y-51379369D01*
X48336594Y-51489771D01*
X48358862Y-51595901D01*
X48445102Y-51814277D01*
X48566904Y-52015000D01*
X48720785Y-52192332D01*
X48724917Y-52195720D01*
X48898216Y-52337817D01*
X48898222Y-52337821D01*
X48902344Y-52341201D01*
X48906980Y-52343840D01*
X48906983Y-52343842D01*
X49018208Y-52407155D01*
X49106390Y-52457351D01*
X49327089Y-52537461D01*
X49332338Y-52538410D01*
X49332341Y-52538411D01*
X49413415Y-52553071D01*
X49558130Y-52579240D01*
X49562269Y-52579435D01*
X49562276Y-52579436D01*
X49581240Y-52580330D01*
X49581249Y-52580330D01*
X49582729Y-52580400D01*
X49747750Y-52580400D01*
X49829099Y-52573497D01*
X49917437Y-52566002D01*
X49917441Y-52566001D01*
X49922748Y-52565551D01*
X49927903Y-52564213D01*
X49927909Y-52564212D01*
X50144835Y-52507909D01*
X50144834Y-52507909D01*
X50150006Y-52506567D01*
X50154872Y-52504375D01*
X50154875Y-52504374D01*
X50359217Y-52412324D01*
X50359220Y-52412323D01*
X50364078Y-52410134D01*
X50558841Y-52279012D01*
X50728727Y-52116949D01*
X50868878Y-51928579D01*
X50929519Y-51809308D01*
X50972869Y-51724044D01*
X50972869Y-51724043D01*
X50975287Y-51719288D01*
X51044911Y-51495060D01*
X51060245Y-51379369D01*
X51063563Y-51354338D01*
X52266400Y-51354338D01*
X52305864Y-51666730D01*
X52384170Y-51971713D01*
X52500084Y-52264477D01*
X52501986Y-52267936D01*
X52501987Y-52267939D01*
X52633912Y-52507909D01*
X52651776Y-52540404D01*
X52836855Y-52795144D01*
X53052402Y-53024678D01*
X53295018Y-53225387D01*
X53560876Y-53394106D01*
X53564455Y-53395790D01*
X53564462Y-53395794D01*
X53842194Y-53526484D01*
X53842198Y-53526486D01*
X53845784Y-53528173D01*
X54145248Y-53625475D01*
X54454546Y-53684477D01*
X54548100Y-53690363D01*
X54688158Y-53699175D01*
X54688174Y-53699176D01*
X54690153Y-53699300D01*
X54847447Y-53699300D01*
X54849426Y-53699176D01*
X54849442Y-53699175D01*
X54989500Y-53690363D01*
X55083054Y-53684477D01*
X55392352Y-53625475D01*
X55691816Y-53528173D01*
X55695402Y-53526486D01*
X55695406Y-53526484D01*
X55973138Y-53395794D01*
X55973145Y-53395790D01*
X55976724Y-53394106D01*
X56242582Y-53225387D01*
X56485198Y-53024678D01*
X56700745Y-52795144D01*
X56885824Y-52540404D01*
X56903689Y-52507909D01*
X57035613Y-52267939D01*
X57035614Y-52267936D01*
X57037516Y-52264477D01*
X57153430Y-51971713D01*
X57231736Y-51666730D01*
X57271200Y-51354338D01*
X57271200Y-51039462D01*
X57231736Y-50727070D01*
X57153430Y-50422087D01*
X57145970Y-50403244D01*
X57097833Y-50281665D01*
X57037516Y-50129323D01*
X57031549Y-50118469D01*
X56887733Y-49856868D01*
X56887731Y-49856865D01*
X56885824Y-49853396D01*
X56715936Y-49619564D01*
X56703073Y-49601860D01*
X56703072Y-49601858D01*
X56700745Y-49598656D01*
X56485198Y-49369122D01*
X56242582Y-49168413D01*
X56038643Y-49038989D01*
X55980071Y-49001818D01*
X55980070Y-49001818D01*
X55976724Y-48999694D01*
X55973145Y-48998010D01*
X55973138Y-48998006D01*
X55695406Y-48867316D01*
X55695402Y-48867314D01*
X55691816Y-48865627D01*
X55392352Y-48768325D01*
X55083054Y-48709323D01*
X54989500Y-48703437D01*
X54849442Y-48694625D01*
X54849426Y-48694624D01*
X54847447Y-48694500D01*
X54690153Y-48694500D01*
X54688174Y-48694624D01*
X54688158Y-48694625D01*
X54548100Y-48703437D01*
X54454546Y-48709323D01*
X54145248Y-48768325D01*
X53845784Y-48865627D01*
X53842198Y-48867314D01*
X53842194Y-48867316D01*
X53564462Y-48998006D01*
X53564455Y-48998010D01*
X53560876Y-48999694D01*
X53557530Y-49001818D01*
X53557529Y-49001818D01*
X53498957Y-49038989D01*
X53295018Y-49168413D01*
X53052402Y-49369122D01*
X52836855Y-49598656D01*
X52834528Y-49601858D01*
X52834527Y-49601860D01*
X52821664Y-49619564D01*
X52651776Y-49853396D01*
X52649869Y-49856865D01*
X52649867Y-49856868D01*
X52506051Y-50118469D01*
X52500084Y-50129323D01*
X52439767Y-50281665D01*
X52391631Y-50403244D01*
X52384170Y-50422087D01*
X52305864Y-50727070D01*
X52266400Y-51039462D01*
X52266400Y-51354338D01*
X51063563Y-51354338D01*
X51075061Y-51267590D01*
X51075061Y-51267587D01*
X51075761Y-51262307D01*
X51066952Y-51027684D01*
X51041779Y-50907711D01*
X51019835Y-50803126D01*
X51019834Y-50803123D01*
X51018738Y-50797899D01*
X50932498Y-50579523D01*
X50929728Y-50574959D01*
X50929726Y-50574954D01*
X50875322Y-50485298D01*
X50857083Y-50416684D01*
X50878835Y-50349102D01*
X50933671Y-50304008D01*
X50973153Y-50294321D01*
X51215126Y-50275278D01*
X51219933Y-50274124D01*
X51219939Y-50274123D01*
X51392868Y-50232606D01*
X51465140Y-50215255D01*
X51469713Y-50213361D01*
X51698113Y-50118755D01*
X51698117Y-50118753D01*
X51702687Y-50116860D01*
X51921916Y-49982516D01*
X52117431Y-49815531D01*
X52284416Y-49620016D01*
X52418760Y-49400787D01*
X52420657Y-49396209D01*
X52515261Y-49167813D01*
X52515262Y-49167811D01*
X52517155Y-49163240D01*
X52557562Y-48994934D01*
X52576023Y-48918039D01*
X52576024Y-48918033D01*
X52577178Y-48913226D01*
X52597351Y-48656900D01*
X52577178Y-48400574D01*
X52517155Y-48150560D01*
X52418760Y-47913013D01*
X52417359Y-47910726D01*
X52404373Y-47841569D01*
X52431076Y-47775785D01*
X52489104Y-47734881D01*
X52500330Y-47731628D01*
X52657961Y-47693784D01*
X52735140Y-47675255D01*
X52739713Y-47673361D01*
X52968113Y-47578755D01*
X52968117Y-47578753D01*
X52972687Y-47576860D01*
X53191916Y-47442516D01*
X53387431Y-47275531D01*
X53554416Y-47080016D01*
X53688760Y-46860787D01*
X53696278Y-46842639D01*
X53785261Y-46627813D01*
X53785262Y-46627811D01*
X53787155Y-46623240D01*
X53832984Y-46432349D01*
X53846023Y-46378039D01*
X53846024Y-46378033D01*
X53847178Y-46373226D01*
X53867351Y-46116900D01*
X53847178Y-45860574D01*
X53841369Y-45836374D01*
X53788310Y-45615372D01*
X53787155Y-45610560D01*
X53785261Y-45605987D01*
X53690655Y-45377587D01*
X53690653Y-45377583D01*
X53688760Y-45373013D01*
X53554416Y-45153784D01*
X53387431Y-44958269D01*
X53191916Y-44791284D01*
X52972687Y-44656940D01*
X52968117Y-44655047D01*
X52968113Y-44655045D01*
X52739713Y-44560439D01*
X52739711Y-44560438D01*
X52735140Y-44558545D01*
X52648298Y-44537696D01*
X52489939Y-44499677D01*
X52489933Y-44499676D01*
X52485126Y-44498522D01*
X52228800Y-44478349D01*
X51972474Y-44498522D01*
X51967667Y-44499676D01*
X51967661Y-44499677D01*
X51809302Y-44537696D01*
X51722460Y-44558545D01*
X51717889Y-44560438D01*
X51717887Y-44560439D01*
X51489487Y-44655045D01*
X51489483Y-44655047D01*
X51484913Y-44656940D01*
X51265684Y-44791284D01*
X51070169Y-44958269D01*
X50903184Y-45153784D01*
X50768840Y-45373013D01*
X50766947Y-45377583D01*
X50766945Y-45377587D01*
X50672339Y-45605987D01*
X50670445Y-45610560D01*
X50669290Y-45615372D01*
X50616232Y-45836374D01*
X50610422Y-45860574D01*
X50590249Y-46116900D01*
X50610422Y-46373226D01*
X50611576Y-46378033D01*
X50611577Y-46378039D01*
X50624616Y-46432349D01*
X50670445Y-46623240D01*
X50672338Y-46627811D01*
X50672339Y-46627813D01*
X50675884Y-46636372D01*
X50768840Y-46860787D01*
X50770241Y-46863074D01*
X50783227Y-46932231D01*
X50756524Y-46998015D01*
X50698496Y-47038919D01*
X50687270Y-47042172D01*
X50601176Y-47062841D01*
X50452460Y-47098545D01*
X50447889Y-47100438D01*
X50447887Y-47100439D01*
X50219487Y-47195045D01*
X50219483Y-47195047D01*
X50214913Y-47196940D01*
X49995684Y-47331284D01*
X49800169Y-47498269D01*
X49633184Y-47693784D01*
X49498840Y-47913013D01*
X49496947Y-47917583D01*
X49496945Y-47917587D01*
X49458622Y-48010107D01*
X49400445Y-48150560D01*
X49340422Y-48400574D01*
X49320249Y-48656900D01*
X49340422Y-48913226D01*
X49341576Y-48918033D01*
X49341577Y-48918039D01*
X49360038Y-48994934D01*
X49400445Y-49163240D01*
X49402338Y-49167811D01*
X49402339Y-49167813D01*
X49496944Y-49396209D01*
X49498840Y-49400787D01*
X49633184Y-49620016D01*
X49634719Y-49621814D01*
X49658341Y-49687998D01*
X49642267Y-49757151D01*
X49591358Y-49806636D01*
X49543201Y-49820752D01*
X49460163Y-49827798D01*
X49460159Y-49827799D01*
X49454852Y-49828249D01*
X49449697Y-49829587D01*
X49449691Y-49829588D01*
X49316002Y-49864287D01*
X49227594Y-49887233D01*
X49222728Y-49889425D01*
X49222725Y-49889426D01*
X49018383Y-49981476D01*
X49018380Y-49981477D01*
X49013522Y-49983666D01*
X48818759Y-50114788D01*
X48814902Y-50118467D01*
X48814900Y-50118469D01*
X48777023Y-50154602D01*
X48648873Y-50276851D01*
X48645691Y-50281128D01*
X48645690Y-50281129D01*
X48620408Y-50315110D01*
X48508722Y-50465221D01*
X48506306Y-50469972D01*
X48506304Y-50469976D01*
X48410605Y-50658202D01*
X48402313Y-50674512D01*
X48332689Y-50898740D01*
X48331988Y-50904029D01*
X48314662Y-51034751D01*
X48301839Y-51131493D01*
X44227300Y-51131493D01*
X44227300Y-50736967D01*
X44227827Y-50725784D01*
X44229502Y-50718291D01*
X44227362Y-50650214D01*
X44227300Y-50646255D01*
X44227300Y-50618344D01*
X44226795Y-50614344D01*
X44225862Y-50602501D01*
X44225773Y-50599648D01*
X44224473Y-50558311D01*
X44218821Y-50538857D01*
X44214813Y-50519500D01*
X44213268Y-50507270D01*
X44213268Y-50507269D01*
X44212274Y-50499403D01*
X44208960Y-50491033D01*
X44195996Y-50458288D01*
X44192151Y-50447058D01*
X44182029Y-50412217D01*
X44182029Y-50412216D01*
X44179818Y-50404607D01*
X44175785Y-50397788D01*
X44175783Y-50397783D01*
X44169507Y-50387172D01*
X44160812Y-50369424D01*
X44153352Y-50350583D01*
X44139207Y-50331113D01*
X44127364Y-50314813D01*
X44120848Y-50304893D01*
X44102380Y-50273665D01*
X44102378Y-50273662D01*
X44098342Y-50266838D01*
X44084021Y-50252517D01*
X44071180Y-50237483D01*
X44063931Y-50227506D01*
X44059272Y-50221093D01*
X44025195Y-50192902D01*
X44016416Y-50184912D01*
X39925860Y-46094355D01*
X39891834Y-46032043D01*
X39889343Y-46015146D01*
X39877566Y-45865508D01*
X39877566Y-45865507D01*
X39877178Y-45860574D01*
X39871369Y-45836374D01*
X39818310Y-45615372D01*
X39817155Y-45610560D01*
X39815261Y-45605987D01*
X39720655Y-45377587D01*
X39720653Y-45377583D01*
X39718760Y-45373013D01*
X39584416Y-45153784D01*
X39417431Y-44958269D01*
X39221916Y-44791284D01*
X39002687Y-44656940D01*
X38998117Y-44655047D01*
X38998113Y-44655045D01*
X38769713Y-44560439D01*
X38769711Y-44560438D01*
X38765140Y-44558545D01*
X38678298Y-44537696D01*
X38519939Y-44499677D01*
X38519933Y-44499676D01*
X38515126Y-44498522D01*
X38258800Y-44478349D01*
X38002474Y-44498522D01*
X37997667Y-44499676D01*
X37997661Y-44499677D01*
X37839302Y-44537696D01*
X37752460Y-44558545D01*
X37747889Y-44560438D01*
X37747887Y-44560439D01*
X37519487Y-44655045D01*
X37519483Y-44655047D01*
X37514913Y-44656940D01*
X37295684Y-44791284D01*
X37100169Y-44958269D01*
X36933184Y-45153784D01*
X36798840Y-45373013D01*
X36796947Y-45377583D01*
X36796945Y-45377587D01*
X36702339Y-45605987D01*
X36700445Y-45610560D01*
X36699290Y-45615372D01*
X36646232Y-45836374D01*
X36640422Y-45860574D01*
X36620249Y-46116900D01*
X34817351Y-46116900D01*
X34797178Y-45860574D01*
X34791369Y-45836374D01*
X34738310Y-45615372D01*
X34737155Y-45610560D01*
X34735261Y-45605987D01*
X34640655Y-45377587D01*
X34640653Y-45377583D01*
X34638760Y-45373013D01*
X34504416Y-45153784D01*
X34337431Y-44958269D01*
X34141916Y-44791284D01*
X33922687Y-44656940D01*
X33918117Y-44655047D01*
X33918113Y-44655045D01*
X33689713Y-44560439D01*
X33689711Y-44560438D01*
X33685140Y-44558545D01*
X33598298Y-44537696D01*
X33439939Y-44499677D01*
X33439933Y-44499676D01*
X33435126Y-44498522D01*
X33178800Y-44478349D01*
X32922474Y-44498522D01*
X32917667Y-44499676D01*
X32917661Y-44499677D01*
X32759302Y-44537696D01*
X32672460Y-44558545D01*
X32667889Y-44560438D01*
X32667887Y-44560439D01*
X32439487Y-44655045D01*
X32439483Y-44655047D01*
X32434913Y-44656940D01*
X32215684Y-44791284D01*
X32020169Y-44958269D01*
X31853184Y-45153784D01*
X31718840Y-45373013D01*
X31716947Y-45377583D01*
X31716945Y-45377587D01*
X31622339Y-45605987D01*
X31620445Y-45610560D01*
X31619290Y-45615372D01*
X31566232Y-45836374D01*
X31560422Y-45860574D01*
X31540249Y-46116900D01*
X31560422Y-46373226D01*
X31561576Y-46378033D01*
X31561577Y-46378039D01*
X31574616Y-46432349D01*
X31620445Y-46623240D01*
X31622338Y-46627811D01*
X31622339Y-46627813D01*
X31625884Y-46636372D01*
X31718840Y-46860787D01*
X31720241Y-46863074D01*
X31733227Y-46932231D01*
X31706524Y-46998015D01*
X31648496Y-47038919D01*
X31637270Y-47042172D01*
X31551176Y-47062841D01*
X31402460Y-47098545D01*
X31397889Y-47100438D01*
X31397887Y-47100439D01*
X31169487Y-47195045D01*
X31169483Y-47195047D01*
X31164913Y-47196940D01*
X30945684Y-47331284D01*
X30750169Y-47498269D01*
X30583184Y-47693784D01*
X30448840Y-47913013D01*
X30446947Y-47917583D01*
X30446945Y-47917587D01*
X30408622Y-48010107D01*
X30350445Y-48150560D01*
X30290422Y-48400574D01*
X30270249Y-48656900D01*
X30290422Y-48913226D01*
X30291576Y-48918033D01*
X30291577Y-48918039D01*
X30310038Y-48994934D01*
X30350445Y-49163240D01*
X30352338Y-49167811D01*
X30352339Y-49167813D01*
X30446944Y-49396209D01*
X30448840Y-49400787D01*
X30583184Y-49620016D01*
X30584719Y-49621814D01*
X30608341Y-49687998D01*
X30592267Y-49757151D01*
X30541358Y-49806636D01*
X30493201Y-49820752D01*
X30410163Y-49827798D01*
X30410159Y-49827799D01*
X30404852Y-49828249D01*
X30399697Y-49829587D01*
X30399691Y-49829588D01*
X30266002Y-49864287D01*
X30177594Y-49887233D01*
X30172728Y-49889425D01*
X30172725Y-49889426D01*
X29968383Y-49981476D01*
X29968380Y-49981477D01*
X29963522Y-49983666D01*
X29768759Y-50114788D01*
X29764902Y-50118467D01*
X29764900Y-50118469D01*
X29727023Y-50154602D01*
X29598873Y-50276851D01*
X29595691Y-50281128D01*
X29595690Y-50281129D01*
X29570408Y-50315110D01*
X29458722Y-50465221D01*
X29456306Y-50469972D01*
X29456304Y-50469976D01*
X29360605Y-50658202D01*
X29352313Y-50674512D01*
X29282689Y-50898740D01*
X29281988Y-50904029D01*
X29264662Y-51034751D01*
X29251839Y-51131493D01*
X24320500Y-51131493D01*
X24320500Y-42915707D01*
X24322246Y-42894803D01*
X24324764Y-42879835D01*
X24325571Y-42875039D01*
X24325724Y-42862500D01*
X24325035Y-42857687D01*
X24324718Y-42852828D01*
X24325006Y-42852809D01*
X24324605Y-42826070D01*
X24336026Y-42724706D01*
X24342302Y-42697206D01*
X24383415Y-42579711D01*
X24395654Y-42554299D01*
X24461875Y-42448909D01*
X24479467Y-42426850D01*
X24567475Y-42338842D01*
X24589534Y-42321250D01*
X24694924Y-42255029D01*
X24720336Y-42242790D01*
X24837831Y-42201677D01*
X24865331Y-42195401D01*
X24904848Y-42190948D01*
X24963383Y-42184353D01*
X24979025Y-42183570D01*
X24987981Y-42183679D01*
X24996855Y-42185061D01*
X25028377Y-42180939D01*
X25044714Y-42179875D01*
X147588172Y-42179875D01*
X147607557Y-42181375D01*
G37*
%TD.AperFunction*%
M02*
