%TF.GenerationSoftware,KiCad,Pcbnew,(6.0.2)*%
%TF.CreationDate,2022-03-15T14:51:58+03:00*%
%TF.ProjectId,kinesis-top-pcb,6b696e65-7369-4732-9d74-6f702d706362,rev?*%
%TF.SameCoordinates,Original*%
%TF.FileFunction,Soldermask,Bot*%
%TF.FilePolarity,Negative*%
%FSLAX46Y46*%
G04 Gerber Fmt 4.6, Leading zero omitted, Abs format (unit mm)*
G04 Created by KiCad (PCBNEW (6.0.2)) date 2022-03-15 14:51:58*
%MOMM*%
%LPD*%
G01*
G04 APERTURE LIST*
G04 Aperture macros list*
%AMRoundRect*
0 Rectangle with rounded corners*
0 $1 Rounding radius*
0 $2 $3 $4 $5 $6 $7 $8 $9 X,Y pos of 4 corners*
0 Add a 4 corners polygon primitive as box body*
4,1,4,$2,$3,$4,$5,$6,$7,$8,$9,$2,$3,0*
0 Add four circle primitives for the rounded corners*
1,1,$1+$1,$2,$3*
1,1,$1+$1,$4,$5*
1,1,$1+$1,$6,$7*
1,1,$1+$1,$8,$9*
0 Add four rect primitives between the rounded corners*
20,1,$1+$1,$2,$3,$4,$5,0*
20,1,$1+$1,$4,$5,$6,$7,0*
20,1,$1+$1,$6,$7,$8,$9,0*
20,1,$1+$1,$8,$9,$2,$3,0*%
G04 Aperture macros list end*
%ADD10RoundRect,0.200000X0.450000X-0.200000X0.450000X0.200000X-0.450000X0.200000X-0.450000X-0.200000X0*%
%ADD11O,1.300000X0.800000*%
%ADD12C,1.750000*%
%ADD13C,3.987800*%
%ADD14C,2.250000*%
%ADD15R,0.900000X1.200000*%
G04 APERTURE END LIST*
D10*
%TO.C,J1*%
X146447000Y-54768800D03*
D11*
X146447000Y-53518800D03*
X146447000Y-52268800D03*
X146447000Y-51018800D03*
X146447000Y-49768800D03*
X146447000Y-48518800D03*
X146447000Y-47268800D03*
%TD*%
D12*
%TO.C,K2*%
X59848800Y-51196900D03*
X49688800Y-51196900D03*
D13*
X54768800Y-51196900D03*
D14*
X50958800Y-48656900D03*
X57308800Y-46116900D03*
%TD*%
D13*
%TO.C,K3*%
X73818800Y-51196900D03*
D12*
X68738800Y-51196900D03*
X78898800Y-51196900D03*
D14*
X70008800Y-48656900D03*
X76358800Y-46116900D03*
%TD*%
D12*
%TO.C,K4*%
X87788800Y-51196900D03*
X97948800Y-51196900D03*
D13*
X92868800Y-51196900D03*
D14*
X89058800Y-48656900D03*
X95408800Y-46116900D03*
%TD*%
D13*
%TO.C,K5*%
X111919000Y-51196900D03*
D12*
X116999000Y-51196900D03*
X106839000Y-51196900D03*
D14*
X108109000Y-48656900D03*
X114459000Y-46116900D03*
%TD*%
D13*
%TO.C,K6*%
X130969000Y-51196900D03*
D12*
X125889000Y-51196900D03*
X136049000Y-51196900D03*
D14*
X127159000Y-48656900D03*
X133509000Y-46116900D03*
%TD*%
D13*
%TO.C,K1*%
X35718800Y-51196900D03*
D12*
X40798800Y-51196900D03*
X30638800Y-51196900D03*
D14*
X31908800Y-48656900D03*
X38258800Y-46116900D03*
%TD*%
D15*
%TO.C,D1*%
X46893800Y-58340600D03*
X43593800Y-58340600D03*
%TD*%
%TO.C,D2*%
X65943800Y-58340600D03*
X62643800Y-58340600D03*
%TD*%
%TO.C,D4*%
X104044000Y-58340600D03*
X100744000Y-58340600D03*
%TD*%
%TO.C,D6*%
X139762000Y-58340600D03*
X136462000Y-58340600D03*
%TD*%
%TO.C,D5*%
X123094000Y-58340600D03*
X119794000Y-58340600D03*
%TD*%
%TO.C,D3*%
X84993800Y-58340600D03*
X81693800Y-58340600D03*
%TD*%
M02*
