M48
; DRILL file {KiCad (6.0.2)} date Tue Mar 15 14:52:00 2022
; FORMAT={-:-/ absolute / inch / decimal}
; #@! TF.CreationDate,2022-03-15T14:52:00+03:00
; #@! TF.GenerationSoftware,Kicad,Pcbnew,(6.0.2)
; #@! TF.FileFunction,Plated,1,2,PTH
FMAT,2
INCH
; #@! TA.AperFunction,Plated,PTH,ViaDrill
T1C0.0157
; #@! TA.AperFunction,Plated,PTH,ComponentDrill
T2C0.0197
; #@! TA.AperFunction,Plated,PTH,ComponentDrill
T3C0.0579
%
G90
G05
T1
X4.1413Y-2.296
X4.6647Y-2.2857
X5.2446Y-2.2163
T2
X5.7656Y-1.861
X5.7656Y-1.9102
X5.7656Y-1.9594
X5.7656Y-2.0086
X5.7656Y-2.0578
X5.7656Y-2.107
X5.7656Y-2.1563
T3
X1.2563Y-1.9156
X1.3063Y-1.8156
X1.5063Y-1.8156
X1.5563Y-1.9156
X2.0063Y-1.9156
X2.0563Y-1.8156
X2.2563Y-1.8156
X2.3063Y-1.9156
X2.7563Y-1.9156
X2.8063Y-1.8156
X3.0063Y-1.8156
X3.0563Y-1.9156
X3.5063Y-1.9156
X3.5563Y-1.8156
X3.7563Y-1.8156
X3.8063Y-1.9156
X4.2563Y-1.9156
X4.3063Y-1.8156
X4.5063Y-1.8156
X4.5563Y-1.9156
X5.0063Y-1.9156
X5.0563Y-1.8156
X5.2563Y-1.8156
X5.3063Y-1.9156
T0
M30
