G04 #@! TF.GenerationSoftware,KiCad,Pcbnew,(6.0.2)*
G04 #@! TF.CreationDate,2022-03-15T14:21:33+03:00*
G04 #@! TF.ProjectId,kinesis-top-plate,6b696e65-7369-4732-9d74-6f702d706c61,rev?*
G04 #@! TF.SameCoordinates,Original*
G04 #@! TF.FileFunction,Soldermask,Top*
G04 #@! TF.FilePolarity,Negative*
%FSLAX46Y46*%
G04 Gerber Fmt 4.6, Leading zero omitted, Abs format (unit mm)*
G04 Created by KiCad (PCBNEW (6.0.2)) date 2022-03-15 14:21:33*
%MOMM*%
%LPD*%
G01*
G04 APERTURE LIST*
%ADD10O,15.697600X0.610000*%
%ADD11O,0.610000X4.674000*%
%ADD12O,0.610000X5.944000*%
%ADD13O,5.182000X1.372000*%
%ADD14O,1.435500X0.610000*%
%ADD15C,2.302000*%
G04 APERTURE END LIST*
D10*
X138906250Y-87296625D03*
X138906250Y-73834625D03*
D11*
X146462750Y-85264625D03*
X131349750Y-85264625D03*
X131349750Y-75866625D03*
X146462750Y-75866625D03*
D12*
X132175250Y-80565625D03*
X145637250Y-80565625D03*
D13*
X138906250Y-87550625D03*
X138906250Y-73580625D03*
D14*
X146050000Y-83232625D03*
X131762500Y-83232625D03*
X146050000Y-77898625D03*
X131762500Y-77898625D03*
X112712500Y-77898625D03*
X127000000Y-77898625D03*
X112712500Y-83232625D03*
X127000000Y-83232625D03*
D13*
X119856250Y-73580625D03*
X119856250Y-87550625D03*
D12*
X126587250Y-80565625D03*
X113125250Y-80565625D03*
D11*
X127412750Y-75866625D03*
X112299750Y-75866625D03*
X112299750Y-85264625D03*
X127412750Y-85264625D03*
D10*
X119856250Y-73834625D03*
X119856250Y-87296625D03*
X100806250Y-87296625D03*
X100806250Y-73834625D03*
D11*
X108362750Y-85264625D03*
X93249750Y-85264625D03*
X93249750Y-75866625D03*
X108362750Y-75866625D03*
D12*
X94075250Y-80565625D03*
X107537250Y-80565625D03*
D13*
X100806250Y-87550625D03*
X100806250Y-73580625D03*
D14*
X107950000Y-83232625D03*
X93662500Y-83232625D03*
X107950000Y-77898625D03*
X93662500Y-77898625D03*
X74612500Y-77898625D03*
X88900000Y-77898625D03*
X74612500Y-83232625D03*
X88900000Y-83232625D03*
D13*
X81756250Y-73580625D03*
X81756250Y-87550625D03*
D12*
X88487250Y-80565625D03*
X75025250Y-80565625D03*
D11*
X89312750Y-75866625D03*
X74199750Y-75866625D03*
X74199750Y-85264625D03*
X89312750Y-85264625D03*
D10*
X81756250Y-73834625D03*
X81756250Y-87296625D03*
X62706250Y-87296625D03*
X62706250Y-73834625D03*
D11*
X70262750Y-85264625D03*
X55149750Y-85264625D03*
X55149750Y-75866625D03*
X70262750Y-75866625D03*
D12*
X55975250Y-80565625D03*
X69437250Y-80565625D03*
D13*
X62706250Y-87550625D03*
X62706250Y-73580625D03*
D14*
X69850000Y-83232625D03*
X55562500Y-83232625D03*
X69850000Y-77898625D03*
X55562500Y-77898625D03*
X50800000Y-83232625D03*
X36512500Y-83232625D03*
X50800000Y-77898625D03*
X36512500Y-77898625D03*
D13*
X43656250Y-87550625D03*
X43656250Y-73580625D03*
D12*
X36925250Y-80565625D03*
X50387250Y-80565625D03*
D11*
X36099750Y-85264625D03*
X51212750Y-85264625D03*
X51212750Y-75866625D03*
X36099750Y-75866625D03*
D10*
X43656250Y-87296625D03*
X43656250Y-73834625D03*
D15*
X28000000Y-89000000D03*
X28000000Y-72000000D03*
G36*
X60413385Y-74137989D02*
G01*
X60440338Y-74156932D01*
X60441180Y-74158746D01*
X60440030Y-74160382D01*
X60438623Y-74160487D01*
X60374535Y-74141625D01*
X55580036Y-74141625D01*
X55513297Y-74161221D01*
X55467891Y-74213624D01*
X55456704Y-74265049D01*
X55455359Y-74266529D01*
X55453405Y-74266104D01*
X55452750Y-74264624D01*
X55452750Y-74139625D01*
X55453750Y-74137893D01*
X55454750Y-74137625D01*
X60412235Y-74137625D01*
X60413385Y-74137989D01*
G37*
G36*
X117563385Y-74137989D02*
G01*
X117590338Y-74156932D01*
X117591180Y-74158746D01*
X117590030Y-74160382D01*
X117588623Y-74160487D01*
X117524535Y-74141625D01*
X112730036Y-74141625D01*
X112663297Y-74161221D01*
X112617891Y-74213624D01*
X112606704Y-74265049D01*
X112605359Y-74266529D01*
X112603405Y-74266104D01*
X112602750Y-74264624D01*
X112602750Y-74139625D01*
X112603750Y-74137893D01*
X112604750Y-74137625D01*
X117562235Y-74137625D01*
X117563385Y-74137989D01*
G37*
G36*
X79463385Y-74137989D02*
G01*
X79490338Y-74156932D01*
X79491180Y-74158746D01*
X79490030Y-74160382D01*
X79488623Y-74160487D01*
X79424535Y-74141625D01*
X74630036Y-74141625D01*
X74563297Y-74161221D01*
X74517891Y-74213624D01*
X74506704Y-74265049D01*
X74505359Y-74266529D01*
X74503405Y-74266104D01*
X74502750Y-74264624D01*
X74502750Y-74139625D01*
X74503750Y-74137893D01*
X74504750Y-74137625D01*
X79462235Y-74137625D01*
X79463385Y-74137989D01*
G37*
G36*
X98513385Y-74137989D02*
G01*
X98540338Y-74156932D01*
X98541180Y-74158746D01*
X98540030Y-74160382D01*
X98538623Y-74160487D01*
X98474535Y-74141625D01*
X93680036Y-74141625D01*
X93613297Y-74161221D01*
X93567891Y-74213624D01*
X93556704Y-74265049D01*
X93555359Y-74266529D01*
X93553405Y-74266104D01*
X93552750Y-74264624D01*
X93552750Y-74139625D01*
X93553750Y-74137893D01*
X93554750Y-74137625D01*
X98512235Y-74137625D01*
X98513385Y-74137989D01*
G37*
G36*
X41363385Y-74137989D02*
G01*
X41390338Y-74156932D01*
X41391180Y-74158746D01*
X41390030Y-74160382D01*
X41388623Y-74160487D01*
X41324535Y-74141625D01*
X36530036Y-74141625D01*
X36463297Y-74161221D01*
X36417891Y-74213624D01*
X36406704Y-74265049D01*
X36405359Y-74266529D01*
X36403405Y-74266104D01*
X36402750Y-74264624D01*
X36402750Y-74139625D01*
X36403750Y-74137893D01*
X36404750Y-74137625D01*
X41362235Y-74137625D01*
X41363385Y-74137989D01*
G37*
G36*
X136613385Y-74137989D02*
G01*
X136640338Y-74156932D01*
X136641180Y-74158746D01*
X136640030Y-74160382D01*
X136638623Y-74160487D01*
X136574535Y-74141625D01*
X131780036Y-74141625D01*
X131713297Y-74161221D01*
X131667891Y-74213624D01*
X131656704Y-74265049D01*
X131655359Y-74266529D01*
X131653405Y-74266104D01*
X131652750Y-74264624D01*
X131652750Y-74139625D01*
X131653750Y-74137893D01*
X131654750Y-74137625D01*
X136612235Y-74137625D01*
X136613385Y-74137989D01*
G37*
G36*
X108059482Y-74138625D02*
G01*
X108059750Y-74139625D01*
X108059750Y-74264624D01*
X108058750Y-74266356D01*
X108056750Y-74266356D01*
X108055831Y-74265187D01*
X108036154Y-74198172D01*
X107983751Y-74152766D01*
X107932537Y-74141625D01*
X103137787Y-74141625D01*
X103074169Y-74159868D01*
X103072229Y-74159384D01*
X103071677Y-74157461D01*
X103072485Y-74156297D01*
X103099140Y-74137977D01*
X103100273Y-74137625D01*
X108057750Y-74137625D01*
X108059482Y-74138625D01*
G37*
G36*
X50909482Y-74138625D02*
G01*
X50909750Y-74139625D01*
X50909750Y-74264624D01*
X50908750Y-74266356D01*
X50906750Y-74266356D01*
X50905831Y-74265187D01*
X50886154Y-74198172D01*
X50833751Y-74152766D01*
X50782537Y-74141625D01*
X45987787Y-74141625D01*
X45924169Y-74159868D01*
X45922229Y-74159384D01*
X45921677Y-74157461D01*
X45922485Y-74156297D01*
X45949140Y-74137977D01*
X45950273Y-74137625D01*
X50907750Y-74137625D01*
X50909482Y-74138625D01*
G37*
G36*
X127109482Y-74138625D02*
G01*
X127109750Y-74139625D01*
X127109750Y-74264624D01*
X127108750Y-74266356D01*
X127106750Y-74266356D01*
X127105831Y-74265187D01*
X127086154Y-74198172D01*
X127033751Y-74152766D01*
X126982537Y-74141625D01*
X122187787Y-74141625D01*
X122124169Y-74159868D01*
X122122229Y-74159384D01*
X122121677Y-74157461D01*
X122122485Y-74156297D01*
X122149140Y-74137977D01*
X122150273Y-74137625D01*
X127107750Y-74137625D01*
X127109482Y-74138625D01*
G37*
G36*
X146159482Y-74138625D02*
G01*
X146159750Y-74139625D01*
X146159750Y-74264624D01*
X146158750Y-74266356D01*
X146156750Y-74266356D01*
X146155831Y-74265187D01*
X146136154Y-74198172D01*
X146083751Y-74152766D01*
X146032537Y-74141625D01*
X141237787Y-74141625D01*
X141174169Y-74159868D01*
X141172229Y-74159384D01*
X141171677Y-74157461D01*
X141172485Y-74156297D01*
X141199140Y-74137977D01*
X141200273Y-74137625D01*
X146157750Y-74137625D01*
X146159482Y-74138625D01*
G37*
G36*
X89009482Y-74138625D02*
G01*
X89009750Y-74139625D01*
X89009750Y-74264624D01*
X89008750Y-74266356D01*
X89006750Y-74266356D01*
X89005831Y-74265187D01*
X88986154Y-74198172D01*
X88933751Y-74152766D01*
X88882537Y-74141625D01*
X84087787Y-74141625D01*
X84024169Y-74159868D01*
X84022229Y-74159384D01*
X84021677Y-74157461D01*
X84022485Y-74156297D01*
X84049140Y-74137977D01*
X84050273Y-74137625D01*
X89007750Y-74137625D01*
X89009482Y-74138625D01*
G37*
G36*
X69959482Y-74138625D02*
G01*
X69959750Y-74139625D01*
X69959750Y-74264624D01*
X69958750Y-74266356D01*
X69956750Y-74266356D01*
X69955831Y-74265187D01*
X69936154Y-74198172D01*
X69883751Y-74152766D01*
X69832537Y-74141625D01*
X65037787Y-74141625D01*
X64974169Y-74159868D01*
X64972229Y-74159384D01*
X64971677Y-74157461D01*
X64972485Y-74156297D01*
X64999140Y-74137977D01*
X65000273Y-74137625D01*
X69957750Y-74137625D01*
X69959482Y-74138625D01*
G37*
M02*
