G04 #@! TF.GenerationSoftware,KiCad,Pcbnew,(6.0.2)*
G04 #@! TF.CreationDate,2022-03-15T14:21:33+03:00*
G04 #@! TF.ProjectId,kinesis-top-plate,6b696e65-7369-4732-9d74-6f702d706c61,rev?*
G04 #@! TF.SameCoordinates,Original*
G04 #@! TF.FileFunction,Copper,L1,Top*
G04 #@! TF.FilePolarity,Positive*
%FSLAX46Y46*%
G04 Gerber Fmt 4.6, Leading zero omitted, Abs format (unit mm)*
G04 Created by KiCad (PCBNEW (6.0.2)) date 2022-03-15 14:21:33*
%MOMM*%
%LPD*%
G01*
G04 APERTURE LIST*
G04 APERTURE END LIST*
G04 #@! TA.AperFunction,NonConductor*
G36*
X98404775Y-74611617D02*
G01*
X98461777Y-74641607D01*
X98662484Y-74703929D01*
X98668219Y-74704608D01*
X98668220Y-74704608D01*
X98698782Y-74708225D01*
X98833124Y-74724125D01*
X102764566Y-74724125D01*
X102920529Y-74709794D01*
X102926091Y-74708225D01*
X102926093Y-74708225D01*
X103021664Y-74681271D01*
X103122799Y-74652748D01*
X103209242Y-74610119D01*
X103264970Y-74597125D01*
X107474250Y-74597125D01*
X107542371Y-74617127D01*
X107588864Y-74670783D01*
X107600250Y-74723125D01*
X107600250Y-77007902D01*
X107580248Y-77076023D01*
X107526592Y-77122516D01*
X107495590Y-77132082D01*
X107431791Y-77143045D01*
X107425061Y-77144014D01*
X107360643Y-77151524D01*
X107353758Y-77154023D01*
X107353754Y-77154024D01*
X107351612Y-77154801D01*
X107329969Y-77160540D01*
X107327713Y-77160928D01*
X107327711Y-77160929D01*
X107320499Y-77162168D01*
X107260797Y-77187572D01*
X107254479Y-77190060D01*
X107200387Y-77209694D01*
X107200384Y-77209696D01*
X107193509Y-77212191D01*
X107187395Y-77216200D01*
X107187390Y-77216202D01*
X107185480Y-77217455D01*
X107165728Y-77228024D01*
X107156891Y-77231784D01*
X107150995Y-77236123D01*
X107104650Y-77270229D01*
X107099053Y-77274119D01*
X107044815Y-77309679D01*
X107038204Y-77316657D01*
X107021427Y-77331474D01*
X107013686Y-77337171D01*
X107008949Y-77342747D01*
X106971678Y-77386617D01*
X106967144Y-77391670D01*
X106922536Y-77438760D01*
X106918861Y-77445086D01*
X106918858Y-77445091D01*
X106917714Y-77447061D01*
X106904785Y-77465356D01*
X106898566Y-77472676D01*
X106895238Y-77479193D01*
X106895235Y-77479198D01*
X106869070Y-77530440D01*
X106865810Y-77536421D01*
X106833231Y-77592509D01*
X106830447Y-77601701D01*
X106822074Y-77622476D01*
X106817707Y-77631029D01*
X106815967Y-77638140D01*
X106802291Y-77694028D01*
X106800499Y-77700582D01*
X106781692Y-77762679D01*
X106781239Y-77769984D01*
X106781097Y-77772269D01*
X106777729Y-77794407D01*
X106775446Y-77803737D01*
X106774750Y-77814955D01*
X106774750Y-77870671D01*
X106774508Y-77878472D01*
X106770682Y-77940141D01*
X106771922Y-77947357D01*
X106772930Y-77953222D01*
X106774750Y-77974561D01*
X106774750Y-83204671D01*
X106774508Y-83212472D01*
X106770682Y-83274141D01*
X106781457Y-83336843D01*
X106781668Y-83338072D01*
X106782639Y-83344814D01*
X106790149Y-83409232D01*
X106792648Y-83416117D01*
X106792649Y-83416121D01*
X106793426Y-83418263D01*
X106799165Y-83439906D01*
X106799553Y-83442162D01*
X106800793Y-83449376D01*
X106826197Y-83509078D01*
X106828685Y-83515396D01*
X106834618Y-83531740D01*
X106850816Y-83576366D01*
X106854825Y-83582480D01*
X106854827Y-83582485D01*
X106856080Y-83584395D01*
X106866649Y-83604147D01*
X106870409Y-83612984D01*
X106874748Y-83618880D01*
X106908854Y-83665225D01*
X106912744Y-83670822D01*
X106926950Y-83692490D01*
X106948304Y-83725060D01*
X106955282Y-83731671D01*
X106970099Y-83748448D01*
X106975796Y-83756189D01*
X106981372Y-83760926D01*
X107025242Y-83798197D01*
X107030295Y-83802731D01*
X107077385Y-83847339D01*
X107083711Y-83851014D01*
X107083716Y-83851017D01*
X107085686Y-83852161D01*
X107103981Y-83865090D01*
X107111301Y-83871309D01*
X107117818Y-83874637D01*
X107117823Y-83874640D01*
X107169065Y-83900805D01*
X107175046Y-83904065D01*
X107231134Y-83936644D01*
X107240326Y-83939428D01*
X107261101Y-83947801D01*
X107269654Y-83952168D01*
X107276766Y-83953908D01*
X107276765Y-83953908D01*
X107332653Y-83967584D01*
X107339207Y-83969376D01*
X107401304Y-83988183D01*
X107410861Y-83988776D01*
X107410894Y-83988778D01*
X107433032Y-83992146D01*
X107442362Y-83994429D01*
X107447964Y-83994777D01*
X107447967Y-83994777D01*
X107451641Y-83995005D01*
X107451651Y-83995005D01*
X107453580Y-83995125D01*
X107474250Y-83995125D01*
X107542371Y-84015127D01*
X107588864Y-84068783D01*
X107600250Y-84121125D01*
X107600250Y-86408125D01*
X107580248Y-86476246D01*
X107526592Y-86522739D01*
X107474250Y-86534125D01*
X103266392Y-86534125D01*
X103207724Y-86519633D01*
X103197252Y-86514123D01*
X103150723Y-86489643D01*
X102950016Y-86427321D01*
X102944281Y-86426642D01*
X102944280Y-86426642D01*
X102895992Y-86420927D01*
X102779376Y-86407125D01*
X98847934Y-86407125D01*
X98691971Y-86421456D01*
X98686409Y-86423025D01*
X98686407Y-86423025D01*
X98590836Y-86449979D01*
X98489701Y-86478502D01*
X98484518Y-86481058D01*
X98403258Y-86521131D01*
X98347530Y-86534125D01*
X94138250Y-86534125D01*
X94070129Y-86514123D01*
X94023636Y-86460467D01*
X94012250Y-86408125D01*
X94012250Y-84123348D01*
X94032252Y-84055227D01*
X94085908Y-84008734D01*
X94116911Y-83999168D01*
X94180709Y-83988205D01*
X94187439Y-83987236D01*
X94251857Y-83979726D01*
X94258742Y-83977227D01*
X94258746Y-83977226D01*
X94260888Y-83976449D01*
X94282531Y-83970710D01*
X94284787Y-83970322D01*
X94284789Y-83970321D01*
X94292001Y-83969082D01*
X94351703Y-83943678D01*
X94358021Y-83941190D01*
X94412113Y-83921556D01*
X94412116Y-83921554D01*
X94418991Y-83919059D01*
X94425105Y-83915050D01*
X94425110Y-83915048D01*
X94427020Y-83913795D01*
X94446772Y-83903226D01*
X94455609Y-83899466D01*
X94507850Y-83861021D01*
X94513447Y-83857131D01*
X94561561Y-83825586D01*
X94567685Y-83821571D01*
X94574296Y-83814593D01*
X94591073Y-83799776D01*
X94598814Y-83794079D01*
X94640822Y-83744633D01*
X94645356Y-83739580D01*
X94689964Y-83692490D01*
X94693639Y-83686164D01*
X94693642Y-83686159D01*
X94694786Y-83684189D01*
X94707715Y-83665894D01*
X94709195Y-83664152D01*
X94713934Y-83658574D01*
X94717262Y-83652057D01*
X94717265Y-83652052D01*
X94743430Y-83600810D01*
X94746693Y-83594824D01*
X94757415Y-83576366D01*
X94779269Y-83538741D01*
X94782053Y-83529549D01*
X94790426Y-83508774D01*
X94791464Y-83506741D01*
X94791464Y-83506740D01*
X94794793Y-83500221D01*
X94810210Y-83437220D01*
X94812001Y-83430668D01*
X94830808Y-83368571D01*
X94831403Y-83358981D01*
X94834771Y-83336843D01*
X94837054Y-83327513D01*
X94837750Y-83316295D01*
X94837750Y-83260579D01*
X94837992Y-83252777D01*
X94841818Y-83191109D01*
X94839570Y-83178025D01*
X94837750Y-83156689D01*
X94837750Y-77926579D01*
X94837992Y-77918777D01*
X94841818Y-77857109D01*
X94830830Y-77793166D01*
X94829860Y-77786429D01*
X94823199Y-77729294D01*
X94822351Y-77722018D01*
X94819851Y-77715129D01*
X94819074Y-77712987D01*
X94813335Y-77691344D01*
X94812947Y-77689088D01*
X94812946Y-77689086D01*
X94811707Y-77681874D01*
X94786303Y-77622172D01*
X94783815Y-77615854D01*
X94764181Y-77561762D01*
X94764179Y-77561759D01*
X94761684Y-77554884D01*
X94757675Y-77548770D01*
X94757673Y-77548765D01*
X94756420Y-77546855D01*
X94745851Y-77527103D01*
X94742091Y-77518266D01*
X94713340Y-77479198D01*
X94703646Y-77466025D01*
X94699756Y-77460428D01*
X94668211Y-77412314D01*
X94664196Y-77406190D01*
X94657218Y-77399579D01*
X94642401Y-77382802D01*
X94636704Y-77375061D01*
X94587258Y-77333053D01*
X94582205Y-77328519D01*
X94535115Y-77283911D01*
X94528789Y-77280236D01*
X94528784Y-77280233D01*
X94526814Y-77279089D01*
X94508519Y-77266160D01*
X94506777Y-77264680D01*
X94501199Y-77259941D01*
X94494682Y-77256613D01*
X94494677Y-77256610D01*
X94443435Y-77230445D01*
X94437449Y-77227182D01*
X94431319Y-77223621D01*
X94381366Y-77194606D01*
X94372174Y-77191822D01*
X94351399Y-77183449D01*
X94349366Y-77182411D01*
X94349365Y-77182411D01*
X94342846Y-77179082D01*
X94279845Y-77163665D01*
X94273293Y-77161874D01*
X94211196Y-77143067D01*
X94201606Y-77142472D01*
X94179468Y-77139104D01*
X94170138Y-77136821D01*
X94164536Y-77136473D01*
X94164533Y-77136473D01*
X94160859Y-77136245D01*
X94160849Y-77136245D01*
X94158920Y-77136125D01*
X94138250Y-77136125D01*
X94070129Y-77116123D01*
X94023636Y-77062467D01*
X94012250Y-77010125D01*
X94012250Y-74723125D01*
X94032252Y-74655004D01*
X94085908Y-74608511D01*
X94138250Y-74597125D01*
X98346108Y-74597125D01*
X98404775Y-74611617D01*
G37*
G04 #@! TD.AperFunction*
G04 #@! TA.AperFunction,NonConductor*
G36*
X117454775Y-74611617D02*
G01*
X117511777Y-74641607D01*
X117712484Y-74703929D01*
X117718219Y-74704608D01*
X117718220Y-74704608D01*
X117748782Y-74708225D01*
X117883124Y-74724125D01*
X121814566Y-74724125D01*
X121970529Y-74709794D01*
X121976091Y-74708225D01*
X121976093Y-74708225D01*
X122071664Y-74681271D01*
X122172799Y-74652748D01*
X122259242Y-74610119D01*
X122314970Y-74597125D01*
X126524250Y-74597125D01*
X126592371Y-74617127D01*
X126638864Y-74670783D01*
X126650250Y-74723125D01*
X126650250Y-77007902D01*
X126630248Y-77076023D01*
X126576592Y-77122516D01*
X126545590Y-77132082D01*
X126481791Y-77143045D01*
X126475061Y-77144014D01*
X126410643Y-77151524D01*
X126403758Y-77154023D01*
X126403754Y-77154024D01*
X126401612Y-77154801D01*
X126379969Y-77160540D01*
X126377713Y-77160928D01*
X126377711Y-77160929D01*
X126370499Y-77162168D01*
X126310797Y-77187572D01*
X126304479Y-77190060D01*
X126250387Y-77209694D01*
X126250384Y-77209696D01*
X126243509Y-77212191D01*
X126237395Y-77216200D01*
X126237390Y-77216202D01*
X126235480Y-77217455D01*
X126215728Y-77228024D01*
X126206891Y-77231784D01*
X126200995Y-77236123D01*
X126154650Y-77270229D01*
X126149053Y-77274119D01*
X126094815Y-77309679D01*
X126088204Y-77316657D01*
X126071427Y-77331474D01*
X126063686Y-77337171D01*
X126058949Y-77342747D01*
X126021678Y-77386617D01*
X126017144Y-77391670D01*
X125972536Y-77438760D01*
X125968861Y-77445086D01*
X125968858Y-77445091D01*
X125967714Y-77447061D01*
X125954785Y-77465356D01*
X125948566Y-77472676D01*
X125945238Y-77479193D01*
X125945235Y-77479198D01*
X125919070Y-77530440D01*
X125915810Y-77536421D01*
X125883231Y-77592509D01*
X125880447Y-77601701D01*
X125872074Y-77622476D01*
X125867707Y-77631029D01*
X125865967Y-77638140D01*
X125852291Y-77694028D01*
X125850499Y-77700582D01*
X125831692Y-77762679D01*
X125831239Y-77769984D01*
X125831097Y-77772269D01*
X125827729Y-77794407D01*
X125825446Y-77803737D01*
X125824750Y-77814955D01*
X125824750Y-77870671D01*
X125824508Y-77878472D01*
X125820682Y-77940141D01*
X125821922Y-77947357D01*
X125822930Y-77953222D01*
X125824750Y-77974561D01*
X125824750Y-83204671D01*
X125824508Y-83212472D01*
X125820682Y-83274141D01*
X125831457Y-83336843D01*
X125831668Y-83338072D01*
X125832639Y-83344814D01*
X125840149Y-83409232D01*
X125842648Y-83416117D01*
X125842649Y-83416121D01*
X125843426Y-83418263D01*
X125849165Y-83439906D01*
X125849553Y-83442162D01*
X125850793Y-83449376D01*
X125876197Y-83509078D01*
X125878685Y-83515396D01*
X125884618Y-83531740D01*
X125900816Y-83576366D01*
X125904825Y-83582480D01*
X125904827Y-83582485D01*
X125906080Y-83584395D01*
X125916649Y-83604147D01*
X125920409Y-83612984D01*
X125924748Y-83618880D01*
X125958854Y-83665225D01*
X125962744Y-83670822D01*
X125976950Y-83692490D01*
X125998304Y-83725060D01*
X126005282Y-83731671D01*
X126020099Y-83748448D01*
X126025796Y-83756189D01*
X126031372Y-83760926D01*
X126075242Y-83798197D01*
X126080295Y-83802731D01*
X126127385Y-83847339D01*
X126133711Y-83851014D01*
X126133716Y-83851017D01*
X126135686Y-83852161D01*
X126153981Y-83865090D01*
X126161301Y-83871309D01*
X126167818Y-83874637D01*
X126167823Y-83874640D01*
X126219065Y-83900805D01*
X126225046Y-83904065D01*
X126281134Y-83936644D01*
X126290326Y-83939428D01*
X126311101Y-83947801D01*
X126319654Y-83952168D01*
X126326766Y-83953908D01*
X126326765Y-83953908D01*
X126382653Y-83967584D01*
X126389207Y-83969376D01*
X126451304Y-83988183D01*
X126460861Y-83988776D01*
X126460894Y-83988778D01*
X126483032Y-83992146D01*
X126492362Y-83994429D01*
X126497964Y-83994777D01*
X126497967Y-83994777D01*
X126501641Y-83995005D01*
X126501651Y-83995005D01*
X126503580Y-83995125D01*
X126524250Y-83995125D01*
X126592371Y-84015127D01*
X126638864Y-84068783D01*
X126650250Y-84121125D01*
X126650250Y-86408125D01*
X126630248Y-86476246D01*
X126576592Y-86522739D01*
X126524250Y-86534125D01*
X122316392Y-86534125D01*
X122257724Y-86519633D01*
X122247252Y-86514123D01*
X122200723Y-86489643D01*
X122000016Y-86427321D01*
X121994281Y-86426642D01*
X121994280Y-86426642D01*
X121945992Y-86420927D01*
X121829376Y-86407125D01*
X117897934Y-86407125D01*
X117741971Y-86421456D01*
X117736409Y-86423025D01*
X117736407Y-86423025D01*
X117640836Y-86449979D01*
X117539701Y-86478502D01*
X117534518Y-86481058D01*
X117453258Y-86521131D01*
X117397530Y-86534125D01*
X113188250Y-86534125D01*
X113120129Y-86514123D01*
X113073636Y-86460467D01*
X113062250Y-86408125D01*
X113062250Y-84123348D01*
X113082252Y-84055227D01*
X113135908Y-84008734D01*
X113166911Y-83999168D01*
X113230709Y-83988205D01*
X113237439Y-83987236D01*
X113301857Y-83979726D01*
X113308742Y-83977227D01*
X113308746Y-83977226D01*
X113310888Y-83976449D01*
X113332531Y-83970710D01*
X113334787Y-83970322D01*
X113334789Y-83970321D01*
X113342001Y-83969082D01*
X113401703Y-83943678D01*
X113408021Y-83941190D01*
X113462113Y-83921556D01*
X113462116Y-83921554D01*
X113468991Y-83919059D01*
X113475105Y-83915050D01*
X113475110Y-83915048D01*
X113477020Y-83913795D01*
X113496772Y-83903226D01*
X113505609Y-83899466D01*
X113557850Y-83861021D01*
X113563447Y-83857131D01*
X113611561Y-83825586D01*
X113617685Y-83821571D01*
X113624296Y-83814593D01*
X113641073Y-83799776D01*
X113648814Y-83794079D01*
X113690822Y-83744633D01*
X113695356Y-83739580D01*
X113739964Y-83692490D01*
X113743639Y-83686164D01*
X113743642Y-83686159D01*
X113744786Y-83684189D01*
X113757715Y-83665894D01*
X113759195Y-83664152D01*
X113763934Y-83658574D01*
X113767262Y-83652057D01*
X113767265Y-83652052D01*
X113793430Y-83600810D01*
X113796693Y-83594824D01*
X113807415Y-83576366D01*
X113829269Y-83538741D01*
X113832053Y-83529549D01*
X113840426Y-83508774D01*
X113841464Y-83506741D01*
X113841464Y-83506740D01*
X113844793Y-83500221D01*
X113860210Y-83437220D01*
X113862001Y-83430668D01*
X113880808Y-83368571D01*
X113881403Y-83358981D01*
X113884771Y-83336843D01*
X113887054Y-83327513D01*
X113887750Y-83316295D01*
X113887750Y-83260579D01*
X113887992Y-83252777D01*
X113891818Y-83191109D01*
X113889570Y-83178025D01*
X113887750Y-83156689D01*
X113887750Y-77926579D01*
X113887992Y-77918777D01*
X113891818Y-77857109D01*
X113880830Y-77793166D01*
X113879860Y-77786429D01*
X113873199Y-77729294D01*
X113872351Y-77722018D01*
X113869851Y-77715129D01*
X113869074Y-77712987D01*
X113863335Y-77691344D01*
X113862947Y-77689088D01*
X113862946Y-77689086D01*
X113861707Y-77681874D01*
X113836303Y-77622172D01*
X113833815Y-77615854D01*
X113814181Y-77561762D01*
X113814179Y-77561759D01*
X113811684Y-77554884D01*
X113807675Y-77548770D01*
X113807673Y-77548765D01*
X113806420Y-77546855D01*
X113795851Y-77527103D01*
X113792091Y-77518266D01*
X113763340Y-77479198D01*
X113753646Y-77466025D01*
X113749756Y-77460428D01*
X113718211Y-77412314D01*
X113714196Y-77406190D01*
X113707218Y-77399579D01*
X113692401Y-77382802D01*
X113686704Y-77375061D01*
X113637258Y-77333053D01*
X113632205Y-77328519D01*
X113585115Y-77283911D01*
X113578789Y-77280236D01*
X113578784Y-77280233D01*
X113576814Y-77279089D01*
X113558519Y-77266160D01*
X113556777Y-77264680D01*
X113551199Y-77259941D01*
X113544682Y-77256613D01*
X113544677Y-77256610D01*
X113493435Y-77230445D01*
X113487449Y-77227182D01*
X113481319Y-77223621D01*
X113431366Y-77194606D01*
X113422174Y-77191822D01*
X113401399Y-77183449D01*
X113399366Y-77182411D01*
X113399365Y-77182411D01*
X113392846Y-77179082D01*
X113329845Y-77163665D01*
X113323293Y-77161874D01*
X113261196Y-77143067D01*
X113251606Y-77142472D01*
X113229468Y-77139104D01*
X113220138Y-77136821D01*
X113214536Y-77136473D01*
X113214533Y-77136473D01*
X113210859Y-77136245D01*
X113210849Y-77136245D01*
X113208920Y-77136125D01*
X113188250Y-77136125D01*
X113120129Y-77116123D01*
X113073636Y-77062467D01*
X113062250Y-77010125D01*
X113062250Y-74723125D01*
X113082252Y-74655004D01*
X113135908Y-74608511D01*
X113188250Y-74597125D01*
X117396108Y-74597125D01*
X117454775Y-74611617D01*
G37*
G04 #@! TD.AperFunction*
G04 #@! TA.AperFunction,NonConductor*
G36*
X79354775Y-74611617D02*
G01*
X79411777Y-74641607D01*
X79612484Y-74703929D01*
X79618219Y-74704608D01*
X79618220Y-74704608D01*
X79648782Y-74708225D01*
X79783124Y-74724125D01*
X83714566Y-74724125D01*
X83870529Y-74709794D01*
X83876091Y-74708225D01*
X83876093Y-74708225D01*
X83971664Y-74681271D01*
X84072799Y-74652748D01*
X84159242Y-74610119D01*
X84214970Y-74597125D01*
X88424250Y-74597125D01*
X88492371Y-74617127D01*
X88538864Y-74670783D01*
X88550250Y-74723125D01*
X88550250Y-77007902D01*
X88530248Y-77076023D01*
X88476592Y-77122516D01*
X88445590Y-77132082D01*
X88381791Y-77143045D01*
X88375061Y-77144014D01*
X88310643Y-77151524D01*
X88303758Y-77154023D01*
X88303754Y-77154024D01*
X88301612Y-77154801D01*
X88279969Y-77160540D01*
X88277713Y-77160928D01*
X88277711Y-77160929D01*
X88270499Y-77162168D01*
X88210797Y-77187572D01*
X88204479Y-77190060D01*
X88150387Y-77209694D01*
X88150384Y-77209696D01*
X88143509Y-77212191D01*
X88137395Y-77216200D01*
X88137390Y-77216202D01*
X88135480Y-77217455D01*
X88115728Y-77228024D01*
X88106891Y-77231784D01*
X88100995Y-77236123D01*
X88054650Y-77270229D01*
X88049053Y-77274119D01*
X87994815Y-77309679D01*
X87988204Y-77316657D01*
X87971427Y-77331474D01*
X87963686Y-77337171D01*
X87958949Y-77342747D01*
X87921678Y-77386617D01*
X87917144Y-77391670D01*
X87872536Y-77438760D01*
X87868861Y-77445086D01*
X87868858Y-77445091D01*
X87867714Y-77447061D01*
X87854785Y-77465356D01*
X87848566Y-77472676D01*
X87845238Y-77479193D01*
X87845235Y-77479198D01*
X87819070Y-77530440D01*
X87815810Y-77536421D01*
X87783231Y-77592509D01*
X87780447Y-77601701D01*
X87772074Y-77622476D01*
X87767707Y-77631029D01*
X87765967Y-77638140D01*
X87752291Y-77694028D01*
X87750499Y-77700582D01*
X87731692Y-77762679D01*
X87731239Y-77769984D01*
X87731097Y-77772269D01*
X87727729Y-77794407D01*
X87725446Y-77803737D01*
X87724750Y-77814955D01*
X87724750Y-77870671D01*
X87724508Y-77878472D01*
X87720682Y-77940141D01*
X87721922Y-77947357D01*
X87722930Y-77953222D01*
X87724750Y-77974561D01*
X87724750Y-83204671D01*
X87724508Y-83212472D01*
X87720682Y-83274141D01*
X87731457Y-83336843D01*
X87731668Y-83338072D01*
X87732639Y-83344814D01*
X87740149Y-83409232D01*
X87742648Y-83416117D01*
X87742649Y-83416121D01*
X87743426Y-83418263D01*
X87749165Y-83439906D01*
X87749553Y-83442162D01*
X87750793Y-83449376D01*
X87776197Y-83509078D01*
X87778685Y-83515396D01*
X87784618Y-83531740D01*
X87800816Y-83576366D01*
X87804825Y-83582480D01*
X87804827Y-83582485D01*
X87806080Y-83584395D01*
X87816649Y-83604147D01*
X87820409Y-83612984D01*
X87824748Y-83618880D01*
X87858854Y-83665225D01*
X87862744Y-83670822D01*
X87876950Y-83692490D01*
X87898304Y-83725060D01*
X87905282Y-83731671D01*
X87920099Y-83748448D01*
X87925796Y-83756189D01*
X87931372Y-83760926D01*
X87975242Y-83798197D01*
X87980295Y-83802731D01*
X88027385Y-83847339D01*
X88033711Y-83851014D01*
X88033716Y-83851017D01*
X88035686Y-83852161D01*
X88053981Y-83865090D01*
X88061301Y-83871309D01*
X88067818Y-83874637D01*
X88067823Y-83874640D01*
X88119065Y-83900805D01*
X88125046Y-83904065D01*
X88181134Y-83936644D01*
X88190326Y-83939428D01*
X88211101Y-83947801D01*
X88219654Y-83952168D01*
X88226766Y-83953908D01*
X88226765Y-83953908D01*
X88282653Y-83967584D01*
X88289207Y-83969376D01*
X88351304Y-83988183D01*
X88360861Y-83988776D01*
X88360894Y-83988778D01*
X88383032Y-83992146D01*
X88392362Y-83994429D01*
X88397964Y-83994777D01*
X88397967Y-83994777D01*
X88401641Y-83995005D01*
X88401651Y-83995005D01*
X88403580Y-83995125D01*
X88424250Y-83995125D01*
X88492371Y-84015127D01*
X88538864Y-84068783D01*
X88550250Y-84121125D01*
X88550250Y-86408125D01*
X88530248Y-86476246D01*
X88476592Y-86522739D01*
X88424250Y-86534125D01*
X84216392Y-86534125D01*
X84157724Y-86519633D01*
X84147252Y-86514123D01*
X84100723Y-86489643D01*
X83900016Y-86427321D01*
X83894281Y-86426642D01*
X83894280Y-86426642D01*
X83845992Y-86420927D01*
X83729376Y-86407125D01*
X79797934Y-86407125D01*
X79641971Y-86421456D01*
X79636409Y-86423025D01*
X79636407Y-86423025D01*
X79540836Y-86449979D01*
X79439701Y-86478502D01*
X79434518Y-86481058D01*
X79353258Y-86521131D01*
X79297530Y-86534125D01*
X75088250Y-86534125D01*
X75020129Y-86514123D01*
X74973636Y-86460467D01*
X74962250Y-86408125D01*
X74962250Y-84123348D01*
X74982252Y-84055227D01*
X75035908Y-84008734D01*
X75066911Y-83999168D01*
X75130709Y-83988205D01*
X75137439Y-83987236D01*
X75201857Y-83979726D01*
X75208742Y-83977227D01*
X75208746Y-83977226D01*
X75210888Y-83976449D01*
X75232531Y-83970710D01*
X75234787Y-83970322D01*
X75234789Y-83970321D01*
X75242001Y-83969082D01*
X75301703Y-83943678D01*
X75308021Y-83941190D01*
X75362113Y-83921556D01*
X75362116Y-83921554D01*
X75368991Y-83919059D01*
X75375105Y-83915050D01*
X75375110Y-83915048D01*
X75377020Y-83913795D01*
X75396772Y-83903226D01*
X75405609Y-83899466D01*
X75457850Y-83861021D01*
X75463447Y-83857131D01*
X75511561Y-83825586D01*
X75517685Y-83821571D01*
X75524296Y-83814593D01*
X75541073Y-83799776D01*
X75548814Y-83794079D01*
X75590822Y-83744633D01*
X75595356Y-83739580D01*
X75639964Y-83692490D01*
X75643639Y-83686164D01*
X75643642Y-83686159D01*
X75644786Y-83684189D01*
X75657715Y-83665894D01*
X75659195Y-83664152D01*
X75663934Y-83658574D01*
X75667262Y-83652057D01*
X75667265Y-83652052D01*
X75693430Y-83600810D01*
X75696693Y-83594824D01*
X75707415Y-83576366D01*
X75729269Y-83538741D01*
X75732053Y-83529549D01*
X75740426Y-83508774D01*
X75741464Y-83506741D01*
X75741464Y-83506740D01*
X75744793Y-83500221D01*
X75760210Y-83437220D01*
X75762001Y-83430668D01*
X75780808Y-83368571D01*
X75781403Y-83358981D01*
X75784771Y-83336843D01*
X75787054Y-83327513D01*
X75787750Y-83316295D01*
X75787750Y-83260579D01*
X75787992Y-83252777D01*
X75791818Y-83191109D01*
X75789570Y-83178025D01*
X75787750Y-83156689D01*
X75787750Y-77926579D01*
X75787992Y-77918777D01*
X75791818Y-77857109D01*
X75780830Y-77793166D01*
X75779860Y-77786429D01*
X75773199Y-77729294D01*
X75772351Y-77722018D01*
X75769851Y-77715129D01*
X75769074Y-77712987D01*
X75763335Y-77691344D01*
X75762947Y-77689088D01*
X75762946Y-77689086D01*
X75761707Y-77681874D01*
X75736303Y-77622172D01*
X75733815Y-77615854D01*
X75714181Y-77561762D01*
X75714179Y-77561759D01*
X75711684Y-77554884D01*
X75707675Y-77548770D01*
X75707673Y-77548765D01*
X75706420Y-77546855D01*
X75695851Y-77527103D01*
X75692091Y-77518266D01*
X75663340Y-77479198D01*
X75653646Y-77466025D01*
X75649756Y-77460428D01*
X75618211Y-77412314D01*
X75614196Y-77406190D01*
X75607218Y-77399579D01*
X75592401Y-77382802D01*
X75586704Y-77375061D01*
X75537258Y-77333053D01*
X75532205Y-77328519D01*
X75485115Y-77283911D01*
X75478789Y-77280236D01*
X75478784Y-77280233D01*
X75476814Y-77279089D01*
X75458519Y-77266160D01*
X75456777Y-77264680D01*
X75451199Y-77259941D01*
X75444682Y-77256613D01*
X75444677Y-77256610D01*
X75393435Y-77230445D01*
X75387449Y-77227182D01*
X75381319Y-77223621D01*
X75331366Y-77194606D01*
X75322174Y-77191822D01*
X75301399Y-77183449D01*
X75299366Y-77182411D01*
X75299365Y-77182411D01*
X75292846Y-77179082D01*
X75229845Y-77163665D01*
X75223293Y-77161874D01*
X75161196Y-77143067D01*
X75151606Y-77142472D01*
X75129468Y-77139104D01*
X75120138Y-77136821D01*
X75114536Y-77136473D01*
X75114533Y-77136473D01*
X75110859Y-77136245D01*
X75110849Y-77136245D01*
X75108920Y-77136125D01*
X75088250Y-77136125D01*
X75020129Y-77116123D01*
X74973636Y-77062467D01*
X74962250Y-77010125D01*
X74962250Y-74723125D01*
X74982252Y-74655004D01*
X75035908Y-74608511D01*
X75088250Y-74597125D01*
X79296108Y-74597125D01*
X79354775Y-74611617D01*
G37*
G04 #@! TD.AperFunction*
G04 #@! TA.AperFunction,NonConductor*
G36*
X136504775Y-74611617D02*
G01*
X136561777Y-74641607D01*
X136762484Y-74703929D01*
X136768219Y-74704608D01*
X136768220Y-74704608D01*
X136798782Y-74708225D01*
X136933124Y-74724125D01*
X140864566Y-74724125D01*
X141020529Y-74709794D01*
X141026091Y-74708225D01*
X141026093Y-74708225D01*
X141121664Y-74681271D01*
X141222799Y-74652748D01*
X141309242Y-74610119D01*
X141364970Y-74597125D01*
X145574250Y-74597125D01*
X145642371Y-74617127D01*
X145688864Y-74670783D01*
X145700250Y-74723125D01*
X145700250Y-77007902D01*
X145680248Y-77076023D01*
X145626592Y-77122516D01*
X145595590Y-77132082D01*
X145531791Y-77143045D01*
X145525061Y-77144014D01*
X145460643Y-77151524D01*
X145453758Y-77154023D01*
X145453754Y-77154024D01*
X145451612Y-77154801D01*
X145429969Y-77160540D01*
X145427713Y-77160928D01*
X145427711Y-77160929D01*
X145420499Y-77162168D01*
X145360797Y-77187572D01*
X145354479Y-77190060D01*
X145300387Y-77209694D01*
X145300384Y-77209696D01*
X145293509Y-77212191D01*
X145287395Y-77216200D01*
X145287390Y-77216202D01*
X145285480Y-77217455D01*
X145265728Y-77228024D01*
X145256891Y-77231784D01*
X145250995Y-77236123D01*
X145204650Y-77270229D01*
X145199053Y-77274119D01*
X145144815Y-77309679D01*
X145138204Y-77316657D01*
X145121427Y-77331474D01*
X145113686Y-77337171D01*
X145108949Y-77342747D01*
X145071678Y-77386617D01*
X145067144Y-77391670D01*
X145022536Y-77438760D01*
X145018861Y-77445086D01*
X145018858Y-77445091D01*
X145017714Y-77447061D01*
X145004785Y-77465356D01*
X144998566Y-77472676D01*
X144995238Y-77479193D01*
X144995235Y-77479198D01*
X144969070Y-77530440D01*
X144965810Y-77536421D01*
X144933231Y-77592509D01*
X144930447Y-77601701D01*
X144922074Y-77622476D01*
X144917707Y-77631029D01*
X144915967Y-77638140D01*
X144902291Y-77694028D01*
X144900499Y-77700582D01*
X144881692Y-77762679D01*
X144881239Y-77769984D01*
X144881097Y-77772269D01*
X144877729Y-77794407D01*
X144875446Y-77803737D01*
X144874750Y-77814955D01*
X144874750Y-77870671D01*
X144874508Y-77878472D01*
X144870682Y-77940141D01*
X144871922Y-77947357D01*
X144872930Y-77953222D01*
X144874750Y-77974561D01*
X144874750Y-83204671D01*
X144874508Y-83212472D01*
X144870682Y-83274141D01*
X144881457Y-83336843D01*
X144881668Y-83338072D01*
X144882639Y-83344814D01*
X144890149Y-83409232D01*
X144892648Y-83416117D01*
X144892649Y-83416121D01*
X144893426Y-83418263D01*
X144899165Y-83439906D01*
X144899553Y-83442162D01*
X144900793Y-83449376D01*
X144926197Y-83509078D01*
X144928685Y-83515396D01*
X144934618Y-83531740D01*
X144950816Y-83576366D01*
X144954825Y-83582480D01*
X144954827Y-83582485D01*
X144956080Y-83584395D01*
X144966649Y-83604147D01*
X144970409Y-83612984D01*
X144974748Y-83618880D01*
X145008854Y-83665225D01*
X145012744Y-83670822D01*
X145026950Y-83692490D01*
X145048304Y-83725060D01*
X145055282Y-83731671D01*
X145070099Y-83748448D01*
X145075796Y-83756189D01*
X145081372Y-83760926D01*
X145125242Y-83798197D01*
X145130295Y-83802731D01*
X145177385Y-83847339D01*
X145183711Y-83851014D01*
X145183716Y-83851017D01*
X145185686Y-83852161D01*
X145203981Y-83865090D01*
X145211301Y-83871309D01*
X145217818Y-83874637D01*
X145217823Y-83874640D01*
X145269065Y-83900805D01*
X145275046Y-83904065D01*
X145331134Y-83936644D01*
X145340326Y-83939428D01*
X145361101Y-83947801D01*
X145369654Y-83952168D01*
X145376766Y-83953908D01*
X145376765Y-83953908D01*
X145432653Y-83967584D01*
X145439207Y-83969376D01*
X145501304Y-83988183D01*
X145510861Y-83988776D01*
X145510894Y-83988778D01*
X145533032Y-83992146D01*
X145542362Y-83994429D01*
X145547964Y-83994777D01*
X145547967Y-83994777D01*
X145551641Y-83995005D01*
X145551651Y-83995005D01*
X145553580Y-83995125D01*
X145574250Y-83995125D01*
X145642371Y-84015127D01*
X145688864Y-84068783D01*
X145700250Y-84121125D01*
X145700250Y-86408125D01*
X145680248Y-86476246D01*
X145626592Y-86522739D01*
X145574250Y-86534125D01*
X141366392Y-86534125D01*
X141307724Y-86519633D01*
X141297252Y-86514123D01*
X141250723Y-86489643D01*
X141050016Y-86427321D01*
X141044281Y-86426642D01*
X141044280Y-86426642D01*
X140995992Y-86420927D01*
X140879376Y-86407125D01*
X136947934Y-86407125D01*
X136791971Y-86421456D01*
X136786409Y-86423025D01*
X136786407Y-86423025D01*
X136690836Y-86449979D01*
X136589701Y-86478502D01*
X136584518Y-86481058D01*
X136503258Y-86521131D01*
X136447530Y-86534125D01*
X132238250Y-86534125D01*
X132170129Y-86514123D01*
X132123636Y-86460467D01*
X132112250Y-86408125D01*
X132112250Y-84123348D01*
X132132252Y-84055227D01*
X132185908Y-84008734D01*
X132216911Y-83999168D01*
X132280709Y-83988205D01*
X132287439Y-83987236D01*
X132351857Y-83979726D01*
X132358742Y-83977227D01*
X132358746Y-83977226D01*
X132360888Y-83976449D01*
X132382531Y-83970710D01*
X132384787Y-83970322D01*
X132384789Y-83970321D01*
X132392001Y-83969082D01*
X132451703Y-83943678D01*
X132458021Y-83941190D01*
X132512113Y-83921556D01*
X132512116Y-83921554D01*
X132518991Y-83919059D01*
X132525105Y-83915050D01*
X132525110Y-83915048D01*
X132527020Y-83913795D01*
X132546772Y-83903226D01*
X132555609Y-83899466D01*
X132607850Y-83861021D01*
X132613447Y-83857131D01*
X132661561Y-83825586D01*
X132667685Y-83821571D01*
X132674296Y-83814593D01*
X132691073Y-83799776D01*
X132698814Y-83794079D01*
X132740822Y-83744633D01*
X132745356Y-83739580D01*
X132789964Y-83692490D01*
X132793639Y-83686164D01*
X132793642Y-83686159D01*
X132794786Y-83684189D01*
X132807715Y-83665894D01*
X132809195Y-83664152D01*
X132813934Y-83658574D01*
X132817262Y-83652057D01*
X132817265Y-83652052D01*
X132843430Y-83600810D01*
X132846693Y-83594824D01*
X132857415Y-83576366D01*
X132879269Y-83538741D01*
X132882053Y-83529549D01*
X132890426Y-83508774D01*
X132891464Y-83506741D01*
X132891464Y-83506740D01*
X132894793Y-83500221D01*
X132910210Y-83437220D01*
X132912001Y-83430668D01*
X132930808Y-83368571D01*
X132931403Y-83358981D01*
X132934771Y-83336843D01*
X132937054Y-83327513D01*
X132937750Y-83316295D01*
X132937750Y-83260579D01*
X132937992Y-83252777D01*
X132941818Y-83191109D01*
X132939570Y-83178025D01*
X132937750Y-83156689D01*
X132937750Y-77926579D01*
X132937992Y-77918777D01*
X132941818Y-77857109D01*
X132930830Y-77793166D01*
X132929860Y-77786429D01*
X132923199Y-77729294D01*
X132922351Y-77722018D01*
X132919851Y-77715129D01*
X132919074Y-77712987D01*
X132913335Y-77691344D01*
X132912947Y-77689088D01*
X132912946Y-77689086D01*
X132911707Y-77681874D01*
X132886303Y-77622172D01*
X132883815Y-77615854D01*
X132864181Y-77561762D01*
X132864179Y-77561759D01*
X132861684Y-77554884D01*
X132857675Y-77548770D01*
X132857673Y-77548765D01*
X132856420Y-77546855D01*
X132845851Y-77527103D01*
X132842091Y-77518266D01*
X132813340Y-77479198D01*
X132803646Y-77466025D01*
X132799756Y-77460428D01*
X132768211Y-77412314D01*
X132764196Y-77406190D01*
X132757218Y-77399579D01*
X132742401Y-77382802D01*
X132736704Y-77375061D01*
X132687258Y-77333053D01*
X132682205Y-77328519D01*
X132635115Y-77283911D01*
X132628789Y-77280236D01*
X132628784Y-77280233D01*
X132626814Y-77279089D01*
X132608519Y-77266160D01*
X132606777Y-77264680D01*
X132601199Y-77259941D01*
X132594682Y-77256613D01*
X132594677Y-77256610D01*
X132543435Y-77230445D01*
X132537449Y-77227182D01*
X132531319Y-77223621D01*
X132481366Y-77194606D01*
X132472174Y-77191822D01*
X132451399Y-77183449D01*
X132449366Y-77182411D01*
X132449365Y-77182411D01*
X132442846Y-77179082D01*
X132379845Y-77163665D01*
X132373293Y-77161874D01*
X132311196Y-77143067D01*
X132301606Y-77142472D01*
X132279468Y-77139104D01*
X132270138Y-77136821D01*
X132264536Y-77136473D01*
X132264533Y-77136473D01*
X132260859Y-77136245D01*
X132260849Y-77136245D01*
X132258920Y-77136125D01*
X132238250Y-77136125D01*
X132170129Y-77116123D01*
X132123636Y-77062467D01*
X132112250Y-77010125D01*
X132112250Y-74723125D01*
X132132252Y-74655004D01*
X132185908Y-74608511D01*
X132238250Y-74597125D01*
X136446108Y-74597125D01*
X136504775Y-74611617D01*
G37*
G04 #@! TD.AperFunction*
G04 #@! TA.AperFunction,NonConductor*
G36*
X41254775Y-74611617D02*
G01*
X41311777Y-74641607D01*
X41512484Y-74703929D01*
X41518219Y-74704608D01*
X41518220Y-74704608D01*
X41548782Y-74708225D01*
X41683124Y-74724125D01*
X45614566Y-74724125D01*
X45770529Y-74709794D01*
X45776091Y-74708225D01*
X45776093Y-74708225D01*
X45871664Y-74681271D01*
X45972799Y-74652748D01*
X46059242Y-74610119D01*
X46114970Y-74597125D01*
X50324250Y-74597125D01*
X50392371Y-74617127D01*
X50438864Y-74670783D01*
X50450250Y-74723125D01*
X50450250Y-77007902D01*
X50430248Y-77076023D01*
X50376592Y-77122516D01*
X50345590Y-77132082D01*
X50281791Y-77143045D01*
X50275061Y-77144014D01*
X50210643Y-77151524D01*
X50203758Y-77154023D01*
X50203754Y-77154024D01*
X50201612Y-77154801D01*
X50179969Y-77160540D01*
X50177713Y-77160928D01*
X50177711Y-77160929D01*
X50170499Y-77162168D01*
X50110797Y-77187572D01*
X50104479Y-77190060D01*
X50050387Y-77209694D01*
X50050384Y-77209696D01*
X50043509Y-77212191D01*
X50037395Y-77216200D01*
X50037390Y-77216202D01*
X50035480Y-77217455D01*
X50015728Y-77228024D01*
X50006891Y-77231784D01*
X50000995Y-77236123D01*
X49954650Y-77270229D01*
X49949053Y-77274119D01*
X49894815Y-77309679D01*
X49888204Y-77316657D01*
X49871427Y-77331474D01*
X49863686Y-77337171D01*
X49858949Y-77342747D01*
X49821678Y-77386617D01*
X49817144Y-77391670D01*
X49772536Y-77438760D01*
X49768861Y-77445086D01*
X49768858Y-77445091D01*
X49767714Y-77447061D01*
X49754785Y-77465356D01*
X49748566Y-77472676D01*
X49745238Y-77479193D01*
X49745235Y-77479198D01*
X49719070Y-77530440D01*
X49715810Y-77536421D01*
X49683231Y-77592509D01*
X49680447Y-77601701D01*
X49672074Y-77622476D01*
X49667707Y-77631029D01*
X49665967Y-77638140D01*
X49652291Y-77694028D01*
X49650499Y-77700582D01*
X49631692Y-77762679D01*
X49631239Y-77769984D01*
X49631097Y-77772269D01*
X49627729Y-77794407D01*
X49625446Y-77803737D01*
X49624750Y-77814955D01*
X49624750Y-77870671D01*
X49624508Y-77878472D01*
X49620682Y-77940141D01*
X49621922Y-77947357D01*
X49622930Y-77953222D01*
X49624750Y-77974561D01*
X49624750Y-83204671D01*
X49624508Y-83212472D01*
X49620682Y-83274141D01*
X49631457Y-83336843D01*
X49631668Y-83338072D01*
X49632639Y-83344814D01*
X49640149Y-83409232D01*
X49642648Y-83416117D01*
X49642649Y-83416121D01*
X49643426Y-83418263D01*
X49649165Y-83439906D01*
X49649553Y-83442162D01*
X49650793Y-83449376D01*
X49676197Y-83509078D01*
X49678685Y-83515396D01*
X49684618Y-83531740D01*
X49700816Y-83576366D01*
X49704825Y-83582480D01*
X49704827Y-83582485D01*
X49706080Y-83584395D01*
X49716649Y-83604147D01*
X49720409Y-83612984D01*
X49724748Y-83618880D01*
X49758854Y-83665225D01*
X49762744Y-83670822D01*
X49776950Y-83692490D01*
X49798304Y-83725060D01*
X49805282Y-83731671D01*
X49820099Y-83748448D01*
X49825796Y-83756189D01*
X49831372Y-83760926D01*
X49875242Y-83798197D01*
X49880295Y-83802731D01*
X49927385Y-83847339D01*
X49933711Y-83851014D01*
X49933716Y-83851017D01*
X49935686Y-83852161D01*
X49953981Y-83865090D01*
X49961301Y-83871309D01*
X49967818Y-83874637D01*
X49967823Y-83874640D01*
X50019065Y-83900805D01*
X50025046Y-83904065D01*
X50081134Y-83936644D01*
X50090326Y-83939428D01*
X50111101Y-83947801D01*
X50119654Y-83952168D01*
X50126766Y-83953908D01*
X50126765Y-83953908D01*
X50182653Y-83967584D01*
X50189207Y-83969376D01*
X50251304Y-83988183D01*
X50260861Y-83988776D01*
X50260894Y-83988778D01*
X50283032Y-83992146D01*
X50292362Y-83994429D01*
X50297964Y-83994777D01*
X50297967Y-83994777D01*
X50301641Y-83995005D01*
X50301651Y-83995005D01*
X50303580Y-83995125D01*
X50324250Y-83995125D01*
X50392371Y-84015127D01*
X50438864Y-84068783D01*
X50450250Y-84121125D01*
X50450250Y-86408125D01*
X50430248Y-86476246D01*
X50376592Y-86522739D01*
X50324250Y-86534125D01*
X46116392Y-86534125D01*
X46057724Y-86519633D01*
X46047252Y-86514123D01*
X46000723Y-86489643D01*
X45800016Y-86427321D01*
X45794281Y-86426642D01*
X45794280Y-86426642D01*
X45745992Y-86420927D01*
X45629376Y-86407125D01*
X41697934Y-86407125D01*
X41541971Y-86421456D01*
X41536409Y-86423025D01*
X41536407Y-86423025D01*
X41440836Y-86449979D01*
X41339701Y-86478502D01*
X41334518Y-86481058D01*
X41253258Y-86521131D01*
X41197530Y-86534125D01*
X36988250Y-86534125D01*
X36920129Y-86514123D01*
X36873636Y-86460467D01*
X36862250Y-86408125D01*
X36862250Y-84123348D01*
X36882252Y-84055227D01*
X36935908Y-84008734D01*
X36966911Y-83999168D01*
X37030709Y-83988205D01*
X37037439Y-83987236D01*
X37101857Y-83979726D01*
X37108742Y-83977227D01*
X37108746Y-83977226D01*
X37110888Y-83976449D01*
X37132531Y-83970710D01*
X37134787Y-83970322D01*
X37134789Y-83970321D01*
X37142001Y-83969082D01*
X37201703Y-83943678D01*
X37208021Y-83941190D01*
X37262113Y-83921556D01*
X37262116Y-83921554D01*
X37268991Y-83919059D01*
X37275105Y-83915050D01*
X37275110Y-83915048D01*
X37277020Y-83913795D01*
X37296772Y-83903226D01*
X37305609Y-83899466D01*
X37357850Y-83861021D01*
X37363447Y-83857131D01*
X37411561Y-83825586D01*
X37417685Y-83821571D01*
X37424296Y-83814593D01*
X37441073Y-83799776D01*
X37448814Y-83794079D01*
X37490822Y-83744633D01*
X37495356Y-83739580D01*
X37539964Y-83692490D01*
X37543639Y-83686164D01*
X37543642Y-83686159D01*
X37544786Y-83684189D01*
X37557715Y-83665894D01*
X37559195Y-83664152D01*
X37563934Y-83658574D01*
X37567262Y-83652057D01*
X37567265Y-83652052D01*
X37593430Y-83600810D01*
X37596693Y-83594824D01*
X37607415Y-83576366D01*
X37629269Y-83538741D01*
X37632053Y-83529549D01*
X37640426Y-83508774D01*
X37641464Y-83506741D01*
X37641464Y-83506740D01*
X37644793Y-83500221D01*
X37660210Y-83437220D01*
X37662001Y-83430668D01*
X37680808Y-83368571D01*
X37681403Y-83358981D01*
X37684771Y-83336843D01*
X37687054Y-83327513D01*
X37687750Y-83316295D01*
X37687750Y-83260579D01*
X37687992Y-83252777D01*
X37691818Y-83191109D01*
X37689570Y-83178025D01*
X37687750Y-83156689D01*
X37687750Y-77926579D01*
X37687992Y-77918777D01*
X37691818Y-77857109D01*
X37680830Y-77793166D01*
X37679860Y-77786429D01*
X37673199Y-77729294D01*
X37672351Y-77722018D01*
X37669851Y-77715129D01*
X37669074Y-77712987D01*
X37663335Y-77691344D01*
X37662947Y-77689088D01*
X37662946Y-77689086D01*
X37661707Y-77681874D01*
X37636303Y-77622172D01*
X37633815Y-77615854D01*
X37614181Y-77561762D01*
X37614179Y-77561759D01*
X37611684Y-77554884D01*
X37607675Y-77548770D01*
X37607673Y-77548765D01*
X37606420Y-77546855D01*
X37595851Y-77527103D01*
X37592091Y-77518266D01*
X37563340Y-77479198D01*
X37553646Y-77466025D01*
X37549756Y-77460428D01*
X37518211Y-77412314D01*
X37514196Y-77406190D01*
X37507218Y-77399579D01*
X37492401Y-77382802D01*
X37486704Y-77375061D01*
X37437258Y-77333053D01*
X37432205Y-77328519D01*
X37385115Y-77283911D01*
X37378789Y-77280236D01*
X37378784Y-77280233D01*
X37376814Y-77279089D01*
X37358519Y-77266160D01*
X37356777Y-77264680D01*
X37351199Y-77259941D01*
X37344682Y-77256613D01*
X37344677Y-77256610D01*
X37293435Y-77230445D01*
X37287449Y-77227182D01*
X37281319Y-77223621D01*
X37231366Y-77194606D01*
X37222174Y-77191822D01*
X37201399Y-77183449D01*
X37199366Y-77182411D01*
X37199365Y-77182411D01*
X37192846Y-77179082D01*
X37129845Y-77163665D01*
X37123293Y-77161874D01*
X37061196Y-77143067D01*
X37051606Y-77142472D01*
X37029468Y-77139104D01*
X37020138Y-77136821D01*
X37014536Y-77136473D01*
X37014533Y-77136473D01*
X37010859Y-77136245D01*
X37010849Y-77136245D01*
X37008920Y-77136125D01*
X36988250Y-77136125D01*
X36920129Y-77116123D01*
X36873636Y-77062467D01*
X36862250Y-77010125D01*
X36862250Y-74723125D01*
X36882252Y-74655004D01*
X36935908Y-74608511D01*
X36988250Y-74597125D01*
X41196108Y-74597125D01*
X41254775Y-74611617D01*
G37*
G04 #@! TD.AperFunction*
G04 #@! TA.AperFunction,NonConductor*
G36*
X60304775Y-74611617D02*
G01*
X60361777Y-74641607D01*
X60562484Y-74703929D01*
X60568219Y-74704608D01*
X60568220Y-74704608D01*
X60598782Y-74708225D01*
X60733124Y-74724125D01*
X64664566Y-74724125D01*
X64820529Y-74709794D01*
X64826091Y-74708225D01*
X64826093Y-74708225D01*
X64921664Y-74681271D01*
X65022799Y-74652748D01*
X65109242Y-74610119D01*
X65164970Y-74597125D01*
X69374250Y-74597125D01*
X69442371Y-74617127D01*
X69488864Y-74670783D01*
X69500250Y-74723125D01*
X69500250Y-77007902D01*
X69480248Y-77076023D01*
X69426592Y-77122516D01*
X69395590Y-77132082D01*
X69331791Y-77143045D01*
X69325061Y-77144014D01*
X69260643Y-77151524D01*
X69253758Y-77154023D01*
X69253754Y-77154024D01*
X69251612Y-77154801D01*
X69229969Y-77160540D01*
X69227713Y-77160928D01*
X69227711Y-77160929D01*
X69220499Y-77162168D01*
X69160797Y-77187572D01*
X69154479Y-77190060D01*
X69100387Y-77209694D01*
X69100384Y-77209696D01*
X69093509Y-77212191D01*
X69087395Y-77216200D01*
X69087390Y-77216202D01*
X69085480Y-77217455D01*
X69065728Y-77228024D01*
X69056891Y-77231784D01*
X69050995Y-77236123D01*
X69004650Y-77270229D01*
X68999053Y-77274119D01*
X68944815Y-77309679D01*
X68938204Y-77316657D01*
X68921427Y-77331474D01*
X68913686Y-77337171D01*
X68908949Y-77342747D01*
X68871678Y-77386617D01*
X68867144Y-77391670D01*
X68822536Y-77438760D01*
X68818861Y-77445086D01*
X68818858Y-77445091D01*
X68817714Y-77447061D01*
X68804785Y-77465356D01*
X68798566Y-77472676D01*
X68795238Y-77479193D01*
X68795235Y-77479198D01*
X68769070Y-77530440D01*
X68765810Y-77536421D01*
X68733231Y-77592509D01*
X68730447Y-77601701D01*
X68722074Y-77622476D01*
X68717707Y-77631029D01*
X68715967Y-77638140D01*
X68702291Y-77694028D01*
X68700499Y-77700582D01*
X68681692Y-77762679D01*
X68681239Y-77769984D01*
X68681097Y-77772269D01*
X68677729Y-77794407D01*
X68675446Y-77803737D01*
X68674750Y-77814955D01*
X68674750Y-77870671D01*
X68674508Y-77878472D01*
X68670682Y-77940141D01*
X68671922Y-77947357D01*
X68672930Y-77953222D01*
X68674750Y-77974561D01*
X68674750Y-83204671D01*
X68674508Y-83212472D01*
X68670682Y-83274141D01*
X68681457Y-83336843D01*
X68681668Y-83338072D01*
X68682639Y-83344814D01*
X68690149Y-83409232D01*
X68692648Y-83416117D01*
X68692649Y-83416121D01*
X68693426Y-83418263D01*
X68699165Y-83439906D01*
X68699553Y-83442162D01*
X68700793Y-83449376D01*
X68726197Y-83509078D01*
X68728685Y-83515396D01*
X68734618Y-83531740D01*
X68750816Y-83576366D01*
X68754825Y-83582480D01*
X68754827Y-83582485D01*
X68756080Y-83584395D01*
X68766649Y-83604147D01*
X68770409Y-83612984D01*
X68774748Y-83618880D01*
X68808854Y-83665225D01*
X68812744Y-83670822D01*
X68826950Y-83692490D01*
X68848304Y-83725060D01*
X68855282Y-83731671D01*
X68870099Y-83748448D01*
X68875796Y-83756189D01*
X68881372Y-83760926D01*
X68925242Y-83798197D01*
X68930295Y-83802731D01*
X68977385Y-83847339D01*
X68983711Y-83851014D01*
X68983716Y-83851017D01*
X68985686Y-83852161D01*
X69003981Y-83865090D01*
X69011301Y-83871309D01*
X69017818Y-83874637D01*
X69017823Y-83874640D01*
X69069065Y-83900805D01*
X69075046Y-83904065D01*
X69131134Y-83936644D01*
X69140326Y-83939428D01*
X69161101Y-83947801D01*
X69169654Y-83952168D01*
X69176766Y-83953908D01*
X69176765Y-83953908D01*
X69232653Y-83967584D01*
X69239207Y-83969376D01*
X69301304Y-83988183D01*
X69310861Y-83988776D01*
X69310894Y-83988778D01*
X69333032Y-83992146D01*
X69342362Y-83994429D01*
X69347964Y-83994777D01*
X69347967Y-83994777D01*
X69351641Y-83995005D01*
X69351651Y-83995005D01*
X69353580Y-83995125D01*
X69374250Y-83995125D01*
X69442371Y-84015127D01*
X69488864Y-84068783D01*
X69500250Y-84121125D01*
X69500250Y-86408125D01*
X69480248Y-86476246D01*
X69426592Y-86522739D01*
X69374250Y-86534125D01*
X65166392Y-86534125D01*
X65107724Y-86519633D01*
X65097252Y-86514123D01*
X65050723Y-86489643D01*
X64850016Y-86427321D01*
X64844281Y-86426642D01*
X64844280Y-86426642D01*
X64795992Y-86420927D01*
X64679376Y-86407125D01*
X60747934Y-86407125D01*
X60591971Y-86421456D01*
X60586409Y-86423025D01*
X60586407Y-86423025D01*
X60490836Y-86449979D01*
X60389701Y-86478502D01*
X60384518Y-86481058D01*
X60303258Y-86521131D01*
X60247530Y-86534125D01*
X56038250Y-86534125D01*
X55970129Y-86514123D01*
X55923636Y-86460467D01*
X55912250Y-86408125D01*
X55912250Y-84123348D01*
X55932252Y-84055227D01*
X55985908Y-84008734D01*
X56016911Y-83999168D01*
X56080709Y-83988205D01*
X56087439Y-83987236D01*
X56151857Y-83979726D01*
X56158742Y-83977227D01*
X56158746Y-83977226D01*
X56160888Y-83976449D01*
X56182531Y-83970710D01*
X56184787Y-83970322D01*
X56184789Y-83970321D01*
X56192001Y-83969082D01*
X56251703Y-83943678D01*
X56258021Y-83941190D01*
X56312113Y-83921556D01*
X56312116Y-83921554D01*
X56318991Y-83919059D01*
X56325105Y-83915050D01*
X56325110Y-83915048D01*
X56327020Y-83913795D01*
X56346772Y-83903226D01*
X56355609Y-83899466D01*
X56407850Y-83861021D01*
X56413447Y-83857131D01*
X56461561Y-83825586D01*
X56467685Y-83821571D01*
X56474296Y-83814593D01*
X56491073Y-83799776D01*
X56498814Y-83794079D01*
X56540822Y-83744633D01*
X56545356Y-83739580D01*
X56589964Y-83692490D01*
X56593639Y-83686164D01*
X56593642Y-83686159D01*
X56594786Y-83684189D01*
X56607715Y-83665894D01*
X56609195Y-83664152D01*
X56613934Y-83658574D01*
X56617262Y-83652057D01*
X56617265Y-83652052D01*
X56643430Y-83600810D01*
X56646693Y-83594824D01*
X56657415Y-83576366D01*
X56679269Y-83538741D01*
X56682053Y-83529549D01*
X56690426Y-83508774D01*
X56691464Y-83506741D01*
X56691464Y-83506740D01*
X56694793Y-83500221D01*
X56710210Y-83437220D01*
X56712001Y-83430668D01*
X56730808Y-83368571D01*
X56731403Y-83358981D01*
X56734771Y-83336843D01*
X56737054Y-83327513D01*
X56737750Y-83316295D01*
X56737750Y-83260579D01*
X56737992Y-83252777D01*
X56741818Y-83191109D01*
X56739570Y-83178025D01*
X56737750Y-83156689D01*
X56737750Y-77926579D01*
X56737992Y-77918777D01*
X56741818Y-77857109D01*
X56730830Y-77793166D01*
X56729860Y-77786429D01*
X56723199Y-77729294D01*
X56722351Y-77722018D01*
X56719851Y-77715129D01*
X56719074Y-77712987D01*
X56713335Y-77691344D01*
X56712947Y-77689088D01*
X56712946Y-77689086D01*
X56711707Y-77681874D01*
X56686303Y-77622172D01*
X56683815Y-77615854D01*
X56664181Y-77561762D01*
X56664179Y-77561759D01*
X56661684Y-77554884D01*
X56657675Y-77548770D01*
X56657673Y-77548765D01*
X56656420Y-77546855D01*
X56645851Y-77527103D01*
X56642091Y-77518266D01*
X56613340Y-77479198D01*
X56603646Y-77466025D01*
X56599756Y-77460428D01*
X56568211Y-77412314D01*
X56564196Y-77406190D01*
X56557218Y-77399579D01*
X56542401Y-77382802D01*
X56536704Y-77375061D01*
X56487258Y-77333053D01*
X56482205Y-77328519D01*
X56435115Y-77283911D01*
X56428789Y-77280236D01*
X56428784Y-77280233D01*
X56426814Y-77279089D01*
X56408519Y-77266160D01*
X56406777Y-77264680D01*
X56401199Y-77259941D01*
X56394682Y-77256613D01*
X56394677Y-77256610D01*
X56343435Y-77230445D01*
X56337449Y-77227182D01*
X56331319Y-77223621D01*
X56281366Y-77194606D01*
X56272174Y-77191822D01*
X56251399Y-77183449D01*
X56249366Y-77182411D01*
X56249365Y-77182411D01*
X56242846Y-77179082D01*
X56179845Y-77163665D01*
X56173293Y-77161874D01*
X56111196Y-77143067D01*
X56101606Y-77142472D01*
X56079468Y-77139104D01*
X56070138Y-77136821D01*
X56064536Y-77136473D01*
X56064533Y-77136473D01*
X56060859Y-77136245D01*
X56060849Y-77136245D01*
X56058920Y-77136125D01*
X56038250Y-77136125D01*
X55970129Y-77116123D01*
X55923636Y-77062467D01*
X55912250Y-77010125D01*
X55912250Y-74723125D01*
X55932252Y-74655004D01*
X55985908Y-74608511D01*
X56038250Y-74597125D01*
X60246108Y-74597125D01*
X60304775Y-74611617D01*
G37*
G04 #@! TD.AperFunction*
G04 #@! TA.AperFunction,NonConductor*
G36*
X149434078Y-69228029D02*
G01*
X149480593Y-69281666D01*
X149492000Y-69334054D01*
X149492000Y-92166000D01*
X149471998Y-92234121D01*
X149418342Y-92280614D01*
X149366000Y-92292000D01*
X25084000Y-92292000D01*
X25015879Y-92271998D01*
X24969386Y-92218342D01*
X24958000Y-92166000D01*
X24958000Y-89000000D01*
X26386526Y-89000000D01*
X26406391Y-89252403D01*
X26465495Y-89498591D01*
X26562384Y-89732502D01*
X26694672Y-89948376D01*
X26859102Y-90140898D01*
X27051624Y-90305328D01*
X27267498Y-90437616D01*
X27272068Y-90439509D01*
X27272072Y-90439511D01*
X27496836Y-90532611D01*
X27501409Y-90534505D01*
X27586032Y-90554821D01*
X27742784Y-90592454D01*
X27742790Y-90592455D01*
X27747597Y-90593609D01*
X27847416Y-90601465D01*
X27934345Y-90608307D01*
X27934352Y-90608307D01*
X27936801Y-90608500D01*
X28063199Y-90608500D01*
X28065648Y-90608307D01*
X28065655Y-90608307D01*
X28152584Y-90601465D01*
X28252403Y-90593609D01*
X28257210Y-90592455D01*
X28257216Y-90592454D01*
X28413968Y-90554821D01*
X28498591Y-90534505D01*
X28503164Y-90532611D01*
X28727928Y-90439511D01*
X28727932Y-90439509D01*
X28732502Y-90437616D01*
X28948376Y-90305328D01*
X29140898Y-90140898D01*
X29305328Y-89948376D01*
X29437616Y-89732502D01*
X29534505Y-89498591D01*
X29593609Y-89252403D01*
X29613474Y-89000000D01*
X29593609Y-88747597D01*
X29576955Y-88678225D01*
X29541320Y-88529796D01*
X29534505Y-88501409D01*
X29495609Y-88407505D01*
X29439511Y-88272072D01*
X29439509Y-88272068D01*
X29437616Y-88267498D01*
X29305328Y-88051624D01*
X29140898Y-87859102D01*
X28948376Y-87694672D01*
X28732502Y-87562384D01*
X28727932Y-87560491D01*
X28727928Y-87560489D01*
X28503164Y-87467389D01*
X28503162Y-87467388D01*
X28498591Y-87465495D01*
X28413968Y-87445179D01*
X28257216Y-87407546D01*
X28257210Y-87407545D01*
X28252403Y-87406391D01*
X28152584Y-87398535D01*
X28065655Y-87391693D01*
X28065648Y-87391693D01*
X28063199Y-87391500D01*
X27936801Y-87391500D01*
X27934352Y-87391693D01*
X27934345Y-87391693D01*
X27847416Y-87398535D01*
X27747597Y-87406391D01*
X27742790Y-87407545D01*
X27742784Y-87407546D01*
X27586032Y-87445179D01*
X27501409Y-87465495D01*
X27496838Y-87467388D01*
X27496836Y-87467389D01*
X27272072Y-87560489D01*
X27272068Y-87560491D01*
X27267498Y-87562384D01*
X27051624Y-87694672D01*
X26859102Y-87859102D01*
X26694672Y-88051624D01*
X26562384Y-88267498D01*
X26560491Y-88272068D01*
X26560489Y-88272072D01*
X26504391Y-88407505D01*
X26465495Y-88501409D01*
X26458680Y-88529796D01*
X26423046Y-88678225D01*
X26406391Y-88747597D01*
X26386526Y-89000000D01*
X24958000Y-89000000D01*
X24958000Y-83274141D01*
X35333182Y-83274141D01*
X35334422Y-83281357D01*
X35335430Y-83287222D01*
X35337250Y-83308561D01*
X35337250Y-87341150D01*
X35352649Y-87473232D01*
X35355145Y-87480109D01*
X35355146Y-87480112D01*
X35385948Y-87564970D01*
X35413316Y-87640366D01*
X35510804Y-87789060D01*
X35639885Y-87911339D01*
X35793634Y-88000644D01*
X35800636Y-88002765D01*
X35800639Y-88002766D01*
X35844800Y-88016141D01*
X35844491Y-88017160D01*
X35844750Y-88017189D01*
X35845045Y-88016215D01*
X35850274Y-88017799D01*
X35850276Y-88017799D01*
X35963804Y-88052183D01*
X35982679Y-88053354D01*
X35990406Y-88053834D01*
X36006558Y-88056291D01*
X36006564Y-88056252D01*
X36012114Y-88057096D01*
X36017562Y-88058429D01*
X36025048Y-88058893D01*
X36026841Y-88059005D01*
X36026851Y-88059005D01*
X36028780Y-88059125D01*
X36071796Y-88059125D01*
X36079597Y-88059367D01*
X36141266Y-88063193D01*
X36154350Y-88060945D01*
X36175686Y-88059125D01*
X40651461Y-88059125D01*
X40719582Y-88079127D01*
X40759745Y-88120701D01*
X40822176Y-88225637D01*
X40960744Y-88383644D01*
X40965274Y-88387215D01*
X41116233Y-88506221D01*
X41125787Y-88513753D01*
X41130903Y-88516444D01*
X41130905Y-88516446D01*
X41306660Y-88608915D01*
X41311777Y-88611607D01*
X41512484Y-88673929D01*
X41518219Y-88674608D01*
X41518220Y-88674608D01*
X41548782Y-88678225D01*
X41683124Y-88694125D01*
X45614566Y-88694125D01*
X45770529Y-88679794D01*
X45776091Y-88678225D01*
X45776093Y-88678225D01*
X45871664Y-88651271D01*
X45972799Y-88622748D01*
X46161287Y-88529796D01*
X46329679Y-88404052D01*
X46472336Y-88249726D01*
X46555519Y-88117889D01*
X46608785Y-88070951D01*
X46662080Y-88059125D01*
X51184796Y-88059125D01*
X51192597Y-88059367D01*
X51254266Y-88063193D01*
X51261482Y-88061953D01*
X51261484Y-88061953D01*
X51344996Y-88047603D01*
X51351741Y-88046631D01*
X51369385Y-88044574D01*
X51369386Y-88044574D01*
X51376657Y-88043726D01*
X51383536Y-88041229D01*
X51383592Y-88041216D01*
X51391233Y-88039658D01*
X51422285Y-88034322D01*
X51429501Y-88033082D01*
X51593109Y-87963466D01*
X51736314Y-87858079D01*
X51794950Y-87789060D01*
X51846695Y-87728153D01*
X51846698Y-87728149D01*
X51851434Y-87722574D01*
X51932293Y-87564221D01*
X51974554Y-87391513D01*
X51975250Y-87380295D01*
X51975250Y-83274141D01*
X54383182Y-83274141D01*
X54384422Y-83281357D01*
X54385430Y-83287222D01*
X54387250Y-83308561D01*
X54387250Y-87341150D01*
X54402649Y-87473232D01*
X54405145Y-87480109D01*
X54405146Y-87480112D01*
X54435948Y-87564970D01*
X54463316Y-87640366D01*
X54560804Y-87789060D01*
X54689885Y-87911339D01*
X54843634Y-88000644D01*
X54850636Y-88002765D01*
X54850639Y-88002766D01*
X54894800Y-88016141D01*
X54894491Y-88017160D01*
X54894750Y-88017189D01*
X54895045Y-88016215D01*
X54900274Y-88017799D01*
X54900276Y-88017799D01*
X55013804Y-88052183D01*
X55032679Y-88053354D01*
X55040406Y-88053834D01*
X55056558Y-88056291D01*
X55056564Y-88056252D01*
X55062114Y-88057096D01*
X55067562Y-88058429D01*
X55075048Y-88058893D01*
X55076841Y-88059005D01*
X55076851Y-88059005D01*
X55078780Y-88059125D01*
X55121796Y-88059125D01*
X55129597Y-88059367D01*
X55191266Y-88063193D01*
X55204350Y-88060945D01*
X55225686Y-88059125D01*
X59701461Y-88059125D01*
X59769582Y-88079127D01*
X59809745Y-88120701D01*
X59872176Y-88225637D01*
X60010744Y-88383644D01*
X60015274Y-88387215D01*
X60166233Y-88506221D01*
X60175787Y-88513753D01*
X60180903Y-88516444D01*
X60180905Y-88516446D01*
X60356660Y-88608915D01*
X60361777Y-88611607D01*
X60562484Y-88673929D01*
X60568219Y-88674608D01*
X60568220Y-88674608D01*
X60598782Y-88678225D01*
X60733124Y-88694125D01*
X64664566Y-88694125D01*
X64820529Y-88679794D01*
X64826091Y-88678225D01*
X64826093Y-88678225D01*
X64921664Y-88651271D01*
X65022799Y-88622748D01*
X65211287Y-88529796D01*
X65379679Y-88404052D01*
X65522336Y-88249726D01*
X65605519Y-88117889D01*
X65658785Y-88070951D01*
X65712080Y-88059125D01*
X70234796Y-88059125D01*
X70242597Y-88059367D01*
X70304266Y-88063193D01*
X70311482Y-88061953D01*
X70311484Y-88061953D01*
X70394996Y-88047603D01*
X70401741Y-88046631D01*
X70419385Y-88044574D01*
X70419386Y-88044574D01*
X70426657Y-88043726D01*
X70433536Y-88041229D01*
X70433592Y-88041216D01*
X70441233Y-88039658D01*
X70472285Y-88034322D01*
X70479501Y-88033082D01*
X70643109Y-87963466D01*
X70786314Y-87858079D01*
X70844950Y-87789060D01*
X70896695Y-87728153D01*
X70896698Y-87728149D01*
X70901434Y-87722574D01*
X70982293Y-87564221D01*
X71024554Y-87391513D01*
X71025250Y-87380295D01*
X71025250Y-83274141D01*
X73433182Y-83274141D01*
X73434422Y-83281357D01*
X73435430Y-83287222D01*
X73437250Y-83308561D01*
X73437250Y-87341150D01*
X73452649Y-87473232D01*
X73455145Y-87480109D01*
X73455146Y-87480112D01*
X73485948Y-87564970D01*
X73513316Y-87640366D01*
X73610804Y-87789060D01*
X73739885Y-87911339D01*
X73893634Y-88000644D01*
X73900636Y-88002765D01*
X73900639Y-88002766D01*
X73944800Y-88016141D01*
X73944491Y-88017160D01*
X73944750Y-88017189D01*
X73945045Y-88016215D01*
X73950274Y-88017799D01*
X73950276Y-88017799D01*
X74063804Y-88052183D01*
X74082679Y-88053354D01*
X74090406Y-88053834D01*
X74106558Y-88056291D01*
X74106564Y-88056252D01*
X74112114Y-88057096D01*
X74117562Y-88058429D01*
X74125048Y-88058893D01*
X74126841Y-88059005D01*
X74126851Y-88059005D01*
X74128780Y-88059125D01*
X74171796Y-88059125D01*
X74179597Y-88059367D01*
X74241266Y-88063193D01*
X74254350Y-88060945D01*
X74275686Y-88059125D01*
X78751461Y-88059125D01*
X78819582Y-88079127D01*
X78859745Y-88120701D01*
X78922176Y-88225637D01*
X79060744Y-88383644D01*
X79065274Y-88387215D01*
X79216233Y-88506221D01*
X79225787Y-88513753D01*
X79230903Y-88516444D01*
X79230905Y-88516446D01*
X79406660Y-88608915D01*
X79411777Y-88611607D01*
X79612484Y-88673929D01*
X79618219Y-88674608D01*
X79618220Y-88674608D01*
X79648782Y-88678225D01*
X79783124Y-88694125D01*
X83714566Y-88694125D01*
X83870529Y-88679794D01*
X83876091Y-88678225D01*
X83876093Y-88678225D01*
X83971664Y-88651271D01*
X84072799Y-88622748D01*
X84261287Y-88529796D01*
X84429679Y-88404052D01*
X84572336Y-88249726D01*
X84655519Y-88117889D01*
X84708785Y-88070951D01*
X84762080Y-88059125D01*
X89284796Y-88059125D01*
X89292597Y-88059367D01*
X89354266Y-88063193D01*
X89361482Y-88061953D01*
X89361484Y-88061953D01*
X89444996Y-88047603D01*
X89451741Y-88046631D01*
X89469385Y-88044574D01*
X89469386Y-88044574D01*
X89476657Y-88043726D01*
X89483536Y-88041229D01*
X89483592Y-88041216D01*
X89491233Y-88039658D01*
X89522285Y-88034322D01*
X89529501Y-88033082D01*
X89693109Y-87963466D01*
X89836314Y-87858079D01*
X89894950Y-87789060D01*
X89946695Y-87728153D01*
X89946698Y-87728149D01*
X89951434Y-87722574D01*
X90032293Y-87564221D01*
X90074554Y-87391513D01*
X90075250Y-87380295D01*
X90075250Y-83274141D01*
X92483182Y-83274141D01*
X92484422Y-83281357D01*
X92485430Y-83287222D01*
X92487250Y-83308561D01*
X92487250Y-87341150D01*
X92502649Y-87473232D01*
X92505145Y-87480109D01*
X92505146Y-87480112D01*
X92535948Y-87564970D01*
X92563316Y-87640366D01*
X92660804Y-87789060D01*
X92789885Y-87911339D01*
X92943634Y-88000644D01*
X92950636Y-88002765D01*
X92950639Y-88002766D01*
X92994800Y-88016141D01*
X92994491Y-88017160D01*
X92994750Y-88017189D01*
X92995045Y-88016215D01*
X93000274Y-88017799D01*
X93000276Y-88017799D01*
X93113804Y-88052183D01*
X93132679Y-88053354D01*
X93140406Y-88053834D01*
X93156558Y-88056291D01*
X93156564Y-88056252D01*
X93162114Y-88057096D01*
X93167562Y-88058429D01*
X93175048Y-88058893D01*
X93176841Y-88059005D01*
X93176851Y-88059005D01*
X93178780Y-88059125D01*
X93221796Y-88059125D01*
X93229597Y-88059367D01*
X93291266Y-88063193D01*
X93304350Y-88060945D01*
X93325686Y-88059125D01*
X97801461Y-88059125D01*
X97869582Y-88079127D01*
X97909745Y-88120701D01*
X97972176Y-88225637D01*
X98110744Y-88383644D01*
X98115274Y-88387215D01*
X98266233Y-88506221D01*
X98275787Y-88513753D01*
X98280903Y-88516444D01*
X98280905Y-88516446D01*
X98456660Y-88608915D01*
X98461777Y-88611607D01*
X98662484Y-88673929D01*
X98668219Y-88674608D01*
X98668220Y-88674608D01*
X98698782Y-88678225D01*
X98833124Y-88694125D01*
X102764566Y-88694125D01*
X102920529Y-88679794D01*
X102926091Y-88678225D01*
X102926093Y-88678225D01*
X103021664Y-88651271D01*
X103122799Y-88622748D01*
X103311287Y-88529796D01*
X103479679Y-88404052D01*
X103622336Y-88249726D01*
X103705519Y-88117889D01*
X103758785Y-88070951D01*
X103812080Y-88059125D01*
X108334796Y-88059125D01*
X108342597Y-88059367D01*
X108404266Y-88063193D01*
X108411482Y-88061953D01*
X108411484Y-88061953D01*
X108494996Y-88047603D01*
X108501741Y-88046631D01*
X108519385Y-88044574D01*
X108519386Y-88044574D01*
X108526657Y-88043726D01*
X108533536Y-88041229D01*
X108533592Y-88041216D01*
X108541233Y-88039658D01*
X108572285Y-88034322D01*
X108579501Y-88033082D01*
X108743109Y-87963466D01*
X108886314Y-87858079D01*
X108944950Y-87789060D01*
X108996695Y-87728153D01*
X108996698Y-87728149D01*
X109001434Y-87722574D01*
X109082293Y-87564221D01*
X109124554Y-87391513D01*
X109125250Y-87380295D01*
X109125250Y-83274141D01*
X111533182Y-83274141D01*
X111534422Y-83281357D01*
X111535430Y-83287222D01*
X111537250Y-83308561D01*
X111537250Y-87341150D01*
X111552649Y-87473232D01*
X111555145Y-87480109D01*
X111555146Y-87480112D01*
X111585948Y-87564970D01*
X111613316Y-87640366D01*
X111710804Y-87789060D01*
X111839885Y-87911339D01*
X111993634Y-88000644D01*
X112000636Y-88002765D01*
X112000639Y-88002766D01*
X112044800Y-88016141D01*
X112044491Y-88017160D01*
X112044750Y-88017189D01*
X112045045Y-88016215D01*
X112050274Y-88017799D01*
X112050276Y-88017799D01*
X112163804Y-88052183D01*
X112182679Y-88053354D01*
X112190406Y-88053834D01*
X112206558Y-88056291D01*
X112206564Y-88056252D01*
X112212114Y-88057096D01*
X112217562Y-88058429D01*
X112225048Y-88058893D01*
X112226841Y-88059005D01*
X112226851Y-88059005D01*
X112228780Y-88059125D01*
X112271796Y-88059125D01*
X112279597Y-88059367D01*
X112341266Y-88063193D01*
X112354350Y-88060945D01*
X112375686Y-88059125D01*
X116851461Y-88059125D01*
X116919582Y-88079127D01*
X116959745Y-88120701D01*
X117022176Y-88225637D01*
X117160744Y-88383644D01*
X117165274Y-88387215D01*
X117316233Y-88506221D01*
X117325787Y-88513753D01*
X117330903Y-88516444D01*
X117330905Y-88516446D01*
X117506660Y-88608915D01*
X117511777Y-88611607D01*
X117712484Y-88673929D01*
X117718219Y-88674608D01*
X117718220Y-88674608D01*
X117748782Y-88678225D01*
X117883124Y-88694125D01*
X121814566Y-88694125D01*
X121970529Y-88679794D01*
X121976091Y-88678225D01*
X121976093Y-88678225D01*
X122071664Y-88651271D01*
X122172799Y-88622748D01*
X122361287Y-88529796D01*
X122529679Y-88404052D01*
X122672336Y-88249726D01*
X122755519Y-88117889D01*
X122808785Y-88070951D01*
X122862080Y-88059125D01*
X127384796Y-88059125D01*
X127392597Y-88059367D01*
X127454266Y-88063193D01*
X127461482Y-88061953D01*
X127461484Y-88061953D01*
X127544996Y-88047603D01*
X127551741Y-88046631D01*
X127569385Y-88044574D01*
X127569386Y-88044574D01*
X127576657Y-88043726D01*
X127583536Y-88041229D01*
X127583592Y-88041216D01*
X127591233Y-88039658D01*
X127622285Y-88034322D01*
X127629501Y-88033082D01*
X127793109Y-87963466D01*
X127936314Y-87858079D01*
X127994950Y-87789060D01*
X128046695Y-87728153D01*
X128046698Y-87728149D01*
X128051434Y-87722574D01*
X128132293Y-87564221D01*
X128174554Y-87391513D01*
X128175250Y-87380295D01*
X128175250Y-83274141D01*
X130583182Y-83274141D01*
X130584422Y-83281357D01*
X130585430Y-83287222D01*
X130587250Y-83308561D01*
X130587250Y-87341150D01*
X130602649Y-87473232D01*
X130605145Y-87480109D01*
X130605146Y-87480112D01*
X130635948Y-87564970D01*
X130663316Y-87640366D01*
X130760804Y-87789060D01*
X130889885Y-87911339D01*
X131043634Y-88000644D01*
X131050636Y-88002765D01*
X131050639Y-88002766D01*
X131094800Y-88016141D01*
X131094491Y-88017160D01*
X131094750Y-88017189D01*
X131095045Y-88016215D01*
X131100274Y-88017799D01*
X131100276Y-88017799D01*
X131213804Y-88052183D01*
X131232679Y-88053354D01*
X131240406Y-88053834D01*
X131256558Y-88056291D01*
X131256564Y-88056252D01*
X131262114Y-88057096D01*
X131267562Y-88058429D01*
X131275048Y-88058893D01*
X131276841Y-88059005D01*
X131276851Y-88059005D01*
X131278780Y-88059125D01*
X131321796Y-88059125D01*
X131329597Y-88059367D01*
X131391266Y-88063193D01*
X131404350Y-88060945D01*
X131425686Y-88059125D01*
X135901461Y-88059125D01*
X135969582Y-88079127D01*
X136009745Y-88120701D01*
X136072176Y-88225637D01*
X136210744Y-88383644D01*
X136215274Y-88387215D01*
X136366233Y-88506221D01*
X136375787Y-88513753D01*
X136380903Y-88516444D01*
X136380905Y-88516446D01*
X136556660Y-88608915D01*
X136561777Y-88611607D01*
X136762484Y-88673929D01*
X136768219Y-88674608D01*
X136768220Y-88674608D01*
X136798782Y-88678225D01*
X136933124Y-88694125D01*
X140864566Y-88694125D01*
X141020529Y-88679794D01*
X141026091Y-88678225D01*
X141026093Y-88678225D01*
X141121664Y-88651271D01*
X141222799Y-88622748D01*
X141411287Y-88529796D01*
X141579679Y-88404052D01*
X141722336Y-88249726D01*
X141805519Y-88117889D01*
X141858785Y-88070951D01*
X141912080Y-88059125D01*
X146434796Y-88059125D01*
X146442597Y-88059367D01*
X146504266Y-88063193D01*
X146511482Y-88061953D01*
X146511484Y-88061953D01*
X146594996Y-88047603D01*
X146601741Y-88046631D01*
X146619385Y-88044574D01*
X146619386Y-88044574D01*
X146626657Y-88043726D01*
X146633536Y-88041229D01*
X146633592Y-88041216D01*
X146641233Y-88039658D01*
X146672285Y-88034322D01*
X146679501Y-88033082D01*
X146843109Y-87963466D01*
X146986314Y-87858079D01*
X147044950Y-87789060D01*
X147096695Y-87728153D01*
X147096698Y-87728149D01*
X147101434Y-87722574D01*
X147182293Y-87564221D01*
X147224554Y-87391513D01*
X147225250Y-87380295D01*
X147225250Y-83260579D01*
X147225492Y-83252777D01*
X147229318Y-83191109D01*
X147218330Y-83127166D01*
X147217360Y-83120429D01*
X147210699Y-83063294D01*
X147209851Y-83056018D01*
X147207351Y-83049129D01*
X147206574Y-83046987D01*
X147200835Y-83025344D01*
X147200447Y-83023088D01*
X147200446Y-83023086D01*
X147199207Y-83015874D01*
X147173803Y-82956172D01*
X147171315Y-82949854D01*
X147151681Y-82895762D01*
X147151679Y-82895759D01*
X147149184Y-82888884D01*
X147145175Y-82882770D01*
X147145173Y-82882765D01*
X147143920Y-82880855D01*
X147133351Y-82861103D01*
X147129591Y-82852266D01*
X147100840Y-82813198D01*
X147091146Y-82800025D01*
X147087256Y-82794428D01*
X147055711Y-82746314D01*
X147051696Y-82740190D01*
X147044718Y-82733579D01*
X147029901Y-82716802D01*
X147024204Y-82709061D01*
X146974758Y-82667053D01*
X146969705Y-82662519D01*
X146922615Y-82617911D01*
X146916289Y-82614236D01*
X146916284Y-82614233D01*
X146914314Y-82613089D01*
X146896019Y-82600160D01*
X146894277Y-82598680D01*
X146888699Y-82593941D01*
X146882182Y-82590613D01*
X146882177Y-82590610D01*
X146830935Y-82564445D01*
X146824949Y-82561182D01*
X146818819Y-82557621D01*
X146768866Y-82528606D01*
X146759674Y-82525822D01*
X146738899Y-82517449D01*
X146736866Y-82516411D01*
X146736865Y-82516411D01*
X146730346Y-82513082D01*
X146667345Y-82497665D01*
X146660793Y-82495874D01*
X146598696Y-82477067D01*
X146589106Y-82476472D01*
X146566968Y-82473104D01*
X146557638Y-82470821D01*
X146552036Y-82470473D01*
X146552033Y-82470473D01*
X146548359Y-82470245D01*
X146548349Y-82470245D01*
X146546420Y-82470125D01*
X146525750Y-82470125D01*
X146457629Y-82450123D01*
X146411136Y-82396467D01*
X146399750Y-82344125D01*
X146399750Y-78789348D01*
X146419752Y-78721227D01*
X146473408Y-78674734D01*
X146504411Y-78665168D01*
X146568209Y-78654205D01*
X146574939Y-78653236D01*
X146639357Y-78645726D01*
X146646242Y-78643227D01*
X146646246Y-78643226D01*
X146648388Y-78642449D01*
X146670031Y-78636710D01*
X146672287Y-78636322D01*
X146672289Y-78636321D01*
X146679501Y-78635082D01*
X146739203Y-78609678D01*
X146745521Y-78607190D01*
X146799613Y-78587556D01*
X146799616Y-78587554D01*
X146806491Y-78585059D01*
X146812605Y-78581050D01*
X146812610Y-78581048D01*
X146814520Y-78579795D01*
X146834272Y-78569226D01*
X146843109Y-78565466D01*
X146895350Y-78527021D01*
X146900947Y-78523131D01*
X146949061Y-78491586D01*
X146955185Y-78487571D01*
X146961796Y-78480593D01*
X146978573Y-78465776D01*
X146986314Y-78460079D01*
X147028322Y-78410633D01*
X147032856Y-78405580D01*
X147077464Y-78358490D01*
X147081139Y-78352164D01*
X147081142Y-78352159D01*
X147082286Y-78350189D01*
X147095215Y-78331894D01*
X147096695Y-78330152D01*
X147101434Y-78324574D01*
X147104762Y-78318057D01*
X147104765Y-78318052D01*
X147130930Y-78266810D01*
X147134193Y-78260824D01*
X147144915Y-78242366D01*
X147166769Y-78204741D01*
X147169553Y-78195549D01*
X147177926Y-78174774D01*
X147178964Y-78172741D01*
X147178964Y-78172740D01*
X147182293Y-78166221D01*
X147197710Y-78103220D01*
X147199501Y-78096668D01*
X147218308Y-78034571D01*
X147218903Y-78024981D01*
X147222271Y-78002843D01*
X147224554Y-77993513D01*
X147225250Y-77982295D01*
X147225250Y-77926579D01*
X147225492Y-77918777D01*
X147229318Y-77857109D01*
X147227070Y-77844025D01*
X147225250Y-77822689D01*
X147225250Y-73790100D01*
X147209851Y-73658018D01*
X147186613Y-73593997D01*
X147151681Y-73497763D01*
X147149184Y-73490884D01*
X147051696Y-73342190D01*
X146922615Y-73219911D01*
X146786585Y-73140898D01*
X146775193Y-73134281D01*
X146768866Y-73130606D01*
X146761864Y-73128485D01*
X146761861Y-73128484D01*
X146717700Y-73115109D01*
X146718009Y-73114090D01*
X146717750Y-73114061D01*
X146717455Y-73115035D01*
X146712226Y-73113451D01*
X146712224Y-73113451D01*
X146598696Y-73079067D01*
X146579821Y-73077896D01*
X146572094Y-73077416D01*
X146555942Y-73074959D01*
X146555936Y-73074998D01*
X146550386Y-73074154D01*
X146544938Y-73072821D01*
X146537452Y-73072357D01*
X146535659Y-73072245D01*
X146535649Y-73072245D01*
X146533720Y-73072125D01*
X146490704Y-73072125D01*
X146482902Y-73071883D01*
X146421234Y-73068057D01*
X146408150Y-73070305D01*
X146386814Y-73072125D01*
X141911039Y-73072125D01*
X141842918Y-73052123D01*
X141802754Y-73010548D01*
X141765766Y-72948376D01*
X141740324Y-72905613D01*
X141601756Y-72747606D01*
X141436713Y-72617497D01*
X141431597Y-72614806D01*
X141431595Y-72614804D01*
X141255840Y-72522335D01*
X141255838Y-72522334D01*
X141250723Y-72519643D01*
X141050016Y-72457321D01*
X141044281Y-72456642D01*
X141044280Y-72456642D01*
X140995992Y-72450927D01*
X140879376Y-72437125D01*
X136947934Y-72437125D01*
X136791971Y-72451456D01*
X136786409Y-72453025D01*
X136786407Y-72453025D01*
X136690836Y-72479979D01*
X136589701Y-72508502D01*
X136401213Y-72601454D01*
X136232821Y-72727198D01*
X136090164Y-72881524D01*
X136050643Y-72944162D01*
X136006982Y-73013360D01*
X135953715Y-73060299D01*
X135900420Y-73072125D01*
X131377704Y-73072125D01*
X131369902Y-73071883D01*
X131308234Y-73068057D01*
X131301018Y-73069297D01*
X131301016Y-73069297D01*
X131217504Y-73083647D01*
X131210759Y-73084619D01*
X131193115Y-73086676D01*
X131193114Y-73086676D01*
X131185843Y-73087524D01*
X131178964Y-73090021D01*
X131178908Y-73090034D01*
X131171267Y-73091592D01*
X131132999Y-73098168D01*
X130969391Y-73167784D01*
X130826186Y-73273171D01*
X130821442Y-73278754D01*
X130821443Y-73278754D01*
X130715805Y-73403097D01*
X130715802Y-73403101D01*
X130711066Y-73408676D01*
X130630207Y-73567029D01*
X130628468Y-73574134D01*
X130628467Y-73574138D01*
X130623703Y-73593609D01*
X130587946Y-73739737D01*
X130587250Y-73750955D01*
X130587250Y-77870671D01*
X130587008Y-77878472D01*
X130583182Y-77940141D01*
X130593957Y-78002843D01*
X130594168Y-78004072D01*
X130595139Y-78010814D01*
X130602649Y-78075232D01*
X130605148Y-78082117D01*
X130605149Y-78082121D01*
X130605926Y-78084263D01*
X130611665Y-78105906D01*
X130612053Y-78108162D01*
X130613293Y-78115376D01*
X130638697Y-78175078D01*
X130641185Y-78181396D01*
X130647118Y-78197740D01*
X130663316Y-78242366D01*
X130667325Y-78248480D01*
X130667327Y-78248485D01*
X130668580Y-78250395D01*
X130679149Y-78270147D01*
X130682909Y-78278984D01*
X130687248Y-78284880D01*
X130721354Y-78331225D01*
X130725244Y-78336822D01*
X130739450Y-78358490D01*
X130760804Y-78391060D01*
X130767782Y-78397671D01*
X130782599Y-78414448D01*
X130788296Y-78422189D01*
X130793872Y-78426926D01*
X130837742Y-78464197D01*
X130842795Y-78468731D01*
X130889885Y-78513339D01*
X130896211Y-78517014D01*
X130896216Y-78517017D01*
X130898186Y-78518161D01*
X130916481Y-78531090D01*
X130923801Y-78537309D01*
X130930318Y-78540637D01*
X130930323Y-78540640D01*
X130981565Y-78566805D01*
X130987546Y-78570065D01*
X131043634Y-78602644D01*
X131052826Y-78605428D01*
X131073601Y-78613801D01*
X131082154Y-78618168D01*
X131089266Y-78619908D01*
X131089265Y-78619908D01*
X131145153Y-78633584D01*
X131151707Y-78635376D01*
X131213804Y-78654183D01*
X131223361Y-78654776D01*
X131223394Y-78654778D01*
X131245532Y-78658146D01*
X131254862Y-78660429D01*
X131260464Y-78660777D01*
X131260467Y-78660777D01*
X131264141Y-78661005D01*
X131264151Y-78661005D01*
X131266080Y-78661125D01*
X131286750Y-78661125D01*
X131354871Y-78681127D01*
X131401364Y-78734783D01*
X131412750Y-78787125D01*
X131412750Y-82341902D01*
X131392748Y-82410023D01*
X131339092Y-82456516D01*
X131308090Y-82466082D01*
X131244291Y-82477045D01*
X131237561Y-82478014D01*
X131173143Y-82485524D01*
X131166258Y-82488023D01*
X131166254Y-82488024D01*
X131164112Y-82488801D01*
X131142469Y-82494540D01*
X131140213Y-82494928D01*
X131140211Y-82494929D01*
X131132999Y-82496168D01*
X131073297Y-82521572D01*
X131066979Y-82524060D01*
X131012887Y-82543694D01*
X131012884Y-82543696D01*
X131006009Y-82546191D01*
X130999895Y-82550200D01*
X130999890Y-82550202D01*
X130997980Y-82551455D01*
X130978228Y-82562024D01*
X130969391Y-82565784D01*
X130963495Y-82570123D01*
X130917150Y-82604229D01*
X130911553Y-82608119D01*
X130857315Y-82643679D01*
X130850704Y-82650657D01*
X130833927Y-82665474D01*
X130826186Y-82671171D01*
X130821449Y-82676747D01*
X130784178Y-82720617D01*
X130779644Y-82725670D01*
X130735036Y-82772760D01*
X130731361Y-82779086D01*
X130731358Y-82779091D01*
X130730214Y-82781061D01*
X130717285Y-82799356D01*
X130711066Y-82806676D01*
X130707738Y-82813193D01*
X130707735Y-82813198D01*
X130681570Y-82864440D01*
X130678310Y-82870421D01*
X130645731Y-82926509D01*
X130642947Y-82935701D01*
X130634574Y-82956476D01*
X130630207Y-82965029D01*
X130628467Y-82972140D01*
X130614791Y-83028028D01*
X130612999Y-83034582D01*
X130594192Y-83096679D01*
X130593739Y-83103984D01*
X130593597Y-83106269D01*
X130590229Y-83128407D01*
X130587946Y-83137737D01*
X130587250Y-83148955D01*
X130587250Y-83204671D01*
X130587008Y-83212472D01*
X130583182Y-83274141D01*
X128175250Y-83274141D01*
X128175250Y-83260579D01*
X128175492Y-83252777D01*
X128179318Y-83191109D01*
X128168330Y-83127166D01*
X128167360Y-83120429D01*
X128160699Y-83063294D01*
X128159851Y-83056018D01*
X128157351Y-83049129D01*
X128156574Y-83046987D01*
X128150835Y-83025344D01*
X128150447Y-83023088D01*
X128150446Y-83023086D01*
X128149207Y-83015874D01*
X128123803Y-82956172D01*
X128121315Y-82949854D01*
X128101681Y-82895762D01*
X128101679Y-82895759D01*
X128099184Y-82888884D01*
X128095175Y-82882770D01*
X128095173Y-82882765D01*
X128093920Y-82880855D01*
X128083351Y-82861103D01*
X128079591Y-82852266D01*
X128050840Y-82813198D01*
X128041146Y-82800025D01*
X128037256Y-82794428D01*
X128005711Y-82746314D01*
X128001696Y-82740190D01*
X127994718Y-82733579D01*
X127979901Y-82716802D01*
X127974204Y-82709061D01*
X127924758Y-82667053D01*
X127919705Y-82662519D01*
X127872615Y-82617911D01*
X127866289Y-82614236D01*
X127866284Y-82614233D01*
X127864314Y-82613089D01*
X127846019Y-82600160D01*
X127844277Y-82598680D01*
X127838699Y-82593941D01*
X127832182Y-82590613D01*
X127832177Y-82590610D01*
X127780935Y-82564445D01*
X127774949Y-82561182D01*
X127768819Y-82557621D01*
X127718866Y-82528606D01*
X127709674Y-82525822D01*
X127688899Y-82517449D01*
X127686866Y-82516411D01*
X127686865Y-82516411D01*
X127680346Y-82513082D01*
X127617345Y-82497665D01*
X127610793Y-82495874D01*
X127548696Y-82477067D01*
X127539106Y-82476472D01*
X127516968Y-82473104D01*
X127507638Y-82470821D01*
X127502036Y-82470473D01*
X127502033Y-82470473D01*
X127498359Y-82470245D01*
X127498349Y-82470245D01*
X127496420Y-82470125D01*
X127475750Y-82470125D01*
X127407629Y-82450123D01*
X127361136Y-82396467D01*
X127349750Y-82344125D01*
X127349750Y-78789348D01*
X127369752Y-78721227D01*
X127423408Y-78674734D01*
X127454411Y-78665168D01*
X127518209Y-78654205D01*
X127524939Y-78653236D01*
X127589357Y-78645726D01*
X127596242Y-78643227D01*
X127596246Y-78643226D01*
X127598388Y-78642449D01*
X127620031Y-78636710D01*
X127622287Y-78636322D01*
X127622289Y-78636321D01*
X127629501Y-78635082D01*
X127689203Y-78609678D01*
X127695521Y-78607190D01*
X127749613Y-78587556D01*
X127749616Y-78587554D01*
X127756491Y-78585059D01*
X127762605Y-78581050D01*
X127762610Y-78581048D01*
X127764520Y-78579795D01*
X127784272Y-78569226D01*
X127793109Y-78565466D01*
X127845350Y-78527021D01*
X127850947Y-78523131D01*
X127899061Y-78491586D01*
X127905185Y-78487571D01*
X127911796Y-78480593D01*
X127928573Y-78465776D01*
X127936314Y-78460079D01*
X127978322Y-78410633D01*
X127982856Y-78405580D01*
X128027464Y-78358490D01*
X128031139Y-78352164D01*
X128031142Y-78352159D01*
X128032286Y-78350189D01*
X128045215Y-78331894D01*
X128046695Y-78330152D01*
X128051434Y-78324574D01*
X128054762Y-78318057D01*
X128054765Y-78318052D01*
X128080930Y-78266810D01*
X128084193Y-78260824D01*
X128094915Y-78242366D01*
X128116769Y-78204741D01*
X128119553Y-78195549D01*
X128127926Y-78174774D01*
X128128964Y-78172741D01*
X128128964Y-78172740D01*
X128132293Y-78166221D01*
X128147710Y-78103220D01*
X128149501Y-78096668D01*
X128168308Y-78034571D01*
X128168903Y-78024981D01*
X128172271Y-78002843D01*
X128174554Y-77993513D01*
X128175250Y-77982295D01*
X128175250Y-77926579D01*
X128175492Y-77918777D01*
X128179318Y-77857109D01*
X128177070Y-77844025D01*
X128175250Y-77822689D01*
X128175250Y-73790100D01*
X128159851Y-73658018D01*
X128136613Y-73593997D01*
X128101681Y-73497763D01*
X128099184Y-73490884D01*
X128001696Y-73342190D01*
X127872615Y-73219911D01*
X127736585Y-73140898D01*
X127725193Y-73134281D01*
X127718866Y-73130606D01*
X127711864Y-73128485D01*
X127711861Y-73128484D01*
X127667700Y-73115109D01*
X127668009Y-73114090D01*
X127667750Y-73114061D01*
X127667455Y-73115035D01*
X127662226Y-73113451D01*
X127662224Y-73113451D01*
X127548696Y-73079067D01*
X127529821Y-73077896D01*
X127522094Y-73077416D01*
X127505942Y-73074959D01*
X127505936Y-73074998D01*
X127500386Y-73074154D01*
X127494938Y-73072821D01*
X127487452Y-73072357D01*
X127485659Y-73072245D01*
X127485649Y-73072245D01*
X127483720Y-73072125D01*
X127440704Y-73072125D01*
X127432902Y-73071883D01*
X127371234Y-73068057D01*
X127358150Y-73070305D01*
X127336814Y-73072125D01*
X122861039Y-73072125D01*
X122792918Y-73052123D01*
X122752754Y-73010548D01*
X122715766Y-72948376D01*
X122690324Y-72905613D01*
X122551756Y-72747606D01*
X122386713Y-72617497D01*
X122381597Y-72614806D01*
X122381595Y-72614804D01*
X122205840Y-72522335D01*
X122205838Y-72522334D01*
X122200723Y-72519643D01*
X122000016Y-72457321D01*
X121994281Y-72456642D01*
X121994280Y-72456642D01*
X121945992Y-72450927D01*
X121829376Y-72437125D01*
X117897934Y-72437125D01*
X117741971Y-72451456D01*
X117736409Y-72453025D01*
X117736407Y-72453025D01*
X117640836Y-72479979D01*
X117539701Y-72508502D01*
X117351213Y-72601454D01*
X117182821Y-72727198D01*
X117040164Y-72881524D01*
X117000643Y-72944162D01*
X116956982Y-73013360D01*
X116903715Y-73060299D01*
X116850420Y-73072125D01*
X112327704Y-73072125D01*
X112319902Y-73071883D01*
X112258234Y-73068057D01*
X112251018Y-73069297D01*
X112251016Y-73069297D01*
X112167504Y-73083647D01*
X112160759Y-73084619D01*
X112143115Y-73086676D01*
X112143114Y-73086676D01*
X112135843Y-73087524D01*
X112128964Y-73090021D01*
X112128908Y-73090034D01*
X112121267Y-73091592D01*
X112082999Y-73098168D01*
X111919391Y-73167784D01*
X111776186Y-73273171D01*
X111771442Y-73278754D01*
X111771443Y-73278754D01*
X111665805Y-73403097D01*
X111665802Y-73403101D01*
X111661066Y-73408676D01*
X111580207Y-73567029D01*
X111578468Y-73574134D01*
X111578467Y-73574138D01*
X111573703Y-73593609D01*
X111537946Y-73739737D01*
X111537250Y-73750955D01*
X111537250Y-77870671D01*
X111537008Y-77878472D01*
X111533182Y-77940141D01*
X111543957Y-78002843D01*
X111544168Y-78004072D01*
X111545139Y-78010814D01*
X111552649Y-78075232D01*
X111555148Y-78082117D01*
X111555149Y-78082121D01*
X111555926Y-78084263D01*
X111561665Y-78105906D01*
X111562053Y-78108162D01*
X111563293Y-78115376D01*
X111588697Y-78175078D01*
X111591185Y-78181396D01*
X111597118Y-78197740D01*
X111613316Y-78242366D01*
X111617325Y-78248480D01*
X111617327Y-78248485D01*
X111618580Y-78250395D01*
X111629149Y-78270147D01*
X111632909Y-78278984D01*
X111637248Y-78284880D01*
X111671354Y-78331225D01*
X111675244Y-78336822D01*
X111689450Y-78358490D01*
X111710804Y-78391060D01*
X111717782Y-78397671D01*
X111732599Y-78414448D01*
X111738296Y-78422189D01*
X111743872Y-78426926D01*
X111787742Y-78464197D01*
X111792795Y-78468731D01*
X111839885Y-78513339D01*
X111846211Y-78517014D01*
X111846216Y-78517017D01*
X111848186Y-78518161D01*
X111866481Y-78531090D01*
X111873801Y-78537309D01*
X111880318Y-78540637D01*
X111880323Y-78540640D01*
X111931565Y-78566805D01*
X111937546Y-78570065D01*
X111993634Y-78602644D01*
X112002826Y-78605428D01*
X112023601Y-78613801D01*
X112032154Y-78618168D01*
X112039266Y-78619908D01*
X112039265Y-78619908D01*
X112095153Y-78633584D01*
X112101707Y-78635376D01*
X112163804Y-78654183D01*
X112173361Y-78654776D01*
X112173394Y-78654778D01*
X112195532Y-78658146D01*
X112204862Y-78660429D01*
X112210464Y-78660777D01*
X112210467Y-78660777D01*
X112214141Y-78661005D01*
X112214151Y-78661005D01*
X112216080Y-78661125D01*
X112236750Y-78661125D01*
X112304871Y-78681127D01*
X112351364Y-78734783D01*
X112362750Y-78787125D01*
X112362750Y-82341902D01*
X112342748Y-82410023D01*
X112289092Y-82456516D01*
X112258090Y-82466082D01*
X112194291Y-82477045D01*
X112187561Y-82478014D01*
X112123143Y-82485524D01*
X112116258Y-82488023D01*
X112116254Y-82488024D01*
X112114112Y-82488801D01*
X112092469Y-82494540D01*
X112090213Y-82494928D01*
X112090211Y-82494929D01*
X112082999Y-82496168D01*
X112023297Y-82521572D01*
X112016979Y-82524060D01*
X111962887Y-82543694D01*
X111962884Y-82543696D01*
X111956009Y-82546191D01*
X111949895Y-82550200D01*
X111949890Y-82550202D01*
X111947980Y-82551455D01*
X111928228Y-82562024D01*
X111919391Y-82565784D01*
X111913495Y-82570123D01*
X111867150Y-82604229D01*
X111861553Y-82608119D01*
X111807315Y-82643679D01*
X111800704Y-82650657D01*
X111783927Y-82665474D01*
X111776186Y-82671171D01*
X111771449Y-82676747D01*
X111734178Y-82720617D01*
X111729644Y-82725670D01*
X111685036Y-82772760D01*
X111681361Y-82779086D01*
X111681358Y-82779091D01*
X111680214Y-82781061D01*
X111667285Y-82799356D01*
X111661066Y-82806676D01*
X111657738Y-82813193D01*
X111657735Y-82813198D01*
X111631570Y-82864440D01*
X111628310Y-82870421D01*
X111595731Y-82926509D01*
X111592947Y-82935701D01*
X111584574Y-82956476D01*
X111580207Y-82965029D01*
X111578467Y-82972140D01*
X111564791Y-83028028D01*
X111562999Y-83034582D01*
X111544192Y-83096679D01*
X111543739Y-83103984D01*
X111543597Y-83106269D01*
X111540229Y-83128407D01*
X111537946Y-83137737D01*
X111537250Y-83148955D01*
X111537250Y-83204671D01*
X111537008Y-83212472D01*
X111533182Y-83274141D01*
X109125250Y-83274141D01*
X109125250Y-83260579D01*
X109125492Y-83252777D01*
X109129318Y-83191109D01*
X109118330Y-83127166D01*
X109117360Y-83120429D01*
X109110699Y-83063294D01*
X109109851Y-83056018D01*
X109107351Y-83049129D01*
X109106574Y-83046987D01*
X109100835Y-83025344D01*
X109100447Y-83023088D01*
X109100446Y-83023086D01*
X109099207Y-83015874D01*
X109073803Y-82956172D01*
X109071315Y-82949854D01*
X109051681Y-82895762D01*
X109051679Y-82895759D01*
X109049184Y-82888884D01*
X109045175Y-82882770D01*
X109045173Y-82882765D01*
X109043920Y-82880855D01*
X109033351Y-82861103D01*
X109029591Y-82852266D01*
X109000840Y-82813198D01*
X108991146Y-82800025D01*
X108987256Y-82794428D01*
X108955711Y-82746314D01*
X108951696Y-82740190D01*
X108944718Y-82733579D01*
X108929901Y-82716802D01*
X108924204Y-82709061D01*
X108874758Y-82667053D01*
X108869705Y-82662519D01*
X108822615Y-82617911D01*
X108816289Y-82614236D01*
X108816284Y-82614233D01*
X108814314Y-82613089D01*
X108796019Y-82600160D01*
X108794277Y-82598680D01*
X108788699Y-82593941D01*
X108782182Y-82590613D01*
X108782177Y-82590610D01*
X108730935Y-82564445D01*
X108724949Y-82561182D01*
X108718819Y-82557621D01*
X108668866Y-82528606D01*
X108659674Y-82525822D01*
X108638899Y-82517449D01*
X108636866Y-82516411D01*
X108636865Y-82516411D01*
X108630346Y-82513082D01*
X108567345Y-82497665D01*
X108560793Y-82495874D01*
X108498696Y-82477067D01*
X108489106Y-82476472D01*
X108466968Y-82473104D01*
X108457638Y-82470821D01*
X108452036Y-82470473D01*
X108452033Y-82470473D01*
X108448359Y-82470245D01*
X108448349Y-82470245D01*
X108446420Y-82470125D01*
X108425750Y-82470125D01*
X108357629Y-82450123D01*
X108311136Y-82396467D01*
X108299750Y-82344125D01*
X108299750Y-78789348D01*
X108319752Y-78721227D01*
X108373408Y-78674734D01*
X108404411Y-78665168D01*
X108468209Y-78654205D01*
X108474939Y-78653236D01*
X108539357Y-78645726D01*
X108546242Y-78643227D01*
X108546246Y-78643226D01*
X108548388Y-78642449D01*
X108570031Y-78636710D01*
X108572287Y-78636322D01*
X108572289Y-78636321D01*
X108579501Y-78635082D01*
X108639203Y-78609678D01*
X108645521Y-78607190D01*
X108699613Y-78587556D01*
X108699616Y-78587554D01*
X108706491Y-78585059D01*
X108712605Y-78581050D01*
X108712610Y-78581048D01*
X108714520Y-78579795D01*
X108734272Y-78569226D01*
X108743109Y-78565466D01*
X108795350Y-78527021D01*
X108800947Y-78523131D01*
X108849061Y-78491586D01*
X108855185Y-78487571D01*
X108861796Y-78480593D01*
X108878573Y-78465776D01*
X108886314Y-78460079D01*
X108928322Y-78410633D01*
X108932856Y-78405580D01*
X108977464Y-78358490D01*
X108981139Y-78352164D01*
X108981142Y-78352159D01*
X108982286Y-78350189D01*
X108995215Y-78331894D01*
X108996695Y-78330152D01*
X109001434Y-78324574D01*
X109004762Y-78318057D01*
X109004765Y-78318052D01*
X109030930Y-78266810D01*
X109034193Y-78260824D01*
X109044915Y-78242366D01*
X109066769Y-78204741D01*
X109069553Y-78195549D01*
X109077926Y-78174774D01*
X109078964Y-78172741D01*
X109078964Y-78172740D01*
X109082293Y-78166221D01*
X109097710Y-78103220D01*
X109099501Y-78096668D01*
X109118308Y-78034571D01*
X109118903Y-78024981D01*
X109122271Y-78002843D01*
X109124554Y-77993513D01*
X109125250Y-77982295D01*
X109125250Y-77926579D01*
X109125492Y-77918777D01*
X109129318Y-77857109D01*
X109127070Y-77844025D01*
X109125250Y-77822689D01*
X109125250Y-73790100D01*
X109109851Y-73658018D01*
X109086613Y-73593997D01*
X109051681Y-73497763D01*
X109049184Y-73490884D01*
X108951696Y-73342190D01*
X108822615Y-73219911D01*
X108686585Y-73140898D01*
X108675193Y-73134281D01*
X108668866Y-73130606D01*
X108661864Y-73128485D01*
X108661861Y-73128484D01*
X108617700Y-73115109D01*
X108618009Y-73114090D01*
X108617750Y-73114061D01*
X108617455Y-73115035D01*
X108612226Y-73113451D01*
X108612224Y-73113451D01*
X108498696Y-73079067D01*
X108479821Y-73077896D01*
X108472094Y-73077416D01*
X108455942Y-73074959D01*
X108455936Y-73074998D01*
X108450386Y-73074154D01*
X108444938Y-73072821D01*
X108437452Y-73072357D01*
X108435659Y-73072245D01*
X108435649Y-73072245D01*
X108433720Y-73072125D01*
X108390704Y-73072125D01*
X108382902Y-73071883D01*
X108321234Y-73068057D01*
X108308150Y-73070305D01*
X108286814Y-73072125D01*
X103811039Y-73072125D01*
X103742918Y-73052123D01*
X103702754Y-73010548D01*
X103665766Y-72948376D01*
X103640324Y-72905613D01*
X103501756Y-72747606D01*
X103336713Y-72617497D01*
X103331597Y-72614806D01*
X103331595Y-72614804D01*
X103155840Y-72522335D01*
X103155838Y-72522334D01*
X103150723Y-72519643D01*
X102950016Y-72457321D01*
X102944281Y-72456642D01*
X102944280Y-72456642D01*
X102895992Y-72450927D01*
X102779376Y-72437125D01*
X98847934Y-72437125D01*
X98691971Y-72451456D01*
X98686409Y-72453025D01*
X98686407Y-72453025D01*
X98590836Y-72479979D01*
X98489701Y-72508502D01*
X98301213Y-72601454D01*
X98132821Y-72727198D01*
X97990164Y-72881524D01*
X97950643Y-72944162D01*
X97906982Y-73013360D01*
X97853715Y-73060299D01*
X97800420Y-73072125D01*
X93277704Y-73072125D01*
X93269902Y-73071883D01*
X93208234Y-73068057D01*
X93201018Y-73069297D01*
X93201016Y-73069297D01*
X93117504Y-73083647D01*
X93110759Y-73084619D01*
X93093115Y-73086676D01*
X93093114Y-73086676D01*
X93085843Y-73087524D01*
X93078964Y-73090021D01*
X93078908Y-73090034D01*
X93071267Y-73091592D01*
X93032999Y-73098168D01*
X92869391Y-73167784D01*
X92726186Y-73273171D01*
X92721442Y-73278754D01*
X92721443Y-73278754D01*
X92615805Y-73403097D01*
X92615802Y-73403101D01*
X92611066Y-73408676D01*
X92530207Y-73567029D01*
X92528468Y-73574134D01*
X92528467Y-73574138D01*
X92523703Y-73593609D01*
X92487946Y-73739737D01*
X92487250Y-73750955D01*
X92487250Y-77870671D01*
X92487008Y-77878472D01*
X92483182Y-77940141D01*
X92493957Y-78002843D01*
X92494168Y-78004072D01*
X92495139Y-78010814D01*
X92502649Y-78075232D01*
X92505148Y-78082117D01*
X92505149Y-78082121D01*
X92505926Y-78084263D01*
X92511665Y-78105906D01*
X92512053Y-78108162D01*
X92513293Y-78115376D01*
X92538697Y-78175078D01*
X92541185Y-78181396D01*
X92547118Y-78197740D01*
X92563316Y-78242366D01*
X92567325Y-78248480D01*
X92567327Y-78248485D01*
X92568580Y-78250395D01*
X92579149Y-78270147D01*
X92582909Y-78278984D01*
X92587248Y-78284880D01*
X92621354Y-78331225D01*
X92625244Y-78336822D01*
X92639450Y-78358490D01*
X92660804Y-78391060D01*
X92667782Y-78397671D01*
X92682599Y-78414448D01*
X92688296Y-78422189D01*
X92693872Y-78426926D01*
X92737742Y-78464197D01*
X92742795Y-78468731D01*
X92789885Y-78513339D01*
X92796211Y-78517014D01*
X92796216Y-78517017D01*
X92798186Y-78518161D01*
X92816481Y-78531090D01*
X92823801Y-78537309D01*
X92830318Y-78540637D01*
X92830323Y-78540640D01*
X92881565Y-78566805D01*
X92887546Y-78570065D01*
X92943634Y-78602644D01*
X92952826Y-78605428D01*
X92973601Y-78613801D01*
X92982154Y-78618168D01*
X92989266Y-78619908D01*
X92989265Y-78619908D01*
X93045153Y-78633584D01*
X93051707Y-78635376D01*
X93113804Y-78654183D01*
X93123361Y-78654776D01*
X93123394Y-78654778D01*
X93145532Y-78658146D01*
X93154862Y-78660429D01*
X93160464Y-78660777D01*
X93160467Y-78660777D01*
X93164141Y-78661005D01*
X93164151Y-78661005D01*
X93166080Y-78661125D01*
X93186750Y-78661125D01*
X93254871Y-78681127D01*
X93301364Y-78734783D01*
X93312750Y-78787125D01*
X93312750Y-82341902D01*
X93292748Y-82410023D01*
X93239092Y-82456516D01*
X93208090Y-82466082D01*
X93144291Y-82477045D01*
X93137561Y-82478014D01*
X93073143Y-82485524D01*
X93066258Y-82488023D01*
X93066254Y-82488024D01*
X93064112Y-82488801D01*
X93042469Y-82494540D01*
X93040213Y-82494928D01*
X93040211Y-82494929D01*
X93032999Y-82496168D01*
X92973297Y-82521572D01*
X92966979Y-82524060D01*
X92912887Y-82543694D01*
X92912884Y-82543696D01*
X92906009Y-82546191D01*
X92899895Y-82550200D01*
X92899890Y-82550202D01*
X92897980Y-82551455D01*
X92878228Y-82562024D01*
X92869391Y-82565784D01*
X92863495Y-82570123D01*
X92817150Y-82604229D01*
X92811553Y-82608119D01*
X92757315Y-82643679D01*
X92750704Y-82650657D01*
X92733927Y-82665474D01*
X92726186Y-82671171D01*
X92721449Y-82676747D01*
X92684178Y-82720617D01*
X92679644Y-82725670D01*
X92635036Y-82772760D01*
X92631361Y-82779086D01*
X92631358Y-82779091D01*
X92630214Y-82781061D01*
X92617285Y-82799356D01*
X92611066Y-82806676D01*
X92607738Y-82813193D01*
X92607735Y-82813198D01*
X92581570Y-82864440D01*
X92578310Y-82870421D01*
X92545731Y-82926509D01*
X92542947Y-82935701D01*
X92534574Y-82956476D01*
X92530207Y-82965029D01*
X92528467Y-82972140D01*
X92514791Y-83028028D01*
X92512999Y-83034582D01*
X92494192Y-83096679D01*
X92493739Y-83103984D01*
X92493597Y-83106269D01*
X92490229Y-83128407D01*
X92487946Y-83137737D01*
X92487250Y-83148955D01*
X92487250Y-83204671D01*
X92487008Y-83212472D01*
X92483182Y-83274141D01*
X90075250Y-83274141D01*
X90075250Y-83260579D01*
X90075492Y-83252777D01*
X90079318Y-83191109D01*
X90068330Y-83127166D01*
X90067360Y-83120429D01*
X90060699Y-83063294D01*
X90059851Y-83056018D01*
X90057351Y-83049129D01*
X90056574Y-83046987D01*
X90050835Y-83025344D01*
X90050447Y-83023088D01*
X90050446Y-83023086D01*
X90049207Y-83015874D01*
X90023803Y-82956172D01*
X90021315Y-82949854D01*
X90001681Y-82895762D01*
X90001679Y-82895759D01*
X89999184Y-82888884D01*
X89995175Y-82882770D01*
X89995173Y-82882765D01*
X89993920Y-82880855D01*
X89983351Y-82861103D01*
X89979591Y-82852266D01*
X89950840Y-82813198D01*
X89941146Y-82800025D01*
X89937256Y-82794428D01*
X89905711Y-82746314D01*
X89901696Y-82740190D01*
X89894718Y-82733579D01*
X89879901Y-82716802D01*
X89874204Y-82709061D01*
X89824758Y-82667053D01*
X89819705Y-82662519D01*
X89772615Y-82617911D01*
X89766289Y-82614236D01*
X89766284Y-82614233D01*
X89764314Y-82613089D01*
X89746019Y-82600160D01*
X89744277Y-82598680D01*
X89738699Y-82593941D01*
X89732182Y-82590613D01*
X89732177Y-82590610D01*
X89680935Y-82564445D01*
X89674949Y-82561182D01*
X89668819Y-82557621D01*
X89618866Y-82528606D01*
X89609674Y-82525822D01*
X89588899Y-82517449D01*
X89586866Y-82516411D01*
X89586865Y-82516411D01*
X89580346Y-82513082D01*
X89517345Y-82497665D01*
X89510793Y-82495874D01*
X89448696Y-82477067D01*
X89439106Y-82476472D01*
X89416968Y-82473104D01*
X89407638Y-82470821D01*
X89402036Y-82470473D01*
X89402033Y-82470473D01*
X89398359Y-82470245D01*
X89398349Y-82470245D01*
X89396420Y-82470125D01*
X89375750Y-82470125D01*
X89307629Y-82450123D01*
X89261136Y-82396467D01*
X89249750Y-82344125D01*
X89249750Y-78789348D01*
X89269752Y-78721227D01*
X89323408Y-78674734D01*
X89354411Y-78665168D01*
X89418209Y-78654205D01*
X89424939Y-78653236D01*
X89489357Y-78645726D01*
X89496242Y-78643227D01*
X89496246Y-78643226D01*
X89498388Y-78642449D01*
X89520031Y-78636710D01*
X89522287Y-78636322D01*
X89522289Y-78636321D01*
X89529501Y-78635082D01*
X89589203Y-78609678D01*
X89595521Y-78607190D01*
X89649613Y-78587556D01*
X89649616Y-78587554D01*
X89656491Y-78585059D01*
X89662605Y-78581050D01*
X89662610Y-78581048D01*
X89664520Y-78579795D01*
X89684272Y-78569226D01*
X89693109Y-78565466D01*
X89745350Y-78527021D01*
X89750947Y-78523131D01*
X89799061Y-78491586D01*
X89805185Y-78487571D01*
X89811796Y-78480593D01*
X89828573Y-78465776D01*
X89836314Y-78460079D01*
X89878322Y-78410633D01*
X89882856Y-78405580D01*
X89927464Y-78358490D01*
X89931139Y-78352164D01*
X89931142Y-78352159D01*
X89932286Y-78350189D01*
X89945215Y-78331894D01*
X89946695Y-78330152D01*
X89951434Y-78324574D01*
X89954762Y-78318057D01*
X89954765Y-78318052D01*
X89980930Y-78266810D01*
X89984193Y-78260824D01*
X89994915Y-78242366D01*
X90016769Y-78204741D01*
X90019553Y-78195549D01*
X90027926Y-78174774D01*
X90028964Y-78172741D01*
X90028964Y-78172740D01*
X90032293Y-78166221D01*
X90047710Y-78103220D01*
X90049501Y-78096668D01*
X90068308Y-78034571D01*
X90068903Y-78024981D01*
X90072271Y-78002843D01*
X90074554Y-77993513D01*
X90075250Y-77982295D01*
X90075250Y-77926579D01*
X90075492Y-77918777D01*
X90079318Y-77857109D01*
X90077070Y-77844025D01*
X90075250Y-77822689D01*
X90075250Y-73790100D01*
X90059851Y-73658018D01*
X90036613Y-73593997D01*
X90001681Y-73497763D01*
X89999184Y-73490884D01*
X89901696Y-73342190D01*
X89772615Y-73219911D01*
X89636585Y-73140898D01*
X89625193Y-73134281D01*
X89618866Y-73130606D01*
X89611864Y-73128485D01*
X89611861Y-73128484D01*
X89567700Y-73115109D01*
X89568009Y-73114090D01*
X89567750Y-73114061D01*
X89567455Y-73115035D01*
X89562226Y-73113451D01*
X89562224Y-73113451D01*
X89448696Y-73079067D01*
X89429821Y-73077896D01*
X89422094Y-73077416D01*
X89405942Y-73074959D01*
X89405936Y-73074998D01*
X89400386Y-73074154D01*
X89394938Y-73072821D01*
X89387452Y-73072357D01*
X89385659Y-73072245D01*
X89385649Y-73072245D01*
X89383720Y-73072125D01*
X89340704Y-73072125D01*
X89332902Y-73071883D01*
X89271234Y-73068057D01*
X89258150Y-73070305D01*
X89236814Y-73072125D01*
X84761039Y-73072125D01*
X84692918Y-73052123D01*
X84652754Y-73010548D01*
X84615766Y-72948376D01*
X84590324Y-72905613D01*
X84451756Y-72747606D01*
X84286713Y-72617497D01*
X84281597Y-72614806D01*
X84281595Y-72614804D01*
X84105840Y-72522335D01*
X84105838Y-72522334D01*
X84100723Y-72519643D01*
X83900016Y-72457321D01*
X83894281Y-72456642D01*
X83894280Y-72456642D01*
X83845992Y-72450927D01*
X83729376Y-72437125D01*
X79797934Y-72437125D01*
X79641971Y-72451456D01*
X79636409Y-72453025D01*
X79636407Y-72453025D01*
X79540836Y-72479979D01*
X79439701Y-72508502D01*
X79251213Y-72601454D01*
X79082821Y-72727198D01*
X78940164Y-72881524D01*
X78900643Y-72944162D01*
X78856982Y-73013360D01*
X78803715Y-73060299D01*
X78750420Y-73072125D01*
X74227704Y-73072125D01*
X74219902Y-73071883D01*
X74158234Y-73068057D01*
X74151018Y-73069297D01*
X74151016Y-73069297D01*
X74067504Y-73083647D01*
X74060759Y-73084619D01*
X74043115Y-73086676D01*
X74043114Y-73086676D01*
X74035843Y-73087524D01*
X74028964Y-73090021D01*
X74028908Y-73090034D01*
X74021267Y-73091592D01*
X73982999Y-73098168D01*
X73819391Y-73167784D01*
X73676186Y-73273171D01*
X73671442Y-73278754D01*
X73671443Y-73278754D01*
X73565805Y-73403097D01*
X73565802Y-73403101D01*
X73561066Y-73408676D01*
X73480207Y-73567029D01*
X73478468Y-73574134D01*
X73478467Y-73574138D01*
X73473703Y-73593609D01*
X73437946Y-73739737D01*
X73437250Y-73750955D01*
X73437250Y-77870671D01*
X73437008Y-77878472D01*
X73433182Y-77940141D01*
X73443957Y-78002843D01*
X73444168Y-78004072D01*
X73445139Y-78010814D01*
X73452649Y-78075232D01*
X73455148Y-78082117D01*
X73455149Y-78082121D01*
X73455926Y-78084263D01*
X73461665Y-78105906D01*
X73462053Y-78108162D01*
X73463293Y-78115376D01*
X73488697Y-78175078D01*
X73491185Y-78181396D01*
X73497118Y-78197740D01*
X73513316Y-78242366D01*
X73517325Y-78248480D01*
X73517327Y-78248485D01*
X73518580Y-78250395D01*
X73529149Y-78270147D01*
X73532909Y-78278984D01*
X73537248Y-78284880D01*
X73571354Y-78331225D01*
X73575244Y-78336822D01*
X73589450Y-78358490D01*
X73610804Y-78391060D01*
X73617782Y-78397671D01*
X73632599Y-78414448D01*
X73638296Y-78422189D01*
X73643872Y-78426926D01*
X73687742Y-78464197D01*
X73692795Y-78468731D01*
X73739885Y-78513339D01*
X73746211Y-78517014D01*
X73746216Y-78517017D01*
X73748186Y-78518161D01*
X73766481Y-78531090D01*
X73773801Y-78537309D01*
X73780318Y-78540637D01*
X73780323Y-78540640D01*
X73831565Y-78566805D01*
X73837546Y-78570065D01*
X73893634Y-78602644D01*
X73902826Y-78605428D01*
X73923601Y-78613801D01*
X73932154Y-78618168D01*
X73939266Y-78619908D01*
X73939265Y-78619908D01*
X73995153Y-78633584D01*
X74001707Y-78635376D01*
X74063804Y-78654183D01*
X74073361Y-78654776D01*
X74073394Y-78654778D01*
X74095532Y-78658146D01*
X74104862Y-78660429D01*
X74110464Y-78660777D01*
X74110467Y-78660777D01*
X74114141Y-78661005D01*
X74114151Y-78661005D01*
X74116080Y-78661125D01*
X74136750Y-78661125D01*
X74204871Y-78681127D01*
X74251364Y-78734783D01*
X74262750Y-78787125D01*
X74262750Y-82341902D01*
X74242748Y-82410023D01*
X74189092Y-82456516D01*
X74158090Y-82466082D01*
X74094291Y-82477045D01*
X74087561Y-82478014D01*
X74023143Y-82485524D01*
X74016258Y-82488023D01*
X74016254Y-82488024D01*
X74014112Y-82488801D01*
X73992469Y-82494540D01*
X73990213Y-82494928D01*
X73990211Y-82494929D01*
X73982999Y-82496168D01*
X73923297Y-82521572D01*
X73916979Y-82524060D01*
X73862887Y-82543694D01*
X73862884Y-82543696D01*
X73856009Y-82546191D01*
X73849895Y-82550200D01*
X73849890Y-82550202D01*
X73847980Y-82551455D01*
X73828228Y-82562024D01*
X73819391Y-82565784D01*
X73813495Y-82570123D01*
X73767150Y-82604229D01*
X73761553Y-82608119D01*
X73707315Y-82643679D01*
X73700704Y-82650657D01*
X73683927Y-82665474D01*
X73676186Y-82671171D01*
X73671449Y-82676747D01*
X73634178Y-82720617D01*
X73629644Y-82725670D01*
X73585036Y-82772760D01*
X73581361Y-82779086D01*
X73581358Y-82779091D01*
X73580214Y-82781061D01*
X73567285Y-82799356D01*
X73561066Y-82806676D01*
X73557738Y-82813193D01*
X73557735Y-82813198D01*
X73531570Y-82864440D01*
X73528310Y-82870421D01*
X73495731Y-82926509D01*
X73492947Y-82935701D01*
X73484574Y-82956476D01*
X73480207Y-82965029D01*
X73478467Y-82972140D01*
X73464791Y-83028028D01*
X73462999Y-83034582D01*
X73444192Y-83096679D01*
X73443739Y-83103984D01*
X73443597Y-83106269D01*
X73440229Y-83128407D01*
X73437946Y-83137737D01*
X73437250Y-83148955D01*
X73437250Y-83204671D01*
X73437008Y-83212472D01*
X73433182Y-83274141D01*
X71025250Y-83274141D01*
X71025250Y-83260579D01*
X71025492Y-83252777D01*
X71029318Y-83191109D01*
X71018330Y-83127166D01*
X71017360Y-83120429D01*
X71010699Y-83063294D01*
X71009851Y-83056018D01*
X71007351Y-83049129D01*
X71006574Y-83046987D01*
X71000835Y-83025344D01*
X71000447Y-83023088D01*
X71000446Y-83023086D01*
X70999207Y-83015874D01*
X70973803Y-82956172D01*
X70971315Y-82949854D01*
X70951681Y-82895762D01*
X70951679Y-82895759D01*
X70949184Y-82888884D01*
X70945175Y-82882770D01*
X70945173Y-82882765D01*
X70943920Y-82880855D01*
X70933351Y-82861103D01*
X70929591Y-82852266D01*
X70900840Y-82813198D01*
X70891146Y-82800025D01*
X70887256Y-82794428D01*
X70855711Y-82746314D01*
X70851696Y-82740190D01*
X70844718Y-82733579D01*
X70829901Y-82716802D01*
X70824204Y-82709061D01*
X70774758Y-82667053D01*
X70769705Y-82662519D01*
X70722615Y-82617911D01*
X70716289Y-82614236D01*
X70716284Y-82614233D01*
X70714314Y-82613089D01*
X70696019Y-82600160D01*
X70694277Y-82598680D01*
X70688699Y-82593941D01*
X70682182Y-82590613D01*
X70682177Y-82590610D01*
X70630935Y-82564445D01*
X70624949Y-82561182D01*
X70618819Y-82557621D01*
X70568866Y-82528606D01*
X70559674Y-82525822D01*
X70538899Y-82517449D01*
X70536866Y-82516411D01*
X70536865Y-82516411D01*
X70530346Y-82513082D01*
X70467345Y-82497665D01*
X70460793Y-82495874D01*
X70398696Y-82477067D01*
X70389106Y-82476472D01*
X70366968Y-82473104D01*
X70357638Y-82470821D01*
X70352036Y-82470473D01*
X70352033Y-82470473D01*
X70348359Y-82470245D01*
X70348349Y-82470245D01*
X70346420Y-82470125D01*
X70325750Y-82470125D01*
X70257629Y-82450123D01*
X70211136Y-82396467D01*
X70199750Y-82344125D01*
X70199750Y-78789348D01*
X70219752Y-78721227D01*
X70273408Y-78674734D01*
X70304411Y-78665168D01*
X70368209Y-78654205D01*
X70374939Y-78653236D01*
X70439357Y-78645726D01*
X70446242Y-78643227D01*
X70446246Y-78643226D01*
X70448388Y-78642449D01*
X70470031Y-78636710D01*
X70472287Y-78636322D01*
X70472289Y-78636321D01*
X70479501Y-78635082D01*
X70539203Y-78609678D01*
X70545521Y-78607190D01*
X70599613Y-78587556D01*
X70599616Y-78587554D01*
X70606491Y-78585059D01*
X70612605Y-78581050D01*
X70612610Y-78581048D01*
X70614520Y-78579795D01*
X70634272Y-78569226D01*
X70643109Y-78565466D01*
X70695350Y-78527021D01*
X70700947Y-78523131D01*
X70749061Y-78491586D01*
X70755185Y-78487571D01*
X70761796Y-78480593D01*
X70778573Y-78465776D01*
X70786314Y-78460079D01*
X70828322Y-78410633D01*
X70832856Y-78405580D01*
X70877464Y-78358490D01*
X70881139Y-78352164D01*
X70881142Y-78352159D01*
X70882286Y-78350189D01*
X70895215Y-78331894D01*
X70896695Y-78330152D01*
X70901434Y-78324574D01*
X70904762Y-78318057D01*
X70904765Y-78318052D01*
X70930930Y-78266810D01*
X70934193Y-78260824D01*
X70944915Y-78242366D01*
X70966769Y-78204741D01*
X70969553Y-78195549D01*
X70977926Y-78174774D01*
X70978964Y-78172741D01*
X70978964Y-78172740D01*
X70982293Y-78166221D01*
X70997710Y-78103220D01*
X70999501Y-78096668D01*
X71018308Y-78034571D01*
X71018903Y-78024981D01*
X71022271Y-78002843D01*
X71024554Y-77993513D01*
X71025250Y-77982295D01*
X71025250Y-77926579D01*
X71025492Y-77918777D01*
X71029318Y-77857109D01*
X71027070Y-77844025D01*
X71025250Y-77822689D01*
X71025250Y-73790100D01*
X71009851Y-73658018D01*
X70986613Y-73593997D01*
X70951681Y-73497763D01*
X70949184Y-73490884D01*
X70851696Y-73342190D01*
X70722615Y-73219911D01*
X70586585Y-73140898D01*
X70575193Y-73134281D01*
X70568866Y-73130606D01*
X70561864Y-73128485D01*
X70561861Y-73128484D01*
X70517700Y-73115109D01*
X70518009Y-73114090D01*
X70517750Y-73114061D01*
X70517455Y-73115035D01*
X70512226Y-73113451D01*
X70512224Y-73113451D01*
X70398696Y-73079067D01*
X70379821Y-73077896D01*
X70372094Y-73077416D01*
X70355942Y-73074959D01*
X70355936Y-73074998D01*
X70350386Y-73074154D01*
X70344938Y-73072821D01*
X70337452Y-73072357D01*
X70335659Y-73072245D01*
X70335649Y-73072245D01*
X70333720Y-73072125D01*
X70290704Y-73072125D01*
X70282902Y-73071883D01*
X70221234Y-73068057D01*
X70208150Y-73070305D01*
X70186814Y-73072125D01*
X65711039Y-73072125D01*
X65642918Y-73052123D01*
X65602754Y-73010548D01*
X65565766Y-72948376D01*
X65540324Y-72905613D01*
X65401756Y-72747606D01*
X65236713Y-72617497D01*
X65231597Y-72614806D01*
X65231595Y-72614804D01*
X65055840Y-72522335D01*
X65055838Y-72522334D01*
X65050723Y-72519643D01*
X64850016Y-72457321D01*
X64844281Y-72456642D01*
X64844280Y-72456642D01*
X64795992Y-72450927D01*
X64679376Y-72437125D01*
X60747934Y-72437125D01*
X60591971Y-72451456D01*
X60586409Y-72453025D01*
X60586407Y-72453025D01*
X60490836Y-72479979D01*
X60389701Y-72508502D01*
X60201213Y-72601454D01*
X60032821Y-72727198D01*
X59890164Y-72881524D01*
X59850643Y-72944162D01*
X59806982Y-73013360D01*
X59753715Y-73060299D01*
X59700420Y-73072125D01*
X55177704Y-73072125D01*
X55169902Y-73071883D01*
X55108234Y-73068057D01*
X55101018Y-73069297D01*
X55101016Y-73069297D01*
X55017504Y-73083647D01*
X55010759Y-73084619D01*
X54993115Y-73086676D01*
X54993114Y-73086676D01*
X54985843Y-73087524D01*
X54978964Y-73090021D01*
X54978908Y-73090034D01*
X54971267Y-73091592D01*
X54932999Y-73098168D01*
X54769391Y-73167784D01*
X54626186Y-73273171D01*
X54621442Y-73278754D01*
X54621443Y-73278754D01*
X54515805Y-73403097D01*
X54515802Y-73403101D01*
X54511066Y-73408676D01*
X54430207Y-73567029D01*
X54428468Y-73574134D01*
X54428467Y-73574138D01*
X54423703Y-73593609D01*
X54387946Y-73739737D01*
X54387250Y-73750955D01*
X54387250Y-77870671D01*
X54387008Y-77878472D01*
X54383182Y-77940141D01*
X54393957Y-78002843D01*
X54394168Y-78004072D01*
X54395139Y-78010814D01*
X54402649Y-78075232D01*
X54405148Y-78082117D01*
X54405149Y-78082121D01*
X54405926Y-78084263D01*
X54411665Y-78105906D01*
X54412053Y-78108162D01*
X54413293Y-78115376D01*
X54438697Y-78175078D01*
X54441185Y-78181396D01*
X54447118Y-78197740D01*
X54463316Y-78242366D01*
X54467325Y-78248480D01*
X54467327Y-78248485D01*
X54468580Y-78250395D01*
X54479149Y-78270147D01*
X54482909Y-78278984D01*
X54487248Y-78284880D01*
X54521354Y-78331225D01*
X54525244Y-78336822D01*
X54539450Y-78358490D01*
X54560804Y-78391060D01*
X54567782Y-78397671D01*
X54582599Y-78414448D01*
X54588296Y-78422189D01*
X54593872Y-78426926D01*
X54637742Y-78464197D01*
X54642795Y-78468731D01*
X54689885Y-78513339D01*
X54696211Y-78517014D01*
X54696216Y-78517017D01*
X54698186Y-78518161D01*
X54716481Y-78531090D01*
X54723801Y-78537309D01*
X54730318Y-78540637D01*
X54730323Y-78540640D01*
X54781565Y-78566805D01*
X54787546Y-78570065D01*
X54843634Y-78602644D01*
X54852826Y-78605428D01*
X54873601Y-78613801D01*
X54882154Y-78618168D01*
X54889266Y-78619908D01*
X54889265Y-78619908D01*
X54945153Y-78633584D01*
X54951707Y-78635376D01*
X55013804Y-78654183D01*
X55023361Y-78654776D01*
X55023394Y-78654778D01*
X55045532Y-78658146D01*
X55054862Y-78660429D01*
X55060464Y-78660777D01*
X55060467Y-78660777D01*
X55064141Y-78661005D01*
X55064151Y-78661005D01*
X55066080Y-78661125D01*
X55086750Y-78661125D01*
X55154871Y-78681127D01*
X55201364Y-78734783D01*
X55212750Y-78787125D01*
X55212750Y-82341902D01*
X55192748Y-82410023D01*
X55139092Y-82456516D01*
X55108090Y-82466082D01*
X55044291Y-82477045D01*
X55037561Y-82478014D01*
X54973143Y-82485524D01*
X54966258Y-82488023D01*
X54966254Y-82488024D01*
X54964112Y-82488801D01*
X54942469Y-82494540D01*
X54940213Y-82494928D01*
X54940211Y-82494929D01*
X54932999Y-82496168D01*
X54873297Y-82521572D01*
X54866979Y-82524060D01*
X54812887Y-82543694D01*
X54812884Y-82543696D01*
X54806009Y-82546191D01*
X54799895Y-82550200D01*
X54799890Y-82550202D01*
X54797980Y-82551455D01*
X54778228Y-82562024D01*
X54769391Y-82565784D01*
X54763495Y-82570123D01*
X54717150Y-82604229D01*
X54711553Y-82608119D01*
X54657315Y-82643679D01*
X54650704Y-82650657D01*
X54633927Y-82665474D01*
X54626186Y-82671171D01*
X54621449Y-82676747D01*
X54584178Y-82720617D01*
X54579644Y-82725670D01*
X54535036Y-82772760D01*
X54531361Y-82779086D01*
X54531358Y-82779091D01*
X54530214Y-82781061D01*
X54517285Y-82799356D01*
X54511066Y-82806676D01*
X54507738Y-82813193D01*
X54507735Y-82813198D01*
X54481570Y-82864440D01*
X54478310Y-82870421D01*
X54445731Y-82926509D01*
X54442947Y-82935701D01*
X54434574Y-82956476D01*
X54430207Y-82965029D01*
X54428467Y-82972140D01*
X54414791Y-83028028D01*
X54412999Y-83034582D01*
X54394192Y-83096679D01*
X54393739Y-83103984D01*
X54393597Y-83106269D01*
X54390229Y-83128407D01*
X54387946Y-83137737D01*
X54387250Y-83148955D01*
X54387250Y-83204671D01*
X54387008Y-83212472D01*
X54383182Y-83274141D01*
X51975250Y-83274141D01*
X51975250Y-83260579D01*
X51975492Y-83252777D01*
X51979318Y-83191109D01*
X51968330Y-83127166D01*
X51967360Y-83120429D01*
X51960699Y-83063294D01*
X51959851Y-83056018D01*
X51957351Y-83049129D01*
X51956574Y-83046987D01*
X51950835Y-83025344D01*
X51950447Y-83023088D01*
X51950446Y-83023086D01*
X51949207Y-83015874D01*
X51923803Y-82956172D01*
X51921315Y-82949854D01*
X51901681Y-82895762D01*
X51901679Y-82895759D01*
X51899184Y-82888884D01*
X51895175Y-82882770D01*
X51895173Y-82882765D01*
X51893920Y-82880855D01*
X51883351Y-82861103D01*
X51879591Y-82852266D01*
X51850840Y-82813198D01*
X51841146Y-82800025D01*
X51837256Y-82794428D01*
X51805711Y-82746314D01*
X51801696Y-82740190D01*
X51794718Y-82733579D01*
X51779901Y-82716802D01*
X51774204Y-82709061D01*
X51724758Y-82667053D01*
X51719705Y-82662519D01*
X51672615Y-82617911D01*
X51666289Y-82614236D01*
X51666284Y-82614233D01*
X51664314Y-82613089D01*
X51646019Y-82600160D01*
X51644277Y-82598680D01*
X51638699Y-82593941D01*
X51632182Y-82590613D01*
X51632177Y-82590610D01*
X51580935Y-82564445D01*
X51574949Y-82561182D01*
X51568819Y-82557621D01*
X51518866Y-82528606D01*
X51509674Y-82525822D01*
X51488899Y-82517449D01*
X51486866Y-82516411D01*
X51486865Y-82516411D01*
X51480346Y-82513082D01*
X51417345Y-82497665D01*
X51410793Y-82495874D01*
X51348696Y-82477067D01*
X51339106Y-82476472D01*
X51316968Y-82473104D01*
X51307638Y-82470821D01*
X51302036Y-82470473D01*
X51302033Y-82470473D01*
X51298359Y-82470245D01*
X51298349Y-82470245D01*
X51296420Y-82470125D01*
X51275750Y-82470125D01*
X51207629Y-82450123D01*
X51161136Y-82396467D01*
X51149750Y-82344125D01*
X51149750Y-78789348D01*
X51169752Y-78721227D01*
X51223408Y-78674734D01*
X51254411Y-78665168D01*
X51318209Y-78654205D01*
X51324939Y-78653236D01*
X51389357Y-78645726D01*
X51396242Y-78643227D01*
X51396246Y-78643226D01*
X51398388Y-78642449D01*
X51420031Y-78636710D01*
X51422287Y-78636322D01*
X51422289Y-78636321D01*
X51429501Y-78635082D01*
X51489203Y-78609678D01*
X51495521Y-78607190D01*
X51549613Y-78587556D01*
X51549616Y-78587554D01*
X51556491Y-78585059D01*
X51562605Y-78581050D01*
X51562610Y-78581048D01*
X51564520Y-78579795D01*
X51584272Y-78569226D01*
X51593109Y-78565466D01*
X51645350Y-78527021D01*
X51650947Y-78523131D01*
X51699061Y-78491586D01*
X51705185Y-78487571D01*
X51711796Y-78480593D01*
X51728573Y-78465776D01*
X51736314Y-78460079D01*
X51778322Y-78410633D01*
X51782856Y-78405580D01*
X51827464Y-78358490D01*
X51831139Y-78352164D01*
X51831142Y-78352159D01*
X51832286Y-78350189D01*
X51845215Y-78331894D01*
X51846695Y-78330152D01*
X51851434Y-78324574D01*
X51854762Y-78318057D01*
X51854765Y-78318052D01*
X51880930Y-78266810D01*
X51884193Y-78260824D01*
X51894915Y-78242366D01*
X51916769Y-78204741D01*
X51919553Y-78195549D01*
X51927926Y-78174774D01*
X51928964Y-78172741D01*
X51928964Y-78172740D01*
X51932293Y-78166221D01*
X51947710Y-78103220D01*
X51949501Y-78096668D01*
X51968308Y-78034571D01*
X51968903Y-78024981D01*
X51972271Y-78002843D01*
X51974554Y-77993513D01*
X51975250Y-77982295D01*
X51975250Y-77926579D01*
X51975492Y-77918777D01*
X51979318Y-77857109D01*
X51977070Y-77844025D01*
X51975250Y-77822689D01*
X51975250Y-73790100D01*
X51959851Y-73658018D01*
X51936613Y-73593997D01*
X51901681Y-73497763D01*
X51899184Y-73490884D01*
X51801696Y-73342190D01*
X51672615Y-73219911D01*
X51536585Y-73140898D01*
X51525193Y-73134281D01*
X51518866Y-73130606D01*
X51511864Y-73128485D01*
X51511861Y-73128484D01*
X51467700Y-73115109D01*
X51468009Y-73114090D01*
X51467750Y-73114061D01*
X51467455Y-73115035D01*
X51462226Y-73113451D01*
X51462224Y-73113451D01*
X51348696Y-73079067D01*
X51329821Y-73077896D01*
X51322094Y-73077416D01*
X51305942Y-73074959D01*
X51305936Y-73074998D01*
X51300386Y-73074154D01*
X51294938Y-73072821D01*
X51287452Y-73072357D01*
X51285659Y-73072245D01*
X51285649Y-73072245D01*
X51283720Y-73072125D01*
X51240704Y-73072125D01*
X51232902Y-73071883D01*
X51171234Y-73068057D01*
X51158150Y-73070305D01*
X51136814Y-73072125D01*
X46661039Y-73072125D01*
X46592918Y-73052123D01*
X46552754Y-73010548D01*
X46515766Y-72948376D01*
X46490324Y-72905613D01*
X46351756Y-72747606D01*
X46186713Y-72617497D01*
X46181597Y-72614806D01*
X46181595Y-72614804D01*
X46005840Y-72522335D01*
X46005838Y-72522334D01*
X46000723Y-72519643D01*
X45800016Y-72457321D01*
X45794281Y-72456642D01*
X45794280Y-72456642D01*
X45745992Y-72450927D01*
X45629376Y-72437125D01*
X41697934Y-72437125D01*
X41541971Y-72451456D01*
X41536409Y-72453025D01*
X41536407Y-72453025D01*
X41440836Y-72479979D01*
X41339701Y-72508502D01*
X41151213Y-72601454D01*
X40982821Y-72727198D01*
X40840164Y-72881524D01*
X40800643Y-72944162D01*
X40756982Y-73013360D01*
X40703715Y-73060299D01*
X40650420Y-73072125D01*
X36127704Y-73072125D01*
X36119902Y-73071883D01*
X36058234Y-73068057D01*
X36051018Y-73069297D01*
X36051016Y-73069297D01*
X35967504Y-73083647D01*
X35960759Y-73084619D01*
X35943115Y-73086676D01*
X35943114Y-73086676D01*
X35935843Y-73087524D01*
X35928964Y-73090021D01*
X35928908Y-73090034D01*
X35921267Y-73091592D01*
X35882999Y-73098168D01*
X35719391Y-73167784D01*
X35576186Y-73273171D01*
X35571442Y-73278754D01*
X35571443Y-73278754D01*
X35465805Y-73403097D01*
X35465802Y-73403101D01*
X35461066Y-73408676D01*
X35380207Y-73567029D01*
X35378468Y-73574134D01*
X35378467Y-73574138D01*
X35373703Y-73593609D01*
X35337946Y-73739737D01*
X35337250Y-73750955D01*
X35337250Y-77870671D01*
X35337008Y-77878472D01*
X35333182Y-77940141D01*
X35343957Y-78002843D01*
X35344168Y-78004072D01*
X35345139Y-78010814D01*
X35352649Y-78075232D01*
X35355148Y-78082117D01*
X35355149Y-78082121D01*
X35355926Y-78084263D01*
X35361665Y-78105906D01*
X35362053Y-78108162D01*
X35363293Y-78115376D01*
X35388697Y-78175078D01*
X35391185Y-78181396D01*
X35397118Y-78197740D01*
X35413316Y-78242366D01*
X35417325Y-78248480D01*
X35417327Y-78248485D01*
X35418580Y-78250395D01*
X35429149Y-78270147D01*
X35432909Y-78278984D01*
X35437248Y-78284880D01*
X35471354Y-78331225D01*
X35475244Y-78336822D01*
X35489450Y-78358490D01*
X35510804Y-78391060D01*
X35517782Y-78397671D01*
X35532599Y-78414448D01*
X35538296Y-78422189D01*
X35543872Y-78426926D01*
X35587742Y-78464197D01*
X35592795Y-78468731D01*
X35639885Y-78513339D01*
X35646211Y-78517014D01*
X35646216Y-78517017D01*
X35648186Y-78518161D01*
X35666481Y-78531090D01*
X35673801Y-78537309D01*
X35680318Y-78540637D01*
X35680323Y-78540640D01*
X35731565Y-78566805D01*
X35737546Y-78570065D01*
X35793634Y-78602644D01*
X35802826Y-78605428D01*
X35823601Y-78613801D01*
X35832154Y-78618168D01*
X35839266Y-78619908D01*
X35839265Y-78619908D01*
X35895153Y-78633584D01*
X35901707Y-78635376D01*
X35963804Y-78654183D01*
X35973361Y-78654776D01*
X35973394Y-78654778D01*
X35995532Y-78658146D01*
X36004862Y-78660429D01*
X36010464Y-78660777D01*
X36010467Y-78660777D01*
X36014141Y-78661005D01*
X36014151Y-78661005D01*
X36016080Y-78661125D01*
X36036750Y-78661125D01*
X36104871Y-78681127D01*
X36151364Y-78734783D01*
X36162750Y-78787125D01*
X36162750Y-82341902D01*
X36142748Y-82410023D01*
X36089092Y-82456516D01*
X36058090Y-82466082D01*
X35994291Y-82477045D01*
X35987561Y-82478014D01*
X35923143Y-82485524D01*
X35916258Y-82488023D01*
X35916254Y-82488024D01*
X35914112Y-82488801D01*
X35892469Y-82494540D01*
X35890213Y-82494928D01*
X35890211Y-82494929D01*
X35882999Y-82496168D01*
X35823297Y-82521572D01*
X35816979Y-82524060D01*
X35762887Y-82543694D01*
X35762884Y-82543696D01*
X35756009Y-82546191D01*
X35749895Y-82550200D01*
X35749890Y-82550202D01*
X35747980Y-82551455D01*
X35728228Y-82562024D01*
X35719391Y-82565784D01*
X35713495Y-82570123D01*
X35667150Y-82604229D01*
X35661553Y-82608119D01*
X35607315Y-82643679D01*
X35600704Y-82650657D01*
X35583927Y-82665474D01*
X35576186Y-82671171D01*
X35571449Y-82676747D01*
X35534178Y-82720617D01*
X35529644Y-82725670D01*
X35485036Y-82772760D01*
X35481361Y-82779086D01*
X35481358Y-82779091D01*
X35480214Y-82781061D01*
X35467285Y-82799356D01*
X35461066Y-82806676D01*
X35457738Y-82813193D01*
X35457735Y-82813198D01*
X35431570Y-82864440D01*
X35428310Y-82870421D01*
X35395731Y-82926509D01*
X35392947Y-82935701D01*
X35384574Y-82956476D01*
X35380207Y-82965029D01*
X35378467Y-82972140D01*
X35364791Y-83028028D01*
X35362999Y-83034582D01*
X35344192Y-83096679D01*
X35343739Y-83103984D01*
X35343597Y-83106269D01*
X35340229Y-83128407D01*
X35337946Y-83137737D01*
X35337250Y-83148955D01*
X35337250Y-83204671D01*
X35337008Y-83212472D01*
X35333182Y-83274141D01*
X24958000Y-83274141D01*
X24958000Y-72000000D01*
X26386526Y-72000000D01*
X26406391Y-72252403D01*
X26465495Y-72498591D01*
X26467388Y-72503162D01*
X26467389Y-72503164D01*
X26558757Y-72723745D01*
X26562384Y-72732502D01*
X26694672Y-72948376D01*
X26800364Y-73072125D01*
X26853451Y-73134281D01*
X26859102Y-73140898D01*
X27051624Y-73305328D01*
X27267498Y-73437616D01*
X27272068Y-73439509D01*
X27272072Y-73439511D01*
X27496836Y-73532611D01*
X27501409Y-73534505D01*
X27586032Y-73554821D01*
X27742784Y-73592454D01*
X27742790Y-73592455D01*
X27747597Y-73593609D01*
X27847416Y-73601465D01*
X27934345Y-73608307D01*
X27934352Y-73608307D01*
X27936801Y-73608500D01*
X28063199Y-73608500D01*
X28065648Y-73608307D01*
X28065655Y-73608307D01*
X28152584Y-73601465D01*
X28252403Y-73593609D01*
X28257210Y-73592455D01*
X28257216Y-73592454D01*
X28413968Y-73554821D01*
X28498591Y-73534505D01*
X28503164Y-73532611D01*
X28727928Y-73439511D01*
X28727932Y-73439509D01*
X28732502Y-73437616D01*
X28948376Y-73305328D01*
X29140898Y-73140898D01*
X29146550Y-73134281D01*
X29199636Y-73072125D01*
X29305328Y-72948376D01*
X29437616Y-72732502D01*
X29441244Y-72723745D01*
X29532611Y-72503164D01*
X29532612Y-72503162D01*
X29534505Y-72498591D01*
X29593609Y-72252403D01*
X29613474Y-72000000D01*
X29593609Y-71747597D01*
X29534505Y-71501409D01*
X29437616Y-71267498D01*
X29305328Y-71051624D01*
X29140898Y-70859102D01*
X28948376Y-70694672D01*
X28732502Y-70562384D01*
X28727932Y-70560491D01*
X28727928Y-70560489D01*
X28503164Y-70467389D01*
X28503162Y-70467388D01*
X28498591Y-70465495D01*
X28413968Y-70445179D01*
X28257216Y-70407546D01*
X28257210Y-70407545D01*
X28252403Y-70406391D01*
X28152584Y-70398535D01*
X28065655Y-70391693D01*
X28065648Y-70391693D01*
X28063199Y-70391500D01*
X27936801Y-70391500D01*
X27934352Y-70391693D01*
X27934345Y-70391693D01*
X27847416Y-70398535D01*
X27747597Y-70406391D01*
X27742790Y-70407545D01*
X27742784Y-70407546D01*
X27586032Y-70445179D01*
X27501409Y-70465495D01*
X27496838Y-70467388D01*
X27496836Y-70467389D01*
X27272072Y-70560489D01*
X27272068Y-70560491D01*
X27267498Y-70562384D01*
X27051624Y-70694672D01*
X26859102Y-70859102D01*
X26694672Y-71051624D01*
X26562384Y-71267498D01*
X26465495Y-71501409D01*
X26406391Y-71747597D01*
X26386526Y-72000000D01*
X24958000Y-72000000D01*
X24958000Y-69383947D01*
X24978002Y-69315826D01*
X25031658Y-69269333D01*
X25083949Y-69257947D01*
X149365949Y-69208054D01*
X149434078Y-69228029D01*
G37*
G04 #@! TD.AperFunction*
M02*
