G04 #@! TF.GenerationSoftware,KiCad,Pcbnew,(6.0.2)*
G04 #@! TF.CreationDate,2022-03-15T14:21:33+03:00*
G04 #@! TF.ProjectId,kinesis-top-plate,6b696e65-7369-4732-9d74-6f702d706c61,rev?*
G04 #@! TF.SameCoordinates,Original*
G04 #@! TF.FileFunction,Legend,Top*
G04 #@! TF.FilePolarity,Positive*
%FSLAX46Y46*%
G04 Gerber Fmt 4.6, Leading zero omitted, Abs format (unit mm)*
G04 Created by KiCad (PCBNEW (6.0.2)) date 2022-03-15 14:21:33*
%MOMM*%
%LPD*%
G01*
G04 APERTURE LIST*
%ADD10C,0.010000*%
G04 APERTURE END LIST*
D10*
X28643358Y-79910587D02*
X28645616Y-79440170D01*
X28645616Y-79440170D02*
X28548091Y-79442802D01*
X28548091Y-79442802D02*
X28450567Y-79445433D01*
X28450567Y-79445433D02*
X28450584Y-79367117D01*
X28450584Y-79367117D02*
X28450601Y-79288800D01*
X28450601Y-79288800D02*
X28645334Y-79288800D01*
X28645334Y-79288800D02*
X28645334Y-78941667D01*
X28645334Y-78941667D02*
X28831601Y-78941667D01*
X28831601Y-78941667D02*
X28831601Y-79288800D01*
X28831601Y-79288800D02*
X29138517Y-79288781D01*
X29138517Y-79288781D02*
X29445434Y-79288763D01*
X29445434Y-79288763D02*
X29441200Y-79385713D01*
X29441200Y-79385713D02*
X29438332Y-79451416D01*
X29438332Y-79451416D02*
X29283031Y-79451416D01*
X29283031Y-79451416D02*
X29281208Y-79447972D01*
X29281208Y-79447972D02*
X29274152Y-79445444D01*
X29274152Y-79445444D02*
X29260056Y-79443724D01*
X29260056Y-79443724D02*
X29237116Y-79442709D01*
X29237116Y-79442709D02*
X29203525Y-79442295D01*
X29203525Y-79442295D02*
X29157478Y-79442375D01*
X29157478Y-79442375D02*
X29097170Y-79442845D01*
X29097170Y-79442845D02*
X29062689Y-79443178D01*
X29062689Y-79443178D02*
X28835834Y-79445433D01*
X28835834Y-79445433D02*
X28834163Y-79826433D01*
X28834163Y-79826433D02*
X28833888Y-79929133D01*
X28833888Y-79929133D02*
X28834036Y-80014982D01*
X28834036Y-80014982D02*
X28834610Y-80084062D01*
X28834610Y-80084062D02*
X28835611Y-80136451D01*
X28835611Y-80136451D02*
X28837041Y-80172227D01*
X28837041Y-80172227D02*
X28838901Y-80191470D01*
X28838901Y-80191470D02*
X28840933Y-80194734D01*
X28840933Y-80194734D02*
X28846972Y-80184909D01*
X28846972Y-80184909D02*
X28860638Y-80162254D01*
X28860638Y-80162254D02*
X28880902Y-80128493D01*
X28880902Y-80128493D02*
X28906735Y-80085351D01*
X28906735Y-80085351D02*
X28937111Y-80034552D01*
X28937111Y-80034552D02*
X28971000Y-79977822D01*
X28971000Y-79977822D02*
X29007374Y-79916883D01*
X29007374Y-79916883D02*
X29045206Y-79853461D01*
X29045206Y-79853461D02*
X29083467Y-79789280D01*
X29083467Y-79789280D02*
X29121130Y-79726066D01*
X29121130Y-79726066D02*
X29157165Y-79665541D01*
X29157165Y-79665541D02*
X29190546Y-79609431D01*
X29190546Y-79609431D02*
X29220243Y-79559461D01*
X29220243Y-79559461D02*
X29245229Y-79517355D01*
X29245229Y-79517355D02*
X29264476Y-79484836D01*
X29264476Y-79484836D02*
X29276954Y-79463631D01*
X29276954Y-79463631D02*
X29281425Y-79455878D01*
X29281425Y-79455878D02*
X29283031Y-79451416D01*
X29283031Y-79451416D02*
X29438332Y-79451416D01*
X29438332Y-79451416D02*
X29436967Y-79482662D01*
X29436967Y-79482662D02*
X29153334Y-79931443D01*
X29153334Y-79931443D02*
X28869701Y-80380225D01*
X28869701Y-80380225D02*
X28641101Y-80381003D01*
X28641101Y-80381003D02*
X28643358Y-79910587D01*
X28643358Y-79910587D02*
X28643358Y-79910587D01*
G36*
X29153334Y-79931443D02*
G01*
X28869701Y-80380225D01*
X28641101Y-80381003D01*
X28643269Y-79929133D01*
X28833888Y-79929133D01*
X28834036Y-80014982D01*
X28834610Y-80084062D01*
X28835611Y-80136451D01*
X28837041Y-80172227D01*
X28838901Y-80191470D01*
X28840933Y-80194734D01*
X28846972Y-80184909D01*
X28860638Y-80162254D01*
X28880902Y-80128493D01*
X28906735Y-80085351D01*
X28937111Y-80034552D01*
X28971000Y-79977822D01*
X29007374Y-79916883D01*
X29045206Y-79853461D01*
X29083467Y-79789280D01*
X29121130Y-79726066D01*
X29157165Y-79665541D01*
X29190546Y-79609431D01*
X29220243Y-79559461D01*
X29245229Y-79517355D01*
X29264476Y-79484836D01*
X29276954Y-79463631D01*
X29281425Y-79455878D01*
X29283031Y-79451416D01*
X29281208Y-79447972D01*
X29274152Y-79445444D01*
X29260056Y-79443724D01*
X29237116Y-79442709D01*
X29203525Y-79442295D01*
X29157478Y-79442375D01*
X29097170Y-79442845D01*
X29062689Y-79443178D01*
X28835834Y-79445433D01*
X28834163Y-79826433D01*
X28833888Y-79929133D01*
X28643269Y-79929133D01*
X28643358Y-79910587D01*
X28645616Y-79440170D01*
X28548091Y-79442802D01*
X28450567Y-79445433D01*
X28450584Y-79367117D01*
X28450601Y-79288800D01*
X28645334Y-79288800D01*
X28645334Y-78941667D01*
X28831601Y-78941667D01*
X28831601Y-79288800D01*
X29138517Y-79288781D01*
X29445434Y-79288763D01*
X29441200Y-79385713D01*
X29438332Y-79451416D01*
X29436967Y-79482662D01*
X29153334Y-79931443D01*
G37*
X29153334Y-79931443D02*
X28869701Y-80380225D01*
X28641101Y-80381003D01*
X28643269Y-79929133D01*
X28833888Y-79929133D01*
X28834036Y-80014982D01*
X28834610Y-80084062D01*
X28835611Y-80136451D01*
X28837041Y-80172227D01*
X28838901Y-80191470D01*
X28840933Y-80194734D01*
X28846972Y-80184909D01*
X28860638Y-80162254D01*
X28880902Y-80128493D01*
X28906735Y-80085351D01*
X28937111Y-80034552D01*
X28971000Y-79977822D01*
X29007374Y-79916883D01*
X29045206Y-79853461D01*
X29083467Y-79789280D01*
X29121130Y-79726066D01*
X29157165Y-79665541D01*
X29190546Y-79609431D01*
X29220243Y-79559461D01*
X29245229Y-79517355D01*
X29264476Y-79484836D01*
X29276954Y-79463631D01*
X29281425Y-79455878D01*
X29283031Y-79451416D01*
X29281208Y-79447972D01*
X29274152Y-79445444D01*
X29260056Y-79443724D01*
X29237116Y-79442709D01*
X29203525Y-79442295D01*
X29157478Y-79442375D01*
X29097170Y-79442845D01*
X29062689Y-79443178D01*
X28835834Y-79445433D01*
X28834163Y-79826433D01*
X28833888Y-79929133D01*
X28643269Y-79929133D01*
X28643358Y-79910587D01*
X28645616Y-79440170D01*
X28548091Y-79442802D01*
X28450567Y-79445433D01*
X28450584Y-79367117D01*
X28450601Y-79288800D01*
X28645334Y-79288800D01*
X28645334Y-78941667D01*
X28831601Y-78941667D01*
X28831601Y-79288800D01*
X29138517Y-79288781D01*
X29445434Y-79288763D01*
X29441200Y-79385713D01*
X29438332Y-79451416D01*
X29436967Y-79482662D01*
X29153334Y-79931443D01*
X29945437Y-80395663D02*
X29865576Y-80379699D01*
X29865576Y-80379699D02*
X29794684Y-80356885D01*
X29794684Y-80356885D02*
X29771400Y-80347553D01*
X29771400Y-80347553D02*
X29771400Y-80170395D01*
X29771400Y-80170395D02*
X29824317Y-80194135D01*
X29824317Y-80194135D02*
X29887982Y-80218837D01*
X29887982Y-80218837D02*
X29949331Y-80233590D01*
X29949331Y-80233590D02*
X30015664Y-80239885D01*
X30015664Y-80239885D02*
X30050800Y-80240344D01*
X30050800Y-80240344D02*
X30116952Y-80236181D01*
X30116952Y-80236181D02*
X30171970Y-80223692D01*
X30171970Y-80223692D02*
X30220255Y-80201289D01*
X30220255Y-80201289D02*
X30266205Y-80167387D01*
X30266205Y-80167387D02*
X30275061Y-80159491D01*
X30275061Y-80159491D02*
X30317211Y-80111544D01*
X30317211Y-80111544D02*
X30353751Y-80051307D01*
X30353751Y-80051307D02*
X30382289Y-79983114D01*
X30382289Y-79983114D02*
X30393418Y-79944967D01*
X30393418Y-79944967D02*
X30400651Y-79910139D01*
X30400651Y-79910139D02*
X30407960Y-79865553D01*
X30407960Y-79865553D02*
X30414587Y-79817041D01*
X30414587Y-79817041D02*
X30419772Y-79770434D01*
X30419772Y-79770434D02*
X30422756Y-79731566D01*
X30422756Y-79731566D02*
X30423185Y-79716367D01*
X30423185Y-79716367D02*
X30422633Y-79703289D01*
X30422633Y-79703289D02*
X30419709Y-79700776D01*
X30419709Y-79700776D02*
X30412493Y-79710219D01*
X30412493Y-79710219D02*
X30399062Y-79733008D01*
X30399062Y-79733008D02*
X30398256Y-79734413D01*
X30398256Y-79734413D02*
X30358406Y-79787497D01*
X30358406Y-79787497D02*
X30304691Y-79833194D01*
X30304691Y-79833194D02*
X30254364Y-79862564D01*
X30254364Y-79862564D02*
X30228633Y-79873841D01*
X30228633Y-79873841D02*
X30203481Y-79881150D01*
X30203481Y-79881150D02*
X30173478Y-79885563D01*
X30173478Y-79885563D02*
X30133193Y-79888147D01*
X30133193Y-79888147D02*
X30122228Y-79888583D01*
X30122228Y-79888583D02*
X30040086Y-79887405D01*
X30040086Y-79887405D02*
X29969597Y-79876642D01*
X29969597Y-79876642D02*
X29907839Y-79855324D01*
X29907839Y-79855324D02*
X29851888Y-79822484D01*
X29851888Y-79822484D02*
X29805543Y-79783674D01*
X29805543Y-79783674D02*
X29754266Y-79723145D01*
X29754266Y-79723145D02*
X29715088Y-79651236D01*
X29715088Y-79651236D02*
X29688227Y-79568634D01*
X29688227Y-79568634D02*
X29673899Y-79476024D01*
X29673899Y-79476024D02*
X29672323Y-79374091D01*
X29672323Y-79374091D02*
X29672785Y-79365000D01*
X29672785Y-79365000D02*
X29678846Y-79295627D01*
X29678846Y-79295627D02*
X29689368Y-79237219D01*
X29689368Y-79237219D02*
X29705707Y-79184097D01*
X29705707Y-79184097D02*
X29728353Y-79132335D01*
X29728353Y-79132335D02*
X29768629Y-79069063D01*
X29768629Y-79069063D02*
X29821287Y-79015738D01*
X29821287Y-79015738D02*
X29884508Y-78973087D01*
X29884508Y-78973087D02*
X29956470Y-78941836D01*
X29956470Y-78941836D02*
X30035353Y-78922713D01*
X30035353Y-78922713D02*
X30119337Y-78916445D01*
X30119337Y-78916445D02*
X30206602Y-78923757D01*
X30206602Y-78923757D02*
X30236569Y-78929438D01*
X30236569Y-78929438D02*
X30313196Y-78953353D01*
X30313196Y-78953353D02*
X30380191Y-78989975D01*
X30380191Y-78989975D02*
X30437813Y-79039659D01*
X30437813Y-79039659D02*
X30486320Y-79102757D01*
X30486320Y-79102757D02*
X30525973Y-79179624D01*
X30525973Y-79179624D02*
X30557028Y-79270613D01*
X30557028Y-79270613D02*
X30579746Y-79376077D01*
X30579746Y-79376077D02*
X30580138Y-79378628D01*
X30580138Y-79378628D02*
X30387308Y-79378628D01*
X30387308Y-79378628D02*
X30385895Y-79359075D01*
X30385895Y-79359075D02*
X30372472Y-79280984D01*
X30372472Y-79280984D02*
X30347973Y-79213796D01*
X30347973Y-79213796D02*
X30313420Y-79158317D01*
X30313420Y-79158317D02*
X30269833Y-79115353D01*
X30269833Y-79115353D02*
X30218230Y-79085709D01*
X30218230Y-79085709D02*
X30159633Y-79070192D01*
X30159633Y-79070192D02*
X30095061Y-79069606D01*
X30095061Y-79069606D02*
X30034899Y-79081845D01*
X30034899Y-79081845D02*
X29996739Y-79098177D01*
X29996739Y-79098177D02*
X29961374Y-79121564D01*
X29961374Y-79121564D02*
X29956505Y-79125757D01*
X29956505Y-79125757D02*
X29920525Y-79166047D01*
X29920525Y-79166047D02*
X29893989Y-79214245D01*
X29893989Y-79214245D02*
X29876389Y-79272118D01*
X29876389Y-79272118D02*
X29867217Y-79341434D01*
X29867217Y-79341434D02*
X29865965Y-79423958D01*
X29865965Y-79423958D02*
X29866479Y-79438834D01*
X29866479Y-79438834D02*
X29873324Y-79516593D01*
X29873324Y-79516593D02*
X29887482Y-79580385D01*
X29887482Y-79580385D02*
X29909782Y-79631888D01*
X29909782Y-79631888D02*
X29941053Y-79672776D01*
X29941053Y-79672776D02*
X29982123Y-79704726D01*
X29982123Y-79704726D02*
X30003742Y-79716497D01*
X30003742Y-79716497D02*
X30054937Y-79733558D01*
X30054937Y-79733558D02*
X30113180Y-79740073D01*
X30113180Y-79740073D02*
X30172186Y-79735936D01*
X30172186Y-79735936D02*
X30225671Y-79721041D01*
X30225671Y-79721041D02*
X30227523Y-79720256D01*
X30227523Y-79720256D02*
X30276220Y-79690364D01*
X30276220Y-79690364D02*
X30317269Y-79646964D01*
X30317269Y-79646964D02*
X30349787Y-79592073D01*
X30349787Y-79592073D02*
X30372889Y-79527709D01*
X30372889Y-79527709D02*
X30385691Y-79455888D01*
X30385691Y-79455888D02*
X30387308Y-79378628D01*
X30387308Y-79378628D02*
X30580138Y-79378628D01*
X30580138Y-79378628D02*
X30584092Y-79404324D01*
X30584092Y-79404324D02*
X30588017Y-79438303D01*
X30588017Y-79438303D02*
X30591950Y-79483651D01*
X30591950Y-79483651D02*
X30595469Y-79534804D01*
X30595469Y-79534804D02*
X30598153Y-79586204D01*
X30598153Y-79586204D02*
X30598457Y-79593600D01*
X30598457Y-79593600D02*
X30598643Y-79731922D01*
X30598643Y-79731922D02*
X30587848Y-79858497D01*
X30587848Y-79858497D02*
X30566147Y-79973050D01*
X30566147Y-79973050D02*
X30533615Y-80075301D01*
X30533615Y-80075301D02*
X30490327Y-80164974D01*
X30490327Y-80164974D02*
X30436357Y-80241790D01*
X30436357Y-80241790D02*
X30417766Y-80262635D01*
X30417766Y-80262635D02*
X30355292Y-80318143D01*
X30355292Y-80318143D02*
X30285180Y-80359589D01*
X30285180Y-80359589D02*
X30205300Y-80388143D01*
X30205300Y-80388143D02*
X30177801Y-80394650D01*
X30177801Y-80394650D02*
X30107064Y-80403682D01*
X30107064Y-80403682D02*
X30027771Y-80403838D01*
X30027771Y-80403838D02*
X29945437Y-80395663D01*
X29945437Y-80395663D02*
X29945437Y-80395663D01*
G36*
X30588017Y-79438303D02*
G01*
X30591950Y-79483651D01*
X30595469Y-79534804D01*
X30598153Y-79586204D01*
X30598457Y-79593600D01*
X30598643Y-79731922D01*
X30587848Y-79858497D01*
X30566147Y-79973050D01*
X30533615Y-80075301D01*
X30490327Y-80164974D01*
X30436357Y-80241790D01*
X30417766Y-80262635D01*
X30355292Y-80318143D01*
X30285180Y-80359589D01*
X30205300Y-80388143D01*
X30177801Y-80394650D01*
X30107064Y-80403682D01*
X30027771Y-80403838D01*
X29945437Y-80395663D01*
X29865576Y-80379699D01*
X29794684Y-80356885D01*
X29771400Y-80347553D01*
X29771400Y-80170395D01*
X29824317Y-80194135D01*
X29887982Y-80218837D01*
X29949331Y-80233590D01*
X30015664Y-80239885D01*
X30050800Y-80240344D01*
X30116952Y-80236181D01*
X30171970Y-80223692D01*
X30220255Y-80201289D01*
X30266205Y-80167387D01*
X30275061Y-80159491D01*
X30317211Y-80111544D01*
X30353751Y-80051307D01*
X30382289Y-79983114D01*
X30393418Y-79944967D01*
X30400651Y-79910139D01*
X30407960Y-79865553D01*
X30414587Y-79817041D01*
X30419772Y-79770434D01*
X30422756Y-79731566D01*
X30423185Y-79716367D01*
X30422633Y-79703289D01*
X30419709Y-79700776D01*
X30412493Y-79710219D01*
X30399062Y-79733008D01*
X30398256Y-79734413D01*
X30358406Y-79787497D01*
X30304691Y-79833194D01*
X30254364Y-79862564D01*
X30228633Y-79873841D01*
X30203481Y-79881150D01*
X30173478Y-79885563D01*
X30133193Y-79888147D01*
X30122228Y-79888583D01*
X30040086Y-79887405D01*
X29969597Y-79876642D01*
X29907839Y-79855324D01*
X29851888Y-79822484D01*
X29805543Y-79783674D01*
X29754266Y-79723145D01*
X29715088Y-79651236D01*
X29688227Y-79568634D01*
X29673899Y-79476024D01*
X29673094Y-79423958D01*
X29865965Y-79423958D01*
X29866479Y-79438834D01*
X29873324Y-79516593D01*
X29887482Y-79580385D01*
X29909782Y-79631888D01*
X29941053Y-79672776D01*
X29982123Y-79704726D01*
X30003742Y-79716497D01*
X30054937Y-79733558D01*
X30113180Y-79740073D01*
X30172186Y-79735936D01*
X30225671Y-79721041D01*
X30227523Y-79720256D01*
X30276220Y-79690364D01*
X30317269Y-79646964D01*
X30349787Y-79592073D01*
X30372889Y-79527709D01*
X30385691Y-79455888D01*
X30387308Y-79378628D01*
X30385895Y-79359075D01*
X30372472Y-79280984D01*
X30347973Y-79213796D01*
X30313420Y-79158317D01*
X30269833Y-79115353D01*
X30218230Y-79085709D01*
X30159633Y-79070192D01*
X30095061Y-79069606D01*
X30034899Y-79081845D01*
X29996739Y-79098177D01*
X29961374Y-79121564D01*
X29956505Y-79125757D01*
X29920525Y-79166047D01*
X29893989Y-79214245D01*
X29876389Y-79272118D01*
X29867217Y-79341434D01*
X29865965Y-79423958D01*
X29673094Y-79423958D01*
X29672323Y-79374091D01*
X29672785Y-79365000D01*
X29678846Y-79295627D01*
X29689368Y-79237219D01*
X29705707Y-79184097D01*
X29728353Y-79132335D01*
X29768629Y-79069063D01*
X29821287Y-79015738D01*
X29884508Y-78973087D01*
X29956470Y-78941836D01*
X30035353Y-78922713D01*
X30119337Y-78916445D01*
X30206602Y-78923757D01*
X30236569Y-78929438D01*
X30313196Y-78953353D01*
X30380191Y-78989975D01*
X30437813Y-79039659D01*
X30486320Y-79102757D01*
X30525973Y-79179624D01*
X30557028Y-79270613D01*
X30579746Y-79376077D01*
X30580138Y-79378628D01*
X30584092Y-79404324D01*
X30588017Y-79438303D01*
G37*
X30588017Y-79438303D02*
X30591950Y-79483651D01*
X30595469Y-79534804D01*
X30598153Y-79586204D01*
X30598457Y-79593600D01*
X30598643Y-79731922D01*
X30587848Y-79858497D01*
X30566147Y-79973050D01*
X30533615Y-80075301D01*
X30490327Y-80164974D01*
X30436357Y-80241790D01*
X30417766Y-80262635D01*
X30355292Y-80318143D01*
X30285180Y-80359589D01*
X30205300Y-80388143D01*
X30177801Y-80394650D01*
X30107064Y-80403682D01*
X30027771Y-80403838D01*
X29945437Y-80395663D01*
X29865576Y-80379699D01*
X29794684Y-80356885D01*
X29771400Y-80347553D01*
X29771400Y-80170395D01*
X29824317Y-80194135D01*
X29887982Y-80218837D01*
X29949331Y-80233590D01*
X30015664Y-80239885D01*
X30050800Y-80240344D01*
X30116952Y-80236181D01*
X30171970Y-80223692D01*
X30220255Y-80201289D01*
X30266205Y-80167387D01*
X30275061Y-80159491D01*
X30317211Y-80111544D01*
X30353751Y-80051307D01*
X30382289Y-79983114D01*
X30393418Y-79944967D01*
X30400651Y-79910139D01*
X30407960Y-79865553D01*
X30414587Y-79817041D01*
X30419772Y-79770434D01*
X30422756Y-79731566D01*
X30423185Y-79716367D01*
X30422633Y-79703289D01*
X30419709Y-79700776D01*
X30412493Y-79710219D01*
X30399062Y-79733008D01*
X30398256Y-79734413D01*
X30358406Y-79787497D01*
X30304691Y-79833194D01*
X30254364Y-79862564D01*
X30228633Y-79873841D01*
X30203481Y-79881150D01*
X30173478Y-79885563D01*
X30133193Y-79888147D01*
X30122228Y-79888583D01*
X30040086Y-79887405D01*
X29969597Y-79876642D01*
X29907839Y-79855324D01*
X29851888Y-79822484D01*
X29805543Y-79783674D01*
X29754266Y-79723145D01*
X29715088Y-79651236D01*
X29688227Y-79568634D01*
X29673899Y-79476024D01*
X29673094Y-79423958D01*
X29865965Y-79423958D01*
X29866479Y-79438834D01*
X29873324Y-79516593D01*
X29887482Y-79580385D01*
X29909782Y-79631888D01*
X29941053Y-79672776D01*
X29982123Y-79704726D01*
X30003742Y-79716497D01*
X30054937Y-79733558D01*
X30113180Y-79740073D01*
X30172186Y-79735936D01*
X30225671Y-79721041D01*
X30227523Y-79720256D01*
X30276220Y-79690364D01*
X30317269Y-79646964D01*
X30349787Y-79592073D01*
X30372889Y-79527709D01*
X30385691Y-79455888D01*
X30387308Y-79378628D01*
X30385895Y-79359075D01*
X30372472Y-79280984D01*
X30347973Y-79213796D01*
X30313420Y-79158317D01*
X30269833Y-79115353D01*
X30218230Y-79085709D01*
X30159633Y-79070192D01*
X30095061Y-79069606D01*
X30034899Y-79081845D01*
X29996739Y-79098177D01*
X29961374Y-79121564D01*
X29956505Y-79125757D01*
X29920525Y-79166047D01*
X29893989Y-79214245D01*
X29876389Y-79272118D01*
X29867217Y-79341434D01*
X29865965Y-79423958D01*
X29673094Y-79423958D01*
X29672323Y-79374091D01*
X29672785Y-79365000D01*
X29678846Y-79295627D01*
X29689368Y-79237219D01*
X29705707Y-79184097D01*
X29728353Y-79132335D01*
X29768629Y-79069063D01*
X29821287Y-79015738D01*
X29884508Y-78973087D01*
X29956470Y-78941836D01*
X30035353Y-78922713D01*
X30119337Y-78916445D01*
X30206602Y-78923757D01*
X30236569Y-78929438D01*
X30313196Y-78953353D01*
X30380191Y-78989975D01*
X30437813Y-79039659D01*
X30486320Y-79102757D01*
X30525973Y-79179624D01*
X30557028Y-79270613D01*
X30579746Y-79376077D01*
X30580138Y-79378628D01*
X30584092Y-79404324D01*
X30588017Y-79438303D01*
X30277510Y-84170454D02*
X30263124Y-84148736D01*
X30263124Y-84148736D02*
X30242058Y-84113135D01*
X30242058Y-84113135D02*
X30214649Y-84064337D01*
X30214649Y-84064337D02*
X30181237Y-84003024D01*
X30181237Y-84003024D02*
X30142161Y-83929882D01*
X30142161Y-83929882D02*
X30097759Y-83845595D01*
X30097759Y-83845595D02*
X30048369Y-83750846D01*
X30048369Y-83750846D02*
X29994332Y-83646321D01*
X29994332Y-83646321D02*
X29935985Y-83532703D01*
X29935985Y-83532703D02*
X29873667Y-83410677D01*
X29873667Y-83410677D02*
X29807718Y-83280927D01*
X29807718Y-83280927D02*
X29738475Y-83144137D01*
X29738475Y-83144137D02*
X29666277Y-83000992D01*
X29666277Y-83000992D02*
X29591464Y-82852175D01*
X29591464Y-82852175D02*
X29514374Y-82698372D01*
X29514374Y-82698372D02*
X29435345Y-82540266D01*
X29435345Y-82540266D02*
X29354717Y-82378542D01*
X29354717Y-82378542D02*
X29272828Y-82213884D01*
X29272828Y-82213884D02*
X29190017Y-82046977D01*
X29190017Y-82046977D02*
X29106623Y-81878503D01*
X29106623Y-81878503D02*
X29022984Y-81709149D01*
X29022984Y-81709149D02*
X28939440Y-81539598D01*
X28939440Y-81539598D02*
X28856328Y-81370534D01*
X28856328Y-81370534D02*
X28773989Y-81202642D01*
X28773989Y-81202642D02*
X28692759Y-81036605D01*
X28692759Y-81036605D02*
X28612979Y-80873109D01*
X28612979Y-80873109D02*
X28534987Y-80712838D01*
X28534987Y-80712838D02*
X28459121Y-80556475D01*
X28459121Y-80556475D02*
X28385721Y-80404705D01*
X28385721Y-80404705D02*
X28315125Y-80258213D01*
X28315125Y-80258213D02*
X28247672Y-80117682D01*
X28247672Y-80117682D02*
X28183701Y-79983798D01*
X28183701Y-79983798D02*
X28123551Y-79857243D01*
X28123551Y-79857243D02*
X28067559Y-79738703D01*
X28067559Y-79738703D02*
X28016065Y-79628861D01*
X28016065Y-79628861D02*
X27969408Y-79528403D01*
X27969408Y-79528403D02*
X27927927Y-79438012D01*
X27927927Y-79438012D02*
X27891960Y-79358372D01*
X27891960Y-79358372D02*
X27861845Y-79290169D01*
X27861845Y-79290169D02*
X27839555Y-79238000D01*
X27839555Y-79238000D02*
X27824420Y-79200976D01*
X27824420Y-79200976D02*
X27815284Y-79175328D01*
X27815284Y-79175328D02*
X27811298Y-79156945D01*
X27811298Y-79156945D02*
X27811609Y-79141716D01*
X27811609Y-79141716D02*
X27815369Y-79125531D01*
X27815369Y-79125531D02*
X27815902Y-79123700D01*
X27815902Y-79123700D02*
X27824268Y-79099608D01*
X27824268Y-79099608D02*
X27839326Y-79061146D01*
X27839326Y-79061146D02*
X27860634Y-79009301D01*
X27860634Y-79009301D02*
X27887748Y-78945058D01*
X27887748Y-78945058D02*
X27920225Y-78869404D01*
X27920225Y-78869404D02*
X27957624Y-78783327D01*
X27957624Y-78783327D02*
X27999500Y-78687811D01*
X27999500Y-78687811D02*
X28045411Y-78583845D01*
X28045411Y-78583845D02*
X28094915Y-78472415D01*
X28094915Y-78472415D02*
X28147568Y-78354506D01*
X28147568Y-78354506D02*
X28202928Y-78231106D01*
X28202928Y-78231106D02*
X28260551Y-78103201D01*
X28260551Y-78103201D02*
X28319996Y-77971778D01*
X28319996Y-77971778D02*
X28380818Y-77837823D01*
X28380818Y-77837823D02*
X28442576Y-77702323D01*
X28442576Y-77702323D02*
X28504826Y-77566264D01*
X28504826Y-77566264D02*
X28567125Y-77430633D01*
X28567125Y-77430633D02*
X28629032Y-77296416D01*
X28629032Y-77296416D02*
X28690102Y-77164600D01*
X28690102Y-77164600D02*
X28749893Y-77036172D01*
X28749893Y-77036172D02*
X28807963Y-76912118D01*
X28807963Y-76912118D02*
X28823038Y-76880034D01*
X28823038Y-76880034D02*
X28865216Y-76790949D01*
X28865216Y-76790949D02*
X28909780Y-76697923D01*
X28909780Y-76697923D02*
X28955785Y-76602859D01*
X28955785Y-76602859D02*
X29002283Y-76507656D01*
X29002283Y-76507656D02*
X29048329Y-76414217D01*
X29048329Y-76414217D02*
X29092976Y-76324443D01*
X29092976Y-76324443D02*
X29135277Y-76240236D01*
X29135277Y-76240236D02*
X29174288Y-76163497D01*
X29174288Y-76163497D02*
X29209061Y-76096127D01*
X29209061Y-76096127D02*
X29238651Y-76040029D01*
X29238651Y-76040029D02*
X29262110Y-75997103D01*
X29262110Y-75997103D02*
X29264705Y-75992511D01*
X29264705Y-75992511D02*
X29295088Y-75940804D01*
X29295088Y-75940804D02*
X29323535Y-75895792D01*
X29323535Y-75895792D02*
X29348733Y-75859320D01*
X29348733Y-75859320D02*
X29369373Y-75833235D01*
X29369373Y-75833235D02*
X29384141Y-75819382D01*
X29384141Y-75819382D02*
X29388944Y-75817620D01*
X29388944Y-75817620D02*
X29398818Y-75821499D01*
X29398818Y-75821499D02*
X29418810Y-75831438D01*
X29418810Y-75831438D02*
X29440732Y-75843182D01*
X29440732Y-75843182D02*
X29475747Y-75863806D01*
X29475747Y-75863806D02*
X29523276Y-75893870D01*
X29523276Y-75893870D02*
X29582288Y-75932649D01*
X29582288Y-75932649D02*
X29651755Y-75979418D01*
X29651755Y-75979418D02*
X29730647Y-76033450D01*
X29730647Y-76033450D02*
X29817934Y-76094020D01*
X29817934Y-76094020D02*
X29912589Y-76160403D01*
X29912589Y-76160403D02*
X30013580Y-76231873D01*
X30013580Y-76231873D02*
X30119880Y-76307705D01*
X30119880Y-76307705D02*
X30230458Y-76387173D01*
X30230458Y-76387173D02*
X30344285Y-76469551D01*
X30344285Y-76469551D02*
X30460333Y-76554115D01*
X30460333Y-76554115D02*
X30577571Y-76640138D01*
X30577571Y-76640138D02*
X30694971Y-76726896D01*
X30694971Y-76726896D02*
X30704466Y-76733941D01*
X30704466Y-76733941D02*
X30760003Y-76775117D01*
X30760003Y-76775117D02*
X30824640Y-76822971D01*
X30824640Y-76822971D02*
X30893838Y-76874148D01*
X30893838Y-76874148D02*
X30963056Y-76925289D01*
X30963056Y-76925289D02*
X31027756Y-76973040D01*
X31027756Y-76973040D02*
X31054100Y-76992463D01*
X31054100Y-76992463D02*
X31116645Y-77038590D01*
X31116645Y-77038590D02*
X31186984Y-77090520D01*
X31186984Y-77090520D02*
X31260236Y-77144645D01*
X31260236Y-77144645D02*
X31331517Y-77197357D01*
X31331517Y-77197357D02*
X31395947Y-77245049D01*
X31395947Y-77245049D02*
X31418167Y-77261511D01*
X31418167Y-77261511D02*
X31468759Y-77298938D01*
X31468759Y-77298938D02*
X31517333Y-77334746D01*
X31517333Y-77334746D02*
X31561467Y-77367160D01*
X31561467Y-77367160D02*
X31598738Y-77394403D01*
X31598738Y-77394403D02*
X31626722Y-77414698D01*
X31626722Y-77414698D02*
X31640492Y-77424525D01*
X31640492Y-77424525D02*
X31669947Y-77448138D01*
X31669947Y-77448138D02*
X31686919Y-77469927D01*
X31686919Y-77469927D02*
X31692990Y-77485400D01*
X31692990Y-77485400D02*
X31695925Y-77497264D01*
X31695925Y-77497264D02*
X31700627Y-77516733D01*
X31700627Y-77516733D02*
X31477438Y-77516733D01*
X31477438Y-77516733D02*
X31470752Y-77508062D01*
X31470752Y-77508062D02*
X31437011Y-77481622D01*
X31437011Y-77481622D02*
X31392365Y-77447518D01*
X31392365Y-77447518D02*
X31337756Y-77406424D01*
X31337756Y-77406424D02*
X31274123Y-77359017D01*
X31274123Y-77359017D02*
X31202407Y-77305973D01*
X31202407Y-77305973D02*
X31123548Y-77247966D01*
X31123548Y-77247966D02*
X31038488Y-77185672D01*
X31038488Y-77185672D02*
X30948166Y-77119768D01*
X30948166Y-77119768D02*
X30853523Y-77050928D01*
X30853523Y-77050928D02*
X30755500Y-76979828D01*
X30755500Y-76979828D02*
X30655037Y-76907144D01*
X30655037Y-76907144D02*
X30553074Y-76833551D01*
X30553074Y-76833551D02*
X30450552Y-76759725D01*
X30450552Y-76759725D02*
X30348412Y-76686342D01*
X30348412Y-76686342D02*
X30247593Y-76614076D01*
X30247593Y-76614076D02*
X30149037Y-76543605D01*
X30149037Y-76543605D02*
X30053684Y-76475602D01*
X30053684Y-76475602D02*
X29962474Y-76410745D01*
X29962474Y-76410745D02*
X29876348Y-76349708D01*
X29876348Y-76349708D02*
X29796246Y-76293167D01*
X29796246Y-76293167D02*
X29723109Y-76241798D01*
X29723109Y-76241798D02*
X29657877Y-76196276D01*
X29657877Y-76196276D02*
X29601492Y-76157277D01*
X29601492Y-76157277D02*
X29554892Y-76125476D01*
X29554892Y-76125476D02*
X29519019Y-76101549D01*
X29519019Y-76101549D02*
X29494814Y-76086172D01*
X29494814Y-76086172D02*
X29483216Y-76080020D01*
X29483216Y-76080020D02*
X29482676Y-76079934D01*
X29482676Y-76079934D02*
X29477912Y-76087358D01*
X29477912Y-76087358D02*
X29472824Y-76105786D01*
X29472824Y-76105786D02*
X29471691Y-76111684D01*
X29471691Y-76111684D02*
X29468524Y-76138664D01*
X29468524Y-76138664D02*
X29465647Y-76181041D01*
X29465647Y-76181041D02*
X29463078Y-76237279D01*
X29463078Y-76237279D02*
X29460837Y-76305844D01*
X29460837Y-76305844D02*
X29458942Y-76385201D01*
X29458942Y-76385201D02*
X29457412Y-76473814D01*
X29457412Y-76473814D02*
X29456265Y-76570150D01*
X29456265Y-76570150D02*
X29455521Y-76672673D01*
X29455521Y-76672673D02*
X29455199Y-76779848D01*
X29455199Y-76779848D02*
X29455316Y-76890141D01*
X29455316Y-76890141D02*
X29455893Y-77002016D01*
X29455893Y-77002016D02*
X29456946Y-77113939D01*
X29456946Y-77113939D02*
X29458258Y-77209633D01*
X29458258Y-77209633D02*
X29459749Y-77306416D01*
X29459749Y-77306416D02*
X29461161Y-77403111D01*
X29461161Y-77403111D02*
X29462465Y-77497496D01*
X29462465Y-77497496D02*
X29463635Y-77587354D01*
X29463635Y-77587354D02*
X29464643Y-77670464D01*
X29464643Y-77670464D02*
X29465462Y-77744606D01*
X29465462Y-77744606D02*
X29466065Y-77807562D01*
X29466065Y-77807562D02*
X29466423Y-77857113D01*
X29466423Y-77857113D02*
X29466509Y-77879100D01*
X29466509Y-77879100D02*
X29466839Y-78048433D01*
X29466839Y-78048433D02*
X29486572Y-78058775D01*
X29486572Y-78058775D02*
X29280334Y-78058775D01*
X29280334Y-78058775D02*
X29280252Y-77401671D01*
X29280252Y-77401671D02*
X29280060Y-77240212D01*
X29280060Y-77240212D02*
X29279507Y-77095067D01*
X29279507Y-77095067D02*
X29278565Y-76965623D01*
X29278565Y-76965623D02*
X29277205Y-76851262D01*
X29277205Y-76851262D02*
X29275398Y-76751371D01*
X29275398Y-76751371D02*
X29273115Y-76665334D01*
X29273115Y-76665334D02*
X29270328Y-76592535D01*
X29270328Y-76592535D02*
X29267007Y-76532360D01*
X29267007Y-76532360D02*
X29263125Y-76484193D01*
X29263125Y-76484193D02*
X29258653Y-76447419D01*
X29258653Y-76447419D02*
X29253561Y-76421423D01*
X29253561Y-76421423D02*
X29247821Y-76405589D01*
X29247821Y-76405589D02*
X29241404Y-76399302D01*
X29241404Y-76399302D02*
X29234282Y-76401947D01*
X29234282Y-76401947D02*
X29233596Y-76402611D01*
X29233596Y-76402611D02*
X29227294Y-76412882D01*
X29227294Y-76412882D02*
X29214762Y-76436597D01*
X29214762Y-76436597D02*
X29196940Y-76471860D01*
X29196940Y-76471860D02*
X29174766Y-76516775D01*
X29174766Y-76516775D02*
X29149181Y-76569445D01*
X29149181Y-76569445D02*
X29121123Y-76627975D01*
X29121123Y-76627975D02*
X29101955Y-76668367D01*
X29101955Y-76668367D02*
X29024025Y-76833662D01*
X29024025Y-76833662D02*
X28947368Y-76997072D01*
X28947368Y-76997072D02*
X28872304Y-77157883D01*
X28872304Y-77157883D02*
X28799151Y-77315383D01*
X28799151Y-77315383D02*
X28728228Y-77468857D01*
X28728228Y-77468857D02*
X28659853Y-77617593D01*
X28659853Y-77617593D02*
X28594346Y-77760877D01*
X28594346Y-77760877D02*
X28532025Y-77897997D01*
X28532025Y-77897997D02*
X28473209Y-78028240D01*
X28473209Y-78028240D02*
X28418217Y-78150891D01*
X28418217Y-78150891D02*
X28367367Y-78265239D01*
X28367367Y-78265239D02*
X28320978Y-78370570D01*
X28320978Y-78370570D02*
X28279369Y-78466171D01*
X28279369Y-78466171D02*
X28242858Y-78551328D01*
X28242858Y-78551328D02*
X28211765Y-78625329D01*
X28211765Y-78625329D02*
X28186407Y-78687461D01*
X28186407Y-78687461D02*
X28167105Y-78737010D01*
X28167105Y-78737010D02*
X28154176Y-78773263D01*
X28154176Y-78773263D02*
X28147939Y-78795507D01*
X28147939Y-78795507D02*
X28147991Y-78802746D01*
X28147991Y-78802746D02*
X28156815Y-78803380D01*
X28156815Y-78803380D02*
X28175161Y-78796734D01*
X28175161Y-78796734D02*
X28203415Y-78782562D01*
X28203415Y-78782562D02*
X28241961Y-78760614D01*
X28241961Y-78760614D02*
X28291184Y-78730645D01*
X28291184Y-78730645D02*
X28351471Y-78692406D01*
X28351471Y-78692406D02*
X28423204Y-78645651D01*
X28423204Y-78645651D02*
X28506771Y-78590132D01*
X28506771Y-78590132D02*
X28602556Y-78525602D01*
X28602556Y-78525602D02*
X28710944Y-78451813D01*
X28710944Y-78451813D02*
X28832320Y-78368518D01*
X28832320Y-78368518D02*
X28943784Y-78291584D01*
X28943784Y-78291584D02*
X29280334Y-78058775D01*
X29280334Y-78058775D02*
X29486572Y-78058775D01*
X29486572Y-78058775D02*
X29693014Y-78166967D01*
X29693014Y-78166967D02*
X29756888Y-78200452D01*
X29756888Y-78200452D02*
X29831900Y-78239793D01*
X29831900Y-78239793D02*
X29914198Y-78282969D01*
X29914198Y-78282969D02*
X29999928Y-78327956D01*
X29999928Y-78327956D02*
X30085238Y-78372735D01*
X30085238Y-78372735D02*
X30166278Y-78415285D01*
X30166278Y-78415285D02*
X30207244Y-78436800D01*
X30207244Y-78436800D02*
X30280777Y-78475273D01*
X30280777Y-78475273D02*
X30357623Y-78515214D01*
X30357623Y-78515214D02*
X30434582Y-78554977D01*
X30434582Y-78554977D02*
X30508456Y-78592917D01*
X30508456Y-78592917D02*
X30576044Y-78627390D01*
X30576044Y-78627390D02*
X30634148Y-78656751D01*
X30634148Y-78656751D02*
X30667985Y-78673640D01*
X30667985Y-78673640D02*
X30840669Y-78759181D01*
X30840669Y-78759181D02*
X30854252Y-78739330D01*
X30854252Y-78739330D02*
X30867850Y-78717560D01*
X30867850Y-78717560D02*
X30888003Y-78682663D01*
X30888003Y-78682663D02*
X30913925Y-78636152D01*
X30913925Y-78636152D02*
X30944834Y-78579538D01*
X30944834Y-78579538D02*
X30979946Y-78514335D01*
X30979946Y-78514335D02*
X31018476Y-78442054D01*
X31018476Y-78442054D02*
X31059641Y-78364208D01*
X31059641Y-78364208D02*
X31102657Y-78282310D01*
X31102657Y-78282310D02*
X31146740Y-78197871D01*
X31146740Y-78197871D02*
X31191106Y-78112404D01*
X31191106Y-78112404D02*
X31234972Y-78027421D01*
X31234972Y-78027421D02*
X31277553Y-77944435D01*
X31277553Y-77944435D02*
X31318066Y-77864958D01*
X31318066Y-77864958D02*
X31355727Y-77790502D01*
X31355727Y-77790502D02*
X31389752Y-77722580D01*
X31389752Y-77722580D02*
X31419357Y-77662704D01*
X31419357Y-77662704D02*
X31443759Y-77612387D01*
X31443759Y-77612387D02*
X31462172Y-77573140D01*
X31462172Y-77573140D02*
X31473815Y-77546476D01*
X31473815Y-77546476D02*
X31477057Y-77537695D01*
X31477057Y-77537695D02*
X31477438Y-77516733D01*
X31477438Y-77516733D02*
X31700627Y-77516733D01*
X31700627Y-77516733D02*
X31702521Y-77524573D01*
X31702521Y-77524573D02*
X31712534Y-77566297D01*
X31712534Y-77566297D02*
X31725718Y-77621404D01*
X31725718Y-77621404D02*
X31741826Y-77688864D01*
X31741826Y-77688864D02*
X31760614Y-77767646D01*
X31760614Y-77767646D02*
X31781835Y-77856720D01*
X31781835Y-77856720D02*
X31805245Y-77955053D01*
X31805245Y-77955053D02*
X31830597Y-78061616D01*
X31830597Y-78061616D02*
X31857647Y-78175377D01*
X31857647Y-78175377D02*
X31886147Y-78295305D01*
X31886147Y-78295305D02*
X31915853Y-78420370D01*
X31915853Y-78420370D02*
X31942675Y-78533344D01*
X31942675Y-78533344D02*
X32180801Y-79536555D01*
X32180801Y-79536555D02*
X31989668Y-79536555D01*
X31989668Y-79536555D02*
X31976720Y-79461361D01*
X31976720Y-79461361D02*
X31964410Y-79392802D01*
X31964410Y-79392802D02*
X31949503Y-79314702D01*
X31949503Y-79314702D02*
X31932317Y-79228429D01*
X31932317Y-79228429D02*
X31913170Y-79135348D01*
X31913170Y-79135348D02*
X31892379Y-79036827D01*
X31892379Y-79036827D02*
X31870262Y-78934234D01*
X31870262Y-78934234D02*
X31847136Y-78828934D01*
X31847136Y-78828934D02*
X31823320Y-78722295D01*
X31823320Y-78722295D02*
X31799132Y-78615684D01*
X31799132Y-78615684D02*
X31774888Y-78510468D01*
X31774888Y-78510468D02*
X31750906Y-78408013D01*
X31750906Y-78408013D02*
X31727505Y-78309688D01*
X31727505Y-78309688D02*
X31705001Y-78216858D01*
X31705001Y-78216858D02*
X31683713Y-78130890D01*
X31683713Y-78130890D02*
X31663958Y-78053153D01*
X31663958Y-78053153D02*
X31646055Y-77985012D01*
X31646055Y-77985012D02*
X31630320Y-77927834D01*
X31630320Y-77927834D02*
X31617071Y-77882987D01*
X31617071Y-77882987D02*
X31606626Y-77851838D01*
X31606626Y-77851838D02*
X31599304Y-77835753D01*
X31599304Y-77835753D02*
X31598734Y-77835000D01*
X31598734Y-77835000D02*
X31589762Y-77829898D01*
X31589762Y-77829898D02*
X31577730Y-77834606D01*
X31577730Y-77834606D02*
X31561138Y-77850444D01*
X31561138Y-77850444D02*
X31538488Y-77878731D01*
X31538488Y-77878731D02*
X31519749Y-77904500D01*
X31519749Y-77904500D02*
X31497126Y-77938083D01*
X31497126Y-77938083D02*
X31468860Y-77983179D01*
X31468860Y-77983179D02*
X31434696Y-78040240D01*
X31434696Y-78040240D02*
X31394375Y-78109717D01*
X31394375Y-78109717D02*
X31347641Y-78192064D01*
X31347641Y-78192064D02*
X31294236Y-78287732D01*
X31294236Y-78287732D02*
X31233905Y-78397175D01*
X31233905Y-78397175D02*
X31166390Y-78520844D01*
X31166390Y-78520844D02*
X31097963Y-78647106D01*
X31097963Y-78647106D02*
X30959387Y-78903567D01*
X30959387Y-78903567D02*
X30943496Y-79045510D01*
X30943496Y-79045510D02*
X30751486Y-79045510D01*
X30751486Y-79045510D02*
X30750719Y-79021332D01*
X30750719Y-79021332D02*
X30746476Y-79003721D01*
X30746476Y-79003721D02*
X30738114Y-78987564D01*
X30738114Y-78987564D02*
X30737474Y-78986541D01*
X30737474Y-78986541D02*
X30714775Y-78959108D01*
X30714775Y-78959108D02*
X30677222Y-78925445D01*
X30677222Y-78925445D02*
X30624680Y-78885455D01*
X30624680Y-78885455D02*
X30557014Y-78839043D01*
X30557014Y-78839043D02*
X30474091Y-78786111D01*
X30474091Y-78786111D02*
X30375775Y-78726564D01*
X30375775Y-78726564D02*
X30364067Y-78719636D01*
X30364067Y-78719636D02*
X30336044Y-78703419D01*
X30336044Y-78703419D02*
X30296950Y-78681276D01*
X30296950Y-78681276D02*
X30248303Y-78654035D01*
X30248303Y-78654035D02*
X30191622Y-78622523D01*
X30191622Y-78622523D02*
X30128426Y-78587569D01*
X30128426Y-78587569D02*
X30060233Y-78550001D01*
X30060233Y-78550001D02*
X29988562Y-78510647D01*
X29988562Y-78510647D02*
X29914931Y-78470335D01*
X29914931Y-78470335D02*
X29840859Y-78429892D01*
X29840859Y-78429892D02*
X29767866Y-78390147D01*
X29767866Y-78390147D02*
X29697468Y-78351928D01*
X29697468Y-78351928D02*
X29631186Y-78316063D01*
X29631186Y-78316063D02*
X29570537Y-78283379D01*
X29570537Y-78283379D02*
X29517040Y-78254704D01*
X29517040Y-78254704D02*
X29472215Y-78230868D01*
X29472215Y-78230868D02*
X29437579Y-78212697D01*
X29437579Y-78212697D02*
X29414651Y-78201019D01*
X29414651Y-78201019D02*
X29404949Y-78196663D01*
X29404949Y-78196663D02*
X29404840Y-78196652D01*
X29404840Y-78196652D02*
X29396510Y-78201210D01*
X29396510Y-78201210D02*
X29375766Y-78214204D01*
X29375766Y-78214204D02*
X29344218Y-78234581D01*
X29344218Y-78234581D02*
X29303474Y-78261285D01*
X29303474Y-78261285D02*
X29255145Y-78293261D01*
X29255145Y-78293261D02*
X29200839Y-78329455D01*
X29200839Y-78329455D02*
X29142373Y-78368673D01*
X29142373Y-78368673D02*
X29108542Y-78391519D01*
X29108542Y-78391519D02*
X29064561Y-78421352D01*
X29064561Y-78421352D02*
X29011695Y-78457304D01*
X29011695Y-78457304D02*
X28951208Y-78498511D01*
X28951208Y-78498511D02*
X28884365Y-78544105D01*
X28884365Y-78544105D02*
X28812430Y-78593221D01*
X28812430Y-78593221D02*
X28736666Y-78644993D01*
X28736666Y-78644993D02*
X28658340Y-78698555D01*
X28658340Y-78698555D02*
X28578714Y-78753041D01*
X28578714Y-78753041D02*
X28499053Y-78807585D01*
X28499053Y-78807585D02*
X28420622Y-78861321D01*
X28420622Y-78861321D02*
X28344684Y-78913383D01*
X28344684Y-78913383D02*
X28272505Y-78962905D01*
X28272505Y-78962905D02*
X28205348Y-79009021D01*
X28205348Y-79009021D02*
X28144478Y-79050865D01*
X28144478Y-79050865D02*
X28091159Y-79087571D01*
X28091159Y-79087571D02*
X28046655Y-79118274D01*
X28046655Y-79118274D02*
X28012232Y-79142106D01*
X28012232Y-79142106D02*
X27989152Y-79158202D01*
X27989152Y-79158202D02*
X27978681Y-79165697D01*
X27978681Y-79165697D02*
X27978401Y-79165919D01*
X27978401Y-79165919D02*
X27980728Y-79174656D01*
X27980728Y-79174656D02*
X27990524Y-79198434D01*
X27990524Y-79198434D02*
X28007727Y-79237127D01*
X28007727Y-79237127D02*
X28032279Y-79290608D01*
X28032279Y-79290608D02*
X28064117Y-79358753D01*
X28064117Y-79358753D02*
X28103182Y-79441434D01*
X28103182Y-79441434D02*
X28149412Y-79538526D01*
X28149412Y-79538526D02*
X28202748Y-79649902D01*
X28202748Y-79649902D02*
X28263128Y-79775436D01*
X28263128Y-79775436D02*
X28330493Y-79915002D01*
X28330493Y-79915002D02*
X28404781Y-80068474D01*
X28404781Y-80068474D02*
X28485932Y-80235727D01*
X28485932Y-80235727D02*
X28573886Y-80416632D01*
X28573886Y-80416632D02*
X28668581Y-80611066D01*
X28668581Y-80611066D02*
X28769957Y-80818900D01*
X28769957Y-80818900D02*
X28877954Y-81040010D01*
X28877954Y-81040010D02*
X28903465Y-81092200D01*
X28903465Y-81092200D02*
X29023249Y-81337323D01*
X29023249Y-81337323D02*
X29135671Y-81567583D01*
X29135671Y-81567583D02*
X29240882Y-81783291D01*
X29240882Y-81783291D02*
X29339033Y-81984759D01*
X29339033Y-81984759D02*
X29430276Y-82172298D01*
X29430276Y-82172298D02*
X29514763Y-82346221D01*
X29514763Y-82346221D02*
X29592644Y-82506839D01*
X29592644Y-82506839D02*
X29664070Y-82654462D01*
X29664070Y-82654462D02*
X29729194Y-82789405D01*
X29729194Y-82789405D02*
X29788167Y-82911976D01*
X29788167Y-82911976D02*
X29841139Y-83022490D01*
X29841139Y-83022490D02*
X29845241Y-83031067D01*
X29845241Y-83031067D02*
X29910356Y-83166547D01*
X29910356Y-83166547D02*
X29968832Y-83286701D01*
X29968832Y-83286701D02*
X30020778Y-83391731D01*
X30020778Y-83391731D02*
X30066302Y-83481841D01*
X30066302Y-83481841D02*
X30105514Y-83557236D01*
X30105514Y-83557236D02*
X30138521Y-83618119D01*
X30138521Y-83618119D02*
X30165433Y-83664694D01*
X30165433Y-83664694D02*
X30186357Y-83697165D01*
X30186357Y-83697165D02*
X30201402Y-83715735D01*
X30201402Y-83715735D02*
X30210678Y-83720609D01*
X30210678Y-83720609D02*
X30212059Y-83719763D01*
X30212059Y-83719763D02*
X30215766Y-83708627D01*
X30215766Y-83708627D02*
X30221194Y-83681483D01*
X30221194Y-83681483D02*
X30228245Y-83639158D01*
X30228245Y-83639158D02*
X30236825Y-83582479D01*
X30236825Y-83582479D02*
X30246836Y-83512273D01*
X30246836Y-83512273D02*
X30258185Y-83429368D01*
X30258185Y-83429368D02*
X30270774Y-83334591D01*
X30270774Y-83334591D02*
X30284508Y-83228769D01*
X30284508Y-83228769D02*
X30299290Y-83112730D01*
X30299290Y-83112730D02*
X30315026Y-82987300D01*
X30315026Y-82987300D02*
X30331619Y-82853307D01*
X30331619Y-82853307D02*
X30348974Y-82711579D01*
X30348974Y-82711579D02*
X30366994Y-82562942D01*
X30366994Y-82562942D02*
X30385584Y-82408224D01*
X30385584Y-82408224D02*
X30404647Y-82248252D01*
X30404647Y-82248252D02*
X30424089Y-82083854D01*
X30424089Y-82083854D02*
X30443813Y-81915856D01*
X30443813Y-81915856D02*
X30463724Y-81745086D01*
X30463724Y-81745086D02*
X30483725Y-81572371D01*
X30483725Y-81572371D02*
X30503721Y-81398539D01*
X30503721Y-81398539D02*
X30523615Y-81224416D01*
X30523615Y-81224416D02*
X30543313Y-81050831D01*
X30543313Y-81050831D02*
X30562717Y-80878609D01*
X30562717Y-80878609D02*
X30581734Y-80708580D01*
X30581734Y-80708580D02*
X30600265Y-80541569D01*
X30600265Y-80541569D02*
X30618216Y-80378404D01*
X30618216Y-80378404D02*
X30635492Y-80219913D01*
X30635492Y-80219913D02*
X30651995Y-80066922D01*
X30651995Y-80066922D02*
X30667630Y-79920259D01*
X30667630Y-79920259D02*
X30682301Y-79780752D01*
X30682301Y-79780752D02*
X30695913Y-79649227D01*
X30695913Y-79649227D02*
X30708370Y-79526511D01*
X30708370Y-79526511D02*
X30719575Y-79413433D01*
X30719575Y-79413433D02*
X30729434Y-79310819D01*
X30729434Y-79310819D02*
X30737849Y-79219496D01*
X30737849Y-79219496D02*
X30744726Y-79140292D01*
X30744726Y-79140292D02*
X30749422Y-79081367D01*
X30749422Y-79081367D02*
X30751486Y-79045510D01*
X30751486Y-79045510D02*
X30943496Y-79045510D01*
X30943496Y-79045510D02*
X30864598Y-79750233D01*
X30864598Y-79750233D02*
X30846103Y-79915274D01*
X30846103Y-79915274D02*
X30827010Y-80085362D01*
X30827010Y-80085362D02*
X30807443Y-80259405D01*
X30807443Y-80259405D02*
X30787526Y-80436307D01*
X30787526Y-80436307D02*
X30767383Y-80614973D01*
X30767383Y-80614973D02*
X30747139Y-80794308D01*
X30747139Y-80794308D02*
X30726918Y-80973219D01*
X30726918Y-80973219D02*
X30706845Y-81150609D01*
X30706845Y-81150609D02*
X30687043Y-81325385D01*
X30687043Y-81325385D02*
X30667638Y-81496452D01*
X30667638Y-81496452D02*
X30648753Y-81662714D01*
X30648753Y-81662714D02*
X30630513Y-81823077D01*
X30630513Y-81823077D02*
X30613043Y-81976446D01*
X30613043Y-81976446D02*
X30596466Y-82121727D01*
X30596466Y-82121727D02*
X30580907Y-82257825D01*
X30580907Y-82257825D02*
X30566490Y-82383644D01*
X30566490Y-82383644D02*
X30553339Y-82498091D01*
X30553339Y-82498091D02*
X30541580Y-82600070D01*
X30541580Y-82600070D02*
X30531336Y-82688487D01*
X30531336Y-82688487D02*
X30522732Y-82762246D01*
X30522732Y-82762246D02*
X30515993Y-82819400D01*
X30515993Y-82819400D02*
X30507290Y-82892629D01*
X30507290Y-82892629D02*
X30498627Y-82965539D01*
X30498627Y-82965539D02*
X30490362Y-83035111D01*
X30490362Y-83035111D02*
X30482854Y-83098327D01*
X30482854Y-83098327D02*
X30476461Y-83152170D01*
X30476461Y-83152170D02*
X30471542Y-83193621D01*
X30471542Y-83193621D02*
X30469855Y-83207845D01*
X30469855Y-83207845D02*
X30463881Y-83267021D01*
X30463881Y-83267021D02*
X30461931Y-83310313D01*
X30461931Y-83310313D02*
X30464023Y-83338286D01*
X30464023Y-83338286D02*
X30470172Y-83351508D01*
X30470172Y-83351508D02*
X30474060Y-83352800D01*
X30474060Y-83352800D02*
X30480058Y-83345043D01*
X30480058Y-83345043D02*
X30491843Y-83322323D01*
X30491843Y-83322323D02*
X30509084Y-83285467D01*
X30509084Y-83285467D02*
X30531454Y-83235302D01*
X30531454Y-83235302D02*
X30558622Y-83172656D01*
X30558622Y-83172656D02*
X30590259Y-83098356D01*
X30590259Y-83098356D02*
X30626035Y-83013229D01*
X30626035Y-83013229D02*
X30665621Y-82918102D01*
X30665621Y-82918102D02*
X30708687Y-82813803D01*
X30708687Y-82813803D02*
X30754904Y-82701158D01*
X30754904Y-82701158D02*
X30803942Y-82580996D01*
X30803942Y-82580996D02*
X30855472Y-82454142D01*
X30855472Y-82454142D02*
X30909164Y-82321424D01*
X30909164Y-82321424D02*
X30964690Y-82183670D01*
X30964690Y-82183670D02*
X31021718Y-82041706D01*
X31021718Y-82041706D02*
X31079921Y-81896361D01*
X31079921Y-81896361D02*
X31138968Y-81748460D01*
X31138968Y-81748460D02*
X31198530Y-81598832D01*
X31198530Y-81598832D02*
X31258277Y-81448303D01*
X31258277Y-81448303D02*
X31317880Y-81297701D01*
X31317880Y-81297701D02*
X31377010Y-81147852D01*
X31377010Y-81147852D02*
X31435336Y-80999585D01*
X31435336Y-80999585D02*
X31492530Y-80853726D01*
X31492530Y-80853726D02*
X31548262Y-80711102D01*
X31548262Y-80711102D02*
X31602202Y-80572541D01*
X31602202Y-80572541D02*
X31654022Y-80438870D01*
X31654022Y-80438870D02*
X31703391Y-80310916D01*
X31703391Y-80310916D02*
X31749979Y-80189507D01*
X31749979Y-80189507D02*
X31793459Y-80075468D01*
X31793459Y-80075468D02*
X31833499Y-79969629D01*
X31833499Y-79969629D02*
X31869771Y-79872815D01*
X31869771Y-79872815D02*
X31901945Y-79785854D01*
X31901945Y-79785854D02*
X31929691Y-79709574D01*
X31929691Y-79709574D02*
X31952681Y-79644801D01*
X31952681Y-79644801D02*
X31963389Y-79613761D01*
X31963389Y-79613761D02*
X31989668Y-79536555D01*
X31989668Y-79536555D02*
X32180801Y-79536555D01*
X32180801Y-79536555D02*
X32184386Y-79551655D01*
X32184386Y-79551655D02*
X31751777Y-80641544D01*
X31751777Y-80641544D02*
X31662641Y-80866059D01*
X31662641Y-80866059D02*
X31579419Y-81075578D01*
X31579419Y-81075578D02*
X31501808Y-81270857D01*
X31501808Y-81270857D02*
X31429504Y-81452652D01*
X31429504Y-81452652D02*
X31362206Y-81621717D01*
X31362206Y-81621717D02*
X31299611Y-81778809D01*
X31299611Y-81778809D02*
X31241416Y-81924683D01*
X31241416Y-81924683D02*
X31187319Y-82060094D01*
X31187319Y-82060094D02*
X31137017Y-82185798D01*
X31137017Y-82185798D02*
X31090208Y-82302551D01*
X31090208Y-82302551D02*
X31046589Y-82411108D01*
X31046589Y-82411108D02*
X31005857Y-82512225D01*
X31005857Y-82512225D02*
X30967710Y-82606657D01*
X30967710Y-82606657D02*
X30931846Y-82695160D01*
X30931846Y-82695160D02*
X30897961Y-82778490D01*
X30897961Y-82778490D02*
X30865753Y-82857401D01*
X30865753Y-82857401D02*
X30834921Y-82932649D01*
X30834921Y-82932649D02*
X30810115Y-82992967D01*
X30810115Y-82992967D02*
X30737158Y-83169465D01*
X30737158Y-83169465D02*
X30669279Y-83332440D01*
X30669279Y-83332440D02*
X30606565Y-83481695D01*
X30606565Y-83481695D02*
X30549103Y-83617032D01*
X30549103Y-83617032D02*
X30496982Y-83738254D01*
X30496982Y-83738254D02*
X30450288Y-83845164D01*
X30450288Y-83845164D02*
X30409109Y-83937563D01*
X30409109Y-83937563D02*
X30373532Y-84015255D01*
X30373532Y-84015255D02*
X30343646Y-84078042D01*
X30343646Y-84078042D02*
X30319537Y-84125727D01*
X30319537Y-84125727D02*
X30301294Y-84158112D01*
X30301294Y-84158112D02*
X30289004Y-84174999D01*
X30289004Y-84174999D02*
X30284876Y-84177605D01*
X30284876Y-84177605D02*
X30277510Y-84170454D01*
X30277510Y-84170454D02*
X30277510Y-84170454D01*
G36*
X31751777Y-80641544D02*
G01*
X31662641Y-80866059D01*
X31579419Y-81075578D01*
X31501808Y-81270857D01*
X31429504Y-81452652D01*
X31362206Y-81621717D01*
X31299611Y-81778809D01*
X31241416Y-81924683D01*
X31187319Y-82060094D01*
X31137017Y-82185798D01*
X31090208Y-82302551D01*
X31046589Y-82411108D01*
X31005857Y-82512225D01*
X30967710Y-82606657D01*
X30931846Y-82695160D01*
X30897961Y-82778490D01*
X30865753Y-82857401D01*
X30834921Y-82932649D01*
X30810115Y-82992967D01*
X30737158Y-83169465D01*
X30669279Y-83332440D01*
X30606565Y-83481695D01*
X30549103Y-83617032D01*
X30496982Y-83738254D01*
X30450288Y-83845164D01*
X30409109Y-83937563D01*
X30373532Y-84015255D01*
X30343646Y-84078042D01*
X30319537Y-84125727D01*
X30301294Y-84158112D01*
X30289004Y-84174999D01*
X30284876Y-84177605D01*
X30277510Y-84170454D01*
X30263124Y-84148736D01*
X30242058Y-84113135D01*
X30214649Y-84064337D01*
X30181237Y-84003024D01*
X30142161Y-83929882D01*
X30097759Y-83845595D01*
X30048369Y-83750846D01*
X29994332Y-83646321D01*
X29935985Y-83532703D01*
X29873667Y-83410677D01*
X29807718Y-83280927D01*
X29738475Y-83144137D01*
X29666277Y-83000992D01*
X29591464Y-82852175D01*
X29514374Y-82698372D01*
X29435345Y-82540266D01*
X29354717Y-82378542D01*
X29272828Y-82213884D01*
X29190017Y-82046977D01*
X29106623Y-81878503D01*
X29022984Y-81709149D01*
X28939440Y-81539598D01*
X28856328Y-81370534D01*
X28773989Y-81202642D01*
X28692759Y-81036605D01*
X28612979Y-80873109D01*
X28534987Y-80712838D01*
X28459121Y-80556475D01*
X28385721Y-80404705D01*
X28315125Y-80258213D01*
X28247672Y-80117682D01*
X28183701Y-79983798D01*
X28123551Y-79857243D01*
X28067559Y-79738703D01*
X28016065Y-79628861D01*
X27969408Y-79528403D01*
X27927927Y-79438012D01*
X27891960Y-79358372D01*
X27861845Y-79290169D01*
X27839555Y-79238000D01*
X27824420Y-79200976D01*
X27815284Y-79175328D01*
X27813244Y-79165919D01*
X27978401Y-79165919D01*
X27980728Y-79174656D01*
X27990524Y-79198434D01*
X28007727Y-79237127D01*
X28032279Y-79290608D01*
X28064117Y-79358753D01*
X28103182Y-79441434D01*
X28149412Y-79538526D01*
X28202748Y-79649902D01*
X28263128Y-79775436D01*
X28330493Y-79915002D01*
X28404781Y-80068474D01*
X28485932Y-80235727D01*
X28573886Y-80416632D01*
X28668581Y-80611066D01*
X28769957Y-80818900D01*
X28877954Y-81040010D01*
X28903465Y-81092200D01*
X29023249Y-81337323D01*
X29135671Y-81567583D01*
X29240882Y-81783291D01*
X29339033Y-81984759D01*
X29430276Y-82172298D01*
X29514763Y-82346221D01*
X29592644Y-82506839D01*
X29664070Y-82654462D01*
X29729194Y-82789405D01*
X29788167Y-82911976D01*
X29841139Y-83022490D01*
X29845241Y-83031067D01*
X29910356Y-83166547D01*
X29968832Y-83286701D01*
X30020778Y-83391731D01*
X30066302Y-83481841D01*
X30105514Y-83557236D01*
X30138521Y-83618119D01*
X30165433Y-83664694D01*
X30186357Y-83697165D01*
X30201402Y-83715735D01*
X30210678Y-83720609D01*
X30212059Y-83719763D01*
X30215766Y-83708627D01*
X30221194Y-83681483D01*
X30228245Y-83639158D01*
X30236825Y-83582479D01*
X30246836Y-83512273D01*
X30258185Y-83429368D01*
X30270774Y-83334591D01*
X30273925Y-83310313D01*
X30461931Y-83310313D01*
X30464023Y-83338286D01*
X30470172Y-83351508D01*
X30474060Y-83352800D01*
X30480058Y-83345043D01*
X30491843Y-83322323D01*
X30509084Y-83285467D01*
X30531454Y-83235302D01*
X30558622Y-83172656D01*
X30590259Y-83098356D01*
X30626035Y-83013229D01*
X30665621Y-82918102D01*
X30708687Y-82813803D01*
X30754904Y-82701158D01*
X30803942Y-82580996D01*
X30855472Y-82454142D01*
X30909164Y-82321424D01*
X30964690Y-82183670D01*
X31021718Y-82041706D01*
X31079921Y-81896361D01*
X31138968Y-81748460D01*
X31198530Y-81598832D01*
X31258277Y-81448303D01*
X31317880Y-81297701D01*
X31377010Y-81147852D01*
X31435336Y-80999585D01*
X31492530Y-80853726D01*
X31548262Y-80711102D01*
X31602202Y-80572541D01*
X31654022Y-80438870D01*
X31703391Y-80310916D01*
X31749979Y-80189507D01*
X31793459Y-80075468D01*
X31833499Y-79969629D01*
X31869771Y-79872815D01*
X31901945Y-79785854D01*
X31929691Y-79709574D01*
X31952681Y-79644801D01*
X31963389Y-79613761D01*
X31989668Y-79536555D01*
X31976720Y-79461361D01*
X31964410Y-79392802D01*
X31949503Y-79314702D01*
X31932317Y-79228429D01*
X31913170Y-79135348D01*
X31892379Y-79036827D01*
X31870262Y-78934234D01*
X31847136Y-78828934D01*
X31823320Y-78722295D01*
X31799132Y-78615684D01*
X31774888Y-78510468D01*
X31750906Y-78408013D01*
X31727505Y-78309688D01*
X31705001Y-78216858D01*
X31683713Y-78130890D01*
X31663958Y-78053153D01*
X31646055Y-77985012D01*
X31630320Y-77927834D01*
X31617071Y-77882987D01*
X31606626Y-77851838D01*
X31599304Y-77835753D01*
X31598734Y-77835000D01*
X31589762Y-77829898D01*
X31577730Y-77834606D01*
X31561138Y-77850444D01*
X31538488Y-77878731D01*
X31519749Y-77904500D01*
X31497126Y-77938083D01*
X31468860Y-77983179D01*
X31434696Y-78040240D01*
X31394375Y-78109717D01*
X31347641Y-78192064D01*
X31294236Y-78287732D01*
X31233905Y-78397175D01*
X31166390Y-78520844D01*
X31097963Y-78647106D01*
X30959387Y-78903567D01*
X30943496Y-79045510D01*
X30864598Y-79750233D01*
X30846103Y-79915274D01*
X30827010Y-80085362D01*
X30807443Y-80259405D01*
X30787526Y-80436307D01*
X30767383Y-80614973D01*
X30747139Y-80794308D01*
X30726918Y-80973219D01*
X30706845Y-81150609D01*
X30687043Y-81325385D01*
X30667638Y-81496452D01*
X30648753Y-81662714D01*
X30630513Y-81823077D01*
X30613043Y-81976446D01*
X30596466Y-82121727D01*
X30580907Y-82257825D01*
X30566490Y-82383644D01*
X30553339Y-82498091D01*
X30541580Y-82600070D01*
X30531336Y-82688487D01*
X30522732Y-82762246D01*
X30515993Y-82819400D01*
X30507290Y-82892629D01*
X30498627Y-82965539D01*
X30490362Y-83035111D01*
X30482854Y-83098327D01*
X30476461Y-83152170D01*
X30471542Y-83193621D01*
X30469855Y-83207845D01*
X30463881Y-83267021D01*
X30461931Y-83310313D01*
X30273925Y-83310313D01*
X30284508Y-83228769D01*
X30299290Y-83112730D01*
X30315026Y-82987300D01*
X30331619Y-82853307D01*
X30348974Y-82711579D01*
X30366994Y-82562942D01*
X30385584Y-82408224D01*
X30404647Y-82248252D01*
X30424089Y-82083854D01*
X30443813Y-81915856D01*
X30463724Y-81745086D01*
X30483725Y-81572371D01*
X30503721Y-81398539D01*
X30523615Y-81224416D01*
X30543313Y-81050831D01*
X30562717Y-80878609D01*
X30581734Y-80708580D01*
X30600265Y-80541569D01*
X30618216Y-80378404D01*
X30635492Y-80219913D01*
X30651995Y-80066922D01*
X30667630Y-79920259D01*
X30682301Y-79780752D01*
X30695913Y-79649227D01*
X30708370Y-79526511D01*
X30719575Y-79413433D01*
X30729434Y-79310819D01*
X30737849Y-79219496D01*
X30744726Y-79140292D01*
X30749422Y-79081367D01*
X30751486Y-79045510D01*
X30750719Y-79021332D01*
X30746476Y-79003721D01*
X30738114Y-78987564D01*
X30737474Y-78986541D01*
X30714775Y-78959108D01*
X30677222Y-78925445D01*
X30624680Y-78885455D01*
X30557014Y-78839043D01*
X30474091Y-78786111D01*
X30375775Y-78726564D01*
X30364067Y-78719636D01*
X30336044Y-78703419D01*
X30296950Y-78681276D01*
X30248303Y-78654035D01*
X30191622Y-78622523D01*
X30128426Y-78587569D01*
X30060233Y-78550001D01*
X29988562Y-78510647D01*
X29914931Y-78470335D01*
X29840859Y-78429892D01*
X29767866Y-78390147D01*
X29697468Y-78351928D01*
X29631186Y-78316063D01*
X29570537Y-78283379D01*
X29517040Y-78254704D01*
X29472215Y-78230868D01*
X29437579Y-78212697D01*
X29414651Y-78201019D01*
X29404949Y-78196663D01*
X29404840Y-78196652D01*
X29396510Y-78201210D01*
X29375766Y-78214204D01*
X29344218Y-78234581D01*
X29303474Y-78261285D01*
X29255145Y-78293261D01*
X29200839Y-78329455D01*
X29142373Y-78368673D01*
X29108542Y-78391519D01*
X29064561Y-78421352D01*
X29011695Y-78457304D01*
X28951208Y-78498511D01*
X28884365Y-78544105D01*
X28812430Y-78593221D01*
X28736666Y-78644993D01*
X28658340Y-78698555D01*
X28578714Y-78753041D01*
X28499053Y-78807585D01*
X28420622Y-78861321D01*
X28344684Y-78913383D01*
X28272505Y-78962905D01*
X28205348Y-79009021D01*
X28144478Y-79050865D01*
X28091159Y-79087571D01*
X28046655Y-79118274D01*
X28012232Y-79142106D01*
X27989152Y-79158202D01*
X27978681Y-79165697D01*
X27978401Y-79165919D01*
X27813244Y-79165919D01*
X27811298Y-79156945D01*
X27811609Y-79141716D01*
X27815369Y-79125531D01*
X27815902Y-79123700D01*
X27824268Y-79099608D01*
X27839326Y-79061146D01*
X27860634Y-79009301D01*
X27887748Y-78945058D01*
X27920225Y-78869404D01*
X27952332Y-78795507D01*
X28147939Y-78795507D01*
X28147991Y-78802746D01*
X28156815Y-78803380D01*
X28175161Y-78796734D01*
X28203415Y-78782562D01*
X28241961Y-78760614D01*
X28291184Y-78730645D01*
X28351471Y-78692406D01*
X28423204Y-78645651D01*
X28506771Y-78590132D01*
X28602556Y-78525602D01*
X28710944Y-78451813D01*
X28832320Y-78368518D01*
X28943784Y-78291584D01*
X29280334Y-78058775D01*
X29280252Y-77401671D01*
X29280060Y-77240212D01*
X29279507Y-77095067D01*
X29278565Y-76965623D01*
X29277205Y-76851262D01*
X29275913Y-76779848D01*
X29455199Y-76779848D01*
X29455316Y-76890141D01*
X29455893Y-77002016D01*
X29456946Y-77113939D01*
X29458258Y-77209633D01*
X29459749Y-77306416D01*
X29461161Y-77403111D01*
X29462465Y-77497496D01*
X29463635Y-77587354D01*
X29464643Y-77670464D01*
X29465462Y-77744606D01*
X29466065Y-77807562D01*
X29466423Y-77857113D01*
X29466509Y-77879100D01*
X29466839Y-78048433D01*
X29486572Y-78058775D01*
X29693014Y-78166967D01*
X29756888Y-78200452D01*
X29831900Y-78239793D01*
X29914198Y-78282969D01*
X29999928Y-78327956D01*
X30085238Y-78372735D01*
X30166278Y-78415285D01*
X30207244Y-78436800D01*
X30280777Y-78475273D01*
X30357623Y-78515214D01*
X30434582Y-78554977D01*
X30508456Y-78592917D01*
X30576044Y-78627390D01*
X30634148Y-78656751D01*
X30667985Y-78673640D01*
X30840669Y-78759181D01*
X30854252Y-78739330D01*
X30867850Y-78717560D01*
X30888003Y-78682663D01*
X30913925Y-78636152D01*
X30944834Y-78579538D01*
X30979946Y-78514335D01*
X31018476Y-78442054D01*
X31059641Y-78364208D01*
X31102657Y-78282310D01*
X31146740Y-78197871D01*
X31191106Y-78112404D01*
X31234972Y-78027421D01*
X31277553Y-77944435D01*
X31318066Y-77864958D01*
X31355727Y-77790502D01*
X31389752Y-77722580D01*
X31419357Y-77662704D01*
X31443759Y-77612387D01*
X31462172Y-77573140D01*
X31473815Y-77546476D01*
X31477057Y-77537695D01*
X31477438Y-77516733D01*
X31470752Y-77508062D01*
X31437011Y-77481622D01*
X31392365Y-77447518D01*
X31337756Y-77406424D01*
X31274123Y-77359017D01*
X31202407Y-77305973D01*
X31123548Y-77247966D01*
X31038488Y-77185672D01*
X30948166Y-77119768D01*
X30853523Y-77050928D01*
X30755500Y-76979828D01*
X30655037Y-76907144D01*
X30553074Y-76833551D01*
X30450552Y-76759725D01*
X30348412Y-76686342D01*
X30247593Y-76614076D01*
X30149037Y-76543605D01*
X30053684Y-76475602D01*
X29962474Y-76410745D01*
X29876348Y-76349708D01*
X29796246Y-76293167D01*
X29723109Y-76241798D01*
X29657877Y-76196276D01*
X29601492Y-76157277D01*
X29554892Y-76125476D01*
X29519019Y-76101549D01*
X29494814Y-76086172D01*
X29483216Y-76080020D01*
X29482676Y-76079934D01*
X29477912Y-76087358D01*
X29472824Y-76105786D01*
X29471691Y-76111684D01*
X29468524Y-76138664D01*
X29465647Y-76181041D01*
X29463078Y-76237279D01*
X29460837Y-76305844D01*
X29458942Y-76385201D01*
X29457412Y-76473814D01*
X29456265Y-76570150D01*
X29455521Y-76672673D01*
X29455199Y-76779848D01*
X29275913Y-76779848D01*
X29275398Y-76751371D01*
X29273115Y-76665334D01*
X29270328Y-76592535D01*
X29267007Y-76532360D01*
X29263125Y-76484193D01*
X29258653Y-76447419D01*
X29253561Y-76421423D01*
X29247821Y-76405589D01*
X29241404Y-76399302D01*
X29234282Y-76401947D01*
X29233596Y-76402611D01*
X29227294Y-76412882D01*
X29214762Y-76436597D01*
X29196940Y-76471860D01*
X29174766Y-76516775D01*
X29149181Y-76569445D01*
X29121123Y-76627975D01*
X29101955Y-76668367D01*
X29024025Y-76833662D01*
X28947368Y-76997072D01*
X28872304Y-77157883D01*
X28799151Y-77315383D01*
X28728228Y-77468857D01*
X28659853Y-77617593D01*
X28594346Y-77760877D01*
X28532025Y-77897997D01*
X28473209Y-78028240D01*
X28418217Y-78150891D01*
X28367367Y-78265239D01*
X28320978Y-78370570D01*
X28279369Y-78466171D01*
X28242858Y-78551328D01*
X28211765Y-78625329D01*
X28186407Y-78687461D01*
X28167105Y-78737010D01*
X28154176Y-78773263D01*
X28147939Y-78795507D01*
X27952332Y-78795507D01*
X27957624Y-78783327D01*
X27999500Y-78687811D01*
X28045411Y-78583845D01*
X28094915Y-78472415D01*
X28147568Y-78354506D01*
X28202928Y-78231106D01*
X28260551Y-78103201D01*
X28319996Y-77971778D01*
X28380818Y-77837823D01*
X28442576Y-77702323D01*
X28504826Y-77566264D01*
X28567125Y-77430633D01*
X28629032Y-77296416D01*
X28690102Y-77164600D01*
X28749893Y-77036172D01*
X28807963Y-76912118D01*
X28823038Y-76880034D01*
X28865216Y-76790949D01*
X28909780Y-76697923D01*
X28955785Y-76602859D01*
X29002283Y-76507656D01*
X29048329Y-76414217D01*
X29092976Y-76324443D01*
X29135277Y-76240236D01*
X29174288Y-76163497D01*
X29209061Y-76096127D01*
X29238651Y-76040029D01*
X29262110Y-75997103D01*
X29264705Y-75992511D01*
X29295088Y-75940804D01*
X29323535Y-75895792D01*
X29348733Y-75859320D01*
X29369373Y-75833235D01*
X29384141Y-75819382D01*
X29388944Y-75817620D01*
X29398818Y-75821499D01*
X29418810Y-75831438D01*
X29440732Y-75843182D01*
X29475747Y-75863806D01*
X29523276Y-75893870D01*
X29582288Y-75932649D01*
X29651755Y-75979418D01*
X29730647Y-76033450D01*
X29817934Y-76094020D01*
X29912589Y-76160403D01*
X30013580Y-76231873D01*
X30119880Y-76307705D01*
X30230458Y-76387173D01*
X30344285Y-76469551D01*
X30460333Y-76554115D01*
X30577571Y-76640138D01*
X30694971Y-76726896D01*
X30704466Y-76733941D01*
X30760003Y-76775117D01*
X30824640Y-76822971D01*
X30893838Y-76874148D01*
X30963056Y-76925289D01*
X31027756Y-76973040D01*
X31054100Y-76992463D01*
X31116645Y-77038590D01*
X31186984Y-77090520D01*
X31260236Y-77144645D01*
X31331517Y-77197357D01*
X31395947Y-77245049D01*
X31418167Y-77261511D01*
X31468759Y-77298938D01*
X31517333Y-77334746D01*
X31561467Y-77367160D01*
X31598738Y-77394403D01*
X31626722Y-77414698D01*
X31640492Y-77424525D01*
X31669947Y-77448138D01*
X31686919Y-77469927D01*
X31692990Y-77485400D01*
X31695925Y-77497264D01*
X31700627Y-77516733D01*
X31702521Y-77524573D01*
X31712534Y-77566297D01*
X31725718Y-77621404D01*
X31741826Y-77688864D01*
X31760614Y-77767646D01*
X31781835Y-77856720D01*
X31805245Y-77955053D01*
X31830597Y-78061616D01*
X31857647Y-78175377D01*
X31886147Y-78295305D01*
X31915853Y-78420370D01*
X31942675Y-78533344D01*
X32180801Y-79536555D01*
X32184386Y-79551655D01*
X31751777Y-80641544D01*
G37*
X31751777Y-80641544D02*
X31662641Y-80866059D01*
X31579419Y-81075578D01*
X31501808Y-81270857D01*
X31429504Y-81452652D01*
X31362206Y-81621717D01*
X31299611Y-81778809D01*
X31241416Y-81924683D01*
X31187319Y-82060094D01*
X31137017Y-82185798D01*
X31090208Y-82302551D01*
X31046589Y-82411108D01*
X31005857Y-82512225D01*
X30967710Y-82606657D01*
X30931846Y-82695160D01*
X30897961Y-82778490D01*
X30865753Y-82857401D01*
X30834921Y-82932649D01*
X30810115Y-82992967D01*
X30737158Y-83169465D01*
X30669279Y-83332440D01*
X30606565Y-83481695D01*
X30549103Y-83617032D01*
X30496982Y-83738254D01*
X30450288Y-83845164D01*
X30409109Y-83937563D01*
X30373532Y-84015255D01*
X30343646Y-84078042D01*
X30319537Y-84125727D01*
X30301294Y-84158112D01*
X30289004Y-84174999D01*
X30284876Y-84177605D01*
X30277510Y-84170454D01*
X30263124Y-84148736D01*
X30242058Y-84113135D01*
X30214649Y-84064337D01*
X30181237Y-84003024D01*
X30142161Y-83929882D01*
X30097759Y-83845595D01*
X30048369Y-83750846D01*
X29994332Y-83646321D01*
X29935985Y-83532703D01*
X29873667Y-83410677D01*
X29807718Y-83280927D01*
X29738475Y-83144137D01*
X29666277Y-83000992D01*
X29591464Y-82852175D01*
X29514374Y-82698372D01*
X29435345Y-82540266D01*
X29354717Y-82378542D01*
X29272828Y-82213884D01*
X29190017Y-82046977D01*
X29106623Y-81878503D01*
X29022984Y-81709149D01*
X28939440Y-81539598D01*
X28856328Y-81370534D01*
X28773989Y-81202642D01*
X28692759Y-81036605D01*
X28612979Y-80873109D01*
X28534987Y-80712838D01*
X28459121Y-80556475D01*
X28385721Y-80404705D01*
X28315125Y-80258213D01*
X28247672Y-80117682D01*
X28183701Y-79983798D01*
X28123551Y-79857243D01*
X28067559Y-79738703D01*
X28016065Y-79628861D01*
X27969408Y-79528403D01*
X27927927Y-79438012D01*
X27891960Y-79358372D01*
X27861845Y-79290169D01*
X27839555Y-79238000D01*
X27824420Y-79200976D01*
X27815284Y-79175328D01*
X27813244Y-79165919D01*
X27978401Y-79165919D01*
X27980728Y-79174656D01*
X27990524Y-79198434D01*
X28007727Y-79237127D01*
X28032279Y-79290608D01*
X28064117Y-79358753D01*
X28103182Y-79441434D01*
X28149412Y-79538526D01*
X28202748Y-79649902D01*
X28263128Y-79775436D01*
X28330493Y-79915002D01*
X28404781Y-80068474D01*
X28485932Y-80235727D01*
X28573886Y-80416632D01*
X28668581Y-80611066D01*
X28769957Y-80818900D01*
X28877954Y-81040010D01*
X28903465Y-81092200D01*
X29023249Y-81337323D01*
X29135671Y-81567583D01*
X29240882Y-81783291D01*
X29339033Y-81984759D01*
X29430276Y-82172298D01*
X29514763Y-82346221D01*
X29592644Y-82506839D01*
X29664070Y-82654462D01*
X29729194Y-82789405D01*
X29788167Y-82911976D01*
X29841139Y-83022490D01*
X29845241Y-83031067D01*
X29910356Y-83166547D01*
X29968832Y-83286701D01*
X30020778Y-83391731D01*
X30066302Y-83481841D01*
X30105514Y-83557236D01*
X30138521Y-83618119D01*
X30165433Y-83664694D01*
X30186357Y-83697165D01*
X30201402Y-83715735D01*
X30210678Y-83720609D01*
X30212059Y-83719763D01*
X30215766Y-83708627D01*
X30221194Y-83681483D01*
X30228245Y-83639158D01*
X30236825Y-83582479D01*
X30246836Y-83512273D01*
X30258185Y-83429368D01*
X30270774Y-83334591D01*
X30273925Y-83310313D01*
X30461931Y-83310313D01*
X30464023Y-83338286D01*
X30470172Y-83351508D01*
X30474060Y-83352800D01*
X30480058Y-83345043D01*
X30491843Y-83322323D01*
X30509084Y-83285467D01*
X30531454Y-83235302D01*
X30558622Y-83172656D01*
X30590259Y-83098356D01*
X30626035Y-83013229D01*
X30665621Y-82918102D01*
X30708687Y-82813803D01*
X30754904Y-82701158D01*
X30803942Y-82580996D01*
X30855472Y-82454142D01*
X30909164Y-82321424D01*
X30964690Y-82183670D01*
X31021718Y-82041706D01*
X31079921Y-81896361D01*
X31138968Y-81748460D01*
X31198530Y-81598832D01*
X31258277Y-81448303D01*
X31317880Y-81297701D01*
X31377010Y-81147852D01*
X31435336Y-80999585D01*
X31492530Y-80853726D01*
X31548262Y-80711102D01*
X31602202Y-80572541D01*
X31654022Y-80438870D01*
X31703391Y-80310916D01*
X31749979Y-80189507D01*
X31793459Y-80075468D01*
X31833499Y-79969629D01*
X31869771Y-79872815D01*
X31901945Y-79785854D01*
X31929691Y-79709574D01*
X31952681Y-79644801D01*
X31963389Y-79613761D01*
X31989668Y-79536555D01*
X31976720Y-79461361D01*
X31964410Y-79392802D01*
X31949503Y-79314702D01*
X31932317Y-79228429D01*
X31913170Y-79135348D01*
X31892379Y-79036827D01*
X31870262Y-78934234D01*
X31847136Y-78828934D01*
X31823320Y-78722295D01*
X31799132Y-78615684D01*
X31774888Y-78510468D01*
X31750906Y-78408013D01*
X31727505Y-78309688D01*
X31705001Y-78216858D01*
X31683713Y-78130890D01*
X31663958Y-78053153D01*
X31646055Y-77985012D01*
X31630320Y-77927834D01*
X31617071Y-77882987D01*
X31606626Y-77851838D01*
X31599304Y-77835753D01*
X31598734Y-77835000D01*
X31589762Y-77829898D01*
X31577730Y-77834606D01*
X31561138Y-77850444D01*
X31538488Y-77878731D01*
X31519749Y-77904500D01*
X31497126Y-77938083D01*
X31468860Y-77983179D01*
X31434696Y-78040240D01*
X31394375Y-78109717D01*
X31347641Y-78192064D01*
X31294236Y-78287732D01*
X31233905Y-78397175D01*
X31166390Y-78520844D01*
X31097963Y-78647106D01*
X30959387Y-78903567D01*
X30943496Y-79045510D01*
X30864598Y-79750233D01*
X30846103Y-79915274D01*
X30827010Y-80085362D01*
X30807443Y-80259405D01*
X30787526Y-80436307D01*
X30767383Y-80614973D01*
X30747139Y-80794308D01*
X30726918Y-80973219D01*
X30706845Y-81150609D01*
X30687043Y-81325385D01*
X30667638Y-81496452D01*
X30648753Y-81662714D01*
X30630513Y-81823077D01*
X30613043Y-81976446D01*
X30596466Y-82121727D01*
X30580907Y-82257825D01*
X30566490Y-82383644D01*
X30553339Y-82498091D01*
X30541580Y-82600070D01*
X30531336Y-82688487D01*
X30522732Y-82762246D01*
X30515993Y-82819400D01*
X30507290Y-82892629D01*
X30498627Y-82965539D01*
X30490362Y-83035111D01*
X30482854Y-83098327D01*
X30476461Y-83152170D01*
X30471542Y-83193621D01*
X30469855Y-83207845D01*
X30463881Y-83267021D01*
X30461931Y-83310313D01*
X30273925Y-83310313D01*
X30284508Y-83228769D01*
X30299290Y-83112730D01*
X30315026Y-82987300D01*
X30331619Y-82853307D01*
X30348974Y-82711579D01*
X30366994Y-82562942D01*
X30385584Y-82408224D01*
X30404647Y-82248252D01*
X30424089Y-82083854D01*
X30443813Y-81915856D01*
X30463724Y-81745086D01*
X30483725Y-81572371D01*
X30503721Y-81398539D01*
X30523615Y-81224416D01*
X30543313Y-81050831D01*
X30562717Y-80878609D01*
X30581734Y-80708580D01*
X30600265Y-80541569D01*
X30618216Y-80378404D01*
X30635492Y-80219913D01*
X30651995Y-80066922D01*
X30667630Y-79920259D01*
X30682301Y-79780752D01*
X30695913Y-79649227D01*
X30708370Y-79526511D01*
X30719575Y-79413433D01*
X30729434Y-79310819D01*
X30737849Y-79219496D01*
X30744726Y-79140292D01*
X30749422Y-79081367D01*
X30751486Y-79045510D01*
X30750719Y-79021332D01*
X30746476Y-79003721D01*
X30738114Y-78987564D01*
X30737474Y-78986541D01*
X30714775Y-78959108D01*
X30677222Y-78925445D01*
X30624680Y-78885455D01*
X30557014Y-78839043D01*
X30474091Y-78786111D01*
X30375775Y-78726564D01*
X30364067Y-78719636D01*
X30336044Y-78703419D01*
X30296950Y-78681276D01*
X30248303Y-78654035D01*
X30191622Y-78622523D01*
X30128426Y-78587569D01*
X30060233Y-78550001D01*
X29988562Y-78510647D01*
X29914931Y-78470335D01*
X29840859Y-78429892D01*
X29767866Y-78390147D01*
X29697468Y-78351928D01*
X29631186Y-78316063D01*
X29570537Y-78283379D01*
X29517040Y-78254704D01*
X29472215Y-78230868D01*
X29437579Y-78212697D01*
X29414651Y-78201019D01*
X29404949Y-78196663D01*
X29404840Y-78196652D01*
X29396510Y-78201210D01*
X29375766Y-78214204D01*
X29344218Y-78234581D01*
X29303474Y-78261285D01*
X29255145Y-78293261D01*
X29200839Y-78329455D01*
X29142373Y-78368673D01*
X29108542Y-78391519D01*
X29064561Y-78421352D01*
X29011695Y-78457304D01*
X28951208Y-78498511D01*
X28884365Y-78544105D01*
X28812430Y-78593221D01*
X28736666Y-78644993D01*
X28658340Y-78698555D01*
X28578714Y-78753041D01*
X28499053Y-78807585D01*
X28420622Y-78861321D01*
X28344684Y-78913383D01*
X28272505Y-78962905D01*
X28205348Y-79009021D01*
X28144478Y-79050865D01*
X28091159Y-79087571D01*
X28046655Y-79118274D01*
X28012232Y-79142106D01*
X27989152Y-79158202D01*
X27978681Y-79165697D01*
X27978401Y-79165919D01*
X27813244Y-79165919D01*
X27811298Y-79156945D01*
X27811609Y-79141716D01*
X27815369Y-79125531D01*
X27815902Y-79123700D01*
X27824268Y-79099608D01*
X27839326Y-79061146D01*
X27860634Y-79009301D01*
X27887748Y-78945058D01*
X27920225Y-78869404D01*
X27952332Y-78795507D01*
X28147939Y-78795507D01*
X28147991Y-78802746D01*
X28156815Y-78803380D01*
X28175161Y-78796734D01*
X28203415Y-78782562D01*
X28241961Y-78760614D01*
X28291184Y-78730645D01*
X28351471Y-78692406D01*
X28423204Y-78645651D01*
X28506771Y-78590132D01*
X28602556Y-78525602D01*
X28710944Y-78451813D01*
X28832320Y-78368518D01*
X28943784Y-78291584D01*
X29280334Y-78058775D01*
X29280252Y-77401671D01*
X29280060Y-77240212D01*
X29279507Y-77095067D01*
X29278565Y-76965623D01*
X29277205Y-76851262D01*
X29275913Y-76779848D01*
X29455199Y-76779848D01*
X29455316Y-76890141D01*
X29455893Y-77002016D01*
X29456946Y-77113939D01*
X29458258Y-77209633D01*
X29459749Y-77306416D01*
X29461161Y-77403111D01*
X29462465Y-77497496D01*
X29463635Y-77587354D01*
X29464643Y-77670464D01*
X29465462Y-77744606D01*
X29466065Y-77807562D01*
X29466423Y-77857113D01*
X29466509Y-77879100D01*
X29466839Y-78048433D01*
X29486572Y-78058775D01*
X29693014Y-78166967D01*
X29756888Y-78200452D01*
X29831900Y-78239793D01*
X29914198Y-78282969D01*
X29999928Y-78327956D01*
X30085238Y-78372735D01*
X30166278Y-78415285D01*
X30207244Y-78436800D01*
X30280777Y-78475273D01*
X30357623Y-78515214D01*
X30434582Y-78554977D01*
X30508456Y-78592917D01*
X30576044Y-78627390D01*
X30634148Y-78656751D01*
X30667985Y-78673640D01*
X30840669Y-78759181D01*
X30854252Y-78739330D01*
X30867850Y-78717560D01*
X30888003Y-78682663D01*
X30913925Y-78636152D01*
X30944834Y-78579538D01*
X30979946Y-78514335D01*
X31018476Y-78442054D01*
X31059641Y-78364208D01*
X31102657Y-78282310D01*
X31146740Y-78197871D01*
X31191106Y-78112404D01*
X31234972Y-78027421D01*
X31277553Y-77944435D01*
X31318066Y-77864958D01*
X31355727Y-77790502D01*
X31389752Y-77722580D01*
X31419357Y-77662704D01*
X31443759Y-77612387D01*
X31462172Y-77573140D01*
X31473815Y-77546476D01*
X31477057Y-77537695D01*
X31477438Y-77516733D01*
X31470752Y-77508062D01*
X31437011Y-77481622D01*
X31392365Y-77447518D01*
X31337756Y-77406424D01*
X31274123Y-77359017D01*
X31202407Y-77305973D01*
X31123548Y-77247966D01*
X31038488Y-77185672D01*
X30948166Y-77119768D01*
X30853523Y-77050928D01*
X30755500Y-76979828D01*
X30655037Y-76907144D01*
X30553074Y-76833551D01*
X30450552Y-76759725D01*
X30348412Y-76686342D01*
X30247593Y-76614076D01*
X30149037Y-76543605D01*
X30053684Y-76475602D01*
X29962474Y-76410745D01*
X29876348Y-76349708D01*
X29796246Y-76293167D01*
X29723109Y-76241798D01*
X29657877Y-76196276D01*
X29601492Y-76157277D01*
X29554892Y-76125476D01*
X29519019Y-76101549D01*
X29494814Y-76086172D01*
X29483216Y-76080020D01*
X29482676Y-76079934D01*
X29477912Y-76087358D01*
X29472824Y-76105786D01*
X29471691Y-76111684D01*
X29468524Y-76138664D01*
X29465647Y-76181041D01*
X29463078Y-76237279D01*
X29460837Y-76305844D01*
X29458942Y-76385201D01*
X29457412Y-76473814D01*
X29456265Y-76570150D01*
X29455521Y-76672673D01*
X29455199Y-76779848D01*
X29275913Y-76779848D01*
X29275398Y-76751371D01*
X29273115Y-76665334D01*
X29270328Y-76592535D01*
X29267007Y-76532360D01*
X29263125Y-76484193D01*
X29258653Y-76447419D01*
X29253561Y-76421423D01*
X29247821Y-76405589D01*
X29241404Y-76399302D01*
X29234282Y-76401947D01*
X29233596Y-76402611D01*
X29227294Y-76412882D01*
X29214762Y-76436597D01*
X29196940Y-76471860D01*
X29174766Y-76516775D01*
X29149181Y-76569445D01*
X29121123Y-76627975D01*
X29101955Y-76668367D01*
X29024025Y-76833662D01*
X28947368Y-76997072D01*
X28872304Y-77157883D01*
X28799151Y-77315383D01*
X28728228Y-77468857D01*
X28659853Y-77617593D01*
X28594346Y-77760877D01*
X28532025Y-77897997D01*
X28473209Y-78028240D01*
X28418217Y-78150891D01*
X28367367Y-78265239D01*
X28320978Y-78370570D01*
X28279369Y-78466171D01*
X28242858Y-78551328D01*
X28211765Y-78625329D01*
X28186407Y-78687461D01*
X28167105Y-78737010D01*
X28154176Y-78773263D01*
X28147939Y-78795507D01*
X27952332Y-78795507D01*
X27957624Y-78783327D01*
X27999500Y-78687811D01*
X28045411Y-78583845D01*
X28094915Y-78472415D01*
X28147568Y-78354506D01*
X28202928Y-78231106D01*
X28260551Y-78103201D01*
X28319996Y-77971778D01*
X28380818Y-77837823D01*
X28442576Y-77702323D01*
X28504826Y-77566264D01*
X28567125Y-77430633D01*
X28629032Y-77296416D01*
X28690102Y-77164600D01*
X28749893Y-77036172D01*
X28807963Y-76912118D01*
X28823038Y-76880034D01*
X28865216Y-76790949D01*
X28909780Y-76697923D01*
X28955785Y-76602859D01*
X29002283Y-76507656D01*
X29048329Y-76414217D01*
X29092976Y-76324443D01*
X29135277Y-76240236D01*
X29174288Y-76163497D01*
X29209061Y-76096127D01*
X29238651Y-76040029D01*
X29262110Y-75997103D01*
X29264705Y-75992511D01*
X29295088Y-75940804D01*
X29323535Y-75895792D01*
X29348733Y-75859320D01*
X29369373Y-75833235D01*
X29384141Y-75819382D01*
X29388944Y-75817620D01*
X29398818Y-75821499D01*
X29418810Y-75831438D01*
X29440732Y-75843182D01*
X29475747Y-75863806D01*
X29523276Y-75893870D01*
X29582288Y-75932649D01*
X29651755Y-75979418D01*
X29730647Y-76033450D01*
X29817934Y-76094020D01*
X29912589Y-76160403D01*
X30013580Y-76231873D01*
X30119880Y-76307705D01*
X30230458Y-76387173D01*
X30344285Y-76469551D01*
X30460333Y-76554115D01*
X30577571Y-76640138D01*
X30694971Y-76726896D01*
X30704466Y-76733941D01*
X30760003Y-76775117D01*
X30824640Y-76822971D01*
X30893838Y-76874148D01*
X30963056Y-76925289D01*
X31027756Y-76973040D01*
X31054100Y-76992463D01*
X31116645Y-77038590D01*
X31186984Y-77090520D01*
X31260236Y-77144645D01*
X31331517Y-77197357D01*
X31395947Y-77245049D01*
X31418167Y-77261511D01*
X31468759Y-77298938D01*
X31517333Y-77334746D01*
X31561467Y-77367160D01*
X31598738Y-77394403D01*
X31626722Y-77414698D01*
X31640492Y-77424525D01*
X31669947Y-77448138D01*
X31686919Y-77469927D01*
X31692990Y-77485400D01*
X31695925Y-77497264D01*
X31700627Y-77516733D01*
X31702521Y-77524573D01*
X31712534Y-77566297D01*
X31725718Y-77621404D01*
X31741826Y-77688864D01*
X31760614Y-77767646D01*
X31781835Y-77856720D01*
X31805245Y-77955053D01*
X31830597Y-78061616D01*
X31857647Y-78175377D01*
X31886147Y-78295305D01*
X31915853Y-78420370D01*
X31942675Y-78533344D01*
X32180801Y-79536555D01*
X32184386Y-79551655D01*
X31751777Y-80641544D01*
M02*
