M48
; DRILL file {KiCad (6.0.2)} date Tue Mar 15 14:21:36 2022
; FORMAT={-:-/ absolute / inch / decimal}
; #@! TF.CreationDate,2022-03-15T14:21:36+03:00
; #@! TF.GenerationSoftware,Kicad,Pcbnew,(6.0.2)
; #@! TF.FileFunction,NonPlated,1,2,NPTH
FMAT,2
INCH
; #@! TA.AperFunction,NonPlated,NPTH,ComponentDrill
T1C0.0200
; #@! TA.AperFunction,NonPlated,NPTH,ComponentDrill
T2C0.0500
; #@! TA.AperFunction,NonPlated,NPTH,ComponentDrill
T3C0.0866
%
G90
G05
T3
X1.1024Y-2.8346
X1.1024Y-3.5039
T1
G00X1.4212Y-2.9069
M15
G01X1.4212Y-3.0669
M16
G05
G00X1.4212Y-3.2769
M15
G01X1.4212Y-3.4369
M16
G05
G00X1.4212Y-3.0669
M15
G01X1.4537Y-3.0669
M16
G05
G00X1.4212Y-3.2769
M15
G01X1.4537Y-3.2769
M16
G05
G00X1.4537Y-3.0669
M15
G01X1.4537Y-3.2769
M16
G05
G00X1.4218Y-2.9069
M15
G01X2.0158Y-2.9069
M16
G05
G00X1.4218Y-3.4369
M15
G01X2.0158Y-3.4369
M16
G05
G00X1.9837Y-3.0669
M15
G01X1.9837Y-3.2769
M16
G05
G00X1.9837Y-3.0669
M15
G01X2.0162Y-3.0669
M16
G05
G00X1.9837Y-3.2769
M15
G01X2.0162Y-3.2769
M16
G05
G00X2.0162Y-2.9069
M15
G01X2.0162Y-3.0669
M16
G05
G00X2.0162Y-3.2769
M15
G01X2.0162Y-3.4369
M16
G05
G00X2.1713Y-3.0669
M15
G01X2.1713Y-2.9069
M16
G05
G00X2.1713Y-3.4369
M15
G01X2.1713Y-3.2769
M16
G05
G00X2.2037Y-3.0669
M15
G01X2.1713Y-3.0669
M16
G05
G00X2.2037Y-3.2769
M15
G01X2.1713Y-3.2769
M16
G05
G00X2.2037Y-3.2769
M15
G01X2.2037Y-3.0669
M16
G05
G00X2.7658Y-2.9069
M15
G01X2.1717Y-2.9069
M16
G05
G00X2.7658Y-3.4369
M15
G01X2.1717Y-3.4369
M16
G05
G00X2.7338Y-3.2769
M15
G01X2.7338Y-3.0669
M16
G05
G00X2.7662Y-3.0669
M15
G01X2.7338Y-3.0669
M16
G05
G00X2.7662Y-3.2769
M15
G01X2.7338Y-3.2769
M16
G05
G00X2.7662Y-3.0669
M15
G01X2.7662Y-2.9069
M16
G05
G00X2.7662Y-3.4369
M15
G01X2.7662Y-3.2769
M16
G05
G00X2.9213Y-3.0669
M15
G01X2.9213Y-2.9069
M16
G05
G00X2.9213Y-3.4369
M15
G01X2.9213Y-3.2769
M16
G05
G00X2.9537Y-3.0669
M15
G01X2.9213Y-3.0669
M16
G05
G00X2.9537Y-3.2769
M15
G01X2.9213Y-3.2769
M16
G05
G00X2.9537Y-3.2769
M15
G01X2.9537Y-3.0669
M16
G05
G00X3.5157Y-2.9069
M15
G01X2.9217Y-2.9069
M16
G05
G00X3.5157Y-3.4369
M15
G01X2.9217Y-3.4369
M16
G05
G00X3.4838Y-3.2769
M15
G01X3.4838Y-3.0669
M16
G05
G00X3.5162Y-3.0669
M15
G01X3.4838Y-3.0669
M16
G05
G00X3.5162Y-3.2769
M15
G01X3.4838Y-3.2769
M16
G05
G00X3.5162Y-3.0669
M15
G01X3.5162Y-2.9069
M16
G05
G00X3.5162Y-3.4369
M15
G01X3.5162Y-3.2769
M16
G05
G00X3.6713Y-3.0669
M15
G01X3.6713Y-2.9069
M16
G05
G00X3.6713Y-3.4369
M15
G01X3.6713Y-3.2769
M16
G05
G00X3.7037Y-3.0669
M15
G01X3.6713Y-3.0669
M16
G05
G00X3.7037Y-3.2769
M15
G01X3.6713Y-3.2769
M16
G05
G00X3.7037Y-3.2769
M15
G01X3.7037Y-3.0669
M16
G05
G00X4.2657Y-2.9069
M15
G01X3.6717Y-2.9069
M16
G05
G00X4.2657Y-3.4369
M15
G01X3.6717Y-3.4369
M16
G05
G00X4.2337Y-3.2769
M15
G01X4.2337Y-3.0669
M16
G05
G00X4.2663Y-3.0669
M15
G01X4.2337Y-3.0669
M16
G05
G00X4.2663Y-3.2769
M15
G01X4.2337Y-3.2769
M16
G05
G00X4.2663Y-3.0669
M15
G01X4.2663Y-2.9069
M16
G05
G00X4.2663Y-3.4369
M15
G01X4.2663Y-3.2769
M16
G05
G00X4.4212Y-3.0669
M15
G01X4.4212Y-2.9069
M16
G05
G00X4.4212Y-3.4369
M15
G01X4.4212Y-3.2769
M16
G05
G00X4.4538Y-3.0669
M15
G01X4.4212Y-3.0669
M16
G05
G00X4.4538Y-3.2769
M15
G01X4.4212Y-3.2769
M16
G05
G00X4.4538Y-3.2769
M15
G01X4.4538Y-3.0669
M16
G05
G00X5.0157Y-2.9069
M15
G01X4.4218Y-2.9069
M16
G05
G00X5.0157Y-3.4369
M15
G01X4.4218Y-3.4369
M16
G05
G00X4.9837Y-3.2769
M15
G01X4.9837Y-3.0669
M16
G05
G00X5.0163Y-3.0669
M15
G01X4.9837Y-3.0669
M16
G05
G00X5.0163Y-3.2769
M15
G01X4.9837Y-3.2769
M16
G05
G00X5.0163Y-3.0669
M15
G01X5.0163Y-2.9069
M16
G05
G00X5.0163Y-3.4369
M15
G01X5.0163Y-3.2769
M16
G05
G00X5.1712Y-3.0669
M15
G01X5.1712Y-2.9069
M16
G05
G00X5.1712Y-3.4369
M15
G01X5.1712Y-3.2769
M16
G05
G00X5.2038Y-3.0669
M15
G01X5.1712Y-3.0669
M16
G05
G00X5.2038Y-3.2769
M15
G01X5.1712Y-3.2769
M16
G05
G00X5.2038Y-3.2769
M15
G01X5.2038Y-3.0669
M16
G05
G00X5.7657Y-2.9069
M15
G01X5.1718Y-2.9069
M16
G05
G00X5.7657Y-3.4369
M15
G01X5.1718Y-3.4369
M16
G05
G00X5.7337Y-3.2769
M15
G01X5.7337Y-3.0669
M16
G05
G00X5.7662Y-3.0669
M15
G01X5.7337Y-3.0669
M16
G05
G00X5.7662Y-3.2769
M15
G01X5.7337Y-3.2769
M16
G05
G00X5.7662Y-3.0669
M15
G01X5.7662Y-2.9069
M16
G05
G00X5.7662Y-3.4369
M15
G01X5.7662Y-3.2769
M16
G05
T2
G00X1.6438Y-2.8969
M15
G01X1.7937Y-2.8969
M16
G05
G00X1.6438Y-3.4469
M15
G01X1.7937Y-3.4469
M16
G05
G00X2.5437Y-2.8969
M15
G01X2.3937Y-2.8969
M16
G05
G00X2.5437Y-3.4469
M15
G01X2.3937Y-3.4469
M16
G05
G00X3.2937Y-2.8969
M15
G01X3.1437Y-2.8969
M16
G05
G00X3.2937Y-3.4469
M15
G01X3.1437Y-3.4469
M16
G05
G00X4.0438Y-2.8969
M15
G01X3.8937Y-2.8969
M16
G05
G00X4.0438Y-3.4469
M15
G01X3.8937Y-3.4469
M16
G05
G00X4.7938Y-2.8969
M15
G01X4.6437Y-2.8969
M16
G05
G00X4.7938Y-3.4469
M15
G01X4.6437Y-3.4469
M16
G05
G00X5.5438Y-2.8969
M15
G01X5.3937Y-2.8969
M16
G05
G00X5.5438Y-3.4469
M15
G01X5.3937Y-3.4469
M16
G05
T0
M30
