%TF.GenerationSoftware,KiCad,Pcbnew,(6.0.2)*%
%TF.CreationDate,2022-03-15T14:17:51+03:00*%
%TF.ProjectId,kinesis-80,6b696e65-7369-4732-9d38-302e6b696361,rev?*%
%TF.SameCoordinates,Original*%
%TF.FileFunction,Soldermask,Bot*%
%TF.FilePolarity,Negative*%
%FSLAX46Y46*%
G04 Gerber Fmt 4.6, Leading zero omitted, Abs format (unit mm)*
G04 Created by KiCad (PCBNEW (6.0.2)) date 2022-03-15 14:17:51*
%MOMM*%
%LPD*%
G01*
G04 APERTURE LIST*
G04 Aperture macros list*
%AMRoundRect*
0 Rectangle with rounded corners*
0 $1 Rounding radius*
0 $2 $3 $4 $5 $6 $7 $8 $9 X,Y pos of 4 corners*
0 Add a 4 corners polygon primitive as box body*
4,1,4,$2,$3,$4,$5,$6,$7,$8,$9,$2,$3,0*
0 Add four circle primitives for the rounded corners*
1,1,$1+$1,$2,$3*
1,1,$1+$1,$4,$5*
1,1,$1+$1,$6,$7*
1,1,$1+$1,$8,$9*
0 Add four rect primitives between the rounded corners*
20,1,$1+$1,$2,$3,$4,$5,0*
20,1,$1+$1,$4,$5,$6,$7,0*
20,1,$1+$1,$6,$7,$8,$9,0*
20,1,$1+$1,$8,$9,$2,$3,0*%
G04 Aperture macros list end*
%ADD10C,6.101600*%
%ADD11C,8.701600*%
%ADD12RoundRect,0.050800X-0.900000X-0.900000X0.900000X-0.900000X0.900000X0.900000X-0.900000X0.900000X0*%
%ADD13C,1.901600*%
%ADD14RoundRect,0.250800X-0.450000X0.200000X-0.450000X-0.200000X0.450000X-0.200000X0.450000X0.200000X0*%
%ADD15O,1.401600X0.901600*%
%ADD16RoundRect,0.250800X-0.200000X-0.450000X0.200000X-0.450000X0.200000X0.450000X-0.200000X0.450000X0*%
%ADD17O,0.901600X1.401600*%
%ADD18O,1.301600X2.101600*%
%ADD19C,1.625600*%
%ADD20RoundRect,0.050800X-0.850000X0.850000X-0.850000X-0.850000X0.850000X-0.850000X0.850000X0.850000X0*%
%ADD21O,1.801600X1.801600*%
%ADD22RoundRect,0.300800X-0.450000X0.350000X-0.450000X-0.350000X0.450000X-0.350000X0.450000X0.350000X0*%
%ADD23RoundRect,0.050800X0.850000X-0.850000X0.850000X0.850000X-0.850000X0.850000X-0.850000X-0.850000X0*%
%ADD24C,1.701600*%
%ADD25O,1.701600X1.701600*%
G04 APERTURE END LIST*
D10*
%TO.C,H2*%
X142000000Y-74900000D03*
%TD*%
D11*
%TO.C,H1*%
X142000000Y-106500000D03*
%TD*%
D12*
%TO.C,LED2*%
X135750000Y-134000000D03*
D13*
X138290000Y-134000000D03*
%TD*%
D12*
%TO.C,LED3*%
X145750000Y-134000000D03*
D13*
X148290000Y-134000000D03*
%TD*%
D12*
%TO.C,LED4*%
X155750000Y-134000000D03*
D13*
X158290000Y-134000000D03*
%TD*%
D12*
%TO.C,LED1*%
X125750000Y-134000000D03*
D13*
X128290000Y-134000000D03*
%TD*%
D14*
%TO.C,J1*%
X102000000Y-73000000D03*
D15*
X102000000Y-74250000D03*
X102000000Y-75500000D03*
X102000000Y-76750000D03*
X102000000Y-78000000D03*
X102000000Y-79250000D03*
X102000000Y-80500000D03*
%TD*%
D14*
%TO.C,J2*%
X183000000Y-73000000D03*
D15*
X183000000Y-74250000D03*
X183000000Y-75500000D03*
X183000000Y-76750000D03*
X183000000Y-78000000D03*
X183000000Y-79250000D03*
X183000000Y-80500000D03*
%TD*%
D14*
%TO.C,J3*%
X102000000Y-108000000D03*
D15*
X102000000Y-109250000D03*
X102000000Y-110500000D03*
X102000000Y-111750000D03*
X102000000Y-113000000D03*
X102000000Y-114250000D03*
X102000000Y-115500000D03*
X102000000Y-116750000D03*
X102000000Y-118000000D03*
X102000000Y-119250000D03*
X102000000Y-120500000D03*
%TD*%
D14*
%TO.C,J4*%
X183000000Y-108000000D03*
D15*
X183000000Y-109250000D03*
X183000000Y-110500000D03*
X183000000Y-111750000D03*
X183000000Y-113000000D03*
X183000000Y-114250000D03*
X183000000Y-115500000D03*
X183000000Y-116750000D03*
X183000000Y-118000000D03*
X183000000Y-119250000D03*
X183000000Y-120500000D03*
%TD*%
D16*
%TO.C,J6*%
X164000000Y-120000000D03*
D17*
X165250000Y-120000000D03*
X166500000Y-120000000D03*
X167750000Y-120000000D03*
X169000000Y-120000000D03*
X170250000Y-120000000D03*
X171500000Y-120000000D03*
%TD*%
D18*
%TO.C,U1*%
X158630000Y-99120000D03*
X156090000Y-99120000D03*
X153550000Y-99120000D03*
X151010000Y-99120000D03*
X148470000Y-99120000D03*
X145930000Y-99120000D03*
X143390000Y-99120000D03*
X140850000Y-99120000D03*
X138310000Y-99120000D03*
X135770000Y-99120000D03*
X133230000Y-99120000D03*
X130690000Y-99120000D03*
X128150000Y-99120000D03*
X125610000Y-99120000D03*
X123070000Y-99120000D03*
X120530000Y-99120000D03*
X117990000Y-99120000D03*
X115450000Y-99120000D03*
X112910000Y-99120000D03*
X110370000Y-99120000D03*
X110370000Y-83880000D03*
X112910000Y-83880000D03*
X115450000Y-83880000D03*
X117990000Y-83880000D03*
X120530000Y-83880000D03*
X123070000Y-83880000D03*
X125610000Y-83880000D03*
X128150000Y-83880000D03*
X130690000Y-83880000D03*
X133230000Y-83880000D03*
X135770000Y-83880000D03*
X138310000Y-83880000D03*
X140850000Y-83880000D03*
X143390000Y-83880000D03*
X145930000Y-83880000D03*
X148470000Y-83880000D03*
X151010000Y-83880000D03*
X153550000Y-83880000D03*
X156090000Y-83880000D03*
X158630000Y-83880000D03*
D19*
X114180000Y-95310000D03*
X114180000Y-92770000D03*
X114180000Y-90230000D03*
X114180000Y-87690000D03*
%TD*%
D20*
%TO.C,J8*%
X99840000Y-131030000D03*
D21*
X99840000Y-133570000D03*
X102380000Y-131030000D03*
X102380000Y-133570000D03*
X104920000Y-131030000D03*
X104920000Y-133570000D03*
X107460000Y-131030000D03*
X107460000Y-133570000D03*
%TD*%
D22*
%TO.C,R1*%
X126483000Y-124570000D03*
X126483000Y-126570000D03*
%TD*%
%TO.C,R2*%
X136683000Y-124570000D03*
X136683000Y-126570000D03*
%TD*%
%TO.C,R3*%
X146783000Y-124570000D03*
X146783000Y-126570000D03*
%TD*%
%TO.C,R4*%
X156983000Y-124570000D03*
X156983000Y-126570000D03*
%TD*%
D23*
%TO.C,J7*%
X183480000Y-133570000D03*
D21*
X183480000Y-131030000D03*
X180940000Y-133570000D03*
X180940000Y-131030000D03*
X178400000Y-133570000D03*
X178400000Y-131030000D03*
X175860000Y-133570000D03*
X175860000Y-131030000D03*
%TD*%
D16*
%TO.C,J5*%
X112000000Y-120000000D03*
D17*
X113250000Y-120000000D03*
X114500000Y-120000000D03*
X115750000Y-120000000D03*
X117000000Y-120000000D03*
X118250000Y-120000000D03*
X119500000Y-120000000D03*
%TD*%
D24*
%TO.C,R5*%
X157000000Y-121800000D03*
D25*
X157000000Y-129420000D03*
%TD*%
D24*
%TO.C,R6*%
X146800000Y-121800000D03*
D25*
X146800000Y-129420000D03*
%TD*%
D24*
%TO.C,R7*%
X136600000Y-121800000D03*
D25*
X136600000Y-129420000D03*
%TD*%
D24*
%TO.C,R8*%
X126400000Y-121800000D03*
D25*
X126400000Y-129420000D03*
%TD*%
M02*
